<svg xmlns="http://www.w3.org/2000/svg" viewBox="0 0 566.9 510.2" enable-background="new 0 0 566.9 510.2"><style type="text/css">.st0{fill:#9AD1C4;stroke:#FFFFFF;stroke-miterlimit:10;} .st1{fill:#5490CC;} .st2{fill:#4559A4;} .st3{fill:#5490CC;stroke:#FFFFFF;stroke-width:3;stroke-miterlimit:10;} .st4{fill:#4559A4;stroke:#FFFFFF;stroke-width:3;stroke-miterlimit:10;} .st5{fill:#9AD1C4;stroke:#FFFFFF;stroke-width:3;stroke-miterlimit:10;} .st6{fill:#FFFFFF;}</style><path class="st0" d="M227.5 39.7c-1.9.5-3.8.6-5.5.4-1.7-.2-3.3-.8-4.8-1.8-1.4-.9-2.7-2.2-3.8-3.8-1.1-1.6-1.9-3.6-2.5-5.9-.6-2.3-.7-4.4-.5-6.4.3-2 .8-3.7 1.7-5.2.9-1.5 2-2.8 3.5-3.8 1.4-1 3-1.8 4.8-2.2 1.1-.3 2.2-.5 3.1-.5 1-.1 1.8-.1 2.5 0 .7 0 1.3.1 1.8.2s.8.2 1 .3l-.3 3.4c-.3-.1-.7-.2-1.2-.3-.5-.1-1-.1-1.7-.2h-2l-2.1.3c-1.5.4-2.7.9-3.7 1.7-1 .8-1.8 1.8-2.4 2.9-.6 1.2-.9 2.5-1 3.9-.1 1.5.1 3.1.5 4.7s1 3.1 1.7 4.3c.7 1.2 1.6 2.3 2.6 3 1 .8 2.2 1.3 3.4 1.5 1.3.2 2.7.2 4.2-.2 1.8-.4 3.2-1 4.3-1.7 1.1-.7 1.9-1.2 2.4-1.6l1.8 2.9c-.2.2-.4.4-.9.7-.4.3-1 .7-1.6 1-.7.4-1.5.7-2.4 1.1-.8.7-1.8 1-2.9 1.3zM250 35.5c-1.8.3-3.5.2-4.9-.2-1.4-.4-2.6-1-3.6-1.9-1-.9-1.8-1.9-2.4-3.2-.6-1.3-1-2.7-1.2-4.3l-2.5-17.6 3.9-.6 2.4 17.1c.4 2.8 1.3 4.8 2.7 5.8 1.4 1.1 3.1 1.5 5.1 1.2 1-.1 1.9-.4 2.7-.8.8-.4 1.4-1 1.9-1.7s.8-1.6 1-2.7c.2-1.1.2-2.3 0-3.7l-2.4-17.1 3.9-.6 2.5 17.6c.2 1.6.2 3.1 0 4.5s-.7 2.7-1.4 3.8c-.7 1.1-1.7 2-3 2.8-1.3.8-2.9 1.3-4.7 1.6zM283.6 28.8l.2 3.4-17 .8-1.3-28.3 4-.2 1.1 24.8 13-.5zM302.3 4.4l-.1 3.4-8.9-.2-.6 24.9-4-.1.6-24.9-8.9-.2.1-3.4 21.8.5zM315.5 34.9c-1.8-.2-3.4-.7-4.7-1.4-1.3-.7-2.3-1.6-3-2.7-.7-1.1-1.2-2.3-1.5-3.7-.3-1.4-.3-2.9-.1-4.5l2.2-17.6 3.9.5-2.1 17.2c-.3 2.8 0 4.9 1.1 6.3 1.1 1.4 2.6 2.3 4.6 2.5 1 .1 1.9.1 2.8-.1.9-.2 1.6-.6 2.3-1.2.7-.6 1.2-1.3 1.7-2.3.5-1 .8-2.2.9-3.6l2.2-17.3 3.9.5-2.2 17.6c-.2 1.6-.6 3-1.2 4.3-.6 1.3-1.4 2.4-2.4 3.3-1 .9-2.2 1.5-3.6 1.9-1.3.4-3 .5-4.8.3zM348.4 28.3c.3.6.7 1.4 1.1 2.5.4 1 .9 2.1 1.3 3.3.4 1.2.9 2.5 1.3 3.8.4 1.3.7 2.5 1 3.7l-4.2-1c-.3-1.1-.6-2.3-1-3.5-.4-1.2-.8-2.3-1.2-3.4-.4-1.1-.8-2.1-1.3-3.1-.4-1-.8-1.8-1.2-2.5-.3-.1-.7-.1-1.1-.2l-1.1-.3-3.5-.8-2.5 10.8-3.9-.9 6.3-27.2c1.1 0 2.4.1 3.8.3 1.4.2 2.6.5 3.7.7 3.9.9 6.7 2.3 8.3 4.2 1.7 1.9 2.2 4.3 1.5 7.2-.4 1.8-1.3 3.3-2.5 4.4-1.1 1.2-2.8 1.8-4.8 2zm-2.8-14.3c-1.6-.4-2.9-.6-3.8-.8l-2.4 10.4 2.7.6c1.3.3 2.5.5 3.6.6 1.1.1 2 .1 2.9-.1.8-.2 1.5-.6 2.1-1.2.6-.6 1-1.4 1.2-2.5.2-1 .2-1.9 0-2.7-.2-.8-.7-1.4-1.2-2-.6-.6-1.3-1-2.2-1.4l-2.9-.9zM375.5 49.2v-7.6l-12.1-4.2-4.8 6-3.9-1.4c2-2.5 3.9-4.8 5.6-6.8 1.7-2.1 3.4-4.1 5-5.9 1.6-1.9 3.2-3.6 4.7-5.3 1.5-1.7 3.1-3.3 4.7-4.9l3.4 1.2c.3 2.2.5 4.5.6 6.8.2 2.3.3 4.6.4 7.1.1 2.5.2 5 .3 7.8.1 2.7.1 5.7.2 8.9l-4.1-1.7zm-.1-11.1c0-2.5-.1-5-.2-7.3-.1-2.4-.2-4.7-.4-6.9-1.6 1.6-3.1 3.3-4.7 5.1-1.5 1.8-3.1 3.7-4.7 5.7l10 3.4z"/><path class="st1" d="M39.7 314.1c.5 3.9.2 7.1-1 9.4-1.2 2.3-3.3 3.7-6.3 4.1-1.6.2-3 .1-4.3-.3-1.2-.4-2.3-1.1-3.1-2.1-.9-1-1.6-2.3-2.1-3.8s-.9-3.3-1.2-5.2l-.4-3.1-10.4 1.4-.5-3.9 27.7-3.7c.4 1.1.8 2.3 1 3.6.2 1.2.4 2.5.6 3.6zm-3.4.8c-.2-1.7-.4-2.9-.6-3.8l-11 1.5.4 3c.2 1.3.4 2.5.7 3.6.3 1.1.7 1.9 1.3 2.6.5.7 1.2 1.2 1.9 1.5.8.3 1.7.4 2.9.2 1.1-.1 1.9-.5 2.6-1 .6-.5 1.1-1.2 1.5-1.9.3-.8.5-1.6.5-2.6 0-1.1-.1-2.1-.2-3.1zM14.3 336.6l27.6-6.4 3.9 16.8-3.3.8-3-13-8.2 1.9 2.7 11.5-3.2.7-2.8-11.4-9.6 2.2 3.2 14-3.3.8-4-17.9zM35.9 370.2c-.4.6-.9 1.3-1.5 2.2-.6.9-1.3 1.9-2.1 2.9s-1.6 2-2.5 3.1c-.9 1-1.8 1.9-2.7 2.8l-1.4-4.1c.8-.8 1.6-1.7 2.4-2.7.8-.9 1.6-1.9 2.3-2.8.7-.9 1.4-1.8 2-2.7.6-.9 1.1-1.7 1.5-2.3l-.4-1c-.1-.3-.2-.7-.4-1.1l-1.1-3.4-10.5 3.5-1.3-3.8 26.5-8.8c.6 1 1.2 2.1 1.7 3.4.5 1.3 1 2.5 1.3 3.5 1.3 3.8 1.5 6.9.7 9.3-.8 2.4-2.5 4.1-5.4 5.1-1.8.6-3.5.6-5 .1s-2.9-1.6-4.1-3.2zm10.7-9.9c-.5-1.6-1-2.8-1.3-3.6l-10.1 3.4.9 2.7c.4 1.3.9 2.4 1.4 3.4.5 1 1 1.8 1.6 2.4.6.6 1.3 1 2.1 1.1.8.2 1.7.1 2.8-.3 1-.3 1.8-.8 2.3-1.4.5-.6.9-1.3 1.1-2.1.2-.8.2-1.7 0-2.6l-.8-3zM34.6 391.5c1.7 3.8 3.8 5.1 6.4 4 .8-.4 1.4-.8 1.8-1.4.4-.6.7-1.3.9-2 .2-.8.2-1.6.2-2.4l-.1-2.7c-.1-1.1-.1-2.1-.1-3.2 0-1 .2-2 .5-2.8.3-.9.7-1.7 1.3-2.4.6-.7 1.5-1.3 2.6-1.8 2.3-1 4.4-1 6.3 0 2 1 3.5 2.8 4.7 5.6.7 1.6 1.2 3.1 1.4 4.5.2 1.4.3 2.5.1 3.3l-3.5.1c.1-.7.1-1.6-.1-2.8-.1-1.2-.5-2.4-1.1-3.8-.3-.7-.7-1.3-1.1-1.8-.4-.5-.9-1-1.4-1.3-.5-.3-1-.5-1.6-.6-.6-.1-1.2 0-1.8.3-.7.3-1.2.7-1.6 1.2-.4.5-.6 1.1-.7 1.7-.1.7-.2 1.4-.2 2.2 0 .8 0 1.6.1 2.6v3.7c0 1.1-.2 2.2-.5 3.1-.3 1-.8 1.8-1.5 2.6s-1.7 1.4-2.9 1.9c-2.3 1-4.4.9-6.3-.2-1.9-1.1-3.6-3.2-4.9-6.2-.4-1-.8-2-1-2.9-.2-.9-.4-1.8-.5-2.5-.1-.8-.2-1.4-.2-2v-1.4l3.5-.2c-.1.7-.1 1.8.1 3.1 0 1.2.4 2.8 1.2 4.5zM50.8 400c2.1-1.2 4.1-1.9 6.1-2.2 2-.3 3.8-.2 5.5.3 1.7.5 3.2 1.3 4.6 2.4 1.4 1.1 2.5 2.5 3.4 4.1.9 1.6 1.5 3.2 1.7 5 .3 1.7.2 3.4-.3 5.1-.5 1.7-1.3 3.3-2.6 4.8s-2.9 2.9-5 4.1c-2.1 1.2-4.1 1.9-6.1 2.2-2 .3-3.8.2-5.5-.2-1.7-.4-3.2-1.2-4.5-2.3-1.3-1.1-2.5-2.4-3.4-4-.9-1.6-1.5-3.3-1.8-5-.3-1.7-.2-3.5.3-5.1.5-1.7 1.3-3.3 2.6-4.8 1.2-1.8 2.9-3.2 5-4.4zm2 3.7c-1.5.8-2.7 1.8-3.7 2.9-1 1.1-1.7 2.2-2.2 3.4-.5 1.2-.6 2.4-.5 3.7.1 1.3.5 2.5 1.2 3.8.7 1.3 1.6 2.2 2.6 3 1 .7 2.2 1.2 3.4 1.4 1.2.2 2.6.2 4-.2 1.4-.3 2.9-.9 4.4-1.7 1.5-.8 2.7-1.8 3.7-2.9 1-1.1 1.7-2.2 2.2-3.4.5-1.2.6-2.4.5-3.7-.1-1.3-.5-2.5-1.2-3.8-.7-1.3-1.6-2.2-2.6-3-1-.7-2.2-1.2-3.4-1.4-1.2-.2-2.6-.2-4 .2-1.4.2-2.9.8-4.4 1.7zM67.8 452.7c.5-1.1 1-2.3 1.5-3.7.5-1.4 1.1-2.8 1.6-4.3.6-1.5 1.1-3.1 1.6-4.7s1-3.2 1.5-4.7.9-3 1.3-4.4c.4-1.4.7-2.7.9-3.8l-17.8 13.1-2.3-3.1 22.9-16.8 1.9 2.5c-.3 1.8-.8 3.9-1.4 6.1-.6 2.2-1.2 4.5-1.9 6.8s-1.4 4.5-2.1 6.6c-.7 2.1-1.4 4-2.1 5.5l16.8-12.5 2.3 3.1-22.8 16.8-1.9-2.5zM88.4 476.1c.6-1.2 1.2-2.3 1.8-3.4.6-1.1 1.2-2.2 1.8-3.4l-8.7-9.4-7.1 3-2.8-3c2.9-1.2 5.7-2.4 8.2-3.4 2.5-1 4.9-2 7.2-2.9 2.3-.9 4.5-1.7 6.7-2.5 2.1-.8 4.3-1.5 6.5-2.1l2.5 2.7c-.8 2.1-1.7 4.2-2.6 6.3s-1.9 4.2-3 6.4-2.2 4.5-3.4 7c-1.2 2.4-2.6 5.1-4 7.9l-3.1-3.2zm5.2-9.8l3.3-6.6c1-2.1 2-4.2 2.9-6.3-2.1.7-4.3 1.5-6.5 2.3-2.2.9-4.5 1.8-6.8 2.8l7.1 7.8zM102.7 485.7c3.1 2.8 5.6 3.1 7.5 1 .6-.7.9-1.3 1.1-2 .1-.7.1-1.4-.1-2.2-.2-.8-.4-1.5-.8-2.3-.4-.8-.8-1.6-1.3-2.4-.5-1-1-1.9-1.4-2.9-.4-1-.6-1.9-.7-2.8-.1-.9 0-1.8.3-2.7.3-.9.8-1.8 1.6-2.7 1.6-1.8 3.6-2.7 5.7-2.6 2.2.1 4.4 1.1 6.6 3.1 1.3 1.1 2.3 2.3 3.1 3.5.8 1.2 1.3 2.2 1.5 3l-3.1 1.6c-.2-.6-.6-1.5-1.2-2.5s-1.5-2-2.6-3c-.6-.5-1.2-.9-1.8-1.2-.6-.3-1.2-.5-1.8-.6-.6-.1-1.1 0-1.7.2-.6.2-1.1.5-1.5 1-.5.6-.8 1.1-.9 1.7-.1.6-.1 1.2 0 1.9s.4 1.3.7 2.1c.3.7.7 1.5 1.1 2.3.6 1.2 1.1 2.3 1.5 3.3.4 1 .7 2.1.8 3.1.1 1 0 2-.3 3s-.9 2-1.8 3c-1.6 1.8-3.6 2.7-5.8 2.5-2.2-.2-4.6-1.4-7-3.6-.8-.7-1.5-1.5-2.2-2.2-.6-.7-1.1-1.4-1.5-2.1-.4-.6-.7-1.2-1-1.8-.2-.5-.4-.9-.5-1.3l3.1-1.7c.2.7.7 1.6 1.3 2.8.7 1.1 1.7 2.3 3.1 3.5z"/><path class="st2" d="M433.5 480c3.2-2.4 6.1-3.7 8.7-3.7 2.6-.1 4.8 1.1 6.6 3.4 1 1.3 1.6 2.6 1.8 3.9.2 1.3.1 2.5-.3 3.8-.4 1.2-1.2 2.5-2.2 3.7-1.1 1.2-2.4 2.4-4 3.6l-2.5 1.9 6.4 8.4-3.2 2.4-16.9-22.2c.7-.9 1.6-1.8 2.6-2.7 1.1-1 2.1-1.8 3-2.5zm2.3 2.5c-1.3 1-2.3 1.8-3 2.5l6.7 8.8 2.4-1.8c1.1-.8 2-1.6 2.8-2.4.8-.8 1.3-1.6 1.6-2.4.3-.8.5-1.6.3-2.4-.1-.8-.5-1.7-1.2-2.6-.7-.9-1.4-1.5-2.1-1.8-.8-.3-1.6-.4-2.4-.3-.8.1-1.7.4-2.5.8-.9.4-1.7 1-2.6 1.6zM467.7 472.8c.7.1 1.6.2 2.7.4s2.3.4 3.5.8c1.3.3 2.5.6 3.8 1 1.3.4 2.5.8 3.6 1.3l-3.2 2.9c-1.1-.4-2.3-.8-3.4-1.1-1.2-.3-2.4-.6-3.5-.9-1.1-.3-2.2-.5-3.3-.7-1-.2-2-.3-2.8-.4-.2.3-.5.5-.8.8-.3.2-.5.5-.8.8l-2.6 2.4 7.5 8.1-2.9 2.7-19-20.4c.6-1 1.4-1.9 2.4-2.9.9-1 1.8-1.9 2.7-2.7 2.9-2.7 5.6-4.2 8.2-4.5 2.5-.3 4.8.6 6.8 2.8 1.3 1.4 2 2.9 2.2 4.5.3 1.6-.1 3.3-1.1 5.1zm-13.4-5.7c-1.2 1.1-2.2 2.1-2.8 2.7l7.3 7.8 2.1-1.9c1-.9 1.8-1.8 2.6-2.7.7-.8 1.2-1.7 1.5-2.4.3-.8.3-1.6.2-2.4-.2-.8-.7-1.6-1.4-2.4-.7-.8-1.5-1.3-2.3-1.5-.8-.2-1.6-.3-2.3-.1-.8.2-1.6.5-2.4 1-.9.6-1.7 1.2-2.5 1.9zM473.9 463.8c-1.8-1.6-3.2-3.2-4.1-5-.9-1.8-1.5-3.5-1.6-5.3-.1-1.7.1-3.4.7-5.1.6-1.7 1.5-3.2 2.7-4.6 1.2-1.4 2.6-2.5 4.1-3.3 1.5-.8 3.2-1.3 4.9-1.4 1.7-.1 3.5.2 5.4.8 1.9.7 3.7 1.8 5.6 3.4 1.8 1.6 3.2 3.3 4.2 5 .9 1.8 1.5 3.5 1.6 5.2.1 1.7-.1 3.4-.7 5.1-.6 1.6-1.5 3.1-2.7 4.5-1.2 1.4-2.6 2.5-4.1 3.4-1.5.8-3.2 1.3-4.9 1.5-1.7.1-3.6-.1-5.4-.8-2-.7-3.9-1.9-5.7-3.4zm2.7-3.2c1.3 1.1 2.6 2 4 2.6 1.3.6 2.7.9 3.9.9 1.3 0 2.5-.2 3.6-.7 1.2-.5 2.2-1.3 3.1-2.4.9-1.1 1.6-2.2 1.9-3.5.3-1.2.4-2.4.2-3.7-.2-1.2-.7-2.5-1.5-3.7-.8-1.2-1.8-2.4-3.1-3.5s-2.6-2-4-2.6c-1.3-.6-2.7-.9-3.9-.9-1.3 0-2.5.2-3.6.7-1.1.5-2.2 1.3-3.1 2.4-.9 1.1-1.6 2.2-1.9 3.5-.4 1.2-.4 2.5-.2 3.7.2 1.2.7 2.5 1.5 3.7.8 1.2 1.8 2.4 3.1 3.5zM514.2 436.5c-1.1 1.6-2.4 2.9-3.9 3.9s-3 1.6-4.7 1.9c-1.7.3-3.5.1-5.4-.4-1.9-.5-3.8-1.4-5.7-2.8-2-1.3-3.5-2.8-4.6-4.5-1.1-1.6-1.8-3.3-2.2-5-.3-1.7-.3-3.4.1-5.2.4-1.7 1.1-3.3 2.1-4.9.7-1 1.3-1.8 2-2.5s1.3-1.2 1.9-1.7c.6-.4 1.1-.8 1.5-1 .4-.2.7-.4.9-.5l2 2.8c-.3.1-.6.3-1 .6s-.9.6-1.4 1c-.5.4-1 .8-1.5 1.3s-.9 1-1.3 1.6c-.8 1.2-1.4 2.5-1.6 3.8-.2 1.3-.2 2.5.1 3.8.3 1.2.9 2.5 1.8 3.6.9 1.2 2.1 2.2 3.5 3.2s2.8 1.7 4.1 2.1c1.4.5 2.7.6 4 .6 1.3-.1 2.5-.5 3.6-1.1 1.1-.7 2.1-1.7 3-3 1-1.5 1.7-2.9 2.1-4.1.4-1.2.6-2.1.7-2.8l3.3 1c0 .2 0 .6-.2 1.1-.1.5-.3 1.1-.6 1.8s-.6 1.5-1.1 2.4c-.3 1.1-.8 2.1-1.5 3zM521.7 423.7l-24.7-13.7 8.4-15.1 3 1.6-6.5 11.6 7.4 4.1 5.7-10.4 2.9 1.6-5.7 10.4 8.6 4.8 7-12.5 3 1.6-9.1 16zM533.5 394.7c1.7-3.8 1.2-6.2-1.3-7.4-.8-.4-1.6-.5-2.3-.4-.7.1-1.4.3-2.1.7-.7.4-1.3.9-1.9 1.5-.6.6-1.3 1.2-1.9 1.9-.7.8-1.5 1.5-2.3 2.2-.8.7-1.6 1.2-2.4 1.6-.8.4-1.7.6-2.7.6-.9 0-1.9-.2-3-.7-2.3-1-3.7-2.6-4.3-4.7-.6-2.1-.3-4.5.9-7.2.7-1.6 1.5-2.9 2.4-4 .9-1.1 1.7-1.9 2.4-2.3l2.4 2.5c-.6.4-1.2 1-2 1.9-.8.9-1.5 2-2.1 3.4-.3.7-.5 1.4-.6 2-.1.7-.1 1.3 0 1.9.1.6.3 1.1.7 1.6.3.5.8.8 1.4 1.1.7.3 1.3.4 1.9.4.6-.1 1.2-.3 1.8-.6.6-.3 1.2-.8 1.8-1.3.6-.5 1.2-1.1 1.9-1.8.9-.9 1.9-1.7 2.7-2.5.9-.7 1.8-1.3 2.7-1.7.9-.4 1.9-.6 2.9-.6s2.1.3 3.4.8c2.3 1 3.6 2.6 4.1 4.8.5 2.2 0 4.8-1.3 7.8-.5 1-.9 1.9-1.5 2.7-.5.8-1 1.5-1.5 2.1-.5.6-.9 1.1-1.4 1.5-.4.4-.8.7-1 .9l-2.5-2.4c.6-.4 1.3-1.1 2.2-2.1.9-1.2 1.7-2.6 2.5-4.2zM529 376.9c-2.3-.8-4.2-1.8-5.8-3-1.5-1.3-2.7-2.7-3.5-4.2-.8-1.6-1.2-3.2-1.3-5-.1-1.8.2-3.5.7-5.3.6-1.7 1.4-3.3 2.5-4.6 1.1-1.3 2.4-2.4 4-3.2 1.6-.8 3.3-1.2 5.3-1.3 2-.1 4.1.2 6.4 1 2.3.8 4.2 1.8 5.8 3 1.5 1.3 2.7 2.7 3.5 4.2.8 1.5 1.2 3.2 1.3 4.9.1 1.7-.1 3.5-.7 5.2-.6 1.8-1.4 3.3-2.5 4.7-1.1 1.4-2.4 2.5-4 3.2-1.6.8-3.3 1.2-5.3 1.3-2 .2-4.1-.1-6.4-.9zm1.3-3.9c1.6.5 3.2.8 4.7.8s2.8-.2 4-.7c1.2-.5 2.2-1.2 3.1-2.1.9-.9 1.5-2.1 2-3.5.4-1.4.6-2.7.5-3.9-.2-1.3-.6-2.4-1.2-3.5-.7-1.1-1.6-2-2.8-2.9-1.2-.9-2.6-1.5-4.2-2.1-1.6-.5-3.2-.8-4.6-.8-1.5 0-2.8.2-4 .7-1.2.5-2.2 1.2-3.1 2.1-.9.9-1.5 2.1-2 3.4-.4 1.4-.6 2.7-.5 4 .1 1.3.6 2.4 1.2 3.5.7 1.1 1.6 2 2.8 2.9 1 .8 2.4 1.5 4.1 2.1zM551.1 341.5c.9-4-.1-6.4-2.8-7-.8-.2-1.6-.2-2.3.1-.7.2-1.3.6-1.9 1.1-.6.5-1.1 1.1-1.6 1.8s-1 1.5-1.5 2.3c-.6.9-1.2 1.8-1.8 2.6-.6.8-1.3 1.5-2.1 2-.7.5-1.6.9-2.5 1.1-.9.2-1.9.2-3.1-.1-2.4-.5-4.1-1.8-5.1-3.7-1-1.9-1.2-4.4-.5-7.3.4-1.7.9-3.2 1.5-4.5.7-1.3 1.3-2.2 1.8-2.8l2.9 1.9c-.5.5-1 1.2-1.6 2.3-.6 1-1 2.3-1.3 3.7-.2.7-.2 1.5-.2 2.1 0 .7.1 1.3.4 1.8.2.5.5 1 1 1.4.4.4 1 .7 1.6.8.7.2 1.4.2 2 0 .6-.2 1.1-.5 1.6-.9s1-1 1.5-1.6c.5-.6 1-1.3 1.5-2.1.7-1.1 1.5-2.1 2.2-3 .7-.9 1.5-1.6 2.3-2.2.8-.6 1.7-1 2.7-1.2 1-.2 2.2-.2 3.5.1 2.4.5 4.1 1.8 5 3.9.9 2.1 1 4.7.3 7.9-.2 1.1-.5 2.1-.9 3-.3.9-.7 1.7-1.1 2.3-.4.7-.7 1.2-1 1.7-.3.5-.6.8-.8 1.1l-2.9-1.9c.5-.5 1.1-1.4 1.8-2.5.5-.9 1-2.4 1.4-4.2z"/><path class="st3" d="M163.8 408.5l-24.2 26.6c-38.3-34.8-61.8-81.4-68.4-130.5l35.6-4.8c5.5 40.9 25.1 79.7 57 108.7z"/><path class="st4" d="M495.1 321.8l-35.1-7.7c9.1-41.5 3.1-84.6-16.4-121.7l31.8-16.7c23.4 44.4 30.7 96.3 19.7 146.1zM495.1 321.8c-5.2 23.9-14.6 47.3-28.5 69.2-13.8 21.9-31 40.4-50.3 55.4l-22-28.5c16.1-12.5 30.4-27.9 41.9-46.1 11.5-18.2 19.4-37.7 23.8-57.6l35.1 7.6zM394.4 417.8l22 28.5c-40.3 31.2-90.3 46.8-140.5 44.8l1.5-35.9c41.8 1.6 83.4-11.4 117-37.4z"/><path class="st3" d="M277.3 455.2l-1.5 35.9c-36.6-1.4-73.2-12.3-106.4-33.2-10.8-6.8-20.8-14.5-29.9-22.8l24.2-26.6c7.6 6.9 15.9 13.3 24.9 19 27.8 17.4 58.3 26.4 88.7 27.7zM106.8 299.7l-35.6 4.8c-6.5-48.4 3.3-99.3 31.5-143.9l30.4 19.2c-23.5 37.2-31.7 79.6-26.3 119.9z"/><path class="st5" d="M219.3 70.5l10.9 34.2c-38.8 12.4-73.6 37.9-97.1 75.1l-30.4-19.2c28.2-44.5 70.1-75.2 116.6-90.1zM366.5 76.4l-13.7 33.3c-39.9-16.5-83.3-17.5-122.7-5l-10.9-34.2c47.4-15.1 99.5-13.8 147.3 5.9zM475.5 175.6l-31.8 16.7c-14.1-27-35.4-50.7-63-68.2-9-5.7-18.3-10.5-27.8-14.4l13.7-33.3c11.4 4.7 22.6 10.5 33.4 17.3 33 21 58.5 49.5 75.5 81.9z"/><path class="st6" d="M272.6 74.7l-.4-1-.4-1-3.7.3-.3 1.1s-.2.7-.3 1l-1.7.1c.3-1 .5-1.8.8-2.7.2-.8.5-1.6.7-2.3l.7-2.1.7-2 1.5-.1 1 1.8c.3.6.7 1.3 1 2 .3.7.7 1.4 1 2.2.4.8.7 1.6 1.1 2.5l-1.7.2zm-3.1-6.9c-.2.5-.3 1-.5 1.7l-.6 2.1 2.9-.2c-.3-.7-.6-1.4-.9-2-.4-.7-.7-1.2-.9-1.6zM274.8 66.2l1.5-.3.1 2 2.4-.1.1 1.3-2.4.1.1 2.7c0 .5.1.9.3 1.1.2.2.5.3.9.3.3 0 .5-.1.7-.1.2-.1.4-.1.5-.2l.3 1.2c-.2.1-.4.2-.7.3-.3.1-.6.1-1 .2-.5 0-.9 0-1.2-.1-.3-.1-.6-.3-.8-.5-.2-.2-.3-.5-.4-.9-.1-.3-.1-.7-.2-1.2l-.2-5.8zM284.2 69.1c-.1 0-.3-.1-.5-.1s-.5-.1-.8-.1c-.2 0-.3 0-.5.1-.2 0-.3.1-.4.1l.1 5.3h-1.5l-.1-6.3c.3-.1.7-.2 1.1-.3.4-.1.9-.2 1.5-.2h.8c.1 0 .3 0 .4.1l.3.1-.4 1.3zM287.8 67.6c.5 0 .9.1 1.3.2.3.1.6.3.8.5.2.2.4.5.4.8.1.3.1.7.1 1.1v4c-.2.1-.6.1-1.1.2-.5.1-1 .1-1.6.1-.4 0-.8 0-1.1-.1-.3-.1-.6-.2-.8-.4-.2-.2-.4-.4-.5-.7-.1-.3-.2-.6-.2-1s.1-.7.2-1c.2-.3.4-.5.6-.6.3-.2.5-.3.9-.4.3-.1.7-.1 1.1-.1h.5l.6.1v-.3c0-.2 0-.3-.1-.5 0-.2-.1-.3-.2-.4-.1-.1-.2-.2-.4-.3-.2-.1-.4-.1-.7-.1-.4 0-.7 0-1 .1-.3.1-.5.1-.7.2l-.2-1.2c.2-.1.5-.1.9-.2h1.2zm.1 5.7c.5 0 .8 0 1.1-.1v-1.7c-.1 0-.2-.1-.4-.1h-1l-.5.1c-.1.1-.3.2-.3.3-.1.1-.1.3-.1.5 0 .4.1.6.3.8.2.1.5.2.9.2zM292 71.1c0-.5.1-.9.3-1.4.2-.4.4-.8.7-1.1.3-.3.7-.5 1.1-.7.4-.2.9-.2 1.4-.2.6 0 1.2.2 1.8.4l-.4 1.2c-.2-.1-.4-.2-.6-.2-.2-.1-.5-.1-.7-.1-.6 0-1.1.1-1.4.5-.3.4-.5.9-.5 1.6 0 .7.1 1.2.4 1.6.3.4.8.6 1.5.6h.8c.3 0 .5-.1.7-.2l.2 1.3c-.2.1-.4.1-.8.2-.3.1-.7.1-1.1.1-.6 0-1.1-.1-1.5-.3-.4-.2-.7-.5-1-.8-.3-.3-.5-.7-.6-1.1-.2-.4-.3-.9-.3-1.4zM298.1 71.4c0-.5.2-.9.3-1.4.2-.4.4-.8.7-1.1.3-.3.7-.5 1.1-.7.4-.1.9-.2 1.4-.2.6 0 1.2.2 1.8.5l-.4 1.2c-.2-.1-.4-.2-.6-.2-.2-.1-.5-.1-.7-.1-.6 0-1.1.1-1.4.5-.3.4-.5.9-.6 1.6-.1.7.1 1.2.3 1.6.3.4.8.6 1.5.7h.8c.3 0 .5-.1.7-.1v1.3c-.2.1-.4.1-.8.2h-1.1c-.6 0-1.1-.2-1.5-.4-.4-.2-.7-.5-1-.8-.3-.3-.4-.7-.5-1.1 0-.5-.1-1 0-1.5zM305.6 75.4l-1.5-.2.7-6.6 1.5.2-.7 6.6zm1.1-8.5c0 .3-.1.5-.3.7-.2.2-.4.2-.7.2-.3 0-.5-.1-.6-.3-.2-.2-.2-.4-.2-.7 0-.3.1-.5.3-.7.2-.1.4-.2.7-.2.2 0 .5.1.6.3.1.2.2.4.2.7zM313.9 73.1c-.1.5-.2 1-.4 1.4-.2.4-.5.7-.8 1-.3.3-.7.5-1.1.6-.4.1-.9.1-1.3.1-.5-.1-.9-.2-1.3-.4s-.7-.5-.9-.8c-.2-.3-.4-.7-.5-1.2-.1-.4-.1-.9-.1-1.5.1-.5.2-1 .4-1.4.2-.4.5-.7.8-1 .3-.3.7-.5 1.1-.6.4-.1.8-.1 1.3-.1.5.1.9.2 1.2.4.4.2.7.5.9.8.2.3.4.7.5 1.2.3.5.3.9.2 1.5zm-1.5-.2c.1-.7 0-1.2-.2-1.6-.2-.4-.6-.7-1.1-.7-.5-.1-.9.1-1.3.4-.3.3-.5.8-.6 1.5-.1.7 0 1.2.2 1.6.2.4.6.7 1.1.7.5.1.9-.1 1.3-.4.3-.4.5-.9.6-1.5zm.8-6l-2.3 1.7-.7-.8 2.1-2 .9 1.1zM316 70.3c.3 0 .7-.1 1.2-.1s1 .1 1.6.1c.5.1 1 .2 1.3.4.3.2.6.5.8.8.2.3.3.6.3 1s0 .8-.1 1.2l-.6 3.7-1.5-.2.6-3.4c.1-.4.1-.7.1-.9 0-.3 0-.5-.1-.6-.1-.2-.2-.3-.4-.4-.2-.1-.4-.2-.6-.2l-.6-.1h-.5l-.9 5.3-1.5-.2.9-6.4zM269.5 90.7c-.3.1-.7.2-1.1.4l-1.4.3c-.5 0-1 0-1.4-.1-.4-.1-.8-.3-1.1-.6-.3-.3-.6-.6-.8-1-.2-.4-.3-.9-.4-1.4-.1-.5 0-1 .1-1.4.1-.4.2-.8.5-1.2.2-.3.5-.6.9-.8.3-.2.8-.3 1.2-.4h.9c.3.1.5.1.7.2l-.3-3.2 1.5-.4.7 9.6zm-4.7-2.7c.1.7.3 1.2.6 1.5.4.4.8.5 1.4.4.2 0 .5-.1.6-.1.2 0 .3-.1.4-.1l-.4-3.8c-.1-.1-.3-.2-.6-.2-.2-.1-.5-.1-.7-.1-.6.1-.9.3-1.2.7-.1.5-.2 1.1-.1 1.7zM270.8 87.5c0-.6 0-1.1.2-1.6.2-.4.4-.8.6-1.1.3-.3.6-.5 1-.7.4-.2.7-.3 1.1-.3.9-.1 1.6.2 2.2.7.5.5.8 1.4.9 2.5v.6l-4.4.2c.1.5.3.9.6 1.2.4.3.8.4 1.5.4.4 0 .7-.1 1-.2.3-.1.5-.2.7-.3l.3 1.2c-.1 0-.2.1-.3.2-.1.1-.3.1-.5.2s-.4.1-.6.1c-.2 0-.4.1-.7.1-.6 0-1.1 0-1.5-.2-.4-.2-.8-.4-1.1-.7s-.5-.6-.7-1.1c-.2-.2-.3-.7-.3-1.2zm4.4-.9l-.1-.6-.3-.5-.4-.3c-.2-.1-.4-.1-.6-.1-.2 0-.4.1-.6.2-.2.1-.3.2-.4.4l-.3.5c-.1.2-.1.4-.1.6l2.8-.2zM281.2 82l1.5-.3v2h2.4v1.3h-2.4l.1 2.7c0 .5.1.9.3 1.1.2.2.5.3.9.3.3 0 .5 0 .7-.1.2-.1.4-.1.5-.2l.3 1.2c-.2.1-.4.2-.7.3-.3.1-.6.1-1 .1-.5 0-.9 0-1.2-.2-.3-.1-.6-.3-.8-.5-.2-.2-.3-.5-.4-.9-.1-.3-.1-.7-.1-1.2l-.1-5.6zM289.1 83.6c.5 0 .9.1 1.3.2.3.1.6.3.8.6.2.2.3.5.4.8.1.3.1.7.1 1.1l-.1 4c-.2 0-.6.1-1.1.2-.5.1-1 .1-1.6.1-.4 0-.8-.1-1.1-.1-.3-.1-.6-.2-.8-.4-.2-.2-.4-.4-.5-.7-.1-.3-.2-.6-.2-1s.1-.7.2-1c.2-.3.4-.5.6-.6.3-.2.6-.3.9-.3.3-.1.7-.1 1.1-.1h.5l.6.1v-.3c0-.2 0-.3-.1-.5 0-.2-.1-.3-.2-.4-.1-.1-.2-.2-.4-.3-.2-.1-.4-.1-.7-.1-.4 0-.7 0-1 .1-.3 0-.5.1-.7.2l-.2-1.2c.2-.1.5-.1.9-.2.5-.2.9-.2 1.3-.2zm0 5.7h1.1v-1.7c-.1 0-.2-.1-.4-.1s-.3 0-.5-.1h-.5l-.5.1c-.1.1-.3.2-.3.3-.1.1-.1.3-.1.5 0 .4.1.6.3.8.2.1.5.2.9.2zM295.7 90.8c-.5 0-.8-.1-1.1-.2-.3-.1-.5-.3-.7-.4-.2-.2-.3-.4-.3-.7-.1-.3-.1-.6-.1-.9l.4-7.6 1.6-.2-.4 7.6v.5l.1.3c.1.1.2.2.3.2.1.1.3.1.5.1l-.3 1.3zM297 87.4c0-.6.2-1.1.4-1.5.2-.4.5-.8.8-1 .3-.3.7-.5 1-.6.4-.1.8-.2 1.2-.1.9.1 1.6.4 2.1 1s.7 1.5.6 2.6v.6l-4.4-.4c0 .5.2 1 .5 1.3.3.3.8.5 1.4.6h1c.3 0 .6-.1.7-.2l.1 1.3c-.1 0-.2.1-.4.1l-.5.1h-1.2999999999999998c-.6 0-1.1-.2-1.5-.4-.4-.2-.7-.5-1-.8-.3-.3-.4-.7-.5-1.1-.2-.5-.2-1-.2-1.5zm4.5-.3v-.6c0-.2-.1-.4-.2-.5-.1-.1-.2-.3-.4-.4-.2-.1-.3-.1-.6-.2-.2 0-.4 0-.6.1l-.5.3c-.1.1-.2.3-.3.5l-.2.6 2.8.2zM305.1 84.9c.3-.1.7-.1 1.2-.1s1 0 1.6.1c.5.1 1 .2 1.3.4.3.2.6.4.8.7.2.3.3.6.3 1v1.2l-.4 3.7-1.5-.2.4-3.5c0-.4.1-.7 0-.9 0-.3-.1-.5-.2-.6-.1-.2-.2-.3-.4-.4-.2-.1-.4-.2-.6-.2h-1.1l-.6 5.3-1.5-.2.7-6.3zM312.8 83.9h1.6l-.3 2 2.3.4-.2 1.3-2.3-.4-.4 2.7c-.1.5-.1.9.1 1.2.1.2.4.4.8.5.3 0 .5.1.7 0 .2 0 .4-.1.5-.1l.1 1.2c-.2 0-.4.1-.7.1h-1c-.5-.1-.9-.2-1.1-.4-.3-.2-.5-.4-.7-.7l-.3-.9c0-.3 0-.7.1-1.2l.8-5.7zM323.2 90.9c-.1.5-.3 1-.5 1.4-.2.4-.5.7-.8 1-.3.2-.7.4-1.1.5-.4.1-.9.1-1.3 0-.5-.1-.9-.3-1.2-.5-.3-.2-.6-.5-.9-.9-.2-.4-.4-.8-.4-1.2-.1-.5-.1-.9 0-1.5.1-.5.3-1 .5-1.4.2-.4.5-.7.9-1 .3-.2.7-.4 1.1-.5.4-.1.9-.1 1.3 0 .5.1.9.2 1.2.5.4.2.6.5.9.9.2.4.4.8.4 1.2 0 .5 0 1-.1 1.5zm-1.6-.3c.1-.6.1-1.2-.1-1.6-.2-.4-.6-.7-1.1-.8-.5-.1-.9 0-1.3.3-.3.3-.6.8-.7 1.5-.1.7-.1 1.2.1 1.6.2.4.6.7 1.1.8.5.1.9 0 1.3-.4.4-.3.6-.7.7-1.4zM96.4 356.5c-.5.2-.9.3-1.4.3-.4 0-.8-.1-1.2-.2-.4-.2-.7-.4-1-.7-.3-.3-.5-.7-.7-1.2-.2-.5-.3-.9-.4-1.3-.1-.4-.1-.8-.2-1.1l8.3-3.3.8 1.3-3.1 1.2.5.5c.2.2.3.4.4.7.2.4.2.8.2 1.2 0 .4-.1.7-.3 1.1-.2.3-.4.6-.8.9-.3.2-.7.4-1.1.6zm-.6-1.4c.6-.2 1-.5 1.2-.9.2-.4.3-.8.1-1.3-.1-.2-.2-.4-.4-.6-.1-.2-.3-.3-.4-.4l-3.4 1.3c0 .1 0 .2.1.4 0 .2.1.3.2.6.2.5.5.8 1 1 .5.1 1 .1 1.6-.1zM94.7 360.6l-.6-1.3 5.8-2.5.6 1.3-5.8 2.5zm7.6-3.1c-.3.1-.5.1-.7 0-.2-.1-.4-.3-.5-.5-.1-.2-.1-.5 0-.7.1-.2.2-.4.5-.5.3-.1.5-.1.7 0 .2.1.4.3.5.5.1.2.1.4 0 .7-.1.2-.3.4-.5.5zM98.2 360.8c.5-.2 1-.4 1.4-.4.5 0 .9 0 1.2.2.4.1.7.3 1 .6.3.3.5.6.6.9.4.8.4 1.5.1 2.2-.3.7-.9 1.2-1.9 1.7-.1 0-.2.1-.2.1l-.3.1-1.7-3.8c-.4.2-.7.6-.9 1-.1.4-.1.9.2 1.4.1.3.3.6.5.8.2.2.3.4.5.5l-1 .7-.3-.2c-.1-.1-.2-.2-.3-.4l-.3-.5-.3-.6c-.2-.5-.4-1-.4-1.4 0-.4 0-.8.2-1.2.2-.4.4-.7.7-1l1.2-.7zm2.4 3.6l.5-.3.3-.4c.1-.2.1-.3.1-.5s0-.4-.1-.6c-.1-.2-.2-.4-.4-.5-.1-.1-.3-.2-.5-.3-.2 0-.4-.1-.5-.1-.2 0-.4.1-.5.1l1.1 2.6zM104 366.3c.2.2.4.5.7.9.3.4.5.8.8 1.3.2.5.4.9.4 1.3s0 .7-.2 1c-.1.3-.3.6-.6.8-.3.2-.6.5-1 .6l-3.2 1.6-.7-1.3 3-1.5.7-.4c.2-.1.3-.3.4-.5.1-.2.1-.3.1-.5s-.1-.4-.2-.6l-.3-.5c-.1-.2-.2-.3-.3-.4l-4.6 2.3-.7-1.3 5.7-2.8zM104.4 373.8c.5-.3 1-.4 1.4-.5.4-.1.9 0 1.2.1.4.1.7.3 1 .5.3.2.5.5.7.8.4.8.5 1.5.3 2.2-.2.7-.8 1.3-1.8 1.8-.1 0-.2.1-.2.1-.1 0-.2.1-.2.1l-2-3.7c-.4.3-.7.6-.8 1-.1.4 0 .9.3 1.4.2.3.4.6.6.8l.5.5-1 .7-.3-.2c-.1-.1-.2-.2-.3-.4-.1-.1-.2-.3-.4-.5-.1-.2-.2-.4-.3-.5-.3-.5-.4-1-.5-1.4-.1-.4 0-.8.1-1.2.1-.4.3-.7.6-1 .4-.1.7-.4 1.1-.6zm2.7 3.4l.5-.3.3-.4c.1-.2.1-.3.1-.5s-.1-.4-.2-.6c-.1-.2-.2-.3-.4-.5-.2-.1-.3-.2-.5-.2h-.5c-.2 0-.4.1-.5.1l1.2 2.4zM107 382.7c.2.3.4.6.5.7.2.1.4.1.5 0 .2-.1.3-.3.3-.5s0-.6-.1-1c-.1-.3-.1-.5-.1-.8v-.7c0-.2.1-.4.3-.6.1-.2.3-.4.6-.5.5-.3 1-.3 1.5-.1.5.2.9.6 1.3 1.2.2.3.3.6.5 1 .1.3.2.6.2.8l-1.2.4-.1-.6c-.1-.2-.2-.5-.4-.8-.2-.3-.3-.4-.5-.6-.2-.1-.4-.1-.5 0-.1.1-.2.1-.2.2-.1.1-.1.2-.1.3v.4c0 .2 0 .3.1.6.1.4.1.7.1 1 0 .3 0 .5-.1.7l-.3.6c-.1.2-.3.3-.6.5-.5.3-1 .3-1.5.1-.5-.2-1-.7-1.4-1.4-.3-.5-.5-.9-.6-1.2-.1-.3-.2-.6-.2-.7l1.2-.4c0 .2.1.5.2.8.3-.1.5.2.6.6zM115 382.5l1 1.1-1.6 1 1.2 1.9-1 .6-1.2-1.9-2.2 1.4c-.4.3-.7.5-.8.8-.1.2 0 .5.2.9l.4.6.4.3-.9.8-.5-.4c-.2-.2-.4-.4-.6-.8-.2-.4-.4-.7-.4-1.1-.1-.3 0-.6.1-.9.1-.3.3-.5.5-.8.2-.2.5-.5.9-.7l4.5-2.8zM117.7 389.4c.3.4.4.8.5 1.1.1.3.1.7 0 .9-.1.3-.2.5-.4.8-.2.2-.5.5-.8.7l-3.2 2.1c-.2-.2-.4-.4-.7-.8-.3-.3-.6-.8-.9-1.2-.2-.3-.4-.6-.5-.9-.1-.3-.2-.6-.2-.9 0-.3.1-.5.2-.8.1-.2.4-.5.7-.7.3-.2.6-.3.9-.3.3 0 .6 0 .8.1.3.1.5.3.8.5.2.2.4.5.6.8l.3.4c.1.2.2.3.2.5l.2-.1.4-.3c.1-.1.2-.3.2-.4v-.5c0-.2-.1-.4-.3-.6-.2-.3-.4-.5-.6-.7l-.5-.5.9-.8c.2.1.4.3.6.6.3.4.6.7.8 1zm-4.5 3.1c.2.4.5.6.6.8l1.3-.9-.1-.3c-.1-.1-.1-.3-.3-.4l-.3-.4c-.1-.1-.2-.2-.4-.3-.1-.1-.3-.1-.4-.1-.1 0-.3 0-.4.1-.3.2-.4.4-.4.7.1.2.2.5.4.8zM121.1 396.8c0-.1-.1-.3-.2-.5s-.2-.4-.4-.6l-.3-.4-.3-.3-4.1 3-.9-1.2 4.9-3.5c.2.2.5.4.9.7.3.3.6.6.9 1.1l.2.3.2.3.2.3.1.3-1.2.5zM109.2 353c.2.5.5.8.7 1 .3.2.6.2.9 0 .2-.1.3-.2.4-.3.1-.1.2-.3.2-.5s.1-.4.1-.7v-1.7000000000000002c0-.3.1-.6.2-.8.1-.3.2-.5.4-.7.2-.2.5-.4.8-.5.7-.3 1.3-.3 2 0 .6.3 1.1.9 1.4 1.7.2.5.3.9.4 1.4.1.4.1.8 0 1h-1.3v-1c-.1-.3-.1-.7-.3-1-.2-.4-.4-.6-.6-.8-.2-.1-.5-.2-.8 0-.2.1-.3.2-.4.3-.1.1-.2.3-.2.4l-.1.6v1.9c0 .3-.1.7-.2.9-.1.3-.3.5-.5.7-.2.2-.5.4-.9.5-.7.3-1.3.3-1.9-.1-.6-.3-1.1-1-1.5-1.9l-.3-.9c-.1-.3-.1-.5-.1-.8v-1l1.3-.1v1c-.1.5.1.9.3 1.4zM116.8 356.9c.2.4.3.8.4 1.2 0 .3 0 .7-.1.9-.1.3-.3.5-.5.7-.2.2-.5.4-.9.6l-3.5 1.6c-.1-.2-.3-.5-.6-.9s-.5-.8-.7-1.4c-.2-.3-.3-.7-.3-1-.1-.3-.1-.6 0-.9.1-.3.2-.5.3-.7.2-.2.4-.4.8-.6.3-.2.6-.2.9-.2.3 0 .6.1.8.3l.7.6c.2.3.4.5.5.9.1.1.1.3.2.5s.1.4.1.6l.2-.1c.2-.1.3-.2.4-.3.1-.1.2-.2.3-.4.1-.1.1-.3.1-.5s-.1-.4-.2-.6c-.1-.3-.3-.6-.5-.8-.2-.2-.3-.4-.4-.6l1-.7c.1.1.3.4.5.7.1.4.3.8.5 1.1zm-4.9 2.5c.2.4.4.7.5.9l1.5-.7c0-.1 0-.2-.1-.3 0-.1-.1-.3-.2-.5l-.2-.4-.3-.4c-.1-.1-.2-.2-.4-.2-.1 0-.3 0-.5.1-.3.1-.5.3-.5.6-.1.2 0 .5.2.9zM113.7 365.8c-.2-.4-.3-.7-.4-1v-.8c.1-.2.2-.4.4-.6.2-.2.4-.3.7-.5l6.5-3.3.9 1.2-6.5 3.3c-.2.1-.3.2-.4.2-.1.1-.2.2-.2.3 0 .1-.1.2 0 .4 0 .1.1.3.1.5l-1.1.3zM117.2 371.7c-.2-.2-.4-.5-.7-.9-.3-.4-.6-.8-.8-1.3-.2-.4-.4-.9-.4-1.2 0-.4 0-.7.1-1 .1-.3.3-.6.6-.8.3-.2.6-.5 1-.7l3.1-1.7.7 1.3-2.9 1.6c-.6.3-1 .6-1.1 1-.2.3-.1.7.1 1.1l.3.5c.1.2.2.3.3.4l4.5-2.4.7 1.3-5.5 2.8zM121 378.2l-.8-.8c-.3-.3-.6-.7-.8-1.1-.3-.4-.4-.9-.5-1.3-.1-.4-.1-.8.1-1.2.1-.4.3-.7.6-1.1.3-.3.6-.6 1.1-.9.4-.3.9-.4 1.3-.5.4-.1.8-.1 1.2-.1.4.1.7.2 1 .4.3.2.6.5.8.9.2.3.3.5.3.8.1.2.1.5.1.6l2.6-1.6 1 1.1-8 4.8zm.4-5.1c-.6.3-.9.7-1.1 1.2-.2.4-.1.9.2 1.4.1.2.2.4.3.5l.3.3 3.1-1.8c0-.2 0-.3-.1-.6 0-.2-.1-.4-.2-.6-.3-.5-.6-.7-1.1-.7-.3-.2-.8-.1-1.4.3zM131.7 383.4c-2.4.8-4.6 1.4-6.7 1.7-.4.1-.7.1-1.1.1-.3 0-.6 0-.9-.1-.3-.1-.5-.2-.7-.4-.2-.2-.4-.4-.6-.7l-.3-.6c-.1-.2-.1-.4-.2-.5l1.1-.4c.1.3.2.6.3.8.2.3.5.5.7.6.3.1.6.1 1 0 .5-.9 1-1.8 1.7-2.7.6-.9 1.4-1.9 2.1-2.8l.9 1.3-.8.9c-.3.3-.5.6-.8 1l-.8 1c-.2.4-.5.7-.7 1 .7-.2 1.5-.4 2.3-.7.8-.3 1.6-.5 2.3-.8l1.2 1.3zM193.5 464.3c-.3-.1-.7-.2-1.1-.3-.4-.1-.9-.3-1.3-.6-.5-.2-.8-.5-1.1-.8-.3-.3-.5-.7-.6-1.1-.1-.4-.2-.8-.1-1.3.1-.4.2-.9.4-1.4.2-.5.5-.8.8-1.2.3-.3.6-.6 1-.7.4-.2.7-.2 1.1-.2.4 0 .8.1 1.2.3.3.1.5.3.7.5.2.2.3.3.4.5l1.4-2.8 1.5.5-4.3 8.6zm-2.5-4.7c-.3.6-.4 1.1-.3 1.6.1.5.4.8.9 1.1l.6.3c.2.1.3.1.4.1l1.7-3.3c-.1-.1-.2-.3-.4-.5s-.4-.3-.6-.4c-.5-.2-.9-.3-1.3 0-.3.1-.7.5-1 1.1zM196.4 462.3c.2-.5.5-.9.9-1.3.3-.3.7-.6 1.1-.7.4-.1.8-.2 1.2-.2.4 0 .8.1 1.1.3.8.4 1.3.9 1.6 1.6.2.7.1 1.6-.4 2.6l-.1.3c0 .1-.1.2-.1.2l-3.9-1.8c-.2.5-.2.9 0 1.3s.6.7 1.1 1c.3.2.7.3 1 .3.3.1.6.1.7.1l-.3 1.2h-.4l-.5-.1c-.2 0-.4-.1-.6-.2-.2-.1-.4-.2-.6-.2-.5-.2-.9-.5-1.3-.9-.3-.3-.5-.7-.7-1.1-.1-.4-.2-.8-.1-1.2 0-.3.1-.7.3-1.2zm4.3 1.3l.2-.6v-.5c0-.2-.1-.3-.2-.5-.1-.1-.3-.3-.5-.4-.2-.1-.4-.1-.6-.1-.2 0-.4 0-.5.1l-.5.3c-.1.1-.3.3-.4.5l2.5 1.2zM206.5 470.3c-.1-1-.1-2-.1-3.2 0-1.2.1-2.4.2-3.8l1.5.6c-.1.4-.1.8-.1 1.2l-.1 1.3c0 .4 0 .9-.1 1.3v1.1l.8-.8c.3-.3.6-.6.8-1 .3-.3.6-.7.8-1 .3-.3.5-.7.7-1l1.4.6c-.8 1-1.6 2-2.5 2.9-.8.9-1.6 1.6-2.3 2.3l-1-.5zM215.6 466.7c.5.2.8.4 1.1.6.3.2.5.5.6.8.1.3.2.6.1.9 0 .3-.1.7-.2 1l-1.4 3.7c-.2 0-.6-.1-1.1-.2-.5-.1-1-.2-1.5-.4-.4-.1-.7-.3-1-.5-.3-.2-.5-.4-.7-.6-.2-.2-.3-.5-.3-.8 0-.3 0-.6.2-1 .1-.4.3-.6.5-.8.2-.2.5-.3.8-.4.3-.1.6-.1.9 0 .3 0 .7.1 1 .3l.5.2.5.3.1-.2c.1-.2.1-.3.1-.5s0-.3-.1-.5-.2-.3-.3-.4c-.1-.1-.3-.2-.6-.3l-.9-.3c-.3-.1-.5-.1-.7-.1l.2-1.2c.2 0 .5 0 .9.1.6 0 .9.1 1.3.3zm-1.8 5.3c.4.2.8.3 1 .3l.6-1.6-.3-.2c-.1-.1-.3-.1-.5-.2s-.3-.1-.5-.1h-.5c-.1 0-.3.1-.4.2-.1.1-.2.2-.3.4-.1.3-.1.6.1.8.2.1.4.3.8.4zM219.9 475.4c-.4-.1-.8-.3-1-.5-.2-.2-.4-.4-.5-.6-.1-.2-.2-.5-.1-.7 0-.3.1-.5.2-.9l2.4-7.1 1.5.2-2.4 7.1c-.1.2-.1.3-.1.5v.4c0 .1.1.2.2.3l.4.3-.6 1zM228.1 474.4c-.1.5-.4.9-.6 1.3-.3.4-.6.6-.9.9-.4.2-.7.3-1.2.4-.4 0-.9 0-1.3-.1s-.8-.3-1.1-.6c-.3-.3-.6-.6-.7-1-.2-.4-.3-.8-.3-1.2 0-.4 0-.9.2-1.4.1-.5.4-.9.6-1.3.3-.4.6-.6.9-.8.4-.2.7-.3 1.2-.4.4 0 .8 0 1.3.1.4.1.8.3 1.1.6.3.3.6.6.7 1 .2.4.3.8.3 1.2 0 .3-.1.8-.2 1.3zm-1.5-.5c.2-.6.2-1.2.1-1.6-.2-.4-.5-.7-.9-.9-.5-.1-.9-.1-1.3.2-.4.3-.7.7-.8 1.4-.2.6-.2 1.2-.1 1.6.2.4.5.7 1 .9.5.1.9.1 1.3-.2.2-.3.5-.7.7-1.4zM233.8 474c-.1-.1-.3-.2-.5-.3-.2-.1-.4-.2-.7-.3l-.5-.1h-.4l-1.4 5-1.5-.4 1.6-6h1.1c.4 0 .9.1 1.4.2l.3.1c.1 0 .2.1.4.2.1.1.2.1.4.2l.3.2-.5 1.2zM189.3 444.6c.1-.3.1-.7.2-1.1l.2-1.1-3.1-1.9c-.3.2-.6.5-.8.7l-.8.7-1.4-.8c.8-.6 1.4-1.2 2.1-1.7.7-.5 1.3-1 1.9-1.5.6-.5 1.2-.9 1.7-1.3l1.7-1.2 1.3.8c-.1.7-.1 1.4-.2 2l-.3 2.1c-.1.7-.2 1.5-.4 2.3-.1.8-.3 1.7-.5 2.7l-1.6-.7zm1.4-7.3c-.4.3-.8.6-1.4 1.1-.5.4-1.1.9-1.7 1.4l2.4 1.5c.1-.8.3-1.5.4-2.2.1-.8.2-1.3.3-1.8zM198.7 446c-.2.4-.5.8-.8 1.1-.3.3-.6.5-1 .7-.4.2-.7.2-1.1.2-.4 0-.8-.1-1.2-.4-.3-.1-.5-.3-.7-.5-.2-.2-.3-.4-.4-.5l-1.2 2.2-1.3-.7 4.1-7.6c.3.1.7.2 1.1.3.4.1.9.3 1.3.6.5.2.8.5 1.1.9.3.3.5.7.6 1.1.1.4.1.8.1 1.3l-.6 1.3zm-1.4-.7c.3-.6.4-1.1.3-1.6-.1-.5-.4-.9-1-1.2l-.4-.2c-.1-.1-.3-.1-.4-.1l-1.8 3.3c.1.1.2.3.3.5.2.2.3.3.6.4.5.3.9.3 1.3.1.5-.2.8-.6 1.1-1.2zM205.6 449.4c-.2.5-.5.9-.8 1.2-.3.3-.7.5-1 .7-.4.2-.8.2-1.2.2-.4 0-.8-.1-1.3-.3-.4-.2-.8-.5-1-.8-.3-.3-.5-.7-.6-1.1-.1-.4-.2-.8-.1-1.3 0-.5.2-.9.4-1.4.2-.5.5-.9.8-1.2.3-.3.7-.5 1.1-.7.4-.2.8-.2 1.2-.2.4 0 .8.1 1.2.3.4.2.8.5 1 .8.3.3.5.7.6 1.1.1.4.2.8.1 1.2-.1.5-.2 1-.4 1.5zm-1.4-.7c.3-.6.4-1.1.3-1.6-.1-.5-.4-.8-.8-1-.5-.2-.9-.2-1.3 0s-.8.6-1 1.2c-.3.6-.4 1.1-.3 1.6.1.5.4.8.8 1 .4.2.9.2 1.3 0 .3-.2.7-.6 1-1.2zM211.3 449.8c-.1-.1-.2-.2-.4-.3-.2-.1-.4-.3-.7-.4l-.5-.2c-.2 0-.3-.1-.4-.1l-2.1 4.8-1.4-.6 2.5-5.7c.3 0 .7.1 1.1.2.4.1.9.2 1.4.5.1 0 .2.1.3.2l.3.2.3.2c.1.1.2.1.2.2l-.6 1zM213.7 447.5l1.5.3-.7 1.8 2.1.9-.5 1.2-2.2-.9-1 2.5c-.2.5-.3.9-.2 1.1.1.3.3.5.7.6.3.1.5.2.7.2h.5l-.2 1.2h-.7c-.3 0-.6-.1-1-.3-.4-.2-.8-.4-1-.6-.2-.2-.4-.5-.5-.8-.1-.3-.1-.6 0-.9.1-.3.2-.7.3-1.1l2.2-5.2zM220.1 451.7c.5.2.8.4 1.1.6.3.2.5.5.6.8.1.3.2.6.1.9 0 .3-.1.7-.2 1l-1.4 3.7c-.2 0-.6-.1-1.1-.2-.5-.1-1-.2-1.5-.5-.4-.1-.7-.3-1-.5-.3-.2-.5-.4-.7-.6-.2-.2-.2-.5-.3-.8 0-.3 0-.6.2-1 .1-.3.3-.6.5-.8.2-.2.5-.3.8-.4.3-.1.6-.1.9 0 .3 0 .7.1 1 .3l.5.2.5.3.1-.2c.1-.2.1-.3.1-.5s0-.3-.1-.5l-.3-.4c-.1-.1-.3-.2-.6-.3l-.9-.3c-.3-.1-.5-.1-.7-.1l.2-1.2c.2 0 .5 0 .9.1.5.1.9.2 1.3.4zm-1.8 5.3c.4.2.8.3 1 .3l.6-1.6-.3-.2c-.1-.1-.3-.1-.5-.2s-.3-.1-.5-.1h-.5c-.2 0-.3.1-.4.1-.1.1-.2.2-.3.4-.1.3-.1.6.1.8.1.2.4.4.8.5zM222.9 456.4c.2-.5.4-.9.6-1.2.3-.4.6-.6 1-.8.4-.2.8-.3 1.2-.4.4 0 .9 0 1.4.2.6.2 1.1.5 1.6.9l-.7 1.1c-.1-.1-.3-.2-.5-.4l-.6-.3c-.6-.2-1-.2-1.5.1-.4.3-.7.7-.9 1.3-.2.6-.2 1.2-.1 1.6.2.5.6.8 1.2 1l.7.2h.7l-.2 1.2h-.8c-.3 0-.7-.1-1-.2-.5-.2-1-.4-1.3-.7-.3-.3-.6-.6-.7-1-.2-.4-.2-.8-.2-1.2-.1-.5 0-1 .1-1.4zM229.5 461.9l-1.4-.4 1.9-6.2 1.4.4-1.9 6.2zm2.6-8c-.1.3-.2.5-.5.6-.2.1-.5.1-.7.1-.2-.1-.4-.2-.6-.4-.1-.2-.1-.5-.1-.7.1-.3.2-.5.5-.6.2-.1.5-.1.7 0 .2.1.4.2.5.4.3.1.3.3.2.6zM238.1 460.9c-.1.5-.3.9-.6 1.3s-.6.7-.9.9c-.3.2-.7.4-1.1.4-.4.1-.8 0-1.3-.1-.4-.1-.8-.3-1.2-.6-.3-.3-.6-.6-.8-.9-.2-.4-.3-.8-.3-1.2 0-.5 0-.9.1-1.4.1-.5.3-.9.6-1.3s.6-.7.9-.9c.4-.2.7-.3 1.1-.4.4-.1.8 0 1.3.1.4.1.8.3 1.2.6.3.3.6.6.8.9.2.4.3.8.3 1.2.1.5.1.9-.1 1.4zm-1.4-.4c.2-.6.2-1.2 0-1.6-.2-.4-.5-.7-1-.9-.5-.1-.9 0-1.3.2-.4.3-.6.8-.8 1.4-.2.6-.2 1.2 0 1.6.2.4.5.7 1 .9.5.1.9 0 1.3-.2.3-.3.6-.7.8-1.4zm1.5-5.7l-2.5 1.4-.5-.8 2.3-1.6.7 1zM240.5 458.4h1.2c.5 0 1 .1 1.5.2s.9.3 1.3.5c.3.2.5.5.7.8.1.3.2.6.2 1s0 .8-.1 1.2l-.8 3.6-1.5-.3.8-3.3c.1-.3.1-.6.1-.9 0-.3 0-.5-.1-.6-.1-.2-.2-.3-.3-.4l-.6-.3-.6-.1h-.5l-1.2 5.1-1.5-.3 1.4-6.2zM327.4 474.5c-.2 2.6-.5 4.9-1 7.1-.1.4-.2.7-.3 1-.1.3-.3.6-.4.8-.2.2-.4.4-.6.5-.2.1-.5.2-.9.3l-.7.1c-.2 0-.4 0-.5-.1v-1.2c.3.1.6.1.9 0 .4-.1.7-.2.8-.5.2-.2.3-.5.4-1-.6-.8-1.3-1.7-1.9-2.7-.6-1-1.3-2-1.8-3.1l1.6-.3.5 1c.2.4.4.8.6 1.1.2.4.5.8.7 1.1.2.4.5.7.7 1 .1-.8.2-1.6.3-2.5.1-.9.1-1.7.1-2.5l1.5-.1zM333.5 472.9c.5-.1.9-.2 1.3-.1.4 0 .7.1.9.3.3.2.5.4.6.7.2.3.3.6.4 1l1 3.8c-.2.1-.5.2-1 .4-.4.2-.9.3-1.5.5l-1.1.2c-.3 0-.6 0-.9-.2-.3-.1-.5-.3-.7-.5-.2-.2-.3-.5-.4-.9-.1-.4-.1-.7 0-1 .1-.3.2-.5.4-.8.2-.2.5-.4.8-.5.3-.2.6-.3 1-.4l.5-.1h.6l-.1-.2c0-.2-.1-.3-.2-.5l-.3-.4c-.1-.1-.3-.2-.5-.2s-.4 0-.6.1l-.9.3c-.3.1-.5.2-.6.3l-.5-1.1.8-.4c.2-.1.6-.2 1-.3zm1.5 5.4c.4-.1.8-.2 1-.3l-.4-1.6h-.4c-.2 0-.3 0-.5.1-.2 0-.3.1-.5.2s-.3.1-.4.2c-.1.1-.2.2-.3.4 0 .1-.1.3 0 .5.1.3.3.6.5.6.3 0 .6 0 1-.1zM344.7 476.1c.3 1 .2 1.8-.1 2.4-.4.6-1.1 1.1-2.1 1.4-.4.1-.8.2-1.2.2-.4 0-.7.1-1.1 0l-.1-1.3h.9c.3 0 .7-.1 1.1-.2.6-.2 1-.4 1.1-.7.2-.3.2-.7.1-1.2l-.1-.2c-.1.1-.3.2-.5.4-.2.1-.5.3-.8.3-.4.1-.8.2-1.2.1-.4 0-.7-.1-1-.3-.3-.2-.6-.4-.8-.8-.2-.3-.4-.7-.6-1.2-.1-.5-.2-.9-.2-1.3s.1-.8.3-1.2c.2-.3.5-.7.8-.9.3-.3.8-.5 1.2-.6l1.4-.3c.4 0 .8-.1 1.1-.1l1.8 5.5zm-4.8-1.5c.2.6.4 1 .8 1.2.3.2.7.2 1.2.1l.6-.3c.2-.1.3-.2.4-.4l-.9-3.2h-.4l-.6.1c-.5.2-.9.4-1.1.9-.2.5-.2 1 0 1.6zM346 467.5c.1.3.1.5-.1.7-.1.2-.3.4-.5.4-.2.1-.5.1-.7 0-.2-.1-.4-.3-.5-.6-.1-.3-.1-.5.1-.7.1-.2.3-.4.6-.4.2-.1.5-.1.7 0 .1.1.3.3.4.6zm2.4 8.1l-1.4.5-2-6.2 1.4-.5 2 6.2zM352.5 474.3c-.4.1-.8.2-1.1.2-.3 0-.6 0-.8-.1-.2-.1-.4-.3-.6-.5-.1-.2-.3-.5-.4-.8l-2.4-7.1 1.3-.7 2.4 7.1c.1.2.1.3.2.4l.3.3c.1.1.2.1.4.1.1 0 .3 0 .5-.1l.2 1.2zM352.7 465.2c.1.3.1.5 0 .7-.1.2-.3.4-.5.5-.2.1-.5.1-.7 0-.2-.1-.4-.3-.5-.5-.1-.3-.1-.5 0-.7.1-.2.3-.4.5-.5.2-.1.5-.1.7 0 .3 0 .4.2.5.5zm2.7 8l-1.4.5-2.2-6.1 1.4-.5 2.2 6.1zM362.5 470.3c-.2.2-.6.4-1 .6-.4.2-.8.4-1.3.6-.5.2-.9.3-1.4.3-.4 0-.8-.1-1.2-.3-.4-.2-.7-.4-1-.8-.3-.3-.5-.8-.7-1.2-.2-.5-.3-.9-.3-1.4 0-.4 0-.8.1-1.2.1-.4.3-.7.6-1 .3-.3.6-.5 1.1-.7.3-.1.6-.2.8-.2h.7l-1.1-2.9 1.3-.8 3.4 9zm-5.1-1.3c.2.6.6 1.1 1 1.3.4.2.9.3 1.4.1l.6-.3c.2-.1.3-.2.4-.2l-1.4-3.5c-.2 0-.4-.1-.6 0l-.7.1c-.5.2-.8.5-.9 1-.1.3-.1.9.2 1.5zM364 462.6c.5-.2.9-.3 1.2-.3.4 0 .7 0 1 .2.3.1.5.3.7.6.2.3.4.6.5.9l1.6 3.6c-.2.1-.5.3-.9.6s-.9.5-1.4.7c-.4.2-.7.3-1 .3-.3.1-.6.1-.9 0-.3-.1-.5-.2-.7-.4-.2-.2-.4-.5-.6-.8-.1-.3-.2-.7-.2-1 0-.3.1-.6.3-.8.2-.2.4-.5.7-.7.3-.2.6-.4.9-.5l.5-.2c.2-.1.4-.1.6-.1l-.1-.2c-.1-.2-.2-.3-.3-.4-.1-.1-.2-.2-.4-.3-.1-.1-.3-.1-.5-.1s-.4.1-.6.2l-.9.4c-.2.2-.4.3-.6.4l-.7-1c.1-.1.4-.3.7-.5.4-.3.7-.4 1.1-.6zm2.3 5.1c.4-.2.7-.3.9-.5l-.7-1.5c-.1 0-.2 0-.4.1-.2 0-.3.1-.5.2s-.3.1-.4.2l-.4.3c-.1.1-.2.2-.2.4 0 .1 0 .3.1.5.1.3.3.5.6.5.4 0 .7 0 1-.2zM375.9 464.3c-.2.2-.5.4-.9.7-.4.3-.8.5-1.2.7-.5.2-.9.3-1.4.4-.4 0-.8 0-1.2-.2-.4-.1-.7-.4-1.1-.7-.3-.3-.6-.7-.8-1.2-.2-.5-.4-.9-.4-1.4-.1-.4 0-.8.1-1.2.1-.4.3-.7.5-1 .3-.3.6-.5 1-.8.3-.1.6-.2.8-.3.2 0 .5-.1.7 0l-1.3-2.8 1.3-.9 3.9 8.7zm-5.2-1c.3.6.7 1 1.1 1.2.4.2.9.2 1.4 0 .2-.1.4-.2.5-.3.1-.1.3-.2.3-.2l-1.6-3.4h-.6c-.2 0-.5.1-.7.2-.5.2-.8.6-.8 1 0 .5.1 1 .4 1.5zM317.3 467.2l-1.6-8.5 5.5-1 .2 1.3-3.9.7.4 2.1 3.5-.6.2 1.3-3.5.6.5 2.5 4.2-.8.2 1.3-5.7 1.1zM325.2 455.8c.3-.1.6-.1.8-.1h.5v1.2h-.4c-.2 0-.3 0-.5.1-.5.1-.8.3-.9.6-.1.3-.1.7 0 1.1l.1.4 2.3-.5.3 1.2-2.3.5 1.2 5.1-1.5.3-1.6-6.8c-.2-.8-.1-1.5.2-2.1.3-.4.9-.8 1.8-1zm4.2.3c.1.3 0 .5-.1.7-.1.2-.3.3-.6.4-.2.1-.5 0-.7-.1-.2-.1-.4-.3-.4-.6-.1-.3 0-.5.1-.7.1-.2.3-.3.6-.4.2-.1.5 0 .7.1.2.1.3.3.4.6zm1.7 8.3l-1.5.3-1.5-6.4 1.5-.3 1.5 6.4zM332.1 460.7c-.1-.5-.2-.9-.1-1.4 0-.4.1-.8.3-1.2.2-.4.4-.7.8-1 .3-.3.7-.5 1.2-.6.6-.2 1.2-.2 1.8-.1v1.3h-.6c-.2 0-.5 0-.7.1-.6.2-1 .5-1.2.9-.2.4-.2 1 0 1.6.2.6.4 1.1.8 1.4.4.3.9.3 1.6.2l.7-.3.6-.3.5 1.1c-.1.1-.4.3-.7.4-.3.2-.6.3-1 .4-.5.1-1 .2-1.5.1-.4-.1-.8-.2-1.2-.4-.3-.2-.6-.5-.9-.9-.1-.4-.3-.8-.4-1.3zM338.4 453.6c.1.3.1.5-.1.7-.1.2-.3.4-.6.4-.2.1-.5.1-.7 0-.2-.1-.4-.3-.5-.6-.1-.3-.1-.5.1-.7.1-.2.3-.4.6-.4.2-.1.5-.1.7.1.2 0 .4.2.5.5zm2.2 8.1l-1.4.4-1.9-6.3 1.4-.4 1.9 6.3zM341.3 458.1c-.2-.5-.3-1-.2-1.5 0-.5.1-.9.3-1.2.2-.4.4-.7.7-.9.3-.3.6-.4 1-.6.9-.3 1.6-.2 2.3.1.7.4 1.2 1.1 1.5 2.1l.1.3.1.3-4.1 1.4c.2.5.5.8.9 1 .4.2.9.2 1.5 0 .3-.1.7-.3.9-.4.3-.2.5-.3.6-.4l.6 1.1-.3.2-.4.3-.5.3c-.2.1-.4.2-.6.2-.5.2-1 .3-1.5.2-.5 0-.9-.1-1.2-.3-.4-.2-.7-.5-.9-.8-.4-.5-.6-.9-.8-1.4zm4-2c-.1-.2-.2-.4-.3-.5-.1-.2-.2-.3-.4-.4-.1-.1-.3-.2-.5-.2s-.4 0-.6.1c-.2.1-.4.2-.5.3-.1.1-.2.3-.3.5-.1.2-.1.4-.1.6v.6l2.7-1zM347.5 452.8c.2-.2.6-.4 1-.6.4-.2.9-.5 1.4-.7.5-.2.9-.3 1.3-.3s.7.1 1 .3c.3.2.5.4.8.7.2.3.4.7.6 1.1l1.3 3.4-1.4.5-1.2-3.2c-.1-.3-.2-.6-.4-.8-.1-.2-.3-.4-.4-.5-.2-.1-.3-.2-.5-.2s-.4 0-.7.1c-.2.1-.4.1-.5.2-.2.1-.3.2-.4.2l1.9 4.9-1.4.5-2.4-5.6zM355.2 453.1c-.2-.4-.3-.9-.3-1.3s0-.9.2-1.3c.1-.4.4-.7.7-1.1.3-.3.7-.6 1.1-.8.6-.2 1.2-.4 1.7-.4l.2 1.3c-.2 0-.4 0-.6.1-.2 0-.5.1-.7.2-.5.2-.9.6-1 1-.1.5-.1 1 .2 1.6.3.6.6 1 1 1.3.4.2.9.2 1.6 0 .2-.1.5-.2.7-.4.2-.1.4-.3.5-.4l.7 1.1c-.1.1-.3.3-.6.5s-.6.4-.9.5c-.5.2-1 .3-1.4.3-.4 0-.9-.1-1.2-.3-.4-.2-.7-.4-1-.8-.4-.2-.7-.6-.9-1.1zM360.5 445.2c.1.3.1.5 0 .7-.1.2-.3.4-.5.5-.2.1-.5.1-.7 0-.2-.1-.4-.2-.5-.5-.1-.3-.1-.5 0-.7.1-.2.3-.4.5-.5.2-.1.5-.1.7 0 .2.1.4.2.5.5zm3.3 7.8l-1.4.6-2.7-6 1.4-.6 2.7 6zM364.8 445.1c.4-.2.9-.3 1.2-.4.4 0 .7 0 1 .1.3.1.5.3.8.5.2.3.4.5.6.9l1.7 3.6c-.2.1-.5.4-.9.6-.4.3-.9.5-1.4.8-.3.2-.7.3-1 .4-.3.1-.6.1-.9 0-.3-.1-.5-.2-.8-.4-.2-.2-.4-.5-.6-.8-.2-.3-.2-.7-.2-1 0-.3.1-.6.3-.8.2-.3.4-.5.6-.7.3-.2.6-.4.9-.5.1-.1.3-.1.5-.2l.6-.2-.1-.2c-.1-.2-.2-.3-.3-.4-.1-.1-.2-.2-.4-.3-.1-.1-.3-.1-.5-.1s-.4.1-.6.2c-.3.2-.6.3-.8.5l-.6.5-.7-1c.1-.1.4-.3.7-.5.2-.2.6-.4.9-.6zm2.6 5c.4-.2.7-.4.9-.5l-.7-1.5c-.1 0-.2 0-.4.1-.2 0-.3.1-.5.2l-.4.3-.4.3c-.1.1-.2.3-.2.4 0 .1 0 .3.1.5.2.3.4.5.6.5.3 0 .6-.1 1-.3zM428.5 407.2c-.6.7-.8 1.3-.8 2.1.1.7.5 1.4 1.2 2.1.3.3.7.6 1.1.7.4.2.7.3 1.1.3.4 0 .7 0 1-.2.3-.1.7-.4.9-.7.2-.2.3-.4.5-.5.1-.2.2-.3.3-.4l-2.3-2.1 1.1-1.2 3.1 2.8c-.1.2-.3.5-.5 1-.3.4-.6.9-1.1 1.4-.4.5-.9.8-1.4 1.1-.5.2-1 .4-1.5.4s-1.1-.1-1.6-.3c-.5-.2-1.1-.6-1.6-1.1-.5-.5-.9-1-1.2-1.5-.3-.5-.4-1.1-.4-1.6s.1-1.1.3-1.6c.2-.5.5-1 .9-1.4.3-.3.5-.5.8-.7.2-.2.5-.4.7-.5.2-.1.4-.2.5-.3.2-.1.3-.1.3-.1l.6 1.2c-.3.1-.6.2-.9.4-.6.1-.9.3-1.1.7zM438.4 402c.4.3.7.7.9 1.1.2.4.4.8.4 1.2.1.4 0 .8-.1 1.2-.1.4-.3.8-.6 1.1-.3.4-.6.6-1 .8-.4.2-.8.3-1.2.3-.4 0-.8 0-1.2-.2-.4-.2-.8-.4-1.2-.7-.4-.3-.7-.7-.9-1.1-.2-.4-.4-.8-.4-1.2-.1-.4 0-.8.1-1.2.1-.4.3-.8.6-1.1.3-.4.6-.6 1-.8.4-.2.8-.3 1.2-.3.4 0 .8 0 1.2.2.4.1.8.4 1.2.7zm-1 1.2c-.5-.4-1-.6-1.5-.7-.5 0-.9.1-1.2.5-.3.4-.4.8-.3 1.3.1.5.4.9.9 1.3s1 .6 1.5.7c.5 0 .9-.1 1.2-.5.3-.4.4-.8.3-1.3-.1-.5-.4-.9-.9-1.3zM443 401.4c-.9-.2-2-.5-3.1-.8-1.2-.3-2.3-.7-3.6-1.2l1-1.3c.3.2.7.3 1.1.5l1.2.5 1.2.4c.4.1.8.2 1.1.3-.2-.3-.4-.6-.6-1l-.7-1.1c-.2-.4-.5-.7-.8-1.1-.3-.4-.5-.7-.7-1l1-1.2c.8 1.1 1.5 2.1 2.1 3.1.6 1 1.1 2 1.5 2.8l-.7 1.1zM443.2 395.8c-.5-.3-.8-.7-1.1-1.1-.2-.4-.4-.8-.5-1.2-.1-.4-.1-.8 0-1.2.1-.4.3-.7.5-1 .5-.7 1.2-1.1 1.9-1.2.7-.1 1.6.2 2.5.8.1 0 .1.1.2.2s.2.1.2.2l-2.5 3.5c.5.3.9.4 1.3.3.4-.1.8-.4 1.2-.9.2-.3.4-.6.5-.9.1-.3.2-.5.2-.7l1.1.6c0 .1 0 .2-.1.4 0 .1-.1.3-.2.5s-.2.4-.3.5c-.1.2-.2.4-.4.6-.3.5-.7.8-1.1 1.1-.4.2-.8.4-1.2.4-.4 0-.8 0-1.2-.1-.2-.3-.6-.5-1-.8zm2-3.9l-.5-.3c-.2-.1-.4-.1-.5-.1l-.5.1c-.2.1-.3.2-.4.4l-.3.6v.6c0 .2.1.4.2.5.1.2.2.3.4.4l1.6-2.2zM448.1 385.4l-.4.4-.5.6c-.1.1-.2.3-.3.5-.1.2-.1.3-.1.4l4.3 2.9-.8 1.3-5.2-3.5c.1-.3.2-.7.4-1.1.2-.4.4-.8.7-1.3l.2-.3.3-.3.3-.3.2-.2.9.9zM447.9 383.7c.1-.3.2-.7.4-1.1.2-.4.4-.9.7-1.4.3-.4.6-.8.9-1 .3-.2.6-.4 1-.4.3 0 .7 0 1 .1.4.1.7.3 1.1.5l3.1 1.9-.8 1.3-2.9-1.8c-.3-.2-.6-.3-.8-.4-.2-.1-.4-.1-.6-.1-.2 0-.4.1-.5.2-.2.1-.3.3-.4.5l-.3.5c-.1.2-.2.3-.2.4l4.5 2.8-.8 1.3-5.4-3.3zM452.5 375.3c.3-.4.5-.8.8-1 .3-.2.6-.4.9-.4.3-.1.6-.1.9 0 .3.1.6.2 1 .4l3.4 2c-.1.2-.2.6-.4 1s-.4.9-.7 1.4l-.6.9c-.2.2-.5.4-.7.5-.3.1-.5.2-.8.1-.3 0-.6-.1-1-.3-.3-.2-.6-.4-.7-.7-.2-.3-.2-.5-.3-.8 0-.3 0-.6.1-.9.1-.3.2-.6.4-.9l.3-.4c.1-.1.2-.3.4-.5l-.2-.1c-.2-.1-.3-.2-.5-.2h-.5c-.2 0-.3.1-.4.2-.1.1-.3.3-.4.5-.2.3-.3.6-.4.9-.1.3-.2.5-.2.7l-1.2-.5c0-.2.1-.5.2-.8.3-.3.4-.7.6-1.1zm5 2.8c.2-.4.4-.7.5-1l-1.4-.8-.2.3-.3.4c-.1.1-.2.3-.2.5-.1.2-.1.3-.1.5s0 .3.1.4l.3.3c.3.2.6.2.8.1.1-.2.3-.4.5-.7zM455.1 371.6c.1-.3.2-.7.3-1.1.2-.4.4-.9.6-1.4.2-.5.5-.8.8-1.1.3-.2.6-.4.9-.5.3-.1.7-.1 1 0 .4.1.7.2 1.1.5l3.2 1.7-.7 1.3-3-1.6c-.3-.2-.6-.3-.8-.4-.2-.1-.4-.1-.6-.1-.2 0-.4.1-.5.2-.1.1-.3.3-.4.5-.1.2-.2.4-.2.5-.1.2-.1.3-.2.4l4.7 2.5-.7 1.3-5.5-2.7zM461.1 366.7c-.4-.2-.8-.5-1.1-.8-.3-.3-.5-.7-.7-1.1-.2-.4-.2-.8-.2-1.2 0-.4.1-.9.4-1.3.3-.6.6-1 1.1-1.4l1 .8c-.1.1-.3.3-.4.5l-.4.6c-.3.5-.3 1-.1 1.5.2.4.6.8 1.2 1.1.6.3 1.1.4 1.6.3.5-.1.9-.5 1.2-1.1l.3-.7c.1-.2.1-.5.1-.7l1.2.4c0 .2 0 .4-.1.8-.1.3-.2.7-.4 1-.2.5-.5.9-.9 1.2-.3.3-.7.5-1.1.6-.4.1-.8.1-1.2.1-.6-.3-1-.4-1.5-.6zM459.9 357.3c.3.1.4.3.5.5.1.2.1.5 0 .7-.1.2-.3.4-.5.5-.2.1-.5.1-.7 0-.3-.1-.4-.3-.5-.5-.1-.2-.1-.5 0-.7.1-.2.3-.4.5-.5.1-.2.4-.2.7 0zm7.6 3.6l-.6 1.4-5.9-2.7.6-1.4 5.9 2.7zM463 354.4c.2-.5.4-.8.7-1.1.2-.3.5-.4.8-.5.3-.1.6-.1.9-.1.3 0 .7.1 1 .3l3.6 1.5c0 .2-.1.6-.2 1-.1.5-.3 1-.5 1.5-.2.4-.3.7-.5.9-.2.3-.4.5-.7.6-.2.1-.5.2-.8.2-.3 0-.6-.1-1-.2-.3-.1-.6-.3-.8-.6-.2-.2-.3-.5-.3-.8v-.9l.3-1c.1-.1.1-.3.2-.5l.3-.5-.2-.1c-.2-.1-.3-.1-.5-.1h-.5c-.1.1-.3.1-.4.3-.1.1-.2.3-.3.6l-.3.9c-.1.3-.1.5-.1.7l-1.2-.3c0-.2.1-.5.1-.8.1-.3.3-.6.4-1zm5.3 2.1c.2-.4.3-.8.3-1l-1.5-.7-.2.3c-.1.1-.2.3-.2.5l-.2.5-.1.5c0 .2 0 .3.1.4.1.1.2.2.4.3.3.1.6.1.8 0 .2-.2.4-.5.6-.8zM481.4 233.1c-.1-.6-.2-1.2-.1-1.8.1-.6.3-1.1.6-1.5.3-.4.7-.8 1.2-1.1.5-.3 1.1-.5 1.8-.7.7-.2 1.4-.2 2-.1.6.1 1.1.3 1.6.6s.9.7 1.2 1.1c.3.5.5 1 .7 1.6.1.4.1.7.1 1v.8l-.1.6c0 .2-.1.3-.1.3l-1.4-.2c.1-.2.1-.5.2-.9 0-.4 0-.8-.1-1.2-.1-.4-.2-.7-.4-1-.2-.3-.5-.5-.8-.7-.3-.2-.7-.3-1.1-.3-.4 0-.9 0-1.4.1-.5.1-.9.2-1.2.4-.4.2-.7.4-.9.7-.2.3-.4.6-.5 1-.1.4-.1.8 0 1.2.1.6.3 1 .5 1.3.2.3.4.6.5.7l-1.2.7c-.1-.1-.2-.2-.3-.4-.1-.2-.2-.3-.3-.6-.1-.2-.2-.5-.3-.8-.1-.1-.1-.4-.2-.8zM489.5 238c.1.5.1.9 0 1.3s-.2.7-.4.9c-.2.2-.4.4-.7.6-.3.2-.6.3-1 .3l-4 .7c-.1-.2-.2-.6-.4-1-.2-.5-.3-1-.4-1.6-.1-.4-.1-.8-.1-1.1 0-.3.1-.6.2-.9.1-.3.3-.5.6-.7.2-.2.6-.3 1-.4.4-.1.7-.1 1 0 .3.1.5.3.7.5.2.2.4.5.5.8l.3 1 .1.5v.6h.2c.2 0 .3-.1.5-.2l.4-.3c.1-.1.2-.3.2-.5v-.7c-.1-.4-.1-.7-.2-.9-.1-.3-.2-.5-.3-.7l1.2-.4.4.8c0 .6.1 1 .2 1.4zm-5.6 1.2c.1.5.2.8.3 1l1.7-.3v-.4c0-.2 0-.3-.1-.5l-.1-.5c-.1-.2-.1-.3-.2-.4l-.3-.3c-.1-.1-.3-.1-.5 0-.4.1-.6.2-.7.5s-.2.5-.1.9zM487.7 249.1c-.5.1-1 .1-1.4 0-.4-.1-.8-.2-1.2-.4-.3-.2-.6-.5-.8-.8-.2-.3-.4-.7-.4-1.2 0-.3-.1-.6 0-.9 0-.3.1-.5.2-.7l-2.6.4-.2-1.5 8.7-1.3c.1.3.3.7.4 1.1.1.4.2.9.3 1.4.1.5.1 1 0 1.4-.1.4-.3.8-.5 1.2-.3.3-.6.6-1 .8-.5.3-.9.4-1.5.5zm-.2-1.5c.7-.1 1.2-.3 1.5-.7.3-.4.4-.9.3-1.6l-.1-.4c0-.2-.1-.3-.2-.4l-3.8.6c-.1.1-.1.3-.2.6 0 .2-.1.5 0 .7.1.6.3.9.7 1.1.6.1 1.1.2 1.8.1zM484.8 252.7l-.2-1.5 6.6-.7.2 1.5-6.6.7zm8.5-.8c-.3 0-.5 0-.7-.2-.2-.2-.3-.4-.3-.6 0-.3 0-.5.2-.7.1-.2.4-.3.7-.4.3 0 .5 0 .7.2.2.2.3.4.3.6 0 .3 0 .5-.2.7-.1.3-.4.4-.7.4zM493.4 253.7l.4 1.5-2 .2.2 2.4-1.3.1-.2-2.4-2.7.3c-.5 0-.9.2-1.1.4-.2.2-.3.5-.3.9 0 .3.1.5.2.7.1.2.2.4.2.5l-1.2.4c-.1-.2-.2-.4-.3-.7-.1-.3-.2-.6-.2-1 0-.5 0-.9.1-1.2.1-.3.3-.6.5-.8.2-.2.5-.4.8-.5.3-.1.7-.2 1.2-.2l5.7-.6zM492.5 261.5c0 .5 0 .9-.1 1.3s-.3.6-.5.9c-.2.2-.5.4-.8.5-.3.1-.7.2-1.1.2l-4 .3c-.1-.2-.2-.6-.3-1.1-.1-.5-.2-1-.2-1.6v-1.1c0-.3.2-.6.3-.9l.6-.6c.3-.1.6-.2 1-.3.4 0 .7 0 1 .2.3.1.5.3.7.6.2.2.3.5.4.9.1.3.2.7.2 1v.5c0 .2 0 .4-.1.6h.3c.2 0 .3 0 .5-.1s.3-.1.4-.2l.3-.4c.1-.2.1-.4.1-.7 0-.4-.1-.7-.1-1-.1-.3-.1-.5-.2-.7l1.2-.3c.1.2.2.5.3.8 0 .4 0 .8.1 1.2zm-5.8.6c0 .5.1.8.1 1.1l1.7-.1v-.9c0-.2 0-.3-.1-.5 0-.2-.1-.3-.2-.5l-.3-.3c-.1-.1-.3-.1-.5-.1-.4 0-.6.2-.7.4.1.2 0 .5 0 .9zM485.9 268.8c0-.5 0-.8.1-1.1.1-.3.2-.5.4-.7.2-.2.4-.3.6-.4.3-.1.5-.1.9-.1l7.6-.3.3 1.5-7.6.3c-.2 0-.3 0-.5.1-.1 0-.2.1-.3.2l-.2.3c0 .1-.1.3-.1.5l-1.2-.3zM464.6 230.7l9.4-2.2.6 1.4-3.2.7.3.5c.1.2.2.4.2.6.1.5.1 1 .1 1.3-.1.4-.2.7-.4 1-.2.3-.5.5-.8.7-.3.2-.7.3-1.2.4l-3.6.8-.4-1.5 3.4-.8.9-.3c.2-.1.4-.2.5-.4.1-.1.2-.3.2-.5v-.7c0-.2-.1-.4-.2-.6-.1-.2-.2-.3-.2-.4l-5.1 1.2-.5-1.2zM467.5 243.2c-.1-.3-.3-.6-.4-1.1-.2-.5-.3-1-.4-1.5-.1-.5-.1-1 0-1.4.1-.4.2-.7.5-1 .2-.3.5-.5.9-.6.4-.2.7-.3 1.2-.4l3.7-.7.3 1.5-3.4.7c-.7.1-1.2.3-1.4.6-.3.3-.3.6-.2 1.2l.1.6c.1.2.1.3.1.4l5.3-1 .3 1.5-6.6 1.2zM471.6 248.3c.7-.1 1.2-.3 1.5-.5.3-.2.4-.6.3-1l-.1-.5c-.1-.2-.1-.3-.1-.4l-5.3.8-.2-1.5 6.4-1c.1.3.3.7.4 1.1.1.5.3 1 .3 1.5.1.5.1.8 0 1.1-.1.3-.2.6-.4.8l.3.3.3.4c.1.2.2.3.2.5l.2.6c.1.5.1.9 0 1.3s-.3.6-.5.9c-.2.2-.5.4-.9.5l-1.2.3-3.7.6-.2-1.5 3.5-.5c.7-.1 1.2-.3 1.4-.5.3-.2.4-.6.3-1 0-.2-.1-.5-.2-.7-.1-.2-.2-.4-.3-.5-.2.1-.4.2-.6.2l-.7.2-3.6.6-.2-1.5 3.1-.6zM476.1 257.4c0 .5 0 .9-.1 1.3s-.2.7-.5.9c-.2.2-.5.4-.8.5-.3.1-.7.2-1.1.2l-4 .4c-.1-.2-.2-.6-.3-1.1-.1-.5-.2-1-.3-1.6v-1.1c0-.3.1-.6.3-.9.1-.2.4-.4.6-.6.3-.2.6-.3 1-.3s.7 0 1 .1c.3.1.5.3.7.5.2.2.3.5.4.8.1.3.2.7.2 1v1.1h.2l.5-.1c.2-.1.3-.1.4-.3.1-.1.2-.3.2-.4.1-.2.1-.4 0-.7 0-.4-.1-.7-.2-1-.1-.3-.2-.5-.2-.7l1.2-.3c.1.2.2.5.3.8.4.7.4 1.1.5 1.5zm-5.7.7c0 .5.1.8.2 1.1l1.7-.2v-.9c0-.2 0-.3-.1-.5 0-.2-.1-.3-.2-.5l-.3-.3c-.1-.1-.3-.1-.5-.1-.4 0-.6.2-.7.4-.1.3-.2.6-.1 1zM476.1 262.2c.1.3.2.7.3 1.1.1.5.2 1 .2 1.6 0 .5 0 1-.1 1.4-.1.4-.3.7-.6.9-.3.2-.6.4-.9.5-.4.1-.8.2-1.2.2l-3.7.2-.1-1.5 3.5-.2c.4 0 .7-.1.9-.1l.6-.3c.2-.1.3-.3.3-.5.1-.2.1-.4.1-.7 0-.2 0-.4-.1-.6 0-.2-.1-.4-.1-.5l-5.4.3-.1-1.5 6.4-.3zM473.5 275.9c-.5 0-1-.1-1.4-.2-.4-.1-.8-.4-1.1-.6-.3-.3-.6-.6-.7-1-.2-.4-.3-.8-.3-1.3s.1-.9.2-1.3c.2-.4.4-.7.7-1 .3-.3.7-.5 1.1-.7.4-.2.9-.3 1.4-.3.5 0 1 .1 1.4.2.4.1.8.4 1.1.6.3.3.6.6.7 1 .2.4.3.8.3 1.3s-.1.9-.2 1.3c-.2.4-.4.7-.7 1-.3.3-.7.5-1.1.7-.4.2-.9.2-1.4.3zm0-1.6c.7 0 1.2-.2 1.6-.5.4-.3.6-.7.6-1.2s-.2-.9-.6-1.2c-.4-.3-.9-.4-1.6-.4-.7 0-1.2.2-1.6.5-.4.3-.6.7-.6 1.2s.2.9.6 1.2c.4.3.9.4 1.6.4zM90.9 256.6l1.4.1-.5 5.5-8.8-.7.1-1.6 7.4.6.4-3.9zM84.1 252.9c.3 0 .5.1.7.4.1.2.2.4.2.7 0 .3-.1.5-.3.6-.2.2-.4.2-.7.2-.3 0-.5-.2-.7-.4-.1-.2-.2-.4-.2-.7 0-.2.1-.5.3-.6.1-.1.4-.2.7-.2zm8.5 1.1l-.2 1.5-6.6-.7.2-1.5 6.6.7zM93.4 246.6c.1.3.1.7.1 1.2s0 1-.1 1.5-.2 1-.4 1.4c-.2.4-.5.7-.8 1-.3.2-.7.4-1.2.5-.4.1-.9.1-1.5 0-.5-.1-1-.2-1.4-.4-.4-.2-.7-.4-1-.7-.3-.3-.5-.6-.6-1-.1-.4-.1-.8-.1-1.3 0-.3.1-.6.2-.8l.3-.6-3.2-.4v-1.6l9.7 1.2zm-3.7 3.9c.7.1 1.2 0 1.6-.3.4-.3.7-.7.8-1.2 0-.2.1-.5.1-.6v-.4l-3.8-.5c-.1.1-.2.3-.3.5-.1.2-.2.4-.2.7-.1.6.1 1 .4 1.3.2.2.7.4 1.4.5zM90.6 244.6c-.6-.1-1.1-.3-1.5-.5-.4-.2-.7-.5-1-.9-.2-.3-.4-.7-.5-1.1-.1-.4-.1-.8 0-1.2.2-.9.5-1.6 1.2-2 .6-.4 1.5-.5 2.6-.4.1 0 .2 0 .3.1.1 0 .2 0 .3.1l-.7 4.3c.5 0 1-.1 1.3-.4.3-.3.6-.7.7-1.4.1-.4.1-.7.1-1 0-.3 0-.6-.1-.8h1.3c0 .1.1.2.1.4v1.1c0 .2 0 .4-.1.7-.1.6-.3 1.1-.5 1.5-.2.4-.5.7-.9.9-.4.2-.7.4-1.2.4-.4.2-.9.2-1.4.2zm0-4.6h-.6c-.2 0-.4.1-.5.2-.2.1-.3.2-.4.4-.1.1-.2.3-.2.6v.6c.1.2.2.4.3.5l.4.4c.2.1.4.2.5.2l.5-2.9zM90.8 232.9c-.1.1-.1.3-.2.5s-.2.5-.2.8l-.1.5v.4l5.2 1.1-.3 1.5-6.2-1.3c0-.3-.1-.7-.1-1.2s0-.9.2-1.5l.1-.3.1-.4c0-.1.1-.3.2-.4.1-.1.1-.2.1-.3l1.2.6zM90.1 229c.1-.5.3-.9.5-1.2.2-.3.4-.5.7-.7.3-.1.6-.2.9-.2.3 0 .7 0 1.1.1l3.9.9c0 .2 0 .6-.1 1.1 0 .5-.1 1-.3 1.6-.1.4-.2.7-.4 1-.2.3-.3.5-.6.7-.2.2-.5.3-.8.4-.3.1-.6.1-1 0s-.7-.2-.9-.4c-.2-.2-.4-.5-.5-.7-.1-.3-.1-.6-.1-.9l.1-1c0-.2.1-.3.2-.5s.2-.4.2-.6l-.2-.1-.5-.1c-.2 0-.3 0-.5.1l-.4.3-.3.6-.2 1v.7l-1.3-.1v-.9c.4-.3.4-.7.5-1.1zm5.6 1.2c.1-.5.2-.8.2-1.1l-1.7-.4c0 .1-.1.2-.2.3-.1.1-.1.3-.2.5l-.1.5v.5c0 .2.1.3.2.4.1.1.2.2.4.2.4.1.6 0 .8-.2.4-.1.5-.3.6-.7zM93.7 220.2c.1.2.3.5.5.8.2.4.5.7.8 1.1l.9 1.2c.3.4.6.8 1 1.2l.9-3.3 1.2.3-1.4 5.1-.9-.3c-.3-.3-.6-.6-.9-1l-.9-1.2-.9-1.2c-.3-.4-.5-.7-.7-1l-.8 3-1.2-.3 1.3-4.9 1.1.5zM100.4 215.1c1 .3 1.7.8 2 1.5.3.7.3 1.5 0 2.6-.1.4-.3.8-.5 1.1-.2.3-.4.7-.6.9l-1.2-.7c.2-.2.4-.5.5-.8.2-.3.3-.6.4-1 .2-.6.2-1.1 0-1.4-.2-.3-.5-.6-1-.7l-.2-.1v.6c0 .3-.1.5-.1.9-.1.4-.3.8-.5 1.1-.2.3-.5.5-.8.7-.3.2-.7.2-1.1.3-.4 0-.9-.1-1.4-.2-.5-.1-.9-.3-1.2-.6-.3-.3-.6-.6-.8-.9-.2-.4-.3-.8-.3-1.2 0-.4 0-.9.2-1.4.1-.5.3-.9.5-1.3s.4-.7.6-1l5.5 1.6zm-4 3.3c.6.2 1.1.2 1.5 0 .4-.2.6-.5.8-.9.1-.2.1-.5.1-.7 0-.2 0-.4-.1-.6l-3.3-1c-.1.1-.1.2-.2.4-.1.1-.1.3-.2.6-.2.5-.1 1 .2 1.4.2.3.7.6 1.2.8zM100.5 206.8c.5.2.9.4 1.3.7.4.3.6.6.8 1 .2.4.3.8.3 1.2 0 .4 0 .9-.2 1.3s-.4.8-.7 1.1c-.3.3-.6.6-1 .7-.4.2-.8.2-1.3.2s-.9-.1-1.4-.3c-.5-.2-.9-.4-1.3-.7-.3-.3-.6-.6-.8-1-.2-.4-.3-.8-.3-1.2 0-.4 0-.9.2-1.3s.4-.8.7-1.1c.3-.3.6-.6 1-.7.4-.2.8-.2 1.3-.2.4 0 .9.1 1.4.3zm-.5 1.4c-.6-.2-1.2-.3-1.6-.1-.5.1-.8.5-.9.9-.2.5-.1.9.1 1.3.3.4.7.7 1.3.9.6.2 1.2.3 1.6.1.5-.1.8-.4.9-.9.2-.5.1-.9-.2-1.3-.1-.3-.6-.6-1.2-.9zM159.2 128.7c-.3-.2-.6-.4-1-.5-.3-.2-.6-.4-1-.5l-2.8 2.4.4 1 .4 1-1.2 1.1c-.4-.9-.7-1.8-1-2.6-.3-.8-.6-1.6-.8-2.3-.3-.7-.5-1.4-.7-2.1l-.6-2 1.2-1 1.9.9c.6.3 1.3.6 2 1 .7.3 1.4.7 2.1 1.1.8.4 1.6.8 2.4 1.3l-1.3 1.2zm-6.6-3.7c.2.5.3 1 .6 1.7.2.6.5 1.3.8 2.1l2.2-1.9c-.7-.4-1.4-.7-2-1.1l-1.6-.8zM164.4 118.8c.5.6.8 1.2 1 1.8.2.6.2 1.2.1 1.7-.1.6-.3 1.1-.7 1.6-.4.5-.8 1-1.4 1.5-.3.2-.6.5-1 .7-.4.3-.7.5-1.1.7l-5.3-6.7.9-.9c.3-.3.7-.6.9-.8.6-.5 1.2-.8 1.7-1.1.6-.2 1.2-.4 1.7-.3.6 0 1.1.2 1.7.5.5.2 1 .7 1.5 1.3zm-2.6 6.1l.3-.2c.1-.1.3-.2.5-.4.8-.7 1.3-1.4 1.4-2.1.1-.8-.2-1.5-.8-2.3-.6-.8-1.3-1.2-2-1.3-.7-.1-1.5.2-2.4.9-.4.3-.6.5-.8.7l3.8 4.7zM173.3 117.8c-.5-.2-1.1-.5-1.7-.7-.6-.2-1.2-.5-1.9-.7l-1.9-.7c-.6-.2-1.2-.4-1.7-.5l3.6 5.2-1.3.9-5.1-7.2 1.1-.8c.5.1 1 .2 1.6.4l1.8.6 1.8.6c.6.2 1.2.4 1.7.6l-3.4-4.8 1.3-.9 5.1 7.2-1 .8zM404.9 103.2c0 .4-.1.8-.2 1.3s-.2 1-.3 1.6l-.3 1.7c-.1.6-.2 1.1-.3 1.6.4-.2.9-.5 1.4-.8l1.5-.9c.5-.3 1-.5 1.4-.8.5-.2.9-.4 1.2-.6l1.2.8-1 1.8c-.4.6-.8 1.3-1.1 1.9l-1.2 1.9c-.4.7-.8 1.3-1.2 1.9l-1.3-.9c.6-.9 1.2-1.7 1.7-2.6l1.7-2.7c-.2.1-.4.2-.7.4-.3.1-.5.3-.8.5-.3.2-.6.4-.9.5-.3.2-.6.4-.9.5-.3.2-.6.3-.8.5-.3.2-.5.3-.7.4l-1-.7c0-.2.1-.5.2-.8.1-.3.1-.6.2-1 .1-.3.1-.7.2-1.1.1-.4.1-.7.2-1l.2-1c.1-.3.1-.6.1-.8l-2 2.4c-.7.9-1.3 1.7-1.9 2.5l-1.3-.9 1.4-1.8 1.5-1.8c.5-.6 1-1.2 1.5-1.7s.9-1 1.3-1.5l1 1.2zM413.9 116.9c-.3.4-.7.7-1.1 1-.4.2-.8.4-1.2.5-.4.1-.8 0-1.2-.1-.4-.1-.8-.3-1.2-.6-.4-.3-.7-.6-.9-1-.2-.4-.3-.8-.3-1.2 0-.4 0-.8.2-1.3.1-.4.4-.9.7-1.3.3-.4.7-.7 1.1-1 .4-.2.8-.4 1.2-.5.4-.1.8 0 1.2.1.4.1.8.3 1.2.6.4.3.7.6.9 1 .2.4.3.8.4 1.2 0 .4 0 .8-.2 1.3l-.8 1.3zm-1.3-1c.4-.5.6-1 .6-1.5s-.2-.9-.6-1.2c-.4-.3-.8-.4-1.3-.3-.5.1-.9.5-1.3 1s-.6 1-.7 1.5c0 .5.2.9.6 1.2.4.3.8.4 1.3.3.6-.1 1-.5 1.4-1zM417.4 123.9c-.3-.1-.6-.3-1-.5s-.8-.5-1.2-.8c-.4-.3-.7-.7-.9-1.1-.2-.4-.3-.8-.4-1.2 0-.4 0-.8.2-1.3.2-.4.4-.9.7-1.3.3-.4.7-.7 1.1-1 .4-.2.8-.4 1.1-.5.4-.1.8-.1 1.2 0 .4.1.8.3 1.1.6l.6.6c.1.2.3.4.3.6l2-2.5 1.3.8-6.1 7.6zm-1.4-5.2c-.4.5-.6 1-.6 1.5s.2.9.7 1.3c.2.2.4.3.5.4.1.1.3.2.4.2l2.4-2.9c0-.2-.1-.3-.2-.5s-.3-.4-.5-.5c-.4-.4-.9-.5-1.3-.3-.5 0-.9.3-1.4.8zM420.6 122.7c.4-.4.8-.8 1.2-1 .4-.2.8-.3 1.3-.3.4 0 .8 0 1.2.2.4.1.7.3 1 .6.7.6 1 1.3 1 2.1s-.4 1.6-1.1 2.4l-.2.2-.2.2-3.2-3c-.3.4-.5.9-.4 1.3 0 .4.3.9.8 1.3.3.2.6.5.8.6.3.2.5.3.7.3l-.7 1.1-.3-.1c-.1-.1-.3-.2-.5-.3l-.5-.3c-.2-.1-.4-.3-.5-.4-.4-.4-.7-.8-.9-1.2-.2-.4-.3-.8-.3-1.3 0-.4.1-.8.3-1.2-.1-.5.2-.9.5-1.2zm3.8 2.5c.1-.2.3-.3.3-.5.1-.2.1-.4.1-.5 0-.2 0-.4-.1-.5-.1-.2-.2-.3-.4-.5s-.4-.3-.6-.3c-.2-.1-.4-.1-.6 0-.2 0-.4.1-.5.2l-.5.3 2.3 1.8zM425.5 131.9c-.3-.3-.6-.6-.7-.9-.2-.3-.2-.5-.2-.8 0-.2.1-.5.2-.7.1-.2.3-.5.5-.7l5.3-5.5 1.3.9-5.3 5.5-.3.4c-.1.1-.1.2-.1.3 0 .1 0 .2.1.4l.3.4-1.1.7zM433.2 134.8c-.4.4-.8.6-1.2.8-.4.2-.8.3-1.2.3-.4 0-.8-.1-1.2-.2-.4-.2-.8-.4-1.1-.8-.3-.3-.6-.7-.7-1.1-.2-.4-.2-.8-.2-1.2 0-.4.1-.8.3-1.2.2-.4.5-.8.9-1.2.4-.4.8-.6 1.2-.8.4-.2.8-.3 1.2-.3.4 0 .8.1 1.2.2.4.2.8.4 1.1.7.3.3.6.7.7 1.1.2.4.2.8.2 1.2 0 .4-.1.8-.3 1.2-.2.5-.5.9-.9 1.3zm-1.1-1.2c.5-.5.7-.9.8-1.4.1-.5-.1-.9-.4-1.3-.4-.4-.8-.5-1.2-.4-.5.1-.9.3-1.4.8-.5.5-.8.9-.8 1.4-.1.5.1.9.4 1.3.4.4.8.5 1.2.4.5 0 .9-.3 1.4-.8zM437.7 144.4c-.3-.2-.6-.4-1-.7-.4-.3-.7-.6-1-1-.4-.4-.6-.8-.8-1.2-.2-.4-.2-.8-.2-1.3 0-.4.2-.8.4-1.2.2-.4.5-.8.9-1.1.4-.3.8-.6 1.2-.8.4-.2.8-.3 1.2-.3.4 0 .8.1 1.1.2.4.2.7.4 1 .8.2.2.4.5.5.7.1.2.2.4.2.6l2.4-2.1 1.2 1-7.1 6.4zm-.5-5.4c-.5.4-.8.9-.9 1.4-.1.5.1 1 .5 1.4.2.2.3.3.4.5l.3.3 2.9-2.5c0-.2-.1-.4-.2-.6-.1-.2-.2-.4-.4-.6-.4-.4-.8-.6-1.2-.5-.5 0-1 .2-1.4.6zM441.1 143.6c.5-.4.9-.6 1.4-.8.5-.1.9-.2 1.3-.2s.8.2 1.1.3c.4.2.7.4.9.7.6.7.8 1.4.7 2.2-.1.8-.6 1.5-1.5 2.2l-.2.2c-.1.1-.2.1-.2.2l-2.8-3.4c-.4.4-.6.8-.6 1.2 0 .4.2.9.6 1.4.2.3.5.5.7.7.2.2.5.3.6.4l-.8 1c-.1 0-.2-.1-.3-.2l-.4-.3-.5-.4-.5-.5c-.4-.5-.6-.9-.8-1.3-.1-.4-.2-.9-.1-1.3s.2-.8.4-1.2l1-.9zm3.4 3c.2-.1.3-.3.4-.5.1-.2.2-.3.2-.5v-.5c0-.2-.1-.4-.3-.5-.2-.2-.3-.3-.5-.4-.2-.1-.4-.1-.6-.1-.2 0-.4 0-.6.1-.2.1-.4.2-.5.3l1.9 2.1zM380.3 107.1l1.5.5-1 1.7 2 1.2-.6 1.1-2-1.2-1.4 2.3c-.3.5-.4.8-.4 1.1 0 .3.2.5.6.7l.7.3c.2.1.4.1.5.1l-.4 1.2c-.2 0-.4-.1-.7-.1-.3-.1-.6-.2-.9-.4-.4-.2-.7-.5-.9-.8-.2-.3-.3-.6-.4-.9 0-.3 0-.6.1-1 .1-.3.3-.7.5-1.1l2.8-4.7zM386.7 114.6l-.4-.4-.6-.5c-.1-.1-.3-.2-.5-.2-.2-.1-.3-.1-.4-.1l-2.8 4.5-1.3-.8 3.3-5.4c.3.1.7.2 1.1.3.4.2.9.4 1.3.7l.3.2.3.3.3.3.2.2-.8.9zM390.6 115.3c.4.3.7.6 1 .9.2.3.4.6.4.9 0 .3 0 .6-.1.9-.1.3-.3.6-.5 1l-2.2 3.4c-.2-.1-.6-.2-1-.4s-.9-.5-1.4-.8c-.3-.2-.6-.5-.8-.7-.2-.2-.4-.5-.5-.8-.1-.3-.1-.6-.1-.9 0-.3.2-.6.4-.9.2-.3.5-.5.7-.7.3-.1.6-.2.9-.2.3 0 .6.1.9.2.3.1.6.3.9.5l.4.3.4.4.1-.2c.1-.1.2-.3.2-.5.1-.2.1-.3.1-.5s-.1-.3-.2-.5-.3-.3-.5-.4c-.3-.2-.6-.4-.9-.5-.3-.1-.5-.2-.7-.3l.5-1.1c.2.1.5.2.8.3.5.2.9.4 1.2.6zm-3 4.9c.4.3.7.4.9.5l.9-1.4c-.1-.1-.1-.2-.3-.3l-.4-.3c-.1-.1-.3-.2-.5-.3-.2-.1-.3-.1-.5-.1s-.3 0-.4.1l-.4.3c-.2.3-.2.6-.1.8.2.2.4.4.8.7zM394.2 118.2c.3.1.7.3 1.1.5.4.2.9.5 1.4.8.4.3.8.6 1 1 .2.3.3.7.4 1 0 .3 0 .7-.2 1.1-.1.4-.3.7-.6 1.1l-2.1 3.1-1.3-.9 2-2.9c.2-.3.4-.6.5-.8.1-.2.2-.4.2-.6 0-.2-.1-.4-.2-.5-.1-.2-.3-.3-.5-.5l-.5-.3c-.2-.1-.3-.2-.4-.2l-3.1 4.4-1.3-.9 3.6-5.4zM398.5 128c.3.2.6.4.8.4.2 0 .4 0 .5-.2.1-.2.2-.4.1-.6-.1-.2-.2-.6-.5-1-.2-.2-.3-.5-.4-.7-.1-.2-.2-.5-.2-.7v-.7c.1-.2.2-.5.4-.7.4-.5.8-.7 1.4-.7.6 0 1.2.2 1.8.7.3.2.6.5.8.8.2.3.4.5.5.7l-1 .8c-.1-.2-.2-.4-.4-.6-.2-.2-.4-.4-.7-.6-.2-.2-.5-.3-.7-.3-.2 0-.4 0-.5.2-.1.1-.1.2-.1.3v.3c0 .1.1.2.2.4.1.1.2.3.3.5.2.3.4.6.5.9.1.3.2.5.2.7 0 .2 0 .5-.1.7-.1.2-.2.4-.4.7-.4.5-.9.7-1.4.7-.6 0-1.2-.3-1.9-.8-.5-.4-.8-.7-1-1-.2-.3-.4-.5-.4-.6l1-.9c.1.2.3.5.5.7.2.1.4.3.7.6zM409.4 125.5c.3.2.5.4.7.7.2.2.3.4.4.5l-1 .8-.3-.4c-.1-.2-.3-.3-.4-.4-.2-.2-.4-.3-.6-.3-.2-.1-.3-.1-.5 0-.2 0-.3.1-.5.2s-.3.3-.4.4l-.3.3 1.9 1.5-.8 1-1.9-1.5-3.4 4.2-1.2-1 4.5-5.5c.5-.7 1.1-1 1.8-1.1.6-.3 1.3 0 2 .6zM411.6 135.9c-.3.4-.7.7-1.1.9-.4.2-.8.4-1.2.4-.4 0-.8 0-1.2-.1-.4-.1-.8-.4-1.1-.7-.4-.3-.6-.7-.8-1-.2-.4-.3-.8-.3-1.2 0-.4.1-.8.2-1.3.2-.4.4-.8.8-1.2.3-.4.7-.7 1.1-.9.4-.2.8-.3 1.2-.4.4 0 .8 0 1.2.1.4.1.8.4 1.1.7.4.3.6.7.8 1 .2.4.3.8.3 1.2 0 .4-.1.8-.2 1.3-.2.4-.5.8-.8 1.2zm-1.2-1c.4-.5.7-1 .7-1.5s-.1-.9-.5-1.2c-.4-.3-.8-.5-1.3-.3-.5.1-.9.4-1.3.9s-.7 1-.7 1.5.1.9.5 1.2c.4.3.8.5 1.3.3.4-.1.9-.4 1.3-.9zM416.8 138.2c-.1-.1-.2-.3-.3-.5-.1-.2-.3-.4-.5-.6l-.4-.3c-.2-.1-.3-.2-.4-.2l-3.6 3.9-1.1-1.1 4.3-4.6c.3.1.6.3 1 .5s.8.5 1.2.9c.1.1.2.2.2.3l.3.3c.1.1.2.2.2.3l.2.3-1.1.8zM419.3 143.2c.5-.5.8-.9.9-1.2.1-.3 0-.7-.3-1-.1-.1-.3-.2-.4-.4-.2-.1-.3-.2-.4-.3l-3.8 3.8-1.1-1.1 4.6-4.5c.3.2.6.4 1 .7.4.3.8.6 1.1 1 .3.3.5.6.7.9.1.3.2.6.2.9.1 0 .2.1.4.1s.3.1.5.2l.5.3c.2.1.3.2.5.4.4.4.6.7.7 1.1.1.3.2.7.1 1-.1.3-.2.6-.4 1-.2.3-.5.6-.8.9l-2.7 2.6-1.1-1.1 2.5-2.4c.5-.5.8-.9.9-1.2.1-.3 0-.7-.4-1-.2-.2-.4-.3-.6-.4-.2-.1-.4-.2-.5-.2-.1.2-.2.4-.4.6l-.5.6-2.6 2.6-1.1-1.1 2.5-2.8zM428.3 147.9c.3.4.6.7.7 1.1.1.3.2.7.2 1 0 .3-.1.6-.3.9-.2.3-.4.6-.7.8l-3 2.7c-.2-.1-.5-.4-.9-.7-.4-.3-.8-.7-1.2-1.1-.3-.3-.5-.6-.6-.9-.2-.3-.3-.6-.3-.9 0-.3 0-.6.1-.8.1-.3.3-.6.6-.8.3-.3.6-.4.9-.5.3-.1.6-.1.9 0 .3.1.6.2.9.4.3.2.5.4.8.7l.3.4.3.5.2-.2c.1-.1.2-.2.3-.4.1-.1.1-.3.2-.5 0-.2 0-.3-.1-.5s-.2-.4-.4-.6c-.2-.3-.5-.5-.7-.7-.2-.2-.4-.3-.6-.4l.8-1c.2.1.4.3.7.5l.9 1zm-4.2 3.9c.3.4.6.6.8.8l1.3-1.1c0-.1-.1-.2-.2-.3l-.3-.4-.4-.4-.4-.3c-.1-.1-.3-.1-.4-.1-.2 0-.3.1-.4.2-.3.2-.4.5-.3.8-.1.2 0 .5.3.8zM428.5 153.4c.4-.3.8-.5 1.2-.7.4-.2.8-.2 1.3-.2.4 0 .8.1 1.2.3.4.2.8.5 1.1.9.4.5.7 1 .9 1.6l-1.2.5-.2-.6c-.1-.2-.2-.4-.4-.6-.4-.5-.8-.7-1.3-.7s-1 .2-1.5.7c-.5.4-.8.9-.9 1.3-.1.5.1 1 .5 1.5.2.2.4.4.6.5.2.2.4.3.6.4l-.8 1c-.2-.1-.4-.2-.7-.4-.3-.2-.5-.5-.8-.8-.4-.4-.6-.9-.7-1.3-.1-.4-.2-.9-.1-1.3s.2-.8.5-1.2c0-.3.3-.6.7-.9zM430.9 161.6l-1-1.2 5.2-4.1 1 1.2-5.2 4.1zm6.9-5.2c-.2.2-.5.2-.7.2-.2 0-.5-.2-.6-.4-.2-.2-.2-.4-.2-.7 0-.2.1-.5.4-.6.2-.2.5-.3.7-.2.3 0 .5.2.6.4.2.2.2.4.2.7-.1.2-.2.4-.4.6zM438.3 165.9c-.4.3-.9.5-1.3.7-.4.1-.9.2-1.3.1-.4 0-.8-.2-1.2-.4-.4-.2-.7-.5-1-.9-.3-.4-.5-.8-.6-1.2-.1-.4-.1-.8 0-1.2.1-.4.2-.8.5-1.2.3-.4.6-.7 1-1 .4-.3.9-.5 1.3-.7.4-.1.9-.2 1.3-.1.4 0 .8.2 1.2.4.4.2.7.5 1 .9.3.4.5.8.6 1.2.1.4.1.8 0 1.2-.1.4-.2.8-.5 1.2-.2.4-.5.7-1 1zm-.9-1.2c.5-.4.9-.8 1-1.3.1-.5.1-.9-.2-1.3-.3-.4-.7-.6-1.2-.6s-1 .2-1.5.6c-.5.4-.9.8-1 1.3-.1.5-.1.9.2 1.3.3.4.7.6 1.2.6s1-.2 1.5-.6zm4.9-3.6l-2.8-.5.1-1 2.9.2-.2 1.3zM441.8 165.5c.2.2.5.5.9.8l1 1.2c.3.4.5.9.6 1.2.1.4.1.7 0 1.1-.1.3-.3.6-.5.9-.3.3-.6.6-.9.8l-3.1 2.1-.9-1.3 2.9-2c.3-.2.5-.4.7-.6.2-.2.3-.4.4-.5.1-.2.1-.4 0-.6 0-.2-.1-.4-.3-.6-.1-.2-.2-.3-.4-.5-.1-.2-.2-.3-.3-.4l-4.4 3-.9-1.3 5.2-3.3z"/></svg>