<?xml version="1.0" encoding="utf-8"?>
<!-- Generator: Adobe Illustrator 23.0.1, SVG Export Plug-In . SVG Version: 6.00 Build 0)  -->
<svg version="1.1" id="chart" xmlns="http://www.w3.org/2000/svg" xmlns:xlink="http://www.w3.org/1999/xlink" x="0px" y="0px"
	 viewBox="0 0 281.2 136.5" style="enable-background:new 0 0 281.2 136.5;" xml:space="preserve">
<style type="text/css">
	.st0{fill:#706F6F;}
	.st1{fill:#FFFFFF;}
	.st2{fill:#9BD2C5;stroke:#FFFFFF;}
	.st3{fill:#5491CD;}
	.st4{fill:#455AA5;}
	.st5{fill:#5491CD;stroke:#FFFFFF;stroke-width:3;}
	.st6{fill:#FFFFFF;stroke:#FFFFFF;stroke-width:3;}
	.st7{fill:#9BD2C5;stroke:#FFFFFF;stroke-width:3;}
	.st8{fill:#455AA5;stroke:#FFFFFF;stroke-width:3;}
</style>
<g id="logo" transform="translate(233.000000, 252.000000)">
	<path id="Shape" class="st0" d="M-81.5-178.3c-0.1,5.7-4.8,10.2-10.5,10.1c-5.7-0.1-10.2-4.8-10.1-10.5c0.1-5.7,4.8-10.2,10.5-10.1
		C-86-188.8-81.4-184-81.5-178.3z"/>
	<g id="Group" transform="translate(16.000000, 31.000000)">
		<path class="st1" d="M-112.9-212.2c0.1,0.1,0.1,0.3,0.2,0.5c0.1,0.2,0.2,0.4,0.3,0.6c0.1,0.2,0.2,0.5,0.3,0.7
			c0.1,0.2,0.2,0.5,0.3,0.7c0.1-0.2,0.2-0.4,0.3-0.6c0.1-0.2,0.2-0.5,0.3-0.7c0.1-0.2,0.2-0.4,0.3-0.6c0.1-0.2,0.2-0.3,0.3-0.5
			l0.8,0c0,0.3,0.1,0.6,0.1,0.9c0,0.3,0,0.7,0.1,1.1c0,0.4,0,0.7,0,1.1c0,0.4,0,0.7,0,1l-0.9,0c0-0.4,0-0.8,0-1.3
			c0-0.5,0-0.9-0.1-1.4c-0.1,0.2-0.2,0.3-0.2,0.5c-0.1,0.2-0.2,0.4-0.3,0.6c-0.1,0.2-0.2,0.4-0.3,0.6c-0.1,0.2-0.2,0.3-0.2,0.5
			l-0.6,0c-0.1-0.1-0.1-0.3-0.2-0.5c-0.1-0.2-0.2-0.4-0.2-0.6c-0.1-0.2-0.2-0.4-0.2-0.6c-0.1-0.2-0.2-0.4-0.2-0.6
			c-0.1,0.5-0.1,0.9-0.1,1.4c0,0.5-0.1,0.9-0.1,1.3l-0.9,0c0-0.3,0-0.7,0.1-1c0-0.4,0.1-0.7,0.1-1.1c0-0.4,0.1-0.7,0.1-1
			c0-0.3,0.1-0.6,0.1-0.9L-112.9-212.2z"/>
		<path class="st1" d="M-108-207.9c-0.1,0-0.2,0-0.3,0c-0.1,0-0.2,0-0.3-0.1c-0.1,0-0.2-0.1-0.3-0.1c-0.1,0-0.2-0.1-0.2-0.1l0.2-0.7
			c0.1,0,0.2,0.1,0.4,0.1c0.2,0.1,0.4,0.1,0.6,0.1c0.3,0,0.5,0,0.6-0.1c0.1-0.1,0.2-0.2,0.2-0.4c0-0.1,0-0.2-0.1-0.3
			c0-0.1-0.1-0.1-0.2-0.2c-0.1,0-0.2-0.1-0.3-0.1c-0.1,0-0.2,0-0.3,0l-0.3,0l0-0.7l0.4,0c0.1,0,0.2,0,0.3,0c0.1,0,0.2,0,0.2-0.1
			c0.1,0,0.1-0.1,0.2-0.1c0-0.1,0.1-0.1,0.1-0.2c0-0.1,0-0.1,0-0.2c0-0.1-0.1-0.1-0.1-0.1c0,0-0.1-0.1-0.2-0.1c-0.1,0-0.1,0-0.2,0
			c-0.2,0-0.3,0-0.5,0.1c-0.1,0-0.3,0.1-0.4,0.2l-0.3-0.6c0.1,0,0.1-0.1,0.2-0.1c0.1,0,0.2-0.1,0.3-0.1c0.1,0,0.2-0.1,0.3-0.1
			c0.1,0,0.2,0,0.4,0c0.2,0,0.4,0,0.6,0.1c0.2,0.1,0.3,0.1,0.4,0.3c0.1,0.1,0.2,0.2,0.2,0.4c0.1,0.1,0.1,0.3,0.1,0.5
			c0,0.2-0.1,0.3-0.1,0.5c-0.1,0.1-0.2,0.3-0.4,0.3c0.2,0.1,0.4,0.2,0.5,0.4c0.1,0.2,0.2,0.4,0.2,0.6c0,0.2,0,0.4-0.1,0.5
			c-0.1,0.2-0.2,0.3-0.3,0.4c-0.1,0.1-0.3,0.2-0.5,0.3C-107.4-207.9-107.7-207.9-108-207.9z"/>
		<path class="st1" d="M-101.5-209.9c0,0.3,0,0.5-0.1,0.8c-0.1,0.2-0.2,0.4-0.3,0.6c-0.1,0.2-0.3,0.3-0.5,0.4
			c-0.2,0.1-0.4,0.2-0.6,0.2c0,0.1,0.1,0.1,0.1,0.2c0.1,0,0.1,0.1,0.3,0.1c0.1,0,0.2,0.1,0.4,0.1c0.1,0,0.3,0,0.4,0.1l-0.2,0.7
			c-0.3,0-0.6-0.1-0.8-0.1c-0.2-0.1-0.4-0.1-0.6-0.2c-0.1-0.1-0.3-0.2-0.4-0.3c-0.1-0.1-0.1-0.3-0.2-0.4c-0.2,0-0.5-0.1-0.7-0.2
			c-0.2-0.1-0.4-0.3-0.5-0.4c-0.2-0.2-0.3-0.4-0.3-0.6c-0.1-0.3-0.1-0.5-0.1-0.8c0-0.3,0.1-0.7,0.2-0.9c0.1-0.3,0.3-0.5,0.5-0.7
			c0.2-0.2,0.4-0.3,0.7-0.4c0.2-0.1,0.5-0.1,0.8-0.1c0.3,0,0.5,0.1,0.8,0.2c0.2,0.1,0.5,0.2,0.6,0.4c0.2,0.2,0.3,0.4,0.4,0.7
			C-101.6-210.6-101.5-210.3-101.5-209.9z M-104.7-210c0,0.2,0,0.4,0.1,0.5c0,0.2,0.1,0.3,0.2,0.4c0.1,0.1,0.2,0.2,0.3,0.3
			c0.1,0.1,0.3,0.1,0.5,0.1c0.2,0,0.3,0,0.5-0.1c0.1-0.1,0.3-0.1,0.3-0.3c0.1-0.1,0.2-0.3,0.2-0.4c0.1-0.2,0.1-0.3,0.1-0.5
			c0-0.2,0-0.4-0.1-0.5c0-0.2-0.1-0.3-0.2-0.4c-0.1-0.1-0.2-0.2-0.3-0.3c-0.1-0.1-0.3-0.1-0.5-0.1c-0.2,0-0.3,0-0.5,0.1
			c-0.1,0.1-0.2,0.1-0.3,0.3c-0.1,0.1-0.2,0.3-0.2,0.4C-104.6-210.4-104.7-210.2-104.7-210z"/>
	</g>
</g>
<g id="ext-labels" transform="translate(0.000000, 21.000000)">
	<g id="cultura" transform="translate(200.000000, 0.000000)">
		<path class="st2" d="M-73.2-6.6c-0.5,0.1-0.9,0.2-1.4,0.1c-0.4-0.1-0.8-0.2-1.2-0.4c-0.4-0.2-0.7-0.6-0.9-1
			c-0.3-0.4-0.5-0.9-0.6-1.5c-0.1-0.6-0.2-1.1-0.1-1.6c0.1-0.5,0.2-0.9,0.4-1.3c0.2-0.4,0.5-0.7,0.9-1c0.4-0.3,0.8-0.4,1.2-0.6
			c0.3-0.1,0.5-0.1,0.8-0.1c0.2,0,0.4,0,0.6,0c0.2,0,0.3,0,0.5,0.1c0.1,0,0.2,0,0.2,0.1l-0.1,0.9c-0.1,0-0.2,0-0.3-0.1
			c-0.1,0-0.3,0-0.4,0c-0.2,0-0.3,0-0.5,0c-0.2,0-0.3,0-0.5,0.1c-0.4,0.1-0.7,0.2-0.9,0.4c-0.3,0.2-0.5,0.4-0.6,0.7s-0.2,0.6-0.3,1
			c0,0.4,0,0.8,0.1,1.2c0.1,0.4,0.2,0.8,0.4,1.1c0.2,0.3,0.4,0.6,0.6,0.8c0.3,0.2,0.5,0.3,0.9,0.4c0.3,0.1,0.7,0,1.1-0.1
			c0.4-0.1,0.8-0.2,1.1-0.4c0.3-0.2,0.5-0.3,0.6-0.4l0.4,0.7c0,0-0.1,0.1-0.2,0.2c-0.1,0.1-0.2,0.2-0.4,0.3C-72-7-72.2-6.9-72.4-6.8
			C-72.6-6.7-72.9-6.6-73.2-6.6z"/>
		<path class="st2" d="M-67.6-7.6c-0.5,0.1-0.9,0.1-1.2,0c-0.4-0.1-0.7-0.2-0.9-0.5c-0.3-0.2-0.5-0.5-0.6-0.8
			c-0.2-0.3-0.3-0.7-0.3-1.1l-0.6-4.4l1-0.1l0.6,4.3c0.1,0.7,0.3,1.2,0.7,1.5c0.4,0.3,0.8,0.4,1.3,0.3c0.2,0,0.5-0.1,0.7-0.2
			c0.2-0.1,0.4-0.3,0.5-0.4c0.1-0.2,0.2-0.4,0.3-0.7c0-0.3,0-0.6,0-0.9l-0.6-4.3l1-0.1l0.6,4.4c0.1,0.4,0.1,0.8,0,1.1
			c-0.1,0.4-0.2,0.7-0.4,0.9c-0.2,0.3-0.4,0.5-0.7,0.7C-66.7-7.8-67.1-7.7-67.6-7.6z"/>
		<polygon class="st2" points="-59.2,-9.3 -59.1,-8.4 -63.4,-8.2 -63.7,-15.3 -62.7,-15.4 -62.4,-9.1 		"/>
		<polygon class="st2" points="-54.5,-15.4 -54.5,-14.5 -56.7,-14.6 -56.9,-8.4 -57.8,-8.4 -57.7,-14.6 -59.9,-14.6 -59.9,-15.5 		
			"/>
		<path class="st2" d="M-51.2-7.8c-0.5-0.1-0.8-0.2-1.2-0.4c-0.3-0.2-0.6-0.4-0.8-0.7c-0.2-0.3-0.3-0.6-0.4-0.9
			c-0.1-0.4-0.1-0.7,0-1.1l0.5-4.4l1,0.1l-0.5,4.3c-0.1,0.7,0,1.2,0.3,1.6c0.3,0.4,0.7,0.6,1.2,0.6c0.2,0,0.5,0,0.7,0
			c0.2-0.1,0.4-0.2,0.6-0.3c0.2-0.1,0.3-0.3,0.4-0.6c0.1-0.2,0.2-0.5,0.2-0.9l0.5-4.3l1,0.1l-0.5,4.4c0,0.4-0.1,0.8-0.3,1.1
			c-0.1,0.3-0.3,0.6-0.6,0.8c-0.2,0.2-0.6,0.4-0.9,0.5C-50.3-7.7-50.7-7.7-51.2-7.8z"/>
		<path class="st2" d="M-42.9-9.4c0.1,0.2,0.2,0.4,0.3,0.6c0.1,0.3,0.2,0.5,0.3,0.8c0.1,0.3,0.2,0.6,0.3,0.9
			c0.1,0.3,0.2,0.6,0.2,0.9l-1.1-0.2c-0.1-0.3-0.2-0.6-0.3-0.9c-0.1-0.3-0.2-0.6-0.3-0.8c-0.1-0.3-0.2-0.5-0.3-0.8
			c-0.1-0.2-0.2-0.5-0.3-0.6c-0.1,0-0.2,0-0.3-0.1c-0.1,0-0.2,0-0.3-0.1l-0.9-0.2L-46-7.1l-1-0.2l1.6-6.8c0.3,0,0.6,0,0.9,0.1
			c0.3,0.1,0.6,0.1,0.9,0.2c1,0.2,1.7,0.6,2.1,1.1c0.4,0.5,0.6,1.1,0.4,1.8c-0.1,0.5-0.3,0.8-0.6,1.1C-42-9.6-42.4-9.5-42.9-9.4z
			 M-43.7-13c-0.4-0.1-0.7-0.2-1-0.2l-0.6,2.6l0.7,0.2c0.3,0.1,0.6,0.1,0.9,0.2c0.3,0,0.5,0,0.7,0c0.2-0.1,0.4-0.1,0.5-0.3
			c0.1-0.1,0.2-0.4,0.3-0.6c0.1-0.3,0.1-0.5,0-0.7c-0.1-0.2-0.2-0.4-0.3-0.5c-0.1-0.1-0.3-0.3-0.5-0.3C-43.2-12.8-43.4-12.9-43.7-13
			z"/>
		<path class="st2" d="M-36.2-4.2c0-0.3,0-0.6,0-1c0-0.3,0-0.6,0-1l-3-1.1l-1.2,1.5l-1-0.3c0.5-0.6,1-1.2,1.4-1.7
			c0.4-0.5,0.9-1,1.3-1.5c0.4-0.5,0.8-0.9,1.2-1.3c0.4-0.4,0.8-0.8,1.2-1.2l0.9,0.3c0.1,0.6,0.1,1.1,0.2,1.7c0,0.6,0.1,1.2,0.1,1.8
			c0,0.6,0,1.3,0.1,1.9c0,0.7,0,1.4,0,2.2L-36.2-4.2z M-36.2-7c0-0.6,0-1.2,0-1.8c0-0.6-0.1-1.2-0.1-1.7c-0.4,0.4-0.8,0.8-1.2,1.3
			c-0.4,0.5-0.8,0.9-1.2,1.4L-36.2-7z"/>
	</g>
	<g id="personas" transform="translate(0.000000, 303.000000)">
		<path class="st3" d="M79.9-241c0.1,1,0,1.8-0.3,2.3c-0.3,0.6-0.8,0.9-1.6,1c-0.4,0.1-0.8,0-1.1-0.1c-0.3-0.1-0.6-0.3-0.8-0.5
			c-0.2-0.2-0.4-0.6-0.5-0.9c-0.1-0.4-0.2-0.8-0.3-1.3l-0.1-0.8l-2.6,0.3l-0.1-1l6.9-0.9c0.1,0.3,0.2,0.6,0.3,0.9
			C79.8-241.6,79.8-241.2,79.9-241z M79-240.8c-0.1-0.4-0.1-0.7-0.2-1l-2.8,0.4l0.1,0.7c0,0.3,0.1,0.6,0.2,0.9
			c0.1,0.3,0.2,0.5,0.3,0.7c0.1,0.2,0.3,0.3,0.5,0.4c0.2,0.1,0.4,0.1,0.7,0.1c0.3,0,0.5-0.1,0.6-0.2c0.2-0.1,0.3-0.3,0.4-0.5
			c0.1-0.2,0.1-0.4,0.1-0.7C79.1-240.3,79.1-240.5,79-240.8z"/>
		<polygon class="st3" points="73.5,-235.3 80.4,-236.9 81.4,-232.7 80.6,-232.5 79.8,-235.8 77.8,-235.3 78.4,-232.4 77.6,-232.2 
			77,-235.1 74.6,-234.6 75.4,-231.1 74.6,-230.9 		"/>
		<path class="st3" d="M78.9-226.9c-0.1,0.1-0.2,0.3-0.4,0.6c-0.2,0.2-0.3,0.5-0.5,0.7c-0.2,0.3-0.4,0.5-0.6,0.8
			c-0.2,0.3-0.4,0.5-0.7,0.7l-0.3-1c0.2-0.2,0.4-0.4,0.6-0.7c0.2-0.2,0.4-0.5,0.6-0.7c0.2-0.2,0.3-0.5,0.5-0.7
			c0.1-0.2,0.3-0.4,0.4-0.6c0-0.1-0.1-0.2-0.1-0.3c0-0.1-0.1-0.2-0.1-0.3l-0.3-0.8l-2.6,0.9l-0.3-0.9l6.6-2.2
			c0.2,0.2,0.3,0.5,0.4,0.8c0.1,0.3,0.2,0.6,0.3,0.9c0.3,0.9,0.4,1.7,0.2,2.3c-0.2,0.6-0.6,1-1.3,1.3c-0.4,0.1-0.9,0.2-1.3,0
			C79.6-226.3,79.2-226.5,78.9-226.9z M81.6-229.4c-0.1-0.4-0.2-0.7-0.3-0.9l-2.5,0.8l0.2,0.7c0.1,0.3,0.2,0.6,0.3,0.9
			c0.1,0.2,0.3,0.4,0.4,0.6c0.1,0.1,0.3,0.2,0.5,0.3c0.2,0,0.4,0,0.7-0.1c0.3-0.1,0.4-0.2,0.6-0.4c0.1-0.2,0.2-0.3,0.3-0.5
			c0-0.2,0-0.4,0-0.6C81.7-228.9,81.7-229.2,81.6-229.4z"/>
		<path class="st3" d="M78.6-221.6c0.4,0.9,0.9,1.3,1.6,1c0.2-0.1,0.4-0.2,0.5-0.4c0.1-0.1,0.2-0.3,0.2-0.5c0-0.2,0.1-0.4,0.1-0.6
			c0-0.2,0-0.4,0-0.7c0-0.3,0-0.5,0-0.8c0-0.3,0.1-0.5,0.1-0.7c0.1-0.2,0.2-0.4,0.3-0.6c0.2-0.2,0.4-0.3,0.6-0.4
			c0.6-0.2,1.1-0.3,1.6,0c0.5,0.2,0.9,0.7,1.2,1.4c0.2,0.4,0.3,0.8,0.3,1.1c0.1,0.4,0.1,0.6,0,0.8l-0.9,0c0-0.2,0-0.4,0-0.7
			c0-0.3-0.1-0.6-0.3-1c-0.1-0.2-0.2-0.3-0.3-0.5c-0.1-0.1-0.2-0.2-0.3-0.3c-0.1-0.1-0.3-0.1-0.4-0.1c-0.1,0-0.3,0-0.5,0.1
			c-0.2,0.1-0.3,0.2-0.4,0.3c-0.1,0.1-0.2,0.3-0.2,0.4c0,0.2-0.1,0.3-0.1,0.5c0,0.2,0,0.4,0,0.6c0,0.3,0,0.6,0,0.9
			c0,0.3-0.1,0.5-0.1,0.8c-0.1,0.2-0.2,0.5-0.4,0.6c-0.2,0.2-0.4,0.3-0.7,0.5c-0.6,0.2-1.1,0.2-1.6,0c-0.5-0.3-0.9-0.8-1.2-1.6
			c-0.1-0.3-0.2-0.5-0.3-0.7c-0.1-0.2-0.1-0.4-0.1-0.6c0-0.2,0-0.4,0-0.5c0-0.1,0-0.3,0-0.3l0.9-0.1c0,0.2,0,0.4,0,0.8
			C78.3-222.4,78.4-222.1,78.6-221.6z"/>
		<path class="st3" d="M82.6-219.5c0.5-0.3,1-0.5,1.5-0.6c0.5-0.1,0.9-0.1,1.4,0.1c0.4,0.1,0.8,0.3,1.1,0.6c0.3,0.3,0.6,0.6,0.9,1
			c0.2,0.4,0.4,0.8,0.4,1.2c0.1,0.4,0,0.9-0.1,1.3c-0.1,0.4-0.3,0.8-0.6,1.2c-0.3,0.4-0.7,0.7-1.3,1c-0.5,0.3-1,0.5-1.5,0.6
			c-0.5,0.1-0.9,0.1-1.4-0.1c-0.4-0.1-0.8-0.3-1.1-0.6c-0.3-0.3-0.6-0.6-0.8-1c-0.2-0.4-0.4-0.8-0.4-1.3c-0.1-0.4,0-0.9,0.1-1.3
			c0.1-0.4,0.3-0.8,0.6-1.2C81.7-218.8,82.1-219.2,82.6-219.5z M83.2-218.6c-0.4,0.2-0.7,0.5-0.9,0.7c-0.3,0.3-0.4,0.6-0.5,0.8
			c-0.1,0.3-0.2,0.6-0.1,0.9c0,0.3,0.1,0.6,0.3,0.9c0.2,0.3,0.4,0.6,0.7,0.7c0.3,0.2,0.5,0.3,0.9,0.4c0.3,0.1,0.6,0,1,0
			c0.4-0.1,0.7-0.2,1.1-0.4c0.4-0.2,0.7-0.5,0.9-0.7c0.3-0.3,0.4-0.6,0.5-0.8c0.1-0.3,0.2-0.6,0.1-0.9c0-0.3-0.1-0.6-0.3-0.9
			c-0.2-0.3-0.4-0.6-0.7-0.7c-0.3-0.2-0.5-0.3-0.9-0.4c-0.3-0.1-0.6,0-1,0C83.9-218.9,83.5-218.8,83.2-218.6z"/>
		<path class="st3" d="M86.9-206.3c0.1-0.3,0.2-0.6,0.4-0.9c0.1-0.3,0.3-0.7,0.4-1.1c0.1-0.4,0.3-0.8,0.4-1.2
			c0.1-0.4,0.3-0.8,0.4-1.2c0.1-0.4,0.2-0.8,0.3-1.1c0.1-0.4,0.2-0.7,0.2-1l-4.4,3.3l-0.6-0.8l5.7-4.2l0.5,0.6
			c-0.1,0.5-0.2,1-0.3,1.5c-0.1,0.6-0.3,1.1-0.5,1.7c-0.2,0.6-0.4,1.1-0.5,1.7c-0.2,0.5-0.4,1-0.5,1.4l4.2-3.1l0.6,0.8l-5.7,4.2
			L86.9-206.3z"/>
		<path class="st3" d="M92-200.5c0.1-0.3,0.3-0.6,0.4-0.9c0.1-0.3,0.3-0.6,0.4-0.8l-2.2-2.4l-1.8,0.8l-0.7-0.8
			c0.7-0.3,1.4-0.6,2-0.8c0.6-0.3,1.2-0.5,1.8-0.7c0.6-0.2,1.1-0.4,1.7-0.6c0.5-0.2,1.1-0.4,1.6-0.5l0.6,0.7c-0.2,0.5-0.4,1-0.7,1.6
			c-0.2,0.5-0.5,1.1-0.7,1.6c-0.3,0.6-0.6,1.1-0.9,1.7c-0.3,0.6-0.6,1.3-1,2L92-200.5z M93.3-202.9c0.3-0.6,0.6-1.1,0.8-1.6
			c0.3-0.5,0.5-1.1,0.7-1.6c-0.5,0.2-1.1,0.4-1.6,0.6c-0.6,0.2-1.1,0.5-1.7,0.7L93.3-202.9z"/>
		<path class="st3" d="M95.6-198.1c0.8,0.7,1.4,0.8,1.9,0.2c0.1-0.2,0.2-0.3,0.3-0.5c0-0.2,0-0.4,0-0.5c0-0.2-0.1-0.4-0.2-0.6
			c-0.1-0.2-0.2-0.4-0.3-0.6c-0.1-0.2-0.2-0.5-0.3-0.7c-0.1-0.2-0.2-0.5-0.2-0.7c0-0.2,0-0.5,0.1-0.7c0.1-0.2,0.2-0.4,0.4-0.7
			c0.4-0.5,0.9-0.7,1.4-0.7c0.5,0,1.1,0.3,1.7,0.8c0.3,0.3,0.6,0.6,0.8,0.9c0.2,0.3,0.3,0.5,0.4,0.7l-0.8,0.4c0-0.2-0.1-0.4-0.3-0.6
			c-0.2-0.3-0.4-0.5-0.6-0.8c-0.1-0.1-0.3-0.2-0.4-0.3c-0.1-0.1-0.3-0.1-0.4-0.1c-0.1,0-0.3,0-0.4,0c-0.1,0-0.3,0.1-0.4,0.3
			c-0.1,0.1-0.2,0.3-0.2,0.4c0,0.1,0,0.3,0,0.5c0,0.2,0.1,0.3,0.2,0.5c0.1,0.2,0.2,0.4,0.3,0.6c0.1,0.3,0.3,0.6,0.4,0.8
			c0.1,0.3,0.2,0.5,0.2,0.8c0,0.3,0,0.5-0.1,0.7c-0.1,0.2-0.2,0.5-0.5,0.7c-0.4,0.5-0.9,0.7-1.5,0.6c-0.6-0.1-1.1-0.4-1.8-0.9
			c-0.2-0.2-0.4-0.4-0.5-0.6c-0.2-0.2-0.3-0.4-0.4-0.5c-0.1-0.2-0.2-0.3-0.2-0.4c-0.1-0.1-0.1-0.2-0.1-0.3l0.8-0.4
			c0.1,0.2,0.2,0.4,0.3,0.7C95-198.7,95.3-198.4,95.6-198.1z"/>
	</g>
	<g id="procesos" transform="translate(418.000000, 324.000000)">
		<path class="st4" d="M-239.7-220.5c0.8-0.6,1.5-0.9,2.2-0.9c0.7,0,1.2,0.3,1.7,0.9c0.2,0.3,0.4,0.6,0.5,1c0.1,0.3,0,0.6-0.1,0.9
			c-0.1,0.3-0.3,0.6-0.6,0.9c-0.3,0.3-0.6,0.6-1,0.9l-0.6,0.5l1.6,2.1l-0.8,0.6l-4.2-5.6c0.2-0.2,0.4-0.4,0.7-0.7
			C-240.2-220.1-239.9-220.3-239.7-220.5z M-239.1-219.9c-0.3,0.3-0.6,0.5-0.8,0.6l1.7,2.2l0.6-0.5c0.3-0.2,0.5-0.4,0.7-0.6
			c0.2-0.2,0.3-0.4,0.4-0.6c0.1-0.2,0.1-0.4,0.1-0.6c0-0.2-0.1-0.4-0.3-0.7c-0.2-0.2-0.3-0.4-0.5-0.4c-0.2-0.1-0.4-0.1-0.6-0.1
			c-0.2,0-0.4,0.1-0.6,0.2C-238.7-220.2-238.9-220-239.1-219.9z"/>
		<path class="st4" d="M-231.1-222.3c0.2,0,0.4,0.1,0.7,0.1c0.3,0,0.6,0.1,0.9,0.2c0.3,0.1,0.6,0.2,1,0.3c0.3,0.1,0.6,0.2,0.9,0.3
			l-0.8,0.7c-0.3-0.1-0.6-0.2-0.9-0.3c-0.3-0.1-0.6-0.2-0.9-0.2c-0.3-0.1-0.6-0.1-0.8-0.2c-0.3,0-0.5-0.1-0.7-0.1
			c-0.1,0.1-0.1,0.1-0.2,0.2c-0.1,0.1-0.1,0.1-0.2,0.2l-0.7,0.6l1.9,2l-0.7,0.7l-4.7-5.1c0.2-0.2,0.4-0.5,0.6-0.7
			c0.2-0.3,0.5-0.5,0.7-0.7c0.7-0.7,1.4-1.1,2-1.1c0.6-0.1,1.2,0.2,1.7,0.7c0.3,0.3,0.5,0.7,0.5,1.1
			C-230.8-223.2-230.9-222.7-231.1-222.3z M-234.5-223.7c-0.3,0.3-0.5,0.5-0.7,0.7l1.8,2l0.5-0.5c0.2-0.2,0.5-0.5,0.6-0.7
			c0.2-0.2,0.3-0.4,0.4-0.6c0.1-0.2,0.1-0.4,0-0.6c0-0.2-0.2-0.4-0.4-0.6c-0.2-0.2-0.4-0.3-0.6-0.4c-0.2-0.1-0.4-0.1-0.6,0
			c-0.2,0-0.4,0.1-0.6,0.3C-234.1-224-234.3-223.9-234.5-223.7z"/>
		<path class="st4" d="M-229.6-224.5c-0.5-0.4-0.8-0.8-1-1.3c-0.2-0.4-0.4-0.9-0.4-1.3c0-0.4,0-0.9,0.2-1.3c0.2-0.4,0.4-0.8,0.7-1.1
			c0.3-0.3,0.6-0.6,1-0.8c0.4-0.2,0.8-0.3,1.2-0.4c0.4,0,0.9,0,1.4,0.2c0.5,0.2,0.9,0.4,1.4,0.8c0.5,0.4,0.8,0.8,1,1.3
			c0.2,0.4,0.4,0.9,0.4,1.3c0,0.4,0,0.9-0.2,1.3c-0.1,0.4-0.4,0.8-0.7,1.1c-0.3,0.4-0.6,0.6-1,0.8c-0.4,0.2-0.8,0.3-1.2,0.4
			c-0.4,0-0.9,0-1.4-0.2C-228.7-223.9-229.1-224.2-229.6-224.5z M-228.9-225.3c0.3,0.3,0.7,0.5,1,0.6c0.3,0.1,0.7,0.2,1,0.2
			c0.3,0,0.6-0.1,0.9-0.2c0.3-0.1,0.6-0.3,0.8-0.6c0.2-0.3,0.4-0.6,0.5-0.9c0.1-0.3,0.1-0.6,0-0.9c-0.1-0.3-0.2-0.6-0.4-0.9
			c-0.2-0.3-0.5-0.6-0.8-0.9c-0.3-0.3-0.7-0.5-1-0.6c-0.3-0.1-0.7-0.2-1-0.2c-0.3,0-0.6,0.1-0.9,0.2c-0.3,0.1-0.5,0.3-0.8,0.6
			c-0.2,0.3-0.4,0.6-0.5,0.9c-0.1,0.3-0.1,0.6-0.1,0.9c0.1,0.3,0.2,0.6,0.4,0.9C-229.5-225.9-229.2-225.6-228.9-225.3z"/>
		<path class="st4" d="M-219.5-231.4c-0.3,0.4-0.6,0.7-1,1c-0.4,0.2-0.8,0.4-1.2,0.5c-0.4,0.1-0.9,0-1.3-0.1
			c-0.5-0.1-0.9-0.4-1.4-0.7c-0.5-0.3-0.9-0.7-1.1-1.1c-0.3-0.4-0.5-0.8-0.5-1.3s-0.1-0.9,0-1.3c0.1-0.4,0.3-0.8,0.5-1.2
			c0.2-0.2,0.3-0.4,0.5-0.6c0.2-0.2,0.3-0.3,0.5-0.4c0.1-0.1,0.3-0.2,0.4-0.3c0.1-0.1,0.2-0.1,0.2-0.1l0.5,0.7
			c-0.1,0-0.2,0.1-0.3,0.1c-0.1,0.1-0.2,0.1-0.3,0.2c-0.1,0.1-0.2,0.2-0.4,0.3c-0.1,0.1-0.2,0.3-0.3,0.4c-0.2,0.3-0.3,0.6-0.4,0.9
			c-0.1,0.3-0.1,0.6,0,0.9c0.1,0.3,0.2,0.6,0.5,0.9c0.2,0.3,0.5,0.6,0.9,0.8c0.3,0.2,0.7,0.4,1,0.5c0.3,0.1,0.7,0.2,1,0.1
			c0.3,0,0.6-0.1,0.9-0.3c0.3-0.2,0.5-0.4,0.8-0.7c0.3-0.4,0.4-0.7,0.5-1c0.1-0.3,0.1-0.5,0.2-0.7l0.8,0.3c0,0.1,0,0.2,0,0.3
			c0,0.1-0.1,0.3-0.1,0.5c-0.1,0.2-0.2,0.4-0.3,0.6C-219.2-231.8-219.3-231.6-219.5-231.4z"/>
		<polygon class="st4" points="-217.6,-234.6 -223.8,-238 -221.7,-241.8 -221,-241.4 -222.6,-238.5 -220.7,-237.4 -219.3,-240 
			-218.6,-239.6 -220,-237 -217.9,-235.8 -216.1,-239 -215.4,-238.6 		"/>
		<path class="st4" d="M-214.7-241.8c0.4-0.9,0.3-1.6-0.3-1.9c-0.2-0.1-0.4-0.1-0.6-0.1c-0.2,0-0.3,0.1-0.5,0.2
			c-0.2,0.1-0.3,0.2-0.5,0.4s-0.3,0.3-0.5,0.5c-0.2,0.2-0.4,0.4-0.6,0.5c-0.2,0.2-0.4,0.3-0.6,0.4c-0.2,0.1-0.4,0.1-0.7,0.1
			c-0.2,0-0.5-0.1-0.8-0.2c-0.6-0.3-0.9-0.6-1.1-1.2c-0.1-0.5-0.1-1.1,0.2-1.8c0.2-0.4,0.4-0.7,0.6-1c0.2-0.3,0.4-0.5,0.6-0.6
			l0.6,0.6c-0.1,0.1-0.3,0.3-0.5,0.5c-0.2,0.2-0.4,0.5-0.5,0.8c-0.1,0.2-0.1,0.3-0.2,0.5c0,0.2,0,0.3,0,0.5c0,0.1,0.1,0.3,0.2,0.4
			c0.1,0.1,0.2,0.2,0.4,0.3c0.2,0.1,0.3,0.1,0.5,0.1c0.1,0,0.3-0.1,0.4-0.1c0.1-0.1,0.3-0.2,0.4-0.3c0.1-0.1,0.3-0.3,0.5-0.4
			c0.2-0.2,0.5-0.4,0.7-0.6c0.2-0.2,0.4-0.3,0.7-0.4c0.2-0.1,0.5-0.2,0.7-0.1c0.3,0,0.5,0.1,0.8,0.2c0.6,0.3,0.9,0.7,1,1.2
			c0.1,0.5,0,1.2-0.3,2c-0.1,0.3-0.2,0.5-0.4,0.7c-0.1,0.2-0.3,0.4-0.4,0.5c-0.1,0.1-0.2,0.3-0.3,0.4c-0.1,0.1-0.2,0.2-0.3,0.2
			l-0.6-0.6c0.1-0.1,0.3-0.3,0.6-0.5C-215.1-241.1-214.9-241.4-214.7-241.8z"/>
		<path class="st4" d="M-215.8-246.3c-0.6-0.2-1.1-0.4-1.4-0.8c-0.4-0.3-0.7-0.7-0.9-1.1c-0.2-0.4-0.3-0.8-0.3-1.2
			c0-0.4,0-0.9,0.2-1.3c0.1-0.4,0.4-0.8,0.6-1.2c0.3-0.3,0.6-0.6,1-0.8c0.4-0.2,0.8-0.3,1.3-0.3c0.5,0,1,0.1,1.6,0.2
			c0.6,0.2,1.1,0.4,1.4,0.8c0.4,0.3,0.7,0.7,0.9,1.1c0.2,0.4,0.3,0.8,0.3,1.2c0,0.4,0,0.9-0.2,1.3c-0.1,0.4-0.4,0.8-0.6,1.2
			c-0.3,0.3-0.6,0.6-1,0.8c-0.4,0.2-0.8,0.3-1.3,0.3C-214.7-246-215.2-246.1-215.8-246.3z M-215.5-247.2c0.4,0.1,0.8,0.2,1.2,0.2
			c0.4,0,0.7,0,1-0.2c0.3-0.1,0.6-0.3,0.8-0.5c0.2-0.2,0.4-0.5,0.5-0.9c0.1-0.3,0.2-0.7,0.1-1c0-0.3-0.1-0.6-0.3-0.9
			c-0.2-0.3-0.4-0.5-0.7-0.7c-0.3-0.2-0.7-0.4-1.1-0.5c-0.4-0.1-0.8-0.2-1.2-0.2c-0.4,0-0.7,0-1,0.2c-0.3,0.1-0.6,0.3-0.8,0.5
			c-0.2,0.2-0.4,0.5-0.5,0.9c-0.1,0.3-0.2,0.7-0.1,1c0,0.3,0.1,0.6,0.3,0.9c0.2,0.3,0.4,0.5,0.7,0.7
			C-216.2-247.6-215.9-247.4-215.5-247.2z"/>
		<path class="st4" d="M-210.3-255.1c0.2-1,0-1.6-0.7-1.7c-0.2,0-0.4,0-0.6,0c-0.2,0.1-0.3,0.2-0.5,0.3c-0.1,0.1-0.3,0.3-0.4,0.5
			c-0.1,0.2-0.2,0.4-0.4,0.6c-0.1,0.2-0.3,0.5-0.5,0.7c-0.2,0.2-0.3,0.4-0.5,0.5c-0.2,0.1-0.4,0.2-0.6,0.3c-0.2,0.1-0.5,0-0.8,0
			c-0.6-0.1-1-0.4-1.3-0.9c-0.2-0.5-0.3-1.1-0.1-1.8c0.1-0.4,0.2-0.8,0.4-1.1c0.2-0.3,0.3-0.6,0.5-0.7l0.7,0.5
			c-0.1,0.1-0.2,0.3-0.4,0.6c-0.1,0.3-0.3,0.6-0.3,0.9c0,0.2-0.1,0.4-0.1,0.5c0,0.2,0,0.3,0.1,0.5c0.1,0.1,0.1,0.3,0.2,0.4
			c0.1,0.1,0.2,0.2,0.4,0.2c0.2,0,0.4,0,0.5,0c0.1,0,0.3-0.1,0.4-0.2c0.1-0.1,0.2-0.2,0.4-0.4c0.1-0.2,0.2-0.3,0.4-0.5
			c0.2-0.3,0.4-0.5,0.5-0.7c0.2-0.2,0.4-0.4,0.6-0.6c0.2-0.1,0.4-0.2,0.7-0.3c0.3,0,0.5,0,0.9,0c0.6,0.1,1,0.5,1.3,1
			c0.2,0.5,0.3,1.2,0.1,2c-0.1,0.3-0.1,0.5-0.2,0.7c-0.1,0.2-0.2,0.4-0.3,0.6c-0.1,0.2-0.2,0.3-0.3,0.4c-0.1,0.1-0.2,0.2-0.2,0.3
			l-0.7-0.5c0.1-0.1,0.3-0.3,0.4-0.6C-210.5-254.3-210.4-254.7-210.3-255.1z"/>
	</g>
</g>
<g id="equipo" transform="translate(129.000000, 326.000000)">
	<path class="st5" d="M10.3-207.7l-0.4,9c-9.1-0.4-18.3-3.1-26.6-8.3c-2.7-1.7-5.2-3.6-7.5-5.7l6.1-6.6c1.9,1.7,4,3.3,6.2,4.7
		C-5-210.3,2.7-208,10.3-207.7z"/>
	<polygon class="st1" points="-12.5,-208.5 -11.5,-210.3 -10.3,-209.7 -10.5,-209.4 -11.3,-209.9 -11.6,-209.4 -10.8,-209 
		-11,-208.7 -11.7,-209.1 -12,-208.6 -11.1,-208.1 -11.3,-207.8 	"/>
	<path class="st1" d="M-10.7-208.4c0.1-0.1,0.1-0.2,0.2-0.3c0.1-0.1,0.2-0.1,0.3-0.2c0.1,0,0.2,0,0.3,0c0.1,0,0.2,0,0.3,0.1
		c0.1,0.1,0.2,0.1,0.3,0.2c0.1,0.1,0.2,0.1,0.2,0.2l-0.9,1.9l-0.3-0.2l0.3-0.5c0,0-0.1,0-0.2,0c-0.1,0-0.1,0-0.2-0.1
		c-0.1-0.1-0.2-0.1-0.2-0.2c-0.1-0.1-0.1-0.2-0.1-0.2c0-0.1,0-0.2,0-0.3C-10.8-208.2-10.7-208.3-10.7-208.4z M-10.4-208.2
		c-0.1,0.1-0.1,0.3-0.1,0.4c0,0.1,0.1,0.2,0.2,0.3c0.1,0,0.1,0,0.2,0.1c0.1,0,0.1,0,0.1,0l0.4-0.8c0,0,0,0-0.1-0.1
		c0,0-0.1,0-0.1-0.1c-0.1-0.1-0.2-0.1-0.3,0C-10.2-208.5-10.3-208.4-10.4-208.2z"/>
	<path class="st1" d="M-8.1-206.4c-0.1,0-0.2,0-0.3-0.1c-0.1,0-0.2-0.1-0.3-0.1c-0.1-0.1-0.2-0.1-0.3-0.2c-0.1-0.1-0.1-0.1-0.1-0.2
		c0-0.1,0-0.2,0-0.3c0-0.1,0-0.2,0.1-0.3l0.4-0.8l0.3,0.2l-0.3,0.8c-0.1,0.2-0.1,0.3-0.1,0.4c0,0.1,0.1,0.2,0.2,0.2
		c0,0,0.1,0,0.1,0.1c0,0,0.1,0,0.1,0l0.5-1.2l0.3,0.2L-8.1-206.4z"/>
	<path class="st1" d="M-7.4-206l-0.3-0.1l0.6-1.5l0.3,0.1L-7.4-206z M-6.5-207.9c0,0.1-0.1,0.1-0.1,0.1c-0.1,0-0.1,0-0.2,0
		c-0.1,0-0.1-0.1-0.1-0.1c0-0.1,0-0.1,0-0.2c0-0.1,0.1-0.1,0.1-0.1c0.1,0,0.1,0,0.2,0c0.1,0,0.1,0.1,0.1,0.1
		C-6.5-208-6.5-207.9-6.5-207.9z"/>
	<path class="st1" d="M-5.3-206c0,0.1-0.1,0.2-0.2,0.3c-0.1,0.1-0.1,0.1-0.2,0.2c-0.1,0-0.2,0.1-0.3,0.1c-0.1,0-0.2,0-0.3-0.1
		c-0.1,0-0.1-0.1-0.2-0.1c-0.1,0-0.1-0.1-0.1-0.1l-0.2,0.6l-0.3-0.1l0.8-1.9c0.1,0,0.2,0,0.3,0c0.1,0,0.2,0.1,0.3,0.1
		c0.1,0,0.2,0.1,0.3,0.2c0.1,0.1,0.1,0.2,0.2,0.2c0,0.1,0.1,0.2,0.1,0.3C-5.2-206.2-5.3-206.1-5.3-206z M-5.6-206.1
		c0.1-0.2,0.1-0.3,0-0.4c0-0.1-0.1-0.2-0.3-0.3c0,0-0.1,0-0.1,0c0,0-0.1,0-0.1,0l-0.3,0.8c0,0,0.1,0.1,0.1,0.1c0,0,0.1,0.1,0.1,0.1
		c0.1,0,0.2,0,0.3,0S-5.7-206-5.6-206.1z"/>
	<path class="st1" d="M-3.6-205.4c0,0.1-0.1,0.2-0.2,0.3c-0.1,0.1-0.1,0.2-0.2,0.2c-0.1,0-0.2,0.1-0.3,0.1c-0.1,0-0.2,0-0.3,0
		c-0.1,0-0.2-0.1-0.3-0.2c-0.1-0.1-0.1-0.1-0.2-0.2c0-0.1-0.1-0.2-0.1-0.3c0-0.1,0-0.2,0.1-0.3c0-0.1,0.1-0.2,0.2-0.3
		c0.1-0.1,0.1-0.1,0.2-0.2c0.1,0,0.2-0.1,0.3-0.1c0.1,0,0.2,0,0.3,0c0.1,0,0.2,0.1,0.3,0.2c0.1,0.1,0.1,0.1,0.2,0.2
		c0,0.1,0.1,0.2,0.1,0.3C-3.5-205.6-3.5-205.5-3.6-205.4z M-3.9-205.5c0.1-0.1,0.1-0.3,0-0.4c0-0.1-0.1-0.2-0.2-0.2
		c-0.1,0-0.2,0-0.3,0c-0.1,0.1-0.2,0.2-0.2,0.3c-0.1,0.1-0.1,0.3,0,0.4c0,0.1,0.1,0.2,0.2,0.2c0.1,0,0.2,0,0.3,0
		C-4.1-205.3-4-205.4-3.9-205.5z"/>
	<path class="st1" d="M-3-204.7c0.1,0,0.2,0,0.2,0c0,0,0.1,0,0.1-0.1c0,0,0-0.1,0-0.1c0,0-0.1-0.1-0.2-0.2c-0.1,0-0.1-0.1-0.2-0.1
		c0,0-0.1-0.1-0.1-0.1c0,0,0-0.1-0.1-0.2c0-0.1,0-0.1,0-0.2c0-0.1,0.1-0.2,0.3-0.3c0.1,0,0.3,0,0.5,0c0.1,0,0.2,0.1,0.2,0.1
		c0.1,0,0.1,0.1,0.2,0.1l-0.2,0.3c0,0-0.1-0.1-0.1-0.1c-0.1,0-0.1-0.1-0.2-0.1c-0.1,0-0.1,0-0.2,0c-0.1,0-0.1,0-0.1,0.1
		c0,0,0,0,0,0.1c0,0,0,0,0,0.1c0,0,0,0,0.1,0.1c0,0,0.1,0.1,0.1,0.1c0.1,0.1,0.1,0.1,0.2,0.2c0,0,0.1,0.1,0.1,0.1c0,0,0,0.1,0,0.2
		c0,0.1,0,0.1,0,0.2c0,0.1-0.1,0.2-0.3,0.3c-0.1,0-0.3,0-0.5,0c-0.1,0-0.2-0.1-0.3-0.1c-0.1,0-0.1-0.1-0.2-0.1l0.2-0.3
		c0,0,0.1,0.1,0.2,0.1C-3.2-204.7-3.1-204.7-3-204.7z"/>
	<path id="tre" class="st6" d="M10.8-219.1l-0.4,11.2c-10.9-0.4-20.8-4.7-28.3-11.6l0,0l7.5-8.3C-4.8-222.6,2.6-219.4,10.8-219.1z"
		/>
	<path id="due" class="st6" d="M11.3-230.2l-0.4,11.2c-8.2-0.3-15.6-3.6-21.2-8.7l7.5-8.3C0.9-232.6,5.8-230.4,11.3-230.2z"/>
	<path id="uno" class="st6" d="M11.7-241.4l-0.4,11.2c-5.5-0.2-10.4-2.4-14.1-5.8l7.5-8.3C6.5-242.6,9-241.5,11.7-241.4z"/>
</g>
<g id="saludbenestar" transform="translate(61.000000, 299.000000)">
	<path class="st5" d="M49.9-192.4l-6.1,6.6c-9.6-8.7-15.4-20.3-17.1-32.6l8.9-1.2C37-209.3,41.9-199.6,49.9-192.4z"/>
	<g id="salud" transform="translate(33.000000, 65.000000)">
		<path class="st1" d="M2.4-271.8c0.1,0.1,0.1,0.2,0.2,0.2c0.1,0,0.1,0,0.2,0c0,0,0.1,0,0.1-0.1c0,0,0-0.1,0.1-0.1c0,0,0-0.1,0-0.2
			c0-0.1,0-0.1,0-0.2c0-0.1,0-0.2,0-0.2s0-0.1,0-0.2c0-0.1,0.1-0.1,0.1-0.2c0-0.1,0.1-0.1,0.2-0.1c0.2-0.1,0.3-0.1,0.5,0
			c0.2,0.1,0.3,0.2,0.4,0.4c0.1,0.1,0.1,0.2,0.1,0.3c0,0.1,0,0.2,0,0.3l-0.3,0c0-0.1,0-0.2,0-0.2c0-0.1,0-0.2-0.1-0.2
			c0-0.1-0.1-0.2-0.2-0.2c-0.1,0-0.1,0-0.2,0c0,0-0.1,0-0.1,0.1c0,0,0,0.1-0.1,0.1c0,0,0,0.1,0,0.1c0,0.1,0,0.1,0,0.2
			c0,0.1,0,0.2,0,0.3c0,0.1,0,0.2,0,0.2c0,0.1-0.1,0.1-0.1,0.2c-0.1,0.1-0.1,0.1-0.2,0.1c-0.2,0.1-0.3,0.1-0.5,0
			c-0.1-0.1-0.3-0.2-0.4-0.5c0-0.1-0.1-0.2-0.1-0.2c0-0.1,0-0.1,0-0.2c0-0.1,0-0.1,0-0.2c0,0,0-0.1,0-0.1l0.3,0c0,0.1,0,0.1,0,0.2
			C2.4-272,2.4-271.9,2.4-271.8z"/>
		<path class="st1" d="M4.3-270.9c0.1,0.1,0.1,0.2,0.1,0.3c0,0.1,0,0.2,0,0.2c0,0.1-0.1,0.1-0.1,0.2c-0.1,0.1-0.1,0.1-0.2,0.1
			l-0.9,0.4c0,0-0.1-0.1-0.1-0.2c-0.1-0.1-0.1-0.2-0.2-0.3c0-0.1-0.1-0.2-0.1-0.2c0-0.1,0-0.2,0-0.2c0-0.1,0-0.1,0.1-0.2
			c0-0.1,0.1-0.1,0.2-0.1c0.1,0,0.2-0.1,0.2,0c0.1,0,0.1,0,0.2,0.1c0.1,0,0.1,0.1,0.2,0.2c0,0.1,0.1,0.1,0.1,0.2c0,0,0,0.1,0,0.1
			c0,0,0,0.1,0,0.1l0.1,0c0,0,0.1,0,0.1-0.1c0,0,0.1-0.1,0.1-0.1c0,0,0-0.1,0-0.1c0,0,0-0.1,0-0.2c0-0.1-0.1-0.1-0.1-0.2
			c0-0.1-0.1-0.1-0.1-0.1l0.2-0.2c0,0,0.1,0.1,0.1,0.2C4.2-271,4.3-270.9,4.3-270.9z M3.1-270.3c0,0.1,0.1,0.2,0.1,0.2l0.4-0.2
			c0,0,0,0,0-0.1c0,0,0-0.1,0-0.1c0,0,0-0.1-0.1-0.1c0,0,0-0.1-0.1-0.1s-0.1,0-0.1,0c0,0-0.1,0-0.1,0c-0.1,0-0.1,0.1-0.1,0.1
			C3-270.4,3.1-270.3,3.1-270.3z"/>
		<path class="st1" d="M3.5-268.7c0-0.1-0.1-0.2-0.1-0.3c0-0.1,0-0.1,0-0.2c0-0.1,0.1-0.1,0.1-0.1c0,0,0.1-0.1,0.2-0.1l1.6-0.8
			l0.2,0.3L4-269.1c0,0-0.1,0-0.1,0.1c0,0,0,0-0.1,0.1c0,0,0,0.1,0,0.1c0,0,0,0.1,0,0.1L3.5-268.7z"/>
		<path class="st1" d="M4.4-267.2c0-0.1-0.1-0.1-0.2-0.2c-0.1-0.1-0.1-0.2-0.2-0.3c-0.1-0.1-0.1-0.2-0.1-0.3c0-0.1,0-0.2,0-0.3
			c0-0.1,0.1-0.1,0.2-0.2c0.1-0.1,0.1-0.1,0.2-0.2l0.8-0.4l0.2,0.3l-0.7,0.4c-0.1,0.1-0.2,0.2-0.3,0.2c0,0.1,0,0.2,0,0.3
			c0,0,0,0.1,0.1,0.1c0,0,0,0.1,0.1,0.1l1.1-0.6l0.2,0.3L4.4-267.2z"/>
		<path class="st1" d="M5.3-265.6c-0.1-0.1-0.1-0.1-0.2-0.2C5-265.9,5-266,4.9-266.1c-0.1-0.1-0.1-0.2-0.1-0.3c0-0.1,0-0.2,0-0.3
			c0-0.1,0.1-0.2,0.1-0.3c0.1-0.1,0.2-0.2,0.3-0.2c0.1-0.1,0.2-0.1,0.3-0.1c0.1,0,0.2,0,0.3,0c0.1,0,0.2,0.1,0.3,0.1
			c0.1,0.1,0.1,0.1,0.2,0.2c0,0.1,0.1,0.1,0.1,0.2c0,0.1,0,0.1,0,0.2l0.7-0.4l0.2,0.3L5.3-265.6z M5.4-266.9
			c-0.1,0.1-0.2,0.2-0.3,0.3c0,0.1,0,0.2,0,0.3c0,0.1,0.1,0.1,0.1,0.1c0,0,0,0.1,0.1,0.1l0.8-0.5c0,0,0-0.1,0-0.1
			c0-0.1,0-0.1-0.1-0.2C6-266.9,5.9-267,5.8-267C5.7-267,5.5-267,5.4-266.9z"/>
		<path class="st1" d="M7.9-264.4c-0.6,0.2-1.1,0.3-1.7,0.4c-0.1,0-0.2,0-0.3,0c-0.1,0-0.1,0-0.2,0c-0.1,0-0.1-0.1-0.2-0.1
			c-0.1,0-0.1-0.1-0.1-0.2c0,0-0.1-0.1-0.1-0.2c0-0.1,0-0.1,0-0.1l0.3-0.1c0,0.1,0,0.1,0.1,0.2c0.1,0.1,0.1,0.1,0.2,0.1
			c0.1,0,0.2,0,0.3,0c0.1-0.2,0.3-0.4,0.4-0.7c0.2-0.2,0.3-0.5,0.5-0.7l0.2,0.3c-0.1,0.1-0.1,0.1-0.2,0.2c-0.1,0.1-0.1,0.2-0.2,0.2
			c-0.1,0.1-0.1,0.2-0.2,0.3c-0.1,0.1-0.1,0.2-0.2,0.2c0.2,0,0.4-0.1,0.6-0.2c0.2-0.1,0.4-0.1,0.6-0.2L7.9-264.4z"/>
	</g>
	<g transform="translate(18.000000, 63.000000)">
		<path class="st1" d="M14.4-269.5c-0.1,0-0.2,0.1-0.3,0.1c-0.1,0-0.2,0-0.3-0.1c-0.1,0-0.2-0.1-0.2-0.2c-0.1-0.1-0.1-0.2-0.2-0.3
			c0-0.1-0.1-0.2-0.1-0.3c0-0.1,0-0.2,0-0.3l2.1-0.8l0.2,0.3l-0.8,0.3c0,0,0.1,0.1,0.1,0.1c0,0.1,0.1,0.1,0.1,0.2
			c0,0.1,0.1,0.2,0.1,0.3c0,0.1,0,0.2-0.1,0.3c0,0.1-0.1,0.2-0.2,0.2C14.6-269.6,14.5-269.5,14.4-269.5z M14.3-269.8
			c0.1-0.1,0.2-0.1,0.3-0.2c0.1-0.1,0.1-0.2,0-0.3c0-0.1-0.1-0.1-0.1-0.1c0,0-0.1-0.1-0.1-0.1l-0.8,0.3c0,0,0,0.1,0,0.1
			c0,0,0,0.1,0,0.1c0,0.1,0.1,0.2,0.2,0.2C14-269.8,14.1-269.8,14.3-269.8z"/>
		<path class="st1" d="M14-268.5l-0.1-0.3l1.5-0.6l0.1,0.3L14-268.5z M15.9-269.2c-0.1,0-0.1,0-0.2,0c-0.1,0-0.1-0.1-0.1-0.1
			c0-0.1,0-0.1,0-0.2c0-0.1,0.1-0.1,0.1-0.1c0.1,0,0.1,0,0.2,0c0.1,0,0.1,0.1,0.1,0.1c0,0.1,0,0.1,0,0.2
			C16-269.3,16-269.3,15.9-269.2z"/>
		<path class="st1" d="M14.9-268.4c0.1-0.1,0.2-0.1,0.4-0.1c0.1,0,0.2,0,0.3,0c0.1,0,0.2,0.1,0.2,0.2c0.1,0.1,0.1,0.1,0.2,0.2
			c0.1,0.2,0.1,0.4,0,0.5s-0.2,0.3-0.5,0.4c0,0,0,0-0.1,0c0,0,0,0-0.1,0l-0.4-0.9c-0.1,0.1-0.2,0.1-0.2,0.2c0,0.1,0,0.2,0,0.4
			c0,0.1,0.1,0.2,0.1,0.2c0,0.1,0.1,0.1,0.1,0.1l-0.3,0.2c0,0,0,0-0.1-0.1c0,0,0-0.1-0.1-0.1c0,0-0.1-0.1-0.1-0.1
			c0,0-0.1-0.1-0.1-0.1c-0.1-0.1-0.1-0.2-0.1-0.4c0-0.1,0-0.2,0.1-0.3c0-0.1,0.1-0.2,0.2-0.2C14.7-268.3,14.7-268.4,14.9-268.4z
			 M15.4-267.5c0,0,0.1,0,0.1-0.1c0,0,0.1-0.1,0.1-0.1c0,0,0-0.1,0-0.1c0,0,0-0.1,0-0.1c0-0.1-0.1-0.1-0.1-0.1c0,0-0.1-0.1-0.1-0.1
			c0,0-0.1,0-0.1,0c0,0-0.1,0-0.1,0L15.4-267.5z"/>
		<path class="st1" d="M16.3-267.1c0,0.1,0.1,0.1,0.2,0.2c0.1,0.1,0.1,0.2,0.2,0.3c0.1,0.1,0.1,0.2,0.1,0.3c0,0.1,0,0.2,0,0.2
			c0,0.1-0.1,0.1-0.2,0.2c-0.1,0.1-0.2,0.1-0.2,0.2l-0.8,0.4l-0.2-0.3l0.7-0.4c0.1,0,0.1-0.1,0.2-0.1c0,0,0.1-0.1,0.1-0.1
			c0,0,0-0.1,0-0.1c0,0,0-0.1,0-0.2c0,0,0-0.1-0.1-0.1c0,0,0-0.1-0.1-0.1l-1.1,0.6l-0.2-0.3L16.3-267.1z"/>
		<path class="st1" d="M16.3-265.3c0.1-0.1,0.2-0.1,0.4-0.1c0.1,0,0.2,0,0.3,0c0.1,0,0.2,0.1,0.2,0.1c0.1,0.1,0.1,0.1,0.2,0.2
			c0.1,0.2,0.1,0.4,0.1,0.5c-0.1,0.2-0.2,0.3-0.4,0.4c0,0,0,0-0.1,0c0,0,0,0-0.1,0l-0.5-0.9c-0.1,0.1-0.2,0.2-0.2,0.3
			c0,0.1,0,0.2,0.1,0.4c0,0.1,0.1,0.1,0.1,0.2c0,0.1,0.1,0.1,0.1,0.1l-0.2,0.2c0,0,0,0-0.1-0.1c0,0-0.1-0.1-0.1-0.1
			c0,0-0.1-0.1-0.1-0.1c0,0-0.1-0.1-0.1-0.1c-0.1-0.1-0.1-0.2-0.1-0.3c0-0.1,0-0.2,0-0.3c0-0.1,0.1-0.2,0.2-0.3
			C16.1-265.1,16.2-265.2,16.3-265.3z M17-264.4c0,0,0.1-0.1,0.1-0.1c0,0,0.1-0.1,0.1-0.1c0,0,0-0.1,0-0.1c0,0,0-0.1,0-0.1
			c0,0-0.1-0.1-0.1-0.1s-0.1,0-0.1-0.1c0,0-0.1,0-0.1,0c0,0-0.1,0-0.1,0L17-264.4z"/>
		<path class="st1" d="M16.9-263.1c0,0.1,0.1,0.1,0.1,0.2s0.1,0,0.1,0c0,0,0.1-0.1,0.1-0.1c0-0.1,0-0.1,0-0.3c0-0.1,0-0.1,0-0.2
			c0-0.1,0-0.1,0-0.2c0-0.1,0-0.1,0.1-0.1c0,0,0.1-0.1,0.1-0.1c0.1-0.1,0.3-0.1,0.4,0c0.1,0.1,0.2,0.2,0.3,0.3
			c0,0.1,0.1,0.2,0.1,0.2s0,0.1,0.1,0.2l-0.3,0.1c0,0,0-0.1,0-0.2c0-0.1,0-0.1-0.1-0.2c0-0.1-0.1-0.1-0.1-0.1c0,0-0.1,0-0.1,0
			c0,0,0,0-0.1,0c0,0,0,0,0,0.1c0,0,0,0.1,0,0.1c0,0,0,0.1,0,0.1c0,0.1,0,0.2,0,0.2c0,0.1,0,0.1,0,0.2c0,0.1,0,0.1-0.1,0.1
			c0,0-0.1,0.1-0.1,0.1c-0.1,0.1-0.3,0.1-0.4,0c-0.1-0.1-0.2-0.2-0.3-0.4c-0.1-0.1-0.1-0.2-0.1-0.3c0-0.1,0-0.1,0-0.2l0.3-0.1
			c0,0.1,0,0.1,0,0.2C16.9-263.2,16.9-263.1,16.9-263.1z"/>
		<path class="st1" d="M18.9-263.1l0.2,0.3l-0.4,0.2l0.3,0.5l-0.3,0.2l-0.3-0.5l-0.5,0.3c-0.1,0.1-0.2,0.1-0.2,0.2
			c0,0.1,0,0.1,0,0.2c0,0.1,0.1,0.1,0.1,0.1c0,0,0.1,0.1,0.1,0.1l-0.2,0.2c0,0-0.1-0.1-0.1-0.1c-0.1,0-0.1-0.1-0.1-0.2
			c-0.1-0.1-0.1-0.2-0.1-0.3c0-0.1,0-0.2,0-0.2c0-0.1,0.1-0.1,0.1-0.2c0.1-0.1,0.1-0.1,0.2-0.2L18.9-263.1z"/>
		<path class="st1" d="M19.5-261.4c0.1,0.1,0.1,0.2,0.1,0.3c0,0.1,0,0.2,0,0.2c0,0.1-0.1,0.1-0.1,0.2c-0.1,0.1-0.1,0.1-0.2,0.2
			l-0.8,0.5c0,0-0.1-0.1-0.2-0.2c-0.1-0.1-0.2-0.2-0.2-0.3c-0.1-0.1-0.1-0.2-0.1-0.2c0-0.1,0-0.1,0-0.2c0-0.1,0-0.1,0.1-0.2
			c0-0.1,0.1-0.1,0.2-0.2c0.1,0,0.1-0.1,0.2-0.1c0.1,0,0.1,0,0.2,0c0.1,0,0.1,0.1,0.2,0.1c0.1,0.1,0.1,0.1,0.2,0.2
			c0,0,0,0.1,0.1,0.1c0,0,0,0.1,0.1,0.1l0.1,0c0,0,0.1,0,0.1-0.1c0,0,0-0.1,0.1-0.1c0,0,0-0.1,0-0.1c0,0,0-0.1-0.1-0.1
			c0-0.1-0.1-0.1-0.1-0.2c0-0.1-0.1-0.1-0.1-0.1l0.2-0.2c0,0,0.1,0.1,0.1,0.1C19.4-261.5,19.5-261.5,19.5-261.4z M18.4-260.6
			c0.1,0.1,0.1,0.2,0.2,0.2l0.3-0.2c0,0,0,0,0-0.1c0,0,0-0.1-0.1-0.1c0,0,0-0.1-0.1-0.1c0,0-0.1-0.1-0.1-0.1s-0.1,0-0.1,0
			c0,0-0.1,0-0.1,0c-0.1,0-0.1,0.1-0.1,0.2C18.3-260.8,18.3-260.7,18.4-260.6z"/>
		<path class="st1" d="M20.3-259.5c0,0,0-0.1,0-0.1c0-0.1-0.1-0.1-0.1-0.2c0,0,0-0.1-0.1-0.1c0,0-0.1-0.1-0.1-0.1l-1,0.7l-0.2-0.3
			l1.2-0.8c0.1,0,0.1,0.1,0.2,0.2s0.2,0.2,0.2,0.3c0,0,0,0,0,0.1c0,0,0,0.1,0,0.1c0,0,0,0.1,0,0.1c0,0,0,0.1,0,0.1L20.3-259.5z"/>
	</g>
	<path class="st6" d="M57.6-200.7l-7.5,8.3l0,0c-7.6-6.9-12.8-16.4-14.2-27h0l11.1-1.5C48-213,51.9-205.9,57.6-200.7z"/>
	<path class="st6" d="M65.1-209l-7.5,8.3C51.9-205.9,48-213,46.9-221l11.1-1.5C58.7-217.2,61.3-212.5,65.1-209z"/>
	<path class="st6" d="M72.6-217.3l-7.5,8.3c-3.8-3.4-6.4-8.2-7.1-13.5l11.1-1.5C69.4-221.4,70.7-219,72.6-217.3z"/>
</g>
<g id="liderazgo" transform="translate(59.000000, 178.000000)">
	<path class="st5" d="M37.6-98.6l-8.9,1.2c-1.6-12.1,0.8-24.8,7.9-36l7.6,4.8C38.4-119.2,36.3-108.6,37.6-98.6z"/>
	<polygon class="st1" points="33.7,-109.7 34,-109.7 33.9,-108.4 31.8,-108.6 31.9,-109 33.6,-108.8 	"/>
	<path class="st1" d="M32.1-110.6c0.1,0,0.1,0,0.2,0.1c0,0,0,0.1,0,0.2c0,0.1,0,0.1-0.1,0.2c0,0-0.1,0.1-0.2,0c-0.1,0-0.1,0-0.2-0.1
		c0,0,0-0.1,0-0.2c0-0.1,0-0.1,0.1-0.1S32-110.6,32.1-110.6z M34.1-110.3l0,0.4l-1.6-0.2l0-0.4L34.1-110.3z"/>
	<path class="st1" d="M34.3-112.1c0,0.1,0,0.2,0,0.3c0,0.1,0,0.2,0,0.3c0,0.1-0.1,0.2-0.1,0.3c-0.1,0.1-0.1,0.2-0.2,0.2
		c-0.1,0.1-0.2,0.1-0.3,0.1c-0.1,0-0.2,0-0.3,0c-0.1,0-0.2,0-0.3-0.1c-0.1,0-0.2-0.1-0.2-0.2c-0.1-0.1-0.1-0.2-0.1-0.2
		c0-0.1,0-0.2,0-0.3c0-0.1,0-0.1,0.1-0.2c0-0.1,0.1-0.1,0.1-0.1L32-112l0-0.4L34.3-112.1z M33.4-111.2c0.2,0,0.3,0,0.4-0.1
		c0.1-0.1,0.2-0.2,0.2-0.3c0-0.1,0-0.1,0-0.1c0,0,0-0.1,0-0.1l-0.9-0.1c0,0-0.1,0.1-0.1,0.1c0,0.1,0,0.1-0.1,0.2
		c0,0.1,0,0.2,0.1,0.3C33.2-111.2,33.3-111.2,33.4-111.2z"/>
	<path class="st1" d="M33.6-112.5c-0.1,0-0.3-0.1-0.3-0.1c-0.1-0.1-0.2-0.1-0.2-0.2C33-113,33-113,33-113.1c0-0.1,0-0.2,0-0.3
		c0-0.2,0.1-0.4,0.3-0.5c0.2-0.1,0.4-0.1,0.6-0.1c0,0,0,0,0.1,0c0,0,0,0,0.1,0l-0.2,1c0.1,0,0.2,0,0.3-0.1c0.1-0.1,0.1-0.2,0.2-0.3
		c0-0.1,0-0.2,0-0.2c0-0.1,0-0.1,0-0.2l0.3,0c0,0,0,0.1,0,0.1c0,0,0,0.1,0,0.1c0,0,0,0.1,0,0.1c0,0.1,0,0.1,0,0.2
		c0,0.1-0.1,0.3-0.1,0.3c-0.1,0.1-0.1,0.2-0.2,0.2c-0.1,0.1-0.2,0.1-0.3,0.1C33.9-112.5,33.8-112.5,33.6-112.5z M33.7-113.6
		c0,0-0.1,0-0.1,0c0,0-0.1,0-0.1,0c0,0-0.1,0-0.1,0.1c0,0,0,0.1-0.1,0.1c0,0.1,0,0.1,0,0.2c0,0,0,0.1,0.1,0.1c0,0,0.1,0.1,0.1,0.1
		c0,0,0.1,0,0.1,0.1L33.7-113.6z"/>
	<path class="st1" d="M33.7-115.3c0,0,0,0.1-0.1,0.1c0,0,0,0.1-0.1,0.2c0,0,0,0.1,0,0.1c0,0,0,0.1,0,0.1l1.2,0.3l-0.1,0.4l-1.5-0.3
		c0-0.1,0-0.2,0-0.3c0-0.1,0-0.2,0-0.4c0,0,0-0.1,0-0.1c0,0,0-0.1,0-0.1c0,0,0-0.1,0-0.1c0,0,0-0.1,0-0.1L33.7-115.3z"/>
	<path class="st1" d="M33.5-116.2c0-0.1,0.1-0.2,0.1-0.3c0-0.1,0.1-0.1,0.2-0.2c0.1,0,0.1-0.1,0.2-0.1c0.1,0,0.2,0,0.3,0l0.9,0.2
		c0,0.1,0,0.1,0,0.3c0,0.1,0,0.2-0.1,0.4c0,0.1-0.1,0.2-0.1,0.2c0,0.1-0.1,0.1-0.1,0.2c-0.1,0-0.1,0.1-0.2,0.1c-0.1,0-0.2,0-0.2,0
		c-0.1,0-0.2-0.1-0.2-0.1c-0.1,0-0.1-0.1-0.1-0.2c0-0.1,0-0.1,0-0.2c0-0.1,0-0.2,0-0.2c0,0,0-0.1,0-0.1c0,0,0-0.1,0.1-0.1l-0.1,0
		c0,0-0.1,0-0.1,0c0,0-0.1,0-0.1,0c0,0-0.1,0-0.1,0.1c0,0,0,0.1-0.1,0.1c0,0.1,0,0.2,0,0.2c0,0.1,0,0.1,0,0.2l-0.3,0
		c0,0,0-0.1,0-0.2C33.5-116,33.5-116.1,33.5-116.2z M34.9-115.9c0-0.1,0-0.2,0-0.3l-0.4-0.1c0,0,0,0,0,0.1c0,0,0,0.1,0,0.1
		c0,0,0,0.1,0,0.1c0,0,0,0.1,0,0.1c0,0,0,0.1,0,0.1c0,0,0.1,0,0.1,0.1c0.1,0,0.1,0,0.2,0C34.8-115.8,34.8-115.8,34.9-115.9z"/>
	<path class="st1" d="M34.4-118.3c0,0,0.1,0.1,0.1,0.2c0.1,0.1,0.1,0.2,0.2,0.3c0.1,0.1,0.1,0.2,0.2,0.3c0.1,0.1,0.2,0.2,0.2,0.3
		l0.2-0.8l0.3,0.1l-0.3,1.2l-0.2-0.1c-0.1-0.1-0.1-0.1-0.2-0.2c-0.1-0.1-0.1-0.2-0.2-0.3c-0.1-0.1-0.1-0.2-0.2-0.3
		c-0.1-0.1-0.1-0.2-0.2-0.2l-0.2,0.7l-0.3-0.1l0.3-1.2L34.4-118.3z"/>
	<path class="st1" d="M36-119.4c0.2,0.1,0.4,0.2,0.5,0.3c0.1,0.2,0.1,0.4,0,0.6c0,0.1-0.1,0.2-0.1,0.3c0,0.1-0.1,0.2-0.1,0.2
		l-0.3-0.2c0-0.1,0.1-0.1,0.1-0.2c0-0.1,0.1-0.2,0.1-0.2c0-0.1,0-0.2,0-0.3c0-0.1-0.1-0.1-0.2-0.2l-0.1,0c0,0,0,0.1,0,0.2
		c0,0.1,0,0.1,0,0.2c0,0.1-0.1,0.2-0.1,0.2c-0.1,0.1-0.1,0.1-0.2,0.2c-0.1,0-0.2,0.1-0.3,0.1c-0.1,0-0.2,0-0.3,0
		c-0.1,0-0.2-0.1-0.3-0.1c-0.1-0.1-0.1-0.1-0.2-0.2c0-0.1-0.1-0.2-0.1-0.3c0-0.1,0-0.2,0-0.3c0-0.1,0.1-0.2,0.1-0.3
		c0-0.1,0.1-0.2,0.1-0.2L36-119.4z M35-118.7c0.1,0,0.3,0,0.4,0c0.1,0,0.1-0.1,0.2-0.2c0-0.1,0-0.1,0-0.2c0-0.1,0-0.1,0-0.1
		l-0.8-0.2c0,0,0,0.1,0,0.1c0,0,0,0.1,0,0.1c0,0.1,0,0.2,0,0.3C34.8-118.8,34.9-118.7,35-118.7z"/>
	<path class="st1" d="M36-121.4c0.1,0,0.2,0.1,0.3,0.2c0.1,0.1,0.2,0.1,0.2,0.2c0,0.1,0.1,0.2,0.1,0.3c0,0.1,0,0.2,0,0.3
		c0,0.1-0.1,0.2-0.2,0.3c-0.1,0.1-0.1,0.1-0.2,0.2c-0.1,0-0.2,0.1-0.3,0.1c-0.1,0-0.2,0-0.3-0.1c-0.1,0-0.2-0.1-0.3-0.2
		c-0.1-0.1-0.1-0.1-0.2-0.2c0-0.1-0.1-0.2-0.1-0.3c0-0.1,0-0.2,0-0.3c0-0.1,0.1-0.2,0.2-0.3c0.1-0.1,0.1-0.1,0.2-0.2
		c0.1,0,0.2-0.1,0.3-0.1C35.7-121.5,35.8-121.5,36-121.4z M35.8-121.1c-0.1-0.1-0.3-0.1-0.4,0c-0.1,0-0.2,0.1-0.2,0.2
		c0,0.1,0,0.2,0,0.3c0.1,0.1,0.2,0.2,0.3,0.2c0.1,0.1,0.3,0.1,0.4,0s0.2-0.1,0.2-0.2c0-0.1,0-0.2,0-0.3
		C36.1-120.9,36-121,35.8-121.1z"/>
	<path class="st6" d="M44.3-128.4l9.4,6c-3,4.8-4.9,10.5-5.1,16.6c-0.1,2,0,3.9,0.3,5.8l-11.1,1.5h0c-0.3-2.5-0.5-5.1-0.4-7.8
		C37.8-114.4,40.3-122,44.3-128.4L44.3-128.4z"/>
	<path class="st6" d="M53.8-122.4l9.5,6c-2,3.2-3.3,7-3.4,11c-0.1,1.3,0,2.6,0.2,3.9L48.9-100c-0.3-1.9-0.4-3.9-0.3-5.8
		C48.9-112,50.7-117.6,53.8-122.4z"/>
	<path class="st6" d="M63.2-116.5l9.4,6c-1,1.6-1.6,3.5-1.7,5.5c0,0.7,0,1.3,0.1,1.9L60-101.5c-0.2-1.3-0.2-2.6-0.2-3.9
		C60-109.5,61.2-113.3,63.2-116.5z"/>
</g>
<g id="foundations" transform="translate(93.000000, 88.000000)">
	<path class="st7" d="M31.8-65.9l2.7,8.6c-9.7,3.1-18.4,9.5-24.3,18.8l-7.6-4.8C9.7-54.5,20.1-62.2,31.8-65.9z"/>
	<polygon class="st1" points="12.3,-47.1 10.8,-48.5 11.7,-49.5 11.9,-49.3 11.3,-48.6 11.7,-48.2 12.3,-48.8 12.5,-48.6 11.9,-48 
		12.6,-47.4 	"/>
	<path class="st1" d="M13.9-49.8c0.1,0.1,0.2,0.2,0.2,0.3s0.1,0.2,0.1,0.3c0,0.1,0,0.2,0,0.3c0,0.1-0.1,0.2-0.2,0.3
		c-0.1,0.1-0.2,0.1-0.3,0.2c-0.1,0-0.2,0.1-0.3,0c-0.1,0-0.2,0-0.3-0.1c-0.1,0-0.2-0.1-0.3-0.2c-0.1-0.1-0.2-0.2-0.2-0.3
		s-0.1-0.2-0.1-0.3c0-0.1,0-0.2,0.1-0.3c0-0.1,0.1-0.2,0.2-0.3c0.1-0.1,0.2-0.1,0.3-0.2s0.2-0.1,0.3-0.1c0.1,0,0.2,0,0.3,0.1
		C13.7-49.9,13.8-49.9,13.9-49.8z M13.6-49.5c-0.1-0.1-0.2-0.2-0.3-0.2c-0.1,0-0.2,0-0.3,0.1c-0.1,0.1-0.1,0.2-0.1,0.3
		c0,0.1,0.1,0.2,0.2,0.3c0.1,0.1,0.2,0.2,0.3,0.2c0.1,0,0.2,0,0.3-0.1c0.1-0.1,0.1-0.2,0.1-0.3C13.8-49.3,13.7-49.4,13.6-49.5z"/>
	<path class="st1" d="M15.6-50.4c0,0.1-0.1,0.1-0.2,0.2c-0.1,0.1-0.2,0.2-0.3,0.3c-0.1,0.1-0.2,0.1-0.3,0.2c-0.1,0-0.2,0-0.3,0
		c-0.1,0-0.2,0-0.2-0.1c-0.1-0.1-0.2-0.1-0.2-0.2l-0.6-0.6l0.3-0.2l0.6,0.6c0.1,0.1,0.2,0.2,0.3,0.2c0.1,0,0.2,0,0.3-0.1
		c0,0,0.1-0.1,0.1-0.1s0.1-0.1,0.1-0.1l-0.9-0.9l0.3-0.2L15.6-50.4z"/>
	<path class="st1" d="M14.9-51.8c0-0.1,0.1-0.1,0.2-0.2c0.1-0.1,0.2-0.2,0.3-0.3c0.1-0.1,0.2-0.1,0.3-0.2s0.2,0,0.3,0
		c0.1,0,0.2,0,0.2,0.1c0.1,0.1,0.1,0.1,0.2,0.2l0.6,0.7l-0.3,0.2l-0.5-0.6C16-51.9,16-52,15.9-52c0,0-0.1-0.1-0.1-0.1
		c0,0-0.1,0-0.1,0c0,0-0.1,0-0.1,0.1c0,0-0.1,0.1-0.1,0.1c0,0-0.1,0.1-0.1,0.1l0.8,1l-0.3,0.2L14.9-51.8z"/>
	<path class="st1" d="M18.2-52.6c0,0.1-0.1,0.1-0.2,0.2c-0.1,0.1-0.2,0.2-0.3,0.2c-0.1,0.1-0.2,0.1-0.3,0.2c-0.1,0-0.2,0-0.3,0
		c-0.1,0-0.2,0-0.3-0.1c-0.1-0.1-0.2-0.1-0.3-0.2c-0.1-0.1-0.1-0.2-0.2-0.3c0-0.1-0.1-0.2-0.1-0.3c0-0.1,0-0.2,0.1-0.3
		c0-0.1,0.1-0.2,0.2-0.2c0.1,0,0.1-0.1,0.2-0.1c0.1,0,0.1,0,0.2,0l-0.5-0.6l0.2-0.3L18.2-52.6z M17-52.6c0.1,0.1,0.2,0.2,0.3,0.2
		c0.1,0,0.2,0,0.3-0.1c0,0,0.1-0.1,0.1-0.1c0,0,0.1-0.1,0.1-0.1l-0.6-0.7c0,0-0.1,0-0.1,0s-0.1,0-0.2,0.1c-0.1,0.1-0.2,0.2-0.1,0.3
		C16.8-52.8,16.9-52.7,17-52.6z"/>
	<path class="st1" d="M18-54.5c0.1-0.1,0.2-0.1,0.3-0.1c0.1,0,0.2,0,0.2,0c0.1,0,0.1,0,0.2,0.1c0.1,0,0.1,0.1,0.2,0.2l0.6,0.8
		c0,0-0.1,0.1-0.2,0.2c-0.1,0.1-0.2,0.2-0.3,0.3C19-53.1,18.9-53,18.8-53c-0.1,0-0.1,0-0.2,0.1c-0.1,0-0.1,0-0.2,0
		c-0.1,0-0.1-0.1-0.2-0.2c-0.1-0.1-0.1-0.1-0.1-0.2c0-0.1,0-0.1,0-0.2c0-0.1,0.1-0.1,0.1-0.2c0.1-0.1,0.1-0.1,0.2-0.2
		c0,0,0.1,0,0.1-0.1c0,0,0.1,0,0.1-0.1l0,0c0,0-0.1-0.1-0.1-0.1c0,0-0.1,0-0.1,0c0,0-0.1,0-0.1,0c0,0-0.1,0-0.1,0.1
		c-0.1,0.1-0.1,0.1-0.2,0.2c0,0.1-0.1,0.1-0.1,0.1l-0.2-0.2c0,0,0.1-0.1,0.1-0.2C17.9-54.3,18-54.4,18-54.5z M18.9-53.4
		c0.1-0.1,0.2-0.1,0.2-0.2l-0.2-0.3c0,0,0,0-0.1,0c0,0-0.1,0-0.1,0.1c0,0-0.1,0.1-0.1,0.1c0,0-0.1,0.1-0.1,0.1c0,0,0,0.1,0,0.1
		c0,0,0,0.1,0,0.1c0.1,0.1,0.1,0.1,0.2,0.1C18.7-53.3,18.8-53.3,18.9-53.4z"/>
	<path class="st1" d="M18.7-55.4l0.3-0.3l0.3,0.4l0.5-0.3l0.2,0.2L19.4-55l0.4,0.5c0.1,0.1,0.1,0.2,0.2,0.2c0.1,0,0.1,0,0.2-0.1
		c0.1,0,0.1-0.1,0.1-0.1s0.1-0.1,0.1-0.1l0.2,0.2c0,0-0.1,0.1-0.1,0.1c0,0.1-0.1,0.1-0.2,0.2C20.3-54,20.2-54,20.1-54
		c-0.1,0-0.2,0-0.2,0c-0.1,0-0.1-0.1-0.2-0.1c-0.1-0.1-0.1-0.1-0.2-0.2L18.7-55.4z"/>
	<path class="st1" d="M20.1-56.4c0,0.1,0.1,0.1,0,0.2c0,0.1,0,0.1-0.1,0.1c-0.1,0-0.1,0-0.2,0c-0.1,0-0.1,0-0.1-0.1
		c0-0.1-0.1-0.1,0-0.2c0-0.1,0-0.1,0.1-0.1c0.1,0,0.1,0,0.2,0C20-56.5,20-56.5,20.1-56.4z M21.2-54.7l-0.3,0.2L20-55.8l0.3-0.2
		L21.2-54.7z"/>
	<path class="st1" d="M22.3-56.4c0.1,0.1,0.1,0.2,0.1,0.3c0,0.1,0,0.2,0,0.3c0,0.1-0.1,0.2-0.1,0.3c-0.1,0.1-0.1,0.2-0.2,0.2
		c-0.1,0.1-0.2,0.1-0.3,0.1c-0.1,0-0.2,0-0.3,0c-0.1,0-0.2-0.1-0.3-0.1c-0.1-0.1-0.2-0.2-0.2-0.3s-0.1-0.2-0.1-0.3s0-0.2,0-0.3
		c0-0.1,0.1-0.2,0.1-0.3c0.1-0.1,0.1-0.2,0.2-0.2c0.1-0.1,0.2-0.1,0.3-0.1c0.1,0,0.2,0,0.3,0c0.1,0,0.2,0.1,0.3,0.1
		C22.2-56.6,22.3-56.5,22.3-56.4z M22-56.2c-0.1-0.1-0.2-0.2-0.3-0.3c-0.1,0-0.2,0-0.3,0c-0.1,0.1-0.2,0.2-0.2,0.3
		c0,0.1,0,0.2,0.1,0.4c0.1,0.1,0.2,0.2,0.3,0.3c0.1,0,0.2,0,0.3,0c0.1-0.1,0.2-0.2,0.2-0.3C22.1-55.9,22.1-56,22-56.2z"/>
	<path class="st1" d="M22.3-57.2c0.1-0.1,0.1-0.1,0.2-0.2c0.1-0.1,0.2-0.1,0.3-0.2c0.1-0.1,0.2-0.1,0.3-0.1c0.1,0,0.2,0,0.3,0
		c0.1,0,0.1,0.1,0.2,0.1c0.1,0.1,0.1,0.1,0.2,0.2l0.4,0.8l-0.3,0.2l-0.4-0.7c0-0.1-0.1-0.1-0.1-0.2c0,0-0.1-0.1-0.1-0.1
		c0,0-0.1,0-0.1,0c0,0-0.1,0-0.1,0.1c0,0-0.1,0.1-0.1,0.1c0,0-0.1,0.1-0.1,0.1l0.6,1.1L23-55.9L22.3-57.2z"/>
	<path class="st1" d="M24.8-57.2c0.1,0,0.1-0.1,0.2-0.1c0,0,0-0.1,0-0.1c0,0-0.1-0.1-0.1-0.1c-0.1,0-0.1,0-0.3,0c-0.1,0-0.1,0-0.2,0
		c-0.1,0-0.1,0-0.2,0c-0.1,0-0.1,0-0.1-0.1c0,0-0.1-0.1-0.1-0.1c-0.1-0.1-0.1-0.3,0-0.4c0.1-0.1,0.2-0.2,0.3-0.3
		c0.1,0,0.2-0.1,0.2-0.1c0.1,0,0.1,0,0.2,0l0.1,0.3c0,0-0.1,0-0.2,0c-0.1,0-0.1,0-0.2,0.1c-0.1,0-0.1,0.1-0.1,0.1c0,0,0,0.1,0,0.1
		c0,0,0,0,0,0.1c0,0,0,0,0.1,0c0,0,0.1,0,0.1,0c0,0,0.1,0,0.1,0c0.1,0,0.2,0,0.2,0c0.1,0,0.1,0,0.2,0c0.1,0,0.1,0,0.1,0.1
		c0,0,0.1,0.1,0.1,0.1c0.1,0.1,0.1,0.3,0,0.4c-0.1,0.1-0.2,0.2-0.4,0.3c-0.1,0.1-0.2,0.1-0.3,0.1c-0.1,0-0.1,0-0.2,0L24.3-57
		c0.1,0,0.1,0,0.2,0C24.6-57.1,24.7-57.1,24.8-57.2z"/>
	<path class="st6" d="M37.9-46.5c-7.6,2.4-14,7.4-18.1,14.1l-9.4-6c5.6-8.8,14.1-15.5,24.2-18.7L37.9-46.5z"/>
	<path class="st6" d="M37.9-46.5l3.4,10.6c-5,1.6-9.3,5-12.1,9.4l-9.5-6C23.9-39,30.4-44.1,37.9-46.5z"/>
	<path class="st6" d="M41.3-35.8l3.4,10.6c-2.5,0.8-4.6,2.5-6,4.7l-9.4-6C32-30.9,36.3-34.2,41.3-35.8z"/>
</g>
<g id="culturacambio" transform="translate(291.000000, 94.000000)">
	<path class="st7" d="M-102.2-45.6l-8,4.2c-3.5-6.7-8.8-12.7-15.8-17.1c-2.2-1.4-4.6-2.6-6.9-3.6l3.4-8.3c2.9,1.2,5.6,2.6,8.3,4.3
		C-112.8-60.8-106.4-53.7-102.2-45.6z"/>
	<g id="GRoup" transform="translate(86.000000, 38.000000)">
		<path class="st1" d="M-209.2-96.9c-0.1,0-0.2-0.1-0.3-0.1c-0.1,0-0.2-0.1-0.3-0.2c-0.1-0.1-0.2-0.1-0.2-0.2
			c-0.1-0.1-0.1-0.2-0.1-0.3c0-0.1,0-0.2,0-0.3c0-0.1,0.1-0.2,0.1-0.3c0.1-0.1,0.1-0.2,0.2-0.3c0.1-0.1,0.2-0.1,0.3-0.1
			c0.1,0,0.2,0,0.3,0c0.1,0,0.2,0.1,0.3,0.1c0.1,0,0.1,0.1,0.2,0.1c0,0,0.1,0.1,0.1,0.1l0.4-0.6l0.3,0.2L-209.2-96.9z M-209.7-98.1
			c-0.1,0.1-0.1,0.3-0.1,0.4c0,0.1,0.1,0.2,0.2,0.3c0,0,0.1,0.1,0.1,0.1c0,0,0.1,0,0.1,0l0.5-0.7c0,0,0-0.1-0.1-0.1
			c0,0-0.1-0.1-0.1-0.1c-0.1-0.1-0.2-0.1-0.3,0C-209.5-98.3-209.6-98.2-209.7-98.1z"/>
		<path class="st1" d="M-208.5-97.3c0.1-0.1,0.2-0.2,0.3-0.3c0.1-0.1,0.2-0.1,0.3-0.1c0.1,0,0.2,0,0.3,0c0.1,0,0.2,0.1,0.3,0.1
			c0.2,0.1,0.3,0.3,0.3,0.5c0,0.2,0,0.4-0.2,0.6c0,0,0,0,0,0.1c0,0,0,0,0,0.1l-0.8-0.6c-0.1,0.1-0.1,0.2-0.1,0.3
			c0,0.1,0.1,0.2,0.2,0.3c0.1,0.1,0.1,0.1,0.2,0.1c0.1,0,0.1,0.1,0.2,0.1l-0.1,0.3c0,0-0.1,0-0.1,0c0,0-0.1,0-0.1,0
			c0,0-0.1,0-0.1-0.1c0,0-0.1-0.1-0.1-0.1c-0.1-0.1-0.2-0.2-0.3-0.3c-0.1-0.1-0.1-0.2-0.1-0.3c0-0.1,0-0.2,0-0.3
			C-208.7-97.1-208.6-97.2-208.5-97.3z M-207.6-96.8c0,0,0.1-0.1,0.1-0.1c0,0,0-0.1,0-0.1c0,0,0-0.1,0-0.1c0,0-0.1-0.1-0.1-0.1
			c0,0-0.1-0.1-0.1-0.1c0,0-0.1,0-0.1,0c0,0-0.1,0-0.1,0.1c0,0-0.1,0.1-0.1,0.1L-207.6-96.8z"/>
		<path class="st1" d="M-207.1-95.3c-0.1-0.1-0.1-0.1-0.2-0.2c0-0.1-0.1-0.1-0.1-0.2c0-0.1,0-0.1,0-0.2c0-0.1,0.1-0.1,0.1-0.2
			l1.1-1.4l0.3,0.2l-1.1,1.4c0,0,0,0.1-0.1,0.1c0,0,0,0.1,0,0.1c0,0,0,0.1,0,0.1c0,0,0,0.1,0.1,0.1L-207.1-95.3z"/>
		<path class="st1" d="M-205.9-95.3c0.1-0.1,0.2-0.2,0.3-0.2c0.1-0.1,0.2-0.1,0.3-0.1c0.1,0,0.2,0,0.3,0s0.2,0.1,0.3,0.2
			c0.1,0.1,0.2,0.2,0.3,0.3l-0.3,0.2c0,0,0-0.1-0.1-0.1c0,0-0.1-0.1-0.1-0.1c-0.1-0.1-0.2-0.1-0.3-0.1c-0.1,0-0.2,0.1-0.3,0.2
			c-0.1,0.1-0.2,0.2-0.2,0.4c0,0.1,0.1,0.2,0.2,0.3c0,0,0.1,0.1,0.2,0.1c0.1,0,0.1,0.1,0.1,0.1l-0.2,0.3c0,0-0.1,0-0.2-0.1
			c-0.1,0-0.1-0.1-0.2-0.1c-0.1-0.1-0.2-0.2-0.2-0.3c-0.1-0.1-0.1-0.2-0.1-0.3c0-0.1,0-0.2,0.1-0.3C-206-95.1-206-95.2-205.9-95.3z"
			/>
		<path class="st1" d="M-203.8-94.6c0.1,0.1,0.2,0.2,0.2,0.2c0,0.1,0.1,0.2,0.1,0.2c0,0.1,0,0.1-0.1,0.2c0,0.1-0.1,0.1-0.1,0.2
			l-0.6,0.7c-0.1,0-0.1-0.1-0.2-0.1c-0.1-0.1-0.2-0.1-0.3-0.2c-0.1-0.1-0.1-0.1-0.2-0.2c0-0.1-0.1-0.1-0.1-0.2c0-0.1,0-0.1,0-0.2
			c0-0.1,0.1-0.1,0.1-0.2c0.1-0.1,0.1-0.1,0.2-0.1c0.1,0,0.1,0,0.2,0c0.1,0,0.1,0,0.2,0.1c0.1,0,0.1,0.1,0.2,0.1
			c0,0,0.1,0.1,0.1,0.1c0,0,0.1,0.1,0.1,0.1l0,0c0,0,0.1-0.1,0.1-0.1c0,0,0-0.1,0-0.1c0,0,0-0.1,0-0.1c0,0-0.1-0.1-0.1-0.1
			c-0.1-0.1-0.1-0.1-0.2-0.1c-0.1,0-0.1-0.1-0.2-0.1l0.2-0.3c0,0,0.1,0.1,0.2,0.1C-204-94.8-203.9-94.7-203.8-94.6z M-204.7-93.6
			c0.1,0.1,0.2,0.1,0.2,0.2l0.3-0.3c0,0,0,0-0.1-0.1c0,0-0.1-0.1-0.1-0.1c0,0-0.1-0.1-0.1-0.1c0,0-0.1,0-0.1,0c0,0-0.1,0-0.1,0
			c0,0-0.1,0-0.1,0.1c-0.1,0.1-0.1,0.1-0.1,0.2C-204.8-93.7-204.8-93.7-204.7-93.6z"/>
		<path class="st1" d="M-202.9-92.7c0.1-0.1,0.2-0.2,0.2-0.3c0-0.1,0-0.2-0.1-0.2c0,0-0.1-0.1-0.1-0.1c0,0-0.1-0.1-0.1-0.1l-0.9,0.9
			l-0.3-0.3l1.1-1.1c0.1,0,0.1,0.1,0.2,0.2c0.1,0.1,0.2,0.1,0.3,0.2c0.1,0.1,0.1,0.1,0.2,0.2c0,0.1,0,0.1,0,0.2c0,0,0.1,0,0.1,0
			c0,0,0.1,0,0.1,0c0,0,0.1,0,0.1,0.1c0,0,0.1,0.1,0.1,0.1c0.1,0.1,0.1,0.2,0.2,0.2c0,0.1,0,0.2,0,0.2c0,0.1,0,0.2-0.1,0.2
			c0,0.1-0.1,0.2-0.2,0.2l-0.6,0.6l-0.3-0.3l0.6-0.6c0.1-0.1,0.2-0.2,0.2-0.3s0-0.2-0.1-0.2c0,0-0.1-0.1-0.1-0.1c-0.1,0-0.1,0-0.1,0
			c0,0-0.1,0.1-0.1,0.1c0,0-0.1,0.1-0.1,0.1l-0.6,0.6l-0.3-0.3L-202.9-92.7z"/>
		<path class="st1" d="M-200.7-90.4c-0.1,0.1-0.2,0.2-0.3,0.2c-0.1,0-0.2,0.1-0.3,0.1c-0.1,0-0.2,0-0.3-0.1c-0.1,0-0.2-0.1-0.3-0.2
			c-0.1-0.1-0.2-0.2-0.2-0.3c-0.1-0.1-0.1-0.2-0.1-0.2l1.6-1.5l0.3,0.2l-0.6,0.6c0,0,0.1,0,0.1,0.1c0.1,0,0.1,0.1,0.2,0.1
			c0.1,0.1,0.1,0.2,0.2,0.3c0,0.1,0,0.2,0,0.3c0,0.1,0,0.2-0.1,0.3S-200.7-90.5-200.7-90.4z M-201-90.7c0.1-0.1,0.2-0.2,0.2-0.3
			c0-0.1,0-0.2-0.1-0.3c0,0-0.1-0.1-0.1-0.1c0,0-0.1,0-0.1-0.1l-0.7,0.6c0,0,0,0.1,0.1,0.1c0,0,0.1,0.1,0.1,0.1
			c0.1,0.1,0.2,0.1,0.3,0.1C-201.2-90.6-201.1-90.6-201-90.7z"/>
		<path class="st1" d="M-200.8-89.4l-0.2-0.3l1.2-1l0.2,0.3L-200.8-89.4z M-199.3-90.7c-0.1,0-0.1,0.1-0.2,0.1c-0.1,0-0.1,0-0.1-0.1
			c0,0-0.1-0.1-0.1-0.2c0-0.1,0-0.1,0.1-0.2c0.1,0,0.1-0.1,0.2-0.1c0.1,0,0.1,0,0.2,0.1c0,0,0.1,0.1,0.1,0.2
			C-199.2-90.8-199.2-90.7-199.3-90.7z"/>
		<path class="st1" d="M-199-88.5c-0.1,0.1-0.2,0.1-0.3,0.2c-0.1,0-0.2,0.1-0.3,0.1c-0.1,0-0.2,0-0.3-0.1c-0.1,0-0.2-0.1-0.2-0.2
			c-0.1-0.1-0.1-0.2-0.2-0.3c0-0.1,0-0.2,0-0.3c0-0.1,0-0.2,0.1-0.3c0.1-0.1,0.1-0.2,0.2-0.3c0.1-0.1,0.2-0.1,0.3-0.2
			c0.1,0,0.2-0.1,0.3,0c0.1,0,0.2,0,0.3,0.1c0.1,0,0.2,0.1,0.2,0.2c0.1,0.1,0.1,0.2,0.2,0.3c0,0.1,0,0.2,0,0.3c0,0.1,0,0.2-0.1,0.3
			C-198.9-88.6-198.9-88.5-199-88.5z M-199.3-88.8c0.1-0.1,0.2-0.2,0.2-0.3c0-0.1,0-0.2-0.1-0.3c-0.1-0.1-0.2-0.1-0.3-0.1
			c-0.1,0-0.2,0.1-0.3,0.2c-0.1,0.1-0.2,0.2-0.2,0.3c0,0.1,0,0.2,0.1,0.3c0.1,0.1,0.2,0.1,0.3,0.1
			C-199.5-88.6-199.4-88.6-199.3-88.8z"/>
	</g>
	<g transform="translate(103.000000, 33.000000)">
		<path class="st1" d="M-222.5-93.3c-0.1-0.1-0.2-0.2-0.3-0.3c-0.1-0.1-0.1-0.2-0.1-0.4c0-0.1,0-0.3,0-0.4c0-0.1,0.1-0.3,0.2-0.4
			c0.1-0.1,0.2-0.2,0.3-0.3c0.1-0.1,0.2-0.1,0.4-0.1c0.1,0,0.3,0,0.4,0c0.1,0,0.2,0.1,0.4,0.2c0.1,0.1,0.1,0.1,0.2,0.2
			c0,0.1,0.1,0.1,0.1,0.1c0,0,0.1,0.1,0.1,0.1c0,0,0,0.1,0,0.1l-0.3,0.2c0-0.1-0.1-0.1-0.1-0.2c-0.1-0.1-0.1-0.1-0.2-0.2
			c-0.1-0.1-0.1-0.1-0.2-0.1c-0.1,0-0.2,0-0.2,0c-0.1,0-0.2,0.1-0.2,0.1c-0.1,0.1-0.2,0.1-0.2,0.2c-0.1,0.1-0.1,0.2-0.2,0.3
			c0,0.1-0.1,0.2-0.1,0.3c0,0.1,0,0.2,0.1,0.2c0,0.1,0.1,0.2,0.2,0.2c0.1,0.1,0.2,0.1,0.3,0.2s0.2,0,0.2,0.1l-0.1,0.3
			c0,0-0.1,0-0.1,0c0,0-0.1,0-0.1-0.1c-0.1,0-0.1-0.1-0.2-0.1C-222.4-93.2-222.4-93.2-222.5-93.3z"/>
		<path class="st1" d="M-220.7-92c-0.1,0-0.1-0.1-0.2-0.1c-0.1-0.1-0.2-0.1-0.3-0.2c-0.1-0.1-0.2-0.2-0.2-0.2c0-0.1-0.1-0.2-0.1-0.2
			c0-0.1,0-0.2,0.1-0.2c0-0.1,0.1-0.2,0.2-0.2l0.6-0.7l0.3,0.2l-0.5,0.6c-0.1,0.1-0.2,0.2-0.2,0.3c0,0.1,0,0.2,0.1,0.2
			c0,0,0.1,0.1,0.1,0.1c0,0,0.1,0,0.1,0.1l0.8-1l0.3,0.2L-220.7-92z"/>
		<path class="st1" d="M-220-91.3c-0.1-0.1-0.1-0.1-0.2-0.2c0-0.1-0.1-0.1-0.1-0.2c0-0.1,0-0.1,0-0.2c0-0.1,0.1-0.1,0.1-0.2l1.2-1.4
			l0.3,0.2l-1.2,1.4c0,0-0.1,0.1-0.1,0.1c0,0,0,0.1,0,0.1c0,0,0,0.1,0,0.1c0,0,0,0.1,0.1,0.1L-220-91.3z"/>
		<path class="st1" d="M-218.4-92.6l0.3,0.2l-0.3,0.4l0.4,0.4l-0.2,0.2l-0.4-0.4l-0.4,0.5c-0.1,0.1-0.1,0.2-0.1,0.2
			c0,0.1,0,0.1,0.1,0.2c0,0,0.1,0.1,0.1,0.1c0,0,0.1,0,0.1,0.1l-0.1,0.3c0,0-0.1,0-0.2-0.1c-0.1,0-0.1-0.1-0.2-0.1
			c-0.1-0.1-0.1-0.1-0.2-0.2c0-0.1-0.1-0.1,0-0.2c0-0.1,0-0.1,0.1-0.2c0-0.1,0.1-0.1,0.2-0.2L-218.4-92.6z"/>
		<path class="st1" d="M-217.9-89.4c-0.1,0-0.1-0.1-0.2-0.1c-0.1-0.1-0.2-0.1-0.3-0.2c-0.1-0.1-0.2-0.2-0.2-0.3s-0.1-0.2,0-0.2
			c0-0.1,0-0.2,0.1-0.2c0-0.1,0.1-0.2,0.2-0.2l0.6-0.6l0.3,0.3l-0.6,0.6c-0.1,0.1-0.2,0.2-0.2,0.3c0,0.1,0,0.2,0.1,0.3
			c0,0,0.1,0.1,0.1,0.1c0,0,0.1,0.1,0.1,0.1l0.9-0.9l0.3,0.3L-217.9-89.4z"/>
		<path class="st1" d="M-216.1-89.4c0,0,0-0.1-0.1-0.1c0,0-0.1-0.1-0.1-0.1c0,0-0.1-0.1-0.1-0.1c0,0-0.1,0-0.1-0.1l-0.9,0.9
			l-0.3-0.3l1.1-1.1c0.1,0,0.1,0.1,0.2,0.1c0.1,0.1,0.2,0.1,0.3,0.2c0,0,0,0,0.1,0.1c0,0,0,0.1,0.1,0.1c0,0,0,0.1,0.1,0.1
			c0,0,0,0,0,0.1L-216.1-89.4z"/>
		<path class="st1" d="M-215.2-89c0.1,0.1,0.1,0.2,0.2,0.3s0,0.2,0,0.2c0,0.1,0,0.1-0.1,0.2c0,0.1-0.1,0.1-0.2,0.2l-0.7,0.7
			c0,0-0.1-0.1-0.2-0.2c-0.1-0.1-0.2-0.2-0.3-0.3c-0.1-0.1-0.1-0.1-0.2-0.2c0-0.1-0.1-0.1-0.1-0.2c0-0.1,0-0.1,0-0.2
			c0-0.1,0.1-0.1,0.1-0.2c0.1-0.1,0.1-0.1,0.2-0.1c0.1,0,0.1,0,0.2,0c0.1,0,0.1,0,0.2,0.1c0.1,0,0.1,0.1,0.2,0.2
			c0,0,0.1,0.1,0.1,0.1c0,0,0.1,0.1,0.1,0.1l0,0c0,0,0.1-0.1,0.1-0.1c0,0,0-0.1,0-0.1c0,0,0-0.1,0-0.1c0,0,0-0.1-0.1-0.1
			c-0.1-0.1-0.1-0.1-0.2-0.2c-0.1,0-0.1-0.1-0.1-0.1l0.2-0.2c0,0,0.1,0.1,0.2,0.1C-215.4-89.1-215.3-89.1-215.2-89z M-216.2-88
			c0.1,0.1,0.1,0.1,0.2,0.2l0.3-0.3c0,0,0,0,0-0.1c0,0,0-0.1-0.1-0.1c0,0-0.1-0.1-0.1-0.1c0,0-0.1,0-0.1-0.1c0,0-0.1,0-0.1,0
			c0,0-0.1,0-0.1,0.1c-0.1,0.1-0.1,0.1-0.1,0.2C-216.3-88.2-216.3-88.1-216.2-88z"/>
	</g>
	<path class="st6" d="M-110.4-41.4L-110.4-41.4l-9.9,5.2c-3.6-6.9-9.7-12.4-17-15.4l4.2-10.3l0,0C-123.2-57.9-115.2-50.6-110.4-41.4
		z"/>
	<path class="st6" d="M-120.3-36.2l-9.9,5.2c-2.4-4.6-6.4-8.3-11.3-10.3l4.2-10.3C-129.9-48.6-123.9-43.1-120.3-36.2z"/>
	<path class="st6" d="M-130.2-31l-9.9,5.2c-1.2-2.3-3.2-4.1-5.7-5.1l4.2-10.3C-136.6-39.2-132.6-35.6-130.2-31z"/>
</g>
<path class="st8" d="M193.7,84.9L185,83c2.3-10.4,0.8-21.2-4.1-30.4l8-4.2C194.7,59.5,196.5,72.5,193.7,84.9z"/>
<g transform="translate(142.000000, 55.000000)">
	<path class="st1" d="M44.5,7.7l2.2-0.5l0.1,0.3l-0.8,0.2c0,0,0,0.1,0.1,0.1c0,0,0,0.1,0,0.2c0,0.1,0,0.2,0,0.3c0,0.1,0,0.2-0.1,0.2
		C46.1,8.6,46,8.7,46,8.7c-0.1,0-0.2,0.1-0.3,0.1L44.8,9l-0.1-0.4l0.8-0.2c0.1,0,0.2,0,0.2-0.1c0.1,0,0.1-0.1,0.1-0.1
		c0,0,0-0.1,0.1-0.1c0,0,0-0.1,0-0.2c0,0,0-0.1,0-0.1c0,0,0-0.1-0.1-0.1l-1.2,0.3L44.5,7.7z"/>
	<path class="st1" d="M45.2,10.6c0-0.1-0.1-0.2-0.1-0.3c0-0.1-0.1-0.2-0.1-0.4c0-0.1,0-0.2,0-0.3c0-0.1,0.1-0.2,0.1-0.2
		c0.1-0.1,0.1-0.1,0.2-0.1c0.1,0,0.2-0.1,0.3-0.1l0.9-0.2l0.1,0.4l-0.8,0.1c-0.2,0-0.3,0.1-0.3,0.1c-0.1,0.1-0.1,0.2-0.1,0.3
		c0,0,0,0.1,0,0.1c0,0,0,0.1,0,0.1l1.3-0.2l0.1,0.4L45.2,10.6z"/>
	<path class="st1" d="M46.1,11.8c0.2,0,0.3-0.1,0.3-0.1c0.1-0.1,0.1-0.1,0.1-0.2c0,0,0-0.1,0-0.1c0,0,0-0.1,0-0.1l-1.3,0.2l0-0.4
		l1.5-0.2c0,0.1,0.1,0.2,0.1,0.3c0,0.1,0.1,0.2,0.1,0.4c0,0.1,0,0.2,0,0.3c0,0.1,0,0.1-0.1,0.2c0,0,0,0,0.1,0.1c0,0,0,0.1,0.1,0.1
		c0,0,0,0.1,0.1,0.1c0,0,0,0.1,0,0.1c0,0.1,0,0.2,0,0.3c0,0.1-0.1,0.2-0.1,0.2c-0.1,0.1-0.1,0.1-0.2,0.1c-0.1,0-0.2,0.1-0.3,0.1
		l-0.9,0.1l0-0.4l0.8-0.1c0.2,0,0.3-0.1,0.3-0.1c0.1,0,0.1-0.1,0.1-0.2c0-0.1,0-0.1-0.1-0.2c0,0,0-0.1-0.1-0.1c0,0-0.1,0-0.2,0.1
		s-0.1,0-0.2,0l-0.9,0.1l0-0.4L46.1,11.8z"/>
	<path class="st1" d="M47.2,14c0,0.1,0,0.2,0,0.3c0,0.1-0.1,0.2-0.1,0.2c0,0.1-0.1,0.1-0.2,0.1c-0.1,0-0.2,0-0.3,0.1l-1,0.1
		c0-0.1,0-0.1-0.1-0.2c0-0.1,0-0.2-0.1-0.4c0-0.1,0-0.2,0-0.3s0-0.1,0.1-0.2c0-0.1,0.1-0.1,0.1-0.1c0.1,0,0.1-0.1,0.2-0.1
		c0.1,0,0.2,0,0.2,0c0.1,0,0.1,0.1,0.2,0.1c0,0.1,0.1,0.1,0.1,0.2c0,0.1,0,0.2,0,0.2c0,0,0,0.1,0,0.1s0,0.1,0,0.1l0.1,0
		c0,0,0.1,0,0.1,0c0,0,0.1,0,0.1-0.1c0,0,0-0.1,0.1-0.1c0,0,0-0.1,0-0.2c0-0.1,0-0.2,0-0.2c0-0.1,0-0.1-0.1-0.2l0.3-0.1
		c0,0,0,0.1,0.1,0.2C47.2,13.8,47.2,13.9,47.2,14z M45.8,14.1c0,0.1,0,0.2,0,0.3l0.4,0c0,0,0-0.1,0-0.1c0,0,0-0.1,0-0.1
		c0,0,0-0.1,0-0.1c0,0,0-0.1,0-0.1c0,0,0-0.1-0.1-0.1c0,0-0.1,0-0.1,0c-0.1,0-0.1,0-0.2,0.1C45.8,14,45.8,14,45.8,14.1z"/>
	<path class="st1" d="M47.2,15.1c0,0.1,0,0.2,0.1,0.3c0,0.1,0,0.2,0,0.4c0,0.1,0,0.2,0,0.3c0,0.1-0.1,0.2-0.1,0.2
		c-0.1,0.1-0.1,0.1-0.2,0.1c-0.1,0-0.2,0-0.3,0l-0.9,0.1l0-0.4l0.8,0c0.1,0,0.2,0,0.2,0c0.1,0,0.1,0,0.1-0.1c0,0,0.1-0.1,0.1-0.1
		c0,0,0-0.1,0-0.2c0,0,0-0.1,0-0.1c0,0,0-0.1,0-0.1l-1.3,0.1l0-0.4L47.2,15.1z"/>
	<path class="st1" d="M46.6,18.3c-0.1,0-0.2,0-0.3,0c-0.1,0-0.2-0.1-0.3-0.1c-0.1-0.1-0.1-0.1-0.2-0.2c0-0.1-0.1-0.2-0.1-0.3
		c0-0.1,0-0.2,0.1-0.3c0-0.1,0.1-0.2,0.2-0.2c0.1-0.1,0.2-0.1,0.3-0.2c0.1,0,0.2-0.1,0.3-0.1c0.1,0,0.2,0,0.3,0
		c0.1,0,0.2,0.1,0.3,0.2c0.1,0.1,0.1,0.1,0.2,0.2c0,0.1,0.1,0.2,0.1,0.3c0,0.1,0,0.2-0.1,0.3c0,0.1-0.1,0.2-0.2,0.2
		c-0.1,0.1-0.2,0.1-0.3,0.2C46.8,18.3,46.7,18.3,46.6,18.3z M46.6,17.9c0.2,0,0.3,0,0.4-0.1s0.1-0.2,0.1-0.3c0-0.1,0-0.2-0.1-0.3
		c-0.1-0.1-0.2-0.1-0.4-0.1c-0.2,0-0.3,0-0.4,0.1c-0.1,0.1-0.1,0.2-0.1,0.3c0,0.1,0.1,0.2,0.1,0.3C46.3,17.9,46.4,17.9,46.6,17.9z"
		/>
</g>
<g transform="translate(156.000000, 56.000000)">
	<path class="st1" d="M34.2,7.7c0-0.2,0-0.3,0-0.4c0-0.1,0.1-0.2,0.1-0.4c0.1-0.1,0.2-0.2,0.3-0.3c0.1-0.1,0.3-0.1,0.4-0.2
		c0.2,0,0.3,0,0.5,0c0.1,0,0.3,0.1,0.4,0.1c0.1,0.1,0.2,0.2,0.3,0.3c0.1,0.1,0.1,0.2,0.2,0.4c0,0.1,0,0.2,0,0.2c0,0.1,0,0.1,0,0.2
		c0,0.1,0,0.1,0,0.1c0,0,0,0.1,0,0.1l-0.3,0c0-0.1,0-0.1,0-0.2c0-0.1,0-0.2,0-0.3c0-0.1-0.1-0.2-0.1-0.2c0-0.1-0.1-0.1-0.2-0.2
		c-0.1,0-0.2-0.1-0.3-0.1c-0.1,0-0.2,0-0.3,0c-0.1,0-0.2,0.1-0.3,0.1c-0.1,0-0.2,0.1-0.2,0.2c-0.1,0.1-0.1,0.1-0.1,0.2
		c0,0.1,0,0.2,0,0.3c0,0.1,0.1,0.2,0.1,0.3c0,0.1,0.1,0.1,0.1,0.2l-0.3,0.2c0,0,0,0-0.1-0.1c0,0,0-0.1-0.1-0.1
		c0-0.1-0.1-0.1-0.1-0.2C34.2,7.9,34.2,7.8,34.2,7.7z"/>
	<path class="st1" d="M36.1,8.9c0,0.1,0,0.2,0,0.3c0,0.1,0,0.2-0.1,0.2c0,0.1-0.1,0.1-0.2,0.1c-0.1,0-0.2,0.1-0.2,0.1l-0.9,0.2
		c0-0.1,0-0.1-0.1-0.2c0-0.1-0.1-0.2-0.1-0.4c0-0.1,0-0.2,0-0.3c0-0.1,0-0.2,0.1-0.2c0-0.1,0.1-0.1,0.1-0.2c0.1,0,0.1-0.1,0.2-0.1
		c0.1,0,0.2,0,0.2,0c0.1,0,0.1,0.1,0.2,0.1c0,0.1,0.1,0.1,0.1,0.2c0,0.1,0.1,0.2,0.1,0.2c0,0,0,0.1,0,0.1c0,0,0,0.1,0,0.1l0.1,0
		c0,0,0.1,0,0.1,0c0,0,0.1,0,0.1-0.1c0,0,0-0.1,0.1-0.1c0,0,0-0.1,0-0.2c0-0.1,0-0.2-0.1-0.2c0-0.1,0-0.1-0.1-0.2l0.3-0.1
		c0,0,0.1,0.1,0.1,0.2C36,8.7,36.1,8.8,36.1,8.9z M34.8,9.1c0,0.1,0,0.2,0.1,0.2l0.4-0.1c0,0,0-0.1,0-0.1c0,0,0-0.1,0-0.1
		c0,0,0-0.1,0-0.1c0,0,0-0.1-0.1-0.1c0,0,0-0.1-0.1-0.1c0,0-0.1,0-0.1,0c-0.1,0-0.1,0.1-0.2,0.1C34.7,8.9,34.7,9,34.8,9.1z"/>
	<path class="st1" d="M35.6,11.5c-0.1,0-0.2,0-0.3,0c-0.1,0-0.2-0.1-0.3-0.1c-0.1,0-0.1-0.1-0.2-0.2c-0.1-0.1-0.1-0.2-0.1-0.3
		c0-0.1,0-0.1,0-0.2c0-0.1,0-0.1,0-0.2l-0.6,0.1l0-0.4l2.1-0.3c0,0.1,0.1,0.2,0.1,0.3c0,0.1,0.1,0.2,0.1,0.3c0,0.1,0,0.2,0,0.3
		c0,0.1-0.1,0.2-0.1,0.3c-0.1,0.1-0.1,0.1-0.2,0.2C35.9,11.4,35.8,11.4,35.6,11.5z M35.6,11.1c0.2,0,0.3-0.1,0.4-0.2
		c0.1-0.1,0.1-0.2,0.1-0.4c0,0,0-0.1,0-0.1c0,0,0-0.1,0-0.1l-0.9,0.1c0,0,0,0.1,0,0.1c0,0.1,0,0.1,0,0.2c0,0.1,0.1,0.2,0.2,0.3
		C35.3,11.1,35.4,11.1,35.6,11.1z"/>
	<path class="st1" d="M34.9,12.3l0-0.4l1.6-0.2l0,0.4L34.9,12.3z M37,12.1c-0.1,0-0.1,0-0.2,0c0,0-0.1-0.1-0.1-0.1
		c0-0.1,0-0.1,0-0.2c0,0,0.1-0.1,0.2-0.1c0.1,0,0.1,0,0.2,0c0,0,0.1,0.1,0.1,0.2c0,0.1,0,0.1,0,0.2C37.1,12.1,37,12.1,37,12.1z"/>
	<path class="st1" d="M37,12.5l0.1,0.4l-0.5,0l0,0.6l-0.3,0l0-0.6L35.6,13c-0.1,0-0.2,0-0.3,0.1c-0.1,0-0.1,0.1-0.1,0.2
		c0,0.1,0,0.1,0,0.2c0,0,0,0.1,0,0.1l-0.3,0.1c0,0,0-0.1-0.1-0.2c0-0.1,0-0.1,0-0.2c0-0.1,0-0.2,0-0.3c0-0.1,0.1-0.1,0.1-0.2
		c0.1,0,0.1-0.1,0.2-0.1c0.1,0,0.2,0,0.3-0.1L37,12.5z"/>
	<path class="st1" d="M36.7,14.4c0,0.1,0,0.2,0,0.3c0,0.1-0.1,0.2-0.1,0.2S36.5,15,36.4,15c-0.1,0-0.2,0-0.3,0l-1,0.1
		c0-0.1,0-0.1-0.1-0.3c0-0.1,0-0.2,0-0.4c0-0.1,0-0.2,0-0.3c0-0.1,0-0.1,0.1-0.2c0-0.1,0.1-0.1,0.1-0.1c0.1,0,0.1-0.1,0.2-0.1
		c0.1,0,0.2,0,0.2,0c0.1,0,0.1,0.1,0.2,0.1c0,0.1,0.1,0.1,0.1,0.2s0,0.2,0,0.2c0,0,0,0.1,0,0.1c0,0,0,0.1,0,0.1l0.1,0
		c0,0,0.1,0,0.1,0s0.1,0,0.1-0.1c0,0,0-0.1,0.1-0.1c0,0,0-0.1,0-0.2c0-0.1,0-0.2,0-0.2c0-0.1,0-0.1-0.1-0.2l0.3-0.1
		c0,0,0,0.1,0.1,0.2C36.7,14.2,36.7,14.3,36.7,14.4z M35.4,14.5c0,0.1,0,0.2,0,0.3l0.4,0c0,0,0,0,0-0.1c0,0,0-0.1,0-0.1
		c0,0,0-0.1,0-0.1c0,0,0-0.1,0-0.1c0,0,0-0.1-0.1-0.1c0,0-0.1,0-0.1,0c-0.1,0-0.1,0-0.2,0.1C35.4,14.3,35.4,14.4,35.4,14.5z"/>
	<path class="st1" d="M35.2,16.1c0-0.1,0-0.2,0-0.3c0-0.1,0-0.1,0.1-0.2c0,0,0.1-0.1,0.2-0.1c0.1,0,0.1,0,0.2,0l1.8-0.1l0.1,0.4
		l-1.8,0.1c0,0-0.1,0-0.1,0c0,0-0.1,0-0.1,0c0,0,0,0,0,0.1c0,0,0,0.1,0,0.1L35.2,16.1z"/>
</g>
<path class="st6" d="M185.7,75.2c-0.1,2.6-0.4,5.2-1,7.7l-10.9-2.4c0.4-1.9,0.7-3.8,0.7-5.8c0.2-6.1-1.2-11.9-3.8-16.9l9.9-5.2l0,0
	C184.1,59.4,186,67.1,185.7,75.2z"/>
<path class="st6" d="M174.5,74.8c-0.1,2-0.3,3.9-0.7,5.8l-10.9-2.4c0.3-1.2,0.4-2.5,0.5-3.9c0.2-4.1-0.8-7.9-2.6-11.3l9.9-5.2
	C173.3,62.9,174.7,68.7,174.5,74.8z"/>
<path class="st6" d="M163.5,74.3c-0.1,1.3-0.2,2.6-0.5,3.9l-10.9-2.4c0.1-0.6,0.2-1.3,0.2-1.9c0.1-2-0.4-4-1.3-5.6l9.9-5.2
	C162.7,66.4,163.6,70.3,163.5,74.3z"/>
<path class="st8" d="M193.7,84.9c-1.3,6-3.7,11.8-7.1,17.3c-3.5,5.5-7.7,10.1-12.6,13.8l-5.5-7.1c4-3.1,7.6-7,10.5-11.5
	c2.9-4.6,4.8-9.4,5.9-14.4L193.7,84.9z"/>
<path class="st6" d="M173.9,80.6l10.9,2.4c-2.3,10.5-8.2,19.6-16.3,25.9l0,0l-6.8-8.8C167.8,95.2,172.2,88.4,173.9,80.6z"/>
<path class="st6" d="M163,78.2l10.9,2.4c-1.7,7.9-6.1,14.7-12.2,19.4l-6.8-8.8C158.9,88,161.8,83.4,163,78.2z"/>
<path class="st6" d="M152.1,75.8l10.9,2.4c-1.1,5.2-4.1,9.8-8.1,12.9l-6.8-8.8C150,80.7,151.5,78.4,152.1,75.8z"/>
<path class="st8" d="M168.5,109l5.5,7.1c-10.1,7.8-22.6,11.7-35.1,11.2l0.4-9C149.7,118.7,160.1,115.5,168.5,109z"/>
<g transform="translate(39.000000, 136.000000)">
	<polygon class="st1" points="110.2,-14.5 109.9,-16.5 111.2,-16.8 111.2,-16.4 110.3,-16.3 110.4,-15.8 111.2,-15.9 111.3,-15.6 
		110.4,-15.4 110.5,-14.8 111.6,-15 111.6,-14.7 	"/>
	<path class="st1" d="M112.1-17.2c0.1,0,0.1,0,0.2,0c0.1,0,0.1,0,0.1,0l0,0.3c0,0-0.1,0-0.1,0c0,0-0.1,0-0.1,0
		c-0.1,0-0.2,0.1-0.2,0.1c0,0.1,0,0.2,0,0.3l0,0.1l0.6-0.1l0.1,0.3l-0.6,0.1l0.3,1.2l-0.4,0.1l-0.4-1.6c0-0.2,0-0.4,0.1-0.5
		C111.8-17.1,111.9-17.2,112.1-17.2z M113.1-17.1c0,0.1,0,0.1,0,0.2c0,0-0.1,0.1-0.1,0.1c-0.1,0-0.1,0-0.2,0c-0.1,0-0.1-0.1-0.1-0.1
		c0-0.1,0-0.1,0-0.2c0,0,0.1-0.1,0.1-0.1c0.1,0,0.1,0,0.2,0C113.1-17.2,113.1-17.2,113.1-17.1z M113.5-15.1l-0.4,0.1l-0.3-1.5
		l0.4-0.1L113.5-15.1z"/>
	<path class="st1" d="M113.7-16c0-0.1,0-0.2,0-0.3c0-0.1,0-0.2,0.1-0.3c0-0.1,0.1-0.2,0.2-0.2c0.1-0.1,0.2-0.1,0.3-0.1
		c0.1,0,0.3,0,0.4,0v0.3c0,0-0.1,0-0.2,0c-0.1,0-0.1,0-0.2,0c-0.1,0-0.2,0.1-0.3,0.2c0,0.1-0.1,0.2,0,0.4c0,0.2,0.1,0.3,0.2,0.3
		c0.1,0.1,0.2,0.1,0.4,0c0.1,0,0.1,0,0.2-0.1c0.1,0,0.1-0.1,0.1-0.1l0.1,0.3c0,0-0.1,0.1-0.2,0.1c-0.1,0-0.2,0.1-0.2,0.1
		c-0.1,0-0.2,0-0.4,0c-0.1,0-0.2,0-0.3-0.1c-0.1-0.1-0.2-0.1-0.2-0.2C113.8-15.8,113.8-15.9,113.7-16z"/>
	<path class="st1" d="M115.2-17.7c0,0.1,0,0.1,0,0.2c0,0.1-0.1,0.1-0.1,0.1c-0.1,0-0.1,0-0.2,0c-0.1,0-0.1-0.1-0.1-0.1
		c0-0.1,0-0.1,0-0.2c0-0.1,0.1-0.1,0.1-0.1c0.1,0,0.1,0,0.2,0C115.2-17.8,115.2-17.8,115.2-17.7z M115.8-15.7l-0.3,0.1l-0.4-1.5
		l0.3-0.1L115.8-15.7z"/>
	<path class="st1" d="M115.9-16.6c0-0.1-0.1-0.3-0.1-0.4c0-0.1,0-0.2,0.1-0.3c0-0.1,0.1-0.2,0.2-0.2c0.1-0.1,0.2-0.1,0.2-0.1
		c0.2-0.1,0.4-0.1,0.5,0c0.2,0.1,0.3,0.3,0.4,0.5c0,0,0,0,0,0.1c0,0,0,0,0,0.1l-1,0.3c0,0.1,0.1,0.2,0.2,0.2c0.1,0,0.2,0,0.4,0
		c0.1,0,0.2-0.1,0.2-0.1c0.1,0,0.1-0.1,0.1-0.1l0.1,0.3c0,0,0,0-0.1,0.1s-0.1,0-0.1,0.1c0,0-0.1,0-0.1,0.1c0,0-0.1,0-0.1,0.1
		c-0.1,0-0.3,0.1-0.4,0.1c-0.1,0-0.2,0-0.3-0.1c-0.1,0-0.2-0.1-0.2-0.2C116-16.4,116-16.5,115.9-16.6z M116.9-17.1
		c0,0,0-0.1-0.1-0.1c0,0-0.1-0.1-0.1-0.1c0,0-0.1,0-0.1,0c0,0-0.1,0-0.1,0c-0.1,0-0.1,0-0.1,0.1c0,0-0.1,0.1-0.1,0.1
		c0,0,0,0.1,0,0.1c0,0,0,0.1,0,0.1L116.9-17.1z"/>
	<path class="st1" d="M117.4-17.8c0.1,0,0.1-0.1,0.2-0.1c0.1-0.1,0.2-0.1,0.3-0.2c0.1,0,0.2-0.1,0.3-0.1c0.1,0,0.2,0,0.2,0.1
		c0.1,0,0.1,0.1,0.2,0.2c0,0.1,0.1,0.2,0.1,0.3l0.3,0.8l-0.3,0.1l-0.3-0.8c0-0.1-0.1-0.1-0.1-0.2c0-0.1-0.1-0.1-0.1-0.1
		c0,0-0.1,0-0.1,0c0,0-0.1,0-0.2,0c0,0-0.1,0-0.1,0.1c0,0-0.1,0-0.1,0.1l0.4,1.2l-0.3,0.1L117.4-17.8z"/>
	<path class="st1" d="M119.2-17.7c0-0.1-0.1-0.2-0.1-0.3c0-0.1,0-0.2,0-0.3c0-0.1,0.1-0.2,0.2-0.3c0.1-0.1,0.2-0.1,0.3-0.2
		c0.1-0.1,0.3-0.1,0.4-0.1l0,0.3c0,0-0.1,0-0.1,0s-0.1,0-0.2,0c-0.1,0.1-0.2,0.1-0.3,0.2c0,0.1,0,0.2,0,0.4c0.1,0.1,0.1,0.2,0.2,0.3
		c0.1,0.1,0.2,0.1,0.4,0c0.1,0,0.1-0.1,0.2-0.1c0.1,0,0.1-0.1,0.1-0.1l0.2,0.3c0,0-0.1,0.1-0.1,0.1c-0.1,0-0.1,0.1-0.2,0.1
		c-0.1,0-0.2,0.1-0.3,0.1c-0.1,0-0.2,0-0.3-0.1s-0.2-0.1-0.2-0.2C119.3-17.5,119.3-17.6,119.2-17.7z"/>
	<path class="st1" d="M120.5-19.6c0,0.1,0,0.1,0,0.2c0,0.1-0.1,0.1-0.1,0.1c-0.1,0-0.1,0-0.2,0s-0.1-0.1-0.1-0.1c0-0.1,0-0.1,0-0.2
		c0-0.1,0.1-0.1,0.1-0.1c0.1,0,0.1,0,0.2,0C120.5-19.7,120.5-19.7,120.5-19.6z M121.3-17.7l-0.3,0.1l-0.6-1.5l0.3-0.1L121.3-17.7z"
		/>
	<path class="st1" d="M121.5-19.6c0.1,0,0.2-0.1,0.3-0.1c0.1,0,0.2,0,0.2,0c0.1,0,0.1,0.1,0.2,0.1c0.1,0.1,0.1,0.1,0.1,0.2l0.4,0.9
		c0,0-0.1,0.1-0.2,0.1c-0.1,0.1-0.2,0.1-0.3,0.2c-0.1,0-0.2,0.1-0.2,0.1c-0.1,0-0.2,0-0.2,0c-0.1,0-0.1,0-0.2-0.1
		c-0.1,0-0.1-0.1-0.1-0.2c0-0.1-0.1-0.2,0-0.2c0-0.1,0-0.1,0.1-0.2c0-0.1,0.1-0.1,0.2-0.2c0.1,0,0.1-0.1,0.2-0.1c0,0,0.1,0,0.1,0
		c0,0,0.1,0,0.1,0l0-0.1c0,0,0-0.1-0.1-0.1c0,0-0.1-0.1-0.1-0.1c0,0-0.1,0-0.1,0c0,0-0.1,0-0.2,0c-0.1,0-0.1,0.1-0.2,0.1
		c-0.1,0-0.1,0.1-0.1,0.1l-0.2-0.2c0,0,0.1-0.1,0.2-0.1C121.4-19.5,121.4-19.5,121.5-19.6z M122.1-18.4c0.1,0,0.2-0.1,0.2-0.1
		l-0.2-0.4c0,0-0.1,0-0.1,0c0,0-0.1,0-0.1,0c0,0-0.1,0-0.1,0.1c0,0-0.1,0-0.1,0.1s0,0.1,0,0.1c0,0,0,0.1,0,0.1
		c0,0.1,0.1,0.1,0.1,0.1C122-18.3,122-18.3,122.1-18.4z"/>
</g>
<g transform="translate(43.000000, 145.000000)">
	<path class="st1" d="M108.3-22c0,0.6-0.1,1.2-0.2,1.7c0,0.1,0,0.2-0.1,0.3c0,0.1-0.1,0.1-0.1,0.2c0,0.1-0.1,0.1-0.2,0.1
		c-0.1,0-0.1,0.1-0.2,0.1c-0.1,0-0.1,0-0.2,0c-0.1,0-0.1,0-0.1,0l0-0.3c0.1,0,0.1,0,0.2,0c0.1,0,0.2-0.1,0.2-0.1
		c0-0.1,0.1-0.1,0.1-0.2c-0.2-0.2-0.3-0.4-0.5-0.6s-0.3-0.5-0.4-0.8l0.4-0.1c0,0.1,0.1,0.2,0.1,0.3c0,0.1,0.1,0.2,0.1,0.3
		c0.1,0.1,0.1,0.2,0.2,0.3c0.1,0.1,0.1,0.2,0.2,0.3c0-0.2,0.1-0.4,0.1-0.6c0-0.2,0-0.4,0-0.6L108.3-22z"/>
	<path class="st1" d="M109.7-22.4c0.1,0,0.2,0,0.3,0c0.1,0,0.2,0,0.2,0.1c0.1,0,0.1,0.1,0.1,0.2c0,0.1,0.1,0.2,0.1,0.2l0.2,0.9
		c-0.1,0-0.1,0.1-0.2,0.1c-0.1,0-0.2,0.1-0.4,0.1c-0.1,0-0.2,0-0.3,0c-0.1,0-0.2,0-0.2,0c-0.1,0-0.1-0.1-0.2-0.1
		c0-0.1-0.1-0.1-0.1-0.2c0-0.1,0-0.2,0-0.2c0-0.1,0.1-0.1,0.1-0.2c0-0.1,0.1-0.1,0.2-0.1c0.1,0,0.2-0.1,0.2-0.1c0,0,0.1,0,0.1,0
		c0,0,0.1,0,0.1,0l0-0.1c0,0,0-0.1,0-0.1s0-0.1-0.1-0.1c0,0-0.1,0-0.1,0c0,0-0.1,0-0.2,0c-0.1,0-0.2,0-0.2,0.1
		c-0.1,0-0.1,0.1-0.2,0.1l-0.1-0.3c0,0,0.1-0.1,0.2-0.1C109.6-22.3,109.6-22.3,109.7-22.4z M110.1-21c0.1,0,0.2-0.1,0.2-0.1
		l-0.1-0.4c0,0-0.1,0-0.1,0c0,0-0.1,0-0.1,0c0,0-0.1,0-0.1,0c0,0-0.1,0-0.1,0.1c0,0,0,0.1-0.1,0.1c0,0,0,0.1,0,0.1
		c0,0.1,0.1,0.1,0.1,0.2C109.9-21,110-21,110.1-21z"/>
	<path class="st1" d="M112.4-21.6c0.1,0.2,0.1,0.4,0,0.6c-0.1,0.1-0.3,0.3-0.5,0.3c-0.1,0-0.2,0-0.3,0.1c-0.1,0-0.2,0-0.3,0l0-0.3
		c0.1,0,0.1,0,0.2,0c0.1,0,0.2,0,0.3,0c0.1,0,0.2-0.1,0.3-0.2c0-0.1,0.1-0.2,0-0.3l0-0.1c0,0-0.1,0.1-0.1,0.1
		c-0.1,0-0.1,0.1-0.2,0.1c-0.1,0-0.2,0-0.3,0c-0.1,0-0.2,0-0.2-0.1c-0.1,0-0.1-0.1-0.2-0.2s-0.1-0.2-0.1-0.3c0-0.1,0-0.2,0-0.3
		c0-0.1,0-0.2,0.1-0.3s0.1-0.2,0.2-0.2s0.2-0.1,0.3-0.1c0.1,0,0.2-0.1,0.3-0.1c0.1,0,0.2,0,0.3,0L112.4-21.6z M111.3-21.9
		c0,0.1,0.1,0.2,0.2,0.3c0.1,0.1,0.2,0.1,0.3,0c0.1,0,0.1,0,0.2-0.1c0,0,0.1-0.1,0.1-0.1l-0.2-0.8c0,0-0.1,0-0.1,0c0,0-0.1,0-0.1,0
		c-0.1,0-0.2,0.1-0.3,0.2C111.2-22.2,111.2-22.1,111.3-21.9z"/>
	<path class="st1" d="M112.7-23.6c0,0.1,0,0.1,0,0.2c0,0.1-0.1,0.1-0.1,0.1c-0.1,0-0.1,0-0.2,0c-0.1,0-0.1-0.1-0.1-0.1
		c0-0.1,0-0.1,0-0.2c0-0.1,0.1-0.1,0.1-0.1c0.1,0,0.1,0,0.2,0C112.7-23.7,112.7-23.7,112.7-23.6z M113.3-21.6l-0.3,0.1l-0.5-1.5
		l0.3-0.1L113.3-21.6z"/>
	<path class="st1" d="M114.3-21.9c-0.1,0-0.2,0-0.3,0c-0.1,0-0.1,0-0.2,0c-0.1,0-0.1-0.1-0.1-0.1c0-0.1-0.1-0.1-0.1-0.2L113-24
		l0.3-0.2l0.5,1.7c0,0,0,0.1,0,0.1c0,0,0,0,0.1,0.1c0,0,0.1,0,0.1,0c0,0,0.1,0,0.1,0L114.3-21.9z"/>
	<path class="st1" d="M114.3-24.1c0,0.1,0,0.1,0,0.2c0,0.1-0.1,0.1-0.1,0.1c-0.1,0-0.1,0-0.2,0s-0.1-0.1-0.1-0.1c0-0.1,0-0.1,0-0.2
		c0-0.1,0.1-0.1,0.1-0.1c0.1,0,0.1,0,0.2,0C114.3-24.2,114.3-24.2,114.3-24.1z M115-22.2l-0.3,0.1l-0.5-1.5l0.3-0.1L115-22.2z"/>
	<path class="st1" d="M116.6-22.8c-0.1,0-0.1,0.1-0.2,0.1c-0.1,0.1-0.2,0.1-0.3,0.1c-0.1,0-0.2,0.1-0.3,0.1c-0.1,0-0.2,0-0.3-0.1
		c-0.1,0-0.2-0.1-0.2-0.2c-0.1-0.1-0.1-0.2-0.2-0.3c0-0.1-0.1-0.2-0.1-0.3c0-0.1,0-0.2,0-0.3c0-0.1,0.1-0.2,0.1-0.2
		c0.1-0.1,0.2-0.1,0.3-0.2c0.1,0,0.1,0,0.2,0c0.1,0,0.1,0,0.2,0l-0.3-0.7l0.3-0.2L116.6-22.8z M115.4-23.2c0.1,0.2,0.1,0.3,0.2,0.3
		s0.2,0.1,0.3,0c0.1,0,0.1,0,0.1-0.1c0,0,0.1,0,0.1-0.1l-0.3-0.8c0,0-0.1,0-0.1,0c-0.1,0-0.1,0-0.2,0c-0.1,0-0.2,0.1-0.2,0.2
		C115.3-23.5,115.4-23.3,115.4-23.2z"/>
	<path class="st1" d="M117-24.7c0.1,0,0.2-0.1,0.3-0.1c0.1,0,0.2,0,0.2,0c0.1,0,0.1,0.1,0.2,0.1c0,0.1,0.1,0.1,0.1,0.2l0.4,0.9
		c0,0-0.1,0.1-0.2,0.1c-0.1,0.1-0.2,0.1-0.3,0.2c-0.1,0-0.2,0.1-0.2,0.1c-0.1,0-0.2,0-0.2,0c-0.1,0-0.1,0-0.2-0.1
		c-0.1,0-0.1-0.1-0.1-0.2c0-0.1,0-0.2,0-0.2c0-0.1,0-0.1,0.1-0.2c0-0.1,0.1-0.1,0.2-0.2c0.1,0,0.1-0.1,0.2-0.1c0,0,0.1,0,0.1,0
		c0,0,0.1,0,0.1,0l0-0.1c0,0,0-0.1-0.1-0.1c0,0-0.1-0.1-0.1-0.1c0,0-0.1,0-0.1,0c0,0-0.1,0-0.2,0c-0.1,0-0.1,0.1-0.2,0.1
		c-0.1,0-0.1,0.1-0.1,0.1l-0.2-0.3c0,0,0.1-0.1,0.2-0.1C116.8-24.6,116.9-24.6,117-24.7z M117.5-23.4c0.1,0,0.2-0.1,0.2-0.1
		l-0.2-0.4c0,0-0.1,0-0.1,0c0,0-0.1,0-0.1,0c0,0-0.1,0-0.1,0.1c0,0-0.1,0-0.1,0.1c0,0,0,0.1,0,0.1c0,0,0,0.1,0,0.1
		c0,0.1,0.1,0.1,0.1,0.1C117.4-23.4,117.5-23.4,117.5-23.4z"/>
	<path class="st1" d="M119.8-24.2c-0.1,0-0.1,0.1-0.2,0.2c-0.1,0.1-0.2,0.1-0.3,0.2c-0.1,0.1-0.2,0.1-0.3,0.1c-0.1,0-0.2,0-0.3,0
		c-0.1,0-0.2-0.1-0.3-0.2c-0.1-0.1-0.1-0.2-0.2-0.3c-0.1-0.1-0.1-0.2-0.1-0.3c0-0.1,0-0.2,0-0.3c0-0.1,0.1-0.2,0.1-0.2
		c0.1-0.1,0.1-0.1,0.2-0.2c0.1,0,0.1,0,0.2-0.1c0.1,0,0.1,0,0.2,0l-0.3-0.7l0.3-0.2L119.8-24.2z M118.6-24.4
		c0.1,0.1,0.2,0.2,0.3,0.3c0.1,0.1,0.2,0.1,0.3,0c0.1,0,0.1,0,0.1-0.1c0,0,0.1,0,0.1-0.1l-0.4-0.8c0,0-0.1,0-0.1,0
		c-0.1,0-0.1,0-0.2,0c-0.1,0.1-0.2,0.1-0.2,0.2C118.5-24.7,118.5-24.6,118.6-24.4z"/>
</g>
<path class="st6" d="M139.4,118.1l0.4-11.2c8.2,0.3,15.8-2.3,21.8-7l6.8,8.8l0,0C160.5,115,150.3,118.5,139.4,118.1z"/>
<path class="st6" d="M154.8,91.1l6.8,8.8c-6,4.7-13.6,7.3-21.8,7l0.4-11.2C145.7,96,150.8,94.2,154.8,91.1z"/>
<path class="st6" d="M148,82.3l6.8,8.8c-4,3.1-9.1,4.9-14.6,4.7l0.4-11.2C143.4,84.7,146,83.8,148,82.3z"/>
<g id="engagement" transform="translate(209.000000, 78.000000)">
	<path class="st7" d="M-47.4-54.4l-3.4,8.3c-10-4.1-20.8-4.4-30.7-1.2l-2.7-8.6C-72.4-59.6-59.4-59.3-47.4-54.4z"/>
	<polygon class="st1" points="-73.6,-52.6 -73.8,-54.7 -72.5,-54.8 -72.5,-54.5 -73.4,-54.4 -73.4,-53.9 -72.5,-54 -72.5,-53.6 
		-73.3,-53.5 -73.3,-52.9 -72.3,-53 -72.2,-52.7 	"/>
	<path class="st1" d="M-72-54.3c0.1,0,0.2-0.1,0.3-0.1c0.1,0,0.2,0,0.4-0.1c0.1,0,0.2,0,0.3,0c0.1,0,0.2,0.1,0.2,0.1
		c0.1,0.1,0.1,0.1,0.1,0.2c0,0.1,0,0.2,0.1,0.3l0.1,0.9l-0.4,0l-0.1-0.8c0-0.1,0-0.2,0-0.2c0-0.1,0-0.1-0.1-0.1c0,0-0.1-0.1-0.1-0.1
		c0,0-0.1,0-0.2,0c0,0-0.1,0-0.1,0c0,0-0.1,0-0.1,0l0.1,1.3l-0.4,0L-72-54.3z"/>
	<path class="st1" d="M-68.9-53.1c0,0.3,0,0.4-0.2,0.6c-0.1,0.1-0.3,0.2-0.6,0.2c-0.1,0-0.2,0-0.3,0c-0.1,0-0.2,0-0.3-0.1l0.1-0.3
		c0.1,0,0.1,0,0.2,0.1c0.1,0,0.2,0,0.3,0c0.1,0,0.2,0,0.3-0.1c0.1-0.1,0.1-0.2,0.1-0.3l0-0.1c0,0-0.1,0-0.1,0.1c-0.1,0-0.1,0-0.2,0
		c-0.1,0-0.2,0-0.3,0c-0.1,0-0.2-0.1-0.2-0.1c-0.1-0.1-0.1-0.1-0.1-0.2c0-0.1-0.1-0.2-0.1-0.3c0-0.1,0-0.2,0-0.3
		c0-0.1,0.1-0.2,0.1-0.3c0.1-0.1,0.1-0.1,0.2-0.2c0.1,0,0.2-0.1,0.3-0.1c0.1,0,0.2,0,0.3,0c0.1,0,0.2,0,0.3,0L-68.9-53.1z M-70-53.7
		c0,0.2,0,0.3,0.1,0.3c0.1,0.1,0.2,0.1,0.3,0.1c0.1,0,0.1,0,0.2,0c0.1,0,0.1,0,0.1-0.1l0-0.8c0,0-0.1,0-0.1,0c0,0-0.1,0-0.1,0
		c-0.1,0-0.2,0.1-0.3,0.1C-69.9-54-70-53.8-70-53.7z"/>
	<path class="st1" d="M-68-54.5c0.1,0,0.2,0,0.3,0c0.1,0,0.1,0.1,0.2,0.1c0,0.1,0.1,0.1,0.1,0.2c0,0.1,0,0.2,0,0.3v1
		c-0.1,0-0.1,0-0.3,0c-0.1,0-0.2,0-0.4,0c-0.1,0-0.2,0-0.3,0c-0.1,0-0.1,0-0.2-0.1c-0.1,0-0.1-0.1-0.1-0.2c0-0.1,0-0.1,0-0.2
		c0-0.1,0-0.2,0.1-0.2s0.1-0.1,0.1-0.2c0.1,0,0.1-0.1,0.2-0.1c0.1,0,0.2,0,0.2,0c0,0,0.1,0,0.1,0c0,0,0.1,0,0.1,0v-0.1
		c0,0,0-0.1,0-0.1c0,0,0-0.1-0.1-0.1c0,0-0.1-0.1-0.1-0.1c0,0-0.1,0-0.2,0c-0.1,0-0.2,0-0.2,0c-0.1,0-0.1,0-0.2,0l0-0.3
		c0,0,0.1,0,0.2,0C-68.1-54.5-68.1-54.5-68-54.5z M-67.9-53.2c0.1,0,0.2,0,0.3,0v-0.4c0,0,0,0-0.1,0c0,0-0.1,0-0.1,0
		c0,0-0.1,0-0.1,0s-0.1,0-0.1,0c0,0-0.1,0-0.1,0.1c0,0,0,0.1,0,0.1c0,0.1,0,0.1,0.1,0.2C-68.1-53.2-68-53.2-67.9-53.2z"/>
	<path class="st1" d="M-65.6-53c0,0.3-0.1,0.4-0.2,0.5c-0.1,0.1-0.3,0.2-0.6,0.2c-0.1,0-0.2,0-0.3,0c-0.1,0-0.2,0-0.2-0.1l0.1-0.3
		c0.1,0,0.1,0.1,0.2,0.1c0.1,0,0.2,0,0.3,0c0.1,0,0.3,0,0.3-0.1C-66-52.8-66-52.9-66-53l0-0.1c0,0-0.1,0-0.1,0c-0.1,0-0.1,0-0.2,0
		c-0.1,0-0.2,0-0.3-0.1c-0.1,0-0.2-0.1-0.2-0.1c-0.1-0.1-0.1-0.1-0.1-0.2c0-0.1,0-0.2,0-0.3c0-0.1,0-0.2,0.1-0.3
		c0-0.1,0.1-0.2,0.2-0.2c0.1-0.1,0.2-0.1,0.3-0.2c0.1,0,0.2-0.1,0.3,0c0.1,0,0.2,0,0.3,0c0.1,0,0.2,0,0.3,0.1L-65.6-53z M-66.6-53.7
		c0,0.2,0,0.3,0.1,0.3c0.1,0.1,0.2,0.1,0.3,0.1c0.1,0,0.1,0,0.2,0c0.1,0,0.1,0,0.1-0.1l0-0.8c0,0-0.1,0-0.1,0c0,0-0.1,0-0.1,0
		c-0.1,0-0.2,0-0.3,0.1C-66.5-54-66.6-53.9-66.6-53.7z"/>
	<path class="st1" d="M-65.2-53.6c0-0.1,0-0.3,0.1-0.4c0-0.1,0.1-0.2,0.2-0.2c0.1-0.1,0.2-0.1,0.2-0.1c0.1,0,0.2,0,0.3,0
		c0.2,0,0.4,0.1,0.5,0.2c0.1,0.1,0.2,0.3,0.1,0.6c0,0,0,0,0,0.1c0,0,0,0,0,0.1l-1-0.1c0,0.1,0,0.2,0.1,0.3c0.1,0.1,0.2,0.1,0.3,0.1
		c0.1,0,0.2,0,0.2,0s0.1,0,0.2,0l0,0.3c0,0,0,0-0.1,0c0,0-0.1,0-0.1,0c0,0-0.1,0-0.1,0c-0.1,0-0.1,0-0.2,0c-0.1,0-0.3,0-0.4-0.1
		c-0.1,0-0.2-0.1-0.2-0.2c-0.1-0.1-0.1-0.2-0.1-0.3C-65.2-53.4-65.2-53.5-65.2-53.6z M-64.1-53.7c0-0.1,0-0.1,0-0.1s0-0.1-0.1-0.1
		c0,0-0.1-0.1-0.1-0.1c0,0-0.1,0-0.1,0c-0.1,0-0.1,0-0.1,0c0,0-0.1,0-0.1,0.1c0,0-0.1,0.1-0.1,0.1c0,0,0,0.1,0,0.1L-64.1-53.7z"/>
	<path class="st1" d="M-62.5-53.4c0-0.2,0-0.3,0-0.4s-0.1-0.1-0.2-0.1c0,0-0.1,0-0.1,0c0,0-0.1,0-0.1,0l-0.1,1.3l-0.4,0l0.2-1.5
		c0.1,0,0.2,0,0.3,0c0.1,0,0.2,0,0.4,0c0.1,0,0.2,0,0.3,0.1c0.1,0,0.1,0.1,0.2,0.1c0,0,0.1,0,0.1,0c0,0,0.1,0,0.1,0c0,0,0.1,0,0.1,0
		c0,0,0.1,0,0.1,0c0.1,0,0.2,0,0.3,0.1c0.1,0,0.1,0.1,0.2,0.2c0,0.1,0.1,0.1,0.1,0.2c0,0.1,0,0.2,0,0.3l-0.1,0.9l-0.4,0l0.1-0.8
		c0-0.2,0-0.3,0-0.4c0-0.1-0.1-0.1-0.2-0.1c-0.1,0-0.1,0-0.2,0c-0.1,0-0.1,0-0.1,0c0,0.1,0,0.1,0,0.2c0,0.1,0,0.1,0,0.2l-0.1,0.9
		l-0.4,0L-62.5-53.4z"/>
	<path class="st1" d="M-60.9-53.2c0-0.1,0.1-0.3,0.1-0.4s0.1-0.2,0.2-0.2c0.1-0.1,0.2-0.1,0.3-0.1c0.1,0,0.2,0,0.3,0
		c0.2,0,0.4,0.1,0.5,0.3c0.1,0.2,0.1,0.4,0.1,0.6c0,0,0,0,0,0.1c0,0,0,0,0,0.1l-1-0.2c0,0.1,0,0.2,0.1,0.3c0.1,0.1,0.2,0.1,0.3,0.2
		c0.1,0,0.2,0,0.2,0c0.1,0,0.1,0,0.2,0l0,0.3c0,0-0.1,0-0.1,0c0,0-0.1,0-0.1,0c0,0-0.1,0-0.1,0c-0.1,0-0.1,0-0.2,0
		c-0.1,0-0.3-0.1-0.3-0.1c-0.1-0.1-0.2-0.1-0.2-0.2c-0.1-0.1-0.1-0.2-0.1-0.3C-61-53-60.9-53.1-60.9-53.2z M-59.9-53.2
		c0,0,0-0.1,0-0.1c0,0,0-0.1,0-0.1c0,0-0.1-0.1-0.1-0.1c0,0-0.1,0-0.1,0c-0.1,0-0.1,0-0.2,0s-0.1,0-0.1,0.1c0,0-0.1,0.1-0.1,0.1
		c0,0,0,0.1-0.1,0.1L-59.9-53.2z"/>
	<path class="st1" d="M-59-53.6c0.1,0,0.2,0,0.3,0c0.1,0,0.2,0,0.4,0c0.1,0,0.2,0.1,0.3,0.1c0.1,0.1,0.1,0.1,0.2,0.2
		c0,0.1,0.1,0.2,0.1,0.2c0,0.1,0,0.2,0,0.3l-0.2,0.9l-0.4-0.1l0.2-0.8c0-0.1,0-0.2,0-0.2c0-0.1,0-0.1,0-0.2c0,0,0-0.1-0.1-0.1
		c0,0-0.1,0-0.2-0.1c0,0-0.1,0-0.1,0c-0.1,0-0.1,0-0.1,0l-0.2,1.2l-0.4-0.1L-59-53.6z"/>
	<path class="st1" d="M-57.2-53.8l0.4,0l-0.1,0.5l0.5,0.1l-0.1,0.3L-57-53l-0.1,0.6c0,0.1,0,0.2,0,0.3C-57.1-52-57-52-57-52
		c0.1,0,0.1,0,0.2,0c0.1,0,0.1,0,0.1,0l0,0.3c0,0-0.1,0-0.2,0c-0.1,0-0.2,0-0.2,0c-0.1,0-0.2-0.1-0.3-0.1c-0.1,0-0.1-0.1-0.1-0.2
		c0-0.1,0-0.1,0-0.2c0-0.1,0-0.2,0-0.3L-57.2-53.8z"/>
	<path class="st6" d="M-51-45.9L-51-45.9l-4.2,10.3c-3.5-1.4-7.3-2.3-11.4-2.4c-4-0.2-7.9,0.4-11.5,1.6l-3.4-10.6l0,0
		c4.8-1.5,10-2.3,15.4-2.1C-60.8-49-55.7-47.8-51-45.9z"/>
	<path class="st6" d="M-55.3-35.6l-4.2,10.3c-2.3-1-4.9-1.5-7.6-1.6c-2.7-0.1-5.3,0.3-7.7,1l-3.4-10.6c3.6-1.2,7.5-1.7,11.5-1.6
		C-62.6-37.9-58.8-37-55.3-35.6z"/>
	<path class="st6" d="M-59.5-25.2l-4.2,10.3c-1.2-0.5-2.5-0.8-3.8-0.8c-1.3-0.1-2.6,0.1-3.8,0.5l-3.4-10.6c2.4-0.8,5-1.1,7.7-1
		C-64.4-26.8-61.8-26.2-59.5-25.2z"/>
</g>
<path class="st1" d="M179,106.4c0.1-0.1,0.1-0.1,0.1-0.2c0-0.1,0.1-0.1,0.1-0.2l-0.3-0.3l-0.2,0.2c0,0,0,0,0,0c0,0,0,0,0,0l-0.2-0.2
	l0.5-0.6l0.7,0.6c0,0.1,0,0.1,0,0.2c0,0.1,0,0.1-0.1,0.2c0,0.1-0.1,0.1-0.1,0.2s-0.1,0.1-0.2,0.2c-0.1,0.1-0.2,0.2-0.4,0.3
	s-0.3,0.1-0.4,0.1c-0.1,0-0.3,0-0.4-0.1s-0.3-0.1-0.4-0.2c-0.1-0.1-0.2-0.2-0.3-0.4c-0.1-0.1-0.1-0.3-0.1-0.4c0-0.1,0-0.3,0.1-0.4
	s0.1-0.3,0.3-0.4s0.2-0.2,0.4-0.3c0.1-0.1,0.3-0.1,0.4-0.1l0.1,0.2c0,0,0,0.1,0,0.1c0,0,0,0-0.1,0c0,0-0.1,0-0.1,0s-0.1,0-0.1,0
	c0,0-0.1,0-0.1,0.1c0,0-0.1,0.1-0.1,0.1c-0.1,0.1-0.1,0.2-0.2,0.3c0,0.1,0,0.2,0,0.3c0,0.1,0,0.2,0.1,0.3c0,0.1,0.1,0.2,0.2,0.3
	s0.2,0.1,0.3,0.2c0.1,0,0.2,0,0.3,0c0.1,0,0.2,0,0.3-0.1C178.8,106.6,178.9,106.5,179,106.4z"/>
<path class="st1" d="M179.2,104.1c0.1-0.1,0.2-0.2,0.2-0.2c0.1,0,0.2-0.1,0.3-0.1c0.1,0,0.2,0,0.3,0c0.1,0,0.2,0.1,0.3,0.2
	c0.1,0.1,0.2,0.2,0.2,0.3s0.1,0.2,0.1,0.3c0,0.1,0,0.2,0,0.3c0,0.1-0.1,0.2-0.2,0.3c-0.1,0.1-0.2,0.2-0.2,0.2
	c-0.1,0-0.2,0.1-0.3,0.1c-0.1,0-0.2,0-0.3,0c-0.1,0-0.2-0.1-0.3-0.2c-0.1-0.1-0.2-0.2-0.2-0.3c0-0.1-0.1-0.2-0.1-0.3
	c0-0.1,0-0.2,0-0.3C179.1,104.3,179.1,104.2,179.2,104.1z"/>
<path class="st4" d="M180.3,105c0.1-0.1,0.1-0.2,0.1-0.3c0-0.1-0.1-0.2-0.2-0.3c-0.1-0.1-0.3-0.2-0.4-0.2c-0.1,0-0.2,0-0.3,0.1
	c-0.1,0.1-0.1,0.2-0.1,0.3s0.1,0.2,0.2,0.3c0.1,0.1,0.3,0.2,0.4,0.2S180.2,105,180.3,105z"/>
<path class="st1" d="M181.2,104.2l-1.9-1.4l0.2-0.3l0.7,0.6c0-0.1,0-0.2,0-0.3s0-0.2,0.1-0.3c0-0.1,0.1-0.1,0.2-0.2
	c0.1,0,0.1,0,0.2,0s0.2,0,0.3,0s0.2,0.1,0.3,0.2c0.1,0.1,0.2,0.1,0.2,0.2s0.1,0.2,0.1,0.3s0,0.2,0,0.3c0,0.1,0,0.2-0.1,0.3
	c0,0-0.1,0.1-0.1,0.1c0,0-0.1,0-0.1,0.1c0,0-0.1,0-0.1,0c0,0-0.1,0-0.1,0l0.1,0.1c0,0,0,0,0,0.1c0,0,0,0,0,0L181.2,104.2z"/>
<path class="st4" d="M180.6,102.8c0,0.1-0.1,0.1-0.1,0.2s0,0.1,0,0.2l0.6,0.4c0.1,0,0.1,0,0.2,0c0,0,0.1-0.1,0.1-0.1
	c0,0,0-0.1,0.1-0.1c0,0,0-0.1,0-0.1c0,0,0-0.1-0.1-0.2c0,0-0.1-0.1-0.2-0.2c-0.1,0-0.1-0.1-0.2-0.1c-0.1,0-0.1,0-0.2,0s-0.1,0-0.1,0
	C180.7,102.7,180.6,102.8,180.6,102.8z"/>
<path class="st1" d="M181.3,101.2c0-0.1,0.1-0.1,0.2-0.2c0.1,0,0.1-0.1,0.2-0.1c0.1,0,0.2,0,0.3,0s0.2,0.1,0.3,0.1c0,0,0,0,0,0
	c0,0,0,0,0,0v0c0,0,0,0,0,0l-0.6,0.8c0.1,0.1,0.3,0.1,0.4,0.1c0.1,0,0.2-0.1,0.3-0.2c0,0,0.1-0.1,0.1-0.1c0,0,0-0.1,0-0.1
	c0,0,0-0.1,0-0.1c0,0,0,0,0-0.1c0,0,0,0,0,0s0,0,0,0h0.2c0,0.1,0,0.1,0,0.2c0,0.1,0,0.1,0,0.2c0,0,0,0.1-0.1,0.2c0,0,0,0.1-0.1,0.1
	c-0.1,0.1-0.1,0.2-0.2,0.2c-0.1,0-0.2,0.1-0.3,0.1c-0.1,0-0.2,0-0.3,0s-0.2-0.1-0.3-0.2c-0.1-0.1-0.2-0.1-0.2-0.2
	c0-0.1-0.1-0.2-0.1-0.3c0-0.1,0-0.2,0-0.3C181.2,101.4,181.3,101.3,181.3,101.2z"/>
<path class="st4" d="M181.6,101.4c-0.1,0.1-0.1,0.2-0.1,0.3c0,0.1,0.1,0.2,0.1,0.3l0.4-0.6c0,0-0.1,0-0.1-0.1c0,0-0.1,0-0.1,0
	s-0.1,0-0.1,0C181.7,101.3,181.6,101.3,181.6,101.4z"/>
<path class="st1" d="M183.3,101.3l-1.4-0.9l0.1-0.2c0,0,0,0,0.1,0c0,0,0,0,0.1,0l0.2,0.1c0-0.1-0.1-0.2-0.1-0.3c0-0.1,0-0.2,0.1-0.3
	c0-0.1,0.1-0.1,0.1-0.1l0.2,0.2c0,0,0,0,0,0s0,0,0,0c0,0,0,0,0,0s0,0-0.1,0.1c0,0.1-0.1,0.1,0,0.2c0,0.1,0,0.1,0.1,0.2l0.9,0.6
	L183.3,101.3z"/>
<path class="st1" d="M184,100.2l-1.4-0.9l0.1-0.2c0,0,0.1,0,0.1,0l0.1,0c0,0,0-0.1,0-0.1c0,0,0-0.1,0-0.1c0,0,0-0.1,0-0.1
	c0,0,0-0.1,0.1-0.1c0-0.1,0.1-0.1,0.2-0.2c0.1,0,0.1-0.1,0.2-0.1s0.1,0,0.2,0c0.1,0,0.1,0,0.2,0.1l0.9,0.5l-0.2,0.3l-0.9-0.5
	c-0.1,0-0.2-0.1-0.2,0c-0.1,0-0.1,0-0.2,0.1c0,0,0,0.1,0,0.2c0,0.1,0,0.1,0,0.2l1,0.6L184,100.2z"/>
<path class="st1" d="M185.6,97.5l-0.1,0.1c0,0,0,0,0,0.1c0,0,0,0-0.1,0l-0.1,0c0,0,0,0.1,0,0.1s0,0.1,0,0.1c0,0,0,0.1,0,0.1
	c0,0,0,0.1-0.1,0.1c0,0-0.1,0.1-0.1,0.1c0,0-0.1,0.1-0.1,0.1c0,0-0.1,0-0.2,0c-0.1,0-0.1,0-0.2-0.1c0,0-0.1-0.1-0.1-0.1
	c0,0,0-0.1-0.1-0.2c0-0.1,0-0.2,0-0.3c0-0.1,0.1-0.3,0.2-0.4l-0.1,0c-0.1,0-0.2-0.1-0.2,0c-0.1,0-0.1,0-0.2,0.1c0,0,0,0.1,0,0.1
	c0,0,0,0.1,0,0.1c0,0,0,0.1,0,0.1c0,0,0,0,0,0.1c0,0,0,0,0,0c0,0,0,0-0.1,0h-0.1c0-0.2,0-0.5,0.1-0.7c0-0.1,0.1-0.1,0.2-0.2
	c0.1,0,0.1-0.1,0.2-0.1c0.1,0,0.1,0,0.2,0c0.1,0,0.2,0,0.2,0.1L185.6,97.5z"/>
<path class="st4" d="M185,98C185,98,185,97.9,185,98c0-0.1,0.1-0.2,0.1-0.2s0-0.1,0-0.1s0-0.1,0-0.1l-0.2-0.1c0,0.1-0.1,0.2-0.1,0.3
	s0,0.1,0,0.2c0,0,0,0.1,0,0.1s0,0,0.1,0.1c0,0,0.1,0,0.2,0C185,98.1,185,98.1,185,98z"/>
<path class="st1" d="M185.8,97.1l-1.4-0.7l0.1-0.2c0,0,0-0.1,0.1,0l0.1,0c0,0,0-0.1,0-0.1c0,0,0-0.1,0-0.1c0,0,0-0.1,0-0.1
	c0,0,0-0.1,0-0.1c0-0.1,0.1-0.1,0.1-0.2c0,0,0.1-0.1,0.2-0.1c0.1,0,0.1,0,0.2,0c0.1,0,0.1,0,0.2,0.1l0.9,0.5l-0.2,0.3l-0.9-0.5
	c-0.1,0-0.2,0-0.2,0c-0.1,0-0.1,0.1-0.2,0.1c0,0,0,0.1,0,0.2c0,0.1,0,0.1,0,0.2l1,0.5L185.8,97.1z"/>
<path class="st1" d="M185.8,93.7C185.8,93.7,185.9,93.8,185.8,93.7c0.1,0.1,0.1,0.1,0.1,0.1l0.6,1.1l0.3-0.7l0.3,0.1l-0.5,1.1
	l-0.1-0.1c0,0,0,0,0,0c0,0,0,0,0-0.1l-0.6-1.1l-0.3,0.7l-0.3-0.1l0.5-1.1L185.8,93.7z"/>
<path class="st1" d="M187.8,92.8l-0.1,0.2c0,0,0,0,0,0.1c0,0,0,0-0.1,0l-0.1,0c0,0,0,0.1,0,0.1c0,0,0,0.1,0,0.1s0,0.1,0,0.1
	c0,0,0,0.1,0,0.1c0,0.1,0,0.1-0.1,0.2c0,0-0.1,0.1-0.1,0.1c0,0-0.1,0-0.2,0c0,0-0.1,0-0.2,0c0,0-0.1-0.1-0.1-0.1
	c0,0-0.1-0.1-0.1-0.2c0-0.1,0-0.2,0-0.3c0-0.1,0.1-0.3,0.1-0.4l-0.1,0c-0.1,0-0.2,0-0.2,0c-0.1,0-0.1,0.1-0.1,0.1c0,0,0,0.1,0,0.1
	c0,0,0,0.1,0,0.1c0,0,0,0.1,0,0.1s0,0,0,0.1c0,0,0,0,0,0s0,0-0.1,0l-0.1,0c-0.1-0.2-0.1-0.5,0-0.7c0-0.1,0.1-0.2,0.1-0.2
	c0,0,0.1-0.1,0.2-0.1c0.1,0,0.1,0,0.2,0s0.2,0,0.2,0.1L187.8,92.8z"/>
<path class="st4" d="M187.2,93.5C187.3,93.4,187.3,93.4,187.2,93.5c0-0.1,0-0.2,0-0.2s0-0.1,0-0.1c0,0,0-0.1,0-0.1L187,93
	c0,0.1-0.1,0.2-0.1,0.3c0,0.1,0,0.1,0,0.2c0,0,0,0.1,0,0.1c0,0,0,0,0.1,0.1c0.1,0,0.1,0,0.2,0C187.2,93.6,187.2,93.5,187.2,93.5z"/>
</svg>
