<?xml version="1.0" encoding="utf-8"?>
<!-- Generator: Adobe Illustrator 22.1.0, SVG Export Plug-In . SVG Version: 6.00 Build 0)  -->
<svg version="1.1" id="chart" xmlns="http://www.w3.org/2000/svg" xmlns:xlink="http://www.w3.org/1999/xlink" x="0px" y="0px"
	 viewBox="0 0 566.9 510.2" style="enable-background:new 0 0 566.9 510.2;" xml:space="preserve">
<style type="text/css">
	.st0{fill:#9AD1C4;stroke:#FFFFFF;stroke-miterlimit:10;}
	.st1{fill:#5490CC;}
	.st2{fill:#4559A4;}
	.st3{fill:#5490CC;stroke:#FFFFFF;stroke-width:3;stroke-miterlimit:10;}
	.st4{fill:#4559A4;stroke:#FFFFFF;stroke-width:3;stroke-miterlimit:10;}
	.st5{fill:#9AD1C4;stroke:#FFFFFF;stroke-width:3;stroke-miterlimit:10;}
	.st6{fill:#FFFFFF;}
</style>
<path class="st0" d="M227.5,39.7c-1.9,0.5-3.8,0.6-5.5,0.4c-1.7-0.2-3.3-0.8-4.8-1.8c-1.4-0.9-2.7-2.2-3.8-3.8s-1.9-3.6-2.5-5.9
	s-0.7-4.4-0.5-6.4c0.3-2,0.8-3.7,1.7-5.2s2-2.8,3.5-3.8c1.4-1,3-1.8,4.8-2.2c1.1-0.3,2.2-0.5,3.1-0.5c1-0.1,1.8-0.1,2.5,0
	c0.7,0,1.3,0.1,1.8,0.2s0.8,0.2,1,0.3l-0.3,3.4c-0.3-0.1-0.7-0.2-1.2-0.3s-1-0.1-1.7-0.2h-2l-2.1,0.3c-1.5,0.4-2.7,0.9-3.7,1.7
	c-1,0.8-1.8,1.8-2.4,2.9c-0.6,1.2-0.9,2.5-1,3.9c-0.1,1.5,0.1,3.1,0.5,4.7s1,3.1,1.7,4.3c0.7,1.2,1.6,2.3,2.6,3
	c1,0.8,2.2,1.3,3.4,1.5c1.3,0.2,2.7,0.2,4.2-0.2c1.8-0.4,3.2-1,4.3-1.7s1.9-1.2,2.4-1.6l1.8,2.9c-0.2,0.2-0.4,0.4-0.9,0.7
	c-0.4,0.3-1,0.7-1.6,1c-0.7,0.4-1.5,0.7-2.4,1.1C229.6,39.1,228.6,39.4,227.5,39.7L227.5,39.7z M250,35.5c-1.8,0.3-3.5,0.2-4.9-0.2
	s-2.6-1-3.6-1.9s-1.8-1.9-2.4-3.2c-0.6-1.3-1-2.7-1.2-4.3l-2.5-17.6l3.9-0.6l2.4,17.1c0.4,2.8,1.3,4.8,2.7,5.8
	c1.4,1.1,3.1,1.5,5.1,1.2c1-0.1,1.9-0.4,2.7-0.8s1.4-1,1.9-1.7s0.8-1.6,1-2.7s0.2-2.3,0-3.7l-2.4-17.1l3.9-0.6l2.5,17.6
	c0.2,1.6,0.2,3.1,0,4.5s-0.7,2.7-1.4,3.8c-0.7,1.1-1.7,2-3,2.8C253.4,34.7,251.8,35.2,250,35.5L250,35.5z M283.6,28.8l0.2,3.4
	l-17,0.8l-1.3-28.3l4-0.2l1.1,24.8L283.6,28.8L283.6,28.8z M302.3,4.4l-0.1,3.4l-8.9-0.2l-0.6,24.9l-4-0.1l0.6-24.9l-8.9-0.2
	l0.1-3.4C280.5,3.9,302.3,4.4,302.3,4.4z M315.5,34.9c-1.8-0.2-3.4-0.7-4.7-1.4c-1.3-0.7-2.3-1.6-3-2.7s-1.2-2.3-1.5-3.7
	c-0.3-1.4-0.3-2.9-0.1-4.5L308.4,5l3.9,0.5l-2.1,17.2c-0.3,2.8,0,4.9,1.1,6.3c1.1,1.4,2.6,2.3,4.6,2.5c1,0.1,1.9,0.1,2.8-0.1
	s1.6-0.6,2.3-1.2c0.7-0.6,1.2-1.3,1.7-2.3s0.8-2.2,0.9-3.6L325.8,7l3.9,0.5l-2.2,17.6c-0.2,1.6-0.6,3-1.2,4.3
	c-0.6,1.3-1.4,2.4-2.4,3.3c-1,0.9-2.2,1.5-3.6,1.9C319,35,317.3,35.1,315.5,34.9L315.5,34.9z M348.4,28.3c0.3,0.6,0.7,1.4,1.1,2.5
	c0.4,1,0.9,2.1,1.3,3.3s0.9,2.5,1.3,3.8s0.7,2.5,1,3.7l-4.2-1c-0.3-1.1-0.6-2.3-1-3.5s-0.8-2.3-1.2-3.4c-0.4-1.1-0.8-2.1-1.3-3.1
	c-0.4-1-0.8-1.8-1.2-2.5c-0.3-0.1-0.7-0.1-1.1-0.2l-1.1-0.3l-3.5-0.8L336,37.6l-3.9-0.9l6.3-27.2c1.1,0,2.4,0.1,3.8,0.3
	s2.6,0.5,3.7,0.7c3.9,0.9,6.7,2.3,8.3,4.2c1.7,1.9,2.2,4.3,1.5,7.2c-0.4,1.8-1.3,3.3-2.5,4.4C352.1,27.5,350.4,28.1,348.4,28.3
	L348.4,28.3z M345.6,14c-1.6-0.4-2.9-0.6-3.8-0.8l-2.4,10.4l2.7,0.6c1.3,0.3,2.5,0.5,3.6,0.6s2,0.1,2.9-0.1c0.8-0.2,1.5-0.6,2.1-1.2
	s1-1.4,1.2-2.5c0.2-1,0.2-1.9,0-2.7c-0.2-0.8-0.7-1.4-1.2-2c-0.6-0.6-1.3-1-2.2-1.4L345.6,14L345.6,14z M375.5,49.2v-7.6l-12.1-4.2
	l-4.8,6l-3.9-1.4c2-2.5,3.9-4.8,5.6-6.8c1.7-2.1,3.4-4.1,5-5.9c1.6-1.9,3.2-3.6,4.7-5.3s3.1-3.3,4.7-4.9l3.4,1.2
	c0.3,2.2,0.5,4.5,0.6,6.8c0.2,2.3,0.3,4.6,0.4,7.1s0.2,5,0.3,7.8c0.1,2.7,0.1,5.7,0.2,8.9L375.5,49.2L375.5,49.2z M375.4,38.1
	c0-2.5-0.1-5-0.2-7.3c-0.1-2.4-0.2-4.7-0.4-6.9c-1.6,1.6-3.1,3.3-4.7,5.1c-1.5,1.8-3.1,3.7-4.7,5.7L375.4,38.1L375.4,38.1z"/>
<path class="st1" d="M39.7,314.1c0.5,3.9,0.2,7.1-1,9.4s-3.3,3.7-6.3,4.1c-1.6,0.2-3,0.1-4.3-0.3c-1.2-0.4-2.3-1.1-3.1-2.1
	c-0.9-1-1.6-2.3-2.1-3.8s-0.9-3.3-1.2-5.2l-0.4-3.1l-10.4,1.4l-0.5-3.9l27.7-3.7c0.4,1.1,0.8,2.3,1,3.6
	C39.3,311.7,39.5,313,39.7,314.1z M36.3,314.9c-0.2-1.7-0.4-2.9-0.6-3.8l-11,1.5l0.4,3c0.2,1.3,0.4,2.5,0.7,3.6
	c0.3,1.1,0.7,1.9,1.3,2.6c0.5,0.7,1.2,1.2,1.9,1.5c0.8,0.3,1.7,0.4,2.9,0.2c1.1-0.1,1.9-0.5,2.6-1c0.6-0.5,1.1-1.2,1.5-1.9
	c0.3-0.8,0.5-1.6,0.5-2.6C36.5,316.9,36.4,315.9,36.3,314.9L36.3,314.9z M14.3,336.6l27.6-6.4l3.9,16.8l-3.3,0.8l-3-13l-8.2,1.9
	l2.7,11.5l-3.2,0.7L28,337.5l-9.6,2.2l3.2,14l-3.3,0.8C18.3,354.5,14.3,336.6,14.3,336.6z M35.9,370.2c-0.4,0.6-0.9,1.3-1.5,2.2
	c-0.6,0.9-1.3,1.9-2.1,2.9s-1.6,2-2.5,3.1c-0.9,1-1.8,1.9-2.7,2.8l-1.4-4.1c0.8-0.8,1.6-1.7,2.4-2.7c0.8-0.9,1.6-1.9,2.3-2.8
	c0.7-0.9,1.4-1.8,2-2.7c0.6-0.9,1.1-1.7,1.5-2.3l-0.4-1c-0.1-0.3-0.2-0.7-0.4-1.1l-1.1-3.4l-10.5,3.5l-1.3-3.8l26.5-8.8
	c0.6,1,1.2,2.1,1.7,3.4s1,2.5,1.3,3.5c1.3,3.8,1.5,6.9,0.7,9.3s-2.5,4.1-5.4,5.1c-1.8,0.6-3.5,0.6-5,0.1S37.1,371.8,35.9,370.2z
	 M46.6,360.3c-0.5-1.6-1-2.8-1.3-3.6l-10.1,3.4l0.9,2.7c0.4,1.3,0.9,2.4,1.4,3.4s1,1.8,1.6,2.4s1.3,1,2.1,1.1
	c0.8,0.2,1.7,0.1,2.8-0.3c1-0.3,1.8-0.8,2.3-1.4s0.9-1.3,1.1-2.1c0.2-0.8,0.2-1.7,0-2.6L46.6,360.3z M34.6,391.5
	c1.7,3.8,3.8,5.1,6.4,4c0.8-0.4,1.4-0.8,1.8-1.4c0.4-0.6,0.7-1.3,0.9-2c0.2-0.8,0.2-1.6,0.2-2.4l-0.1-2.7c-0.1-1.1-0.1-2.1-0.1-3.2
	c0-1,0.2-2,0.5-2.8c0.3-0.9,0.7-1.7,1.3-2.4c0.6-0.7,1.5-1.3,2.6-1.8c2.3-1,4.4-1,6.3,0c2,1,3.5,2.8,4.7,5.6
	c0.7,1.6,1.2,3.1,1.4,4.5s0.3,2.5,0.1,3.3l-3.5,0.1c0.1-0.7,0.1-1.6-0.1-2.8c-0.1-1.2-0.5-2.4-1.1-3.8c-0.3-0.7-0.7-1.3-1.1-1.8
	c-0.4-0.5-0.9-1-1.4-1.3s-1-0.5-1.6-0.6s-1.2,0-1.8,0.3c-0.7,0.3-1.2,0.7-1.6,1.2c-0.4,0.5-0.6,1.1-0.7,1.7
	c-0.1,0.7-0.2,1.4-0.2,2.2c0,0.8,0,1.6,0.1,2.6v3.7c0,1.1-0.2,2.2-0.5,3.1c-0.3,1-0.8,1.8-1.5,2.6s-1.7,1.4-2.9,1.9
	c-2.3,1-4.4,0.9-6.3-0.2c-1.9-1.1-3.6-3.2-4.9-6.2c-0.4-1-0.8-2-1-2.9s-0.4-1.8-0.5-2.5c-0.1-0.8-0.2-1.4-0.2-2v-1.4l3.5-0.2
	c-0.1,0.7-0.1,1.8,0.1,3.1C33.4,388.2,33.8,389.8,34.6,391.5L34.6,391.5z M50.8,400c2.1-1.2,4.1-1.9,6.1-2.2c2-0.3,3.8-0.2,5.5,0.3
	s3.2,1.3,4.6,2.4s2.5,2.5,3.4,4.1s1.5,3.2,1.7,5c0.3,1.7,0.2,3.4-0.3,5.1s-1.3,3.3-2.6,4.8s-2.9,2.9-5,4.1s-4.1,1.9-6.1,2.2
	c-2,0.3-3.8,0.2-5.5-0.2c-1.7-0.4-3.2-1.2-4.5-2.3c-1.3-1.1-2.5-2.4-3.4-4s-1.5-3.3-1.8-5s-0.2-3.5,0.3-5.1c0.5-1.7,1.3-3.3,2.6-4.8
	C47,402.6,48.7,401.2,50.8,400z M52.8,403.7c-1.5,0.8-2.7,1.8-3.7,2.9s-1.7,2.2-2.2,3.4c-0.5,1.2-0.6,2.4-0.5,3.7
	c0.1,1.3,0.5,2.5,1.2,3.8s1.6,2.2,2.6,3c1,0.7,2.2,1.2,3.4,1.4c1.2,0.2,2.6,0.2,4-0.2c1.4-0.3,2.9-0.9,4.4-1.7
	c1.5-0.8,2.7-1.8,3.7-2.9s1.7-2.2,2.2-3.4c0.5-1.2,0.6-2.4,0.5-3.7c-0.1-1.3-0.5-2.5-1.2-3.8s-1.6-2.2-2.6-3c-1-0.7-2.2-1.2-3.4-1.4
	c-1.2-0.2-2.6-0.2-4,0.2C55.8,402.2,54.3,402.8,52.8,403.7z M67.8,452.7c0.5-1.1,1-2.3,1.5-3.7c0.5-1.4,1.1-2.8,1.6-4.3
	c0.6-1.5,1.1-3.1,1.6-4.7s1-3.2,1.5-4.7s0.9-3,1.3-4.4s0.7-2.7,0.9-3.8l-17.8,13.1l-2.3-3.1L79,420.3l1.9,2.5
	c-0.3,1.8-0.8,3.9-1.4,6.1s-1.2,4.5-1.9,6.8s-1.4,4.5-2.1,6.6s-1.4,4-2.1,5.5l16.8-12.5l2.3,3.1l-22.8,16.8
	C69.7,455.2,67.8,452.7,67.8,452.7z M88.4,476.1c0.6-1.2,1.2-2.3,1.8-3.4c0.6-1.1,1.2-2.2,1.8-3.4l-8.7-9.4l-7.1,3l-2.8-3
	c2.9-1.2,5.7-2.4,8.2-3.4s4.9-2,7.2-2.9c2.3-0.9,4.5-1.7,6.7-2.5c2.1-0.8,4.3-1.5,6.5-2.1l2.5,2.7c-0.8,2.1-1.7,4.2-2.6,6.3
	s-1.9,4.2-3,6.4s-2.2,4.5-3.4,7c-1.2,2.4-2.6,5.1-4,7.9L88.4,476.1z M93.6,466.3l3.3-6.6c1-2.1,2-4.2,2.9-6.3
	c-2.1,0.7-4.3,1.5-6.5,2.3c-2.2,0.9-4.5,1.8-6.8,2.8L93.6,466.3L93.6,466.3z M102.7,485.7c3.1,2.8,5.6,3.1,7.5,1
	c0.6-0.7,0.9-1.3,1.1-2c0.1-0.7,0.1-1.4-0.1-2.2c-0.2-0.8-0.4-1.5-0.8-2.3s-0.8-1.6-1.3-2.4c-0.5-1-1-1.9-1.4-2.9s-0.6-1.9-0.7-2.8
	s0-1.8,0.3-2.7c0.3-0.9,0.8-1.8,1.6-2.7c1.6-1.8,3.6-2.7,5.7-2.6c2.2,0.1,4.4,1.1,6.6,3.1c1.3,1.1,2.3,2.3,3.1,3.5
	c0.8,1.2,1.3,2.2,1.5,3l-3.1,1.6c-0.2-0.6-0.6-1.5-1.2-2.5s-1.5-2-2.6-3c-0.6-0.5-1.2-0.9-1.8-1.2c-0.6-0.3-1.2-0.5-1.8-0.6
	c-0.6-0.1-1.1,0-1.7,0.2s-1.1,0.5-1.5,1c-0.5,0.6-0.8,1.1-0.9,1.7s-0.1,1.2,0,1.9s0.4,1.3,0.7,2.1c0.3,0.7,0.7,1.5,1.1,2.3
	c0.6,1.2,1.1,2.3,1.5,3.3s0.7,2.1,0.8,3.1c0.1,1,0,2-0.3,3s-0.9,2-1.8,3c-1.6,1.8-3.6,2.7-5.8,2.5c-2.2-0.2-4.6-1.4-7-3.6
	c-0.8-0.7-1.5-1.5-2.2-2.2c-0.6-0.7-1.1-1.4-1.5-2.1c-0.4-0.6-0.7-1.2-1-1.8c-0.2-0.5-0.4-0.9-0.5-1.3l3.1-1.7
	c0.2,0.7,0.7,1.6,1.3,2.8C100.3,483.3,101.3,484.5,102.7,485.7L102.7,485.7z"/>
<path class="st2" d="M433.5,480c3.2-2.4,6.1-3.7,8.7-3.7c2.6-0.1,4.8,1.1,6.6,3.4c1,1.3,1.6,2.6,1.8,3.9c0.2,1.3,0.1,2.5-0.3,3.8
	c-0.4,1.2-1.2,2.5-2.2,3.7c-1.1,1.2-2.4,2.4-4,3.6l-2.5,1.9l6.4,8.4l-3.2,2.4l-16.9-22.2c0.7-0.9,1.6-1.8,2.6-2.7
	C431.6,481.5,432.6,480.7,433.5,480L433.5,480z M435.8,482.5c-1.3,1-2.3,1.8-3,2.5l6.7,8.8l2.4-1.8c1.1-0.8,2-1.6,2.8-2.4
	s1.3-1.6,1.6-2.4c0.3-0.8,0.5-1.6,0.3-2.4c-0.1-0.8-0.5-1.7-1.2-2.6s-1.4-1.5-2.1-1.8c-0.8-0.3-1.6-0.4-2.4-0.3s-1.7,0.4-2.5,0.8
	C437.5,481.3,436.7,481.9,435.8,482.5L435.8,482.5z M467.7,472.8c0.7,0.1,1.6,0.2,2.7,0.4s2.3,0.4,3.5,0.8c1.3,0.3,2.5,0.6,3.8,1
	s2.5,0.8,3.6,1.3l-3.2,2.9c-1.1-0.4-2.3-0.8-3.4-1.1c-1.2-0.3-2.4-0.6-3.5-0.9s-2.2-0.5-3.3-0.7c-1-0.2-2-0.3-2.8-0.4
	c-0.2,0.3-0.5,0.5-0.8,0.8c-0.3,0.2-0.5,0.5-0.8,0.8l-2.6,2.4l7.5,8.1l-2.9,2.7l-19-20.4c0.6-1,1.4-1.9,2.4-2.9
	c0.9-1,1.8-1.9,2.7-2.7c2.9-2.7,5.6-4.2,8.2-4.5c2.5-0.3,4.8,0.6,6.8,2.8c1.3,1.4,2,2.9,2.2,4.5C469.1,469.3,468.7,471,467.7,472.8
	L467.7,472.8z M454.3,467.1c-1.2,1.1-2.2,2.1-2.8,2.7l7.3,7.8l2.1-1.9c1-0.9,1.8-1.8,2.6-2.7c0.7-0.8,1.2-1.7,1.5-2.4
	c0.3-0.8,0.3-1.6,0.2-2.4c-0.2-0.8-0.7-1.6-1.4-2.4c-0.7-0.8-1.5-1.3-2.3-1.5s-1.6-0.3-2.3-0.1c-0.8,0.2-1.6,0.5-2.4,1
	C455.9,465.8,455.1,466.4,454.3,467.1L454.3,467.1z M473.9,463.8c-1.8-1.6-3.2-3.2-4.1-5s-1.5-3.5-1.6-5.3c-0.1-1.7,0.1-3.4,0.7-5.1
	s1.5-3.2,2.7-4.6s2.6-2.5,4.1-3.3s3.2-1.3,4.9-1.4c1.7-0.1,3.5,0.2,5.4,0.8c1.9,0.7,3.7,1.8,5.6,3.4c1.8,1.6,3.2,3.3,4.2,5
	c0.9,1.8,1.5,3.5,1.6,5.2s-0.1,3.4-0.7,5.1c-0.6,1.6-1.5,3.1-2.7,4.5s-2.6,2.5-4.1,3.4c-1.5,0.8-3.2,1.3-4.9,1.5
	c-1.7,0.1-3.6-0.1-5.4-0.8C477.6,466.5,475.7,465.3,473.9,463.8L473.9,463.8z M476.6,460.6c1.3,1.1,2.6,2,4,2.6
	c1.3,0.6,2.7,0.9,3.9,0.9c1.3,0,2.5-0.2,3.6-0.7c1.2-0.5,2.2-1.3,3.1-2.4s1.6-2.2,1.9-3.5c0.3-1.2,0.4-2.4,0.2-3.7
	c-0.2-1.2-0.7-2.5-1.5-3.7s-1.8-2.4-3.1-3.5s-2.6-2-4-2.6c-1.3-0.6-2.7-0.9-3.9-0.9c-1.3,0-2.5,0.2-3.6,0.7s-2.2,1.3-3.1,2.4
	s-1.6,2.2-1.9,3.5c-0.4,1.2-0.4,2.5-0.2,3.7c0.2,1.2,0.7,2.5,1.5,3.7S475.3,459.5,476.6,460.6z M514.2,436.5
	c-1.1,1.6-2.4,2.9-3.9,3.9s-3,1.6-4.7,1.9s-3.5,0.1-5.4-0.4s-3.8-1.4-5.7-2.8c-2-1.3-3.5-2.8-4.6-4.5c-1.1-1.6-1.8-3.3-2.2-5
	c-0.3-1.7-0.3-3.4,0.1-5.2c0.4-1.7,1.1-3.3,2.1-4.9c0.7-1,1.3-1.8,2-2.5s1.3-1.2,1.9-1.7c0.6-0.4,1.1-0.8,1.5-1s0.7-0.4,0.9-0.5
	l2,2.8c-0.3,0.1-0.6,0.3-1,0.6s-0.9,0.6-1.4,1s-1,0.8-1.5,1.3s-0.9,1-1.3,1.6c-0.8,1.2-1.4,2.5-1.6,3.8s-0.2,2.5,0.1,3.8
	c0.3,1.2,0.9,2.5,1.8,3.6c0.9,1.2,2.1,2.2,3.5,3.2s2.8,1.7,4.1,2.1c1.4,0.5,2.7,0.6,4,0.6c1.3-0.1,2.5-0.5,3.6-1.1
	c1.1-0.7,2.1-1.7,3-3c1-1.5,1.7-2.9,2.1-4.1c0.4-1.2,0.6-2.1,0.7-2.8l3.3,1c0,0.2,0,0.6-0.2,1.1c-0.1,0.5-0.3,1.1-0.6,1.8
	s-0.6,1.5-1.1,2.4C515.4,434.6,514.9,435.6,514.2,436.5L514.2,436.5z M521.7,423.7L497,410l8.4-15.1l3,1.6l-6.5,11.6l7.4,4.1
	l5.7-10.4l2.9,1.6l-5.7,10.4l8.6,4.8l7-12.5l3,1.6L521.7,423.7z M533.5,394.7c1.7-3.8,1.2-6.2-1.3-7.4c-0.8-0.4-1.6-0.5-2.3-0.4
	s-1.4,0.3-2.1,0.7c-0.7,0.4-1.3,0.9-1.9,1.5c-0.6,0.6-1.3,1.2-1.9,1.9c-0.7,0.8-1.5,1.5-2.3,2.2s-1.6,1.2-2.4,1.6
	c-0.8,0.4-1.7,0.6-2.7,0.6c-0.9,0-1.9-0.2-3-0.7c-2.3-1-3.7-2.6-4.3-4.7c-0.6-2.1-0.3-4.5,0.9-7.2c0.7-1.6,1.5-2.9,2.4-4
	c0.9-1.1,1.7-1.9,2.4-2.3l2.4,2.5c-0.6,0.4-1.2,1-2,1.9s-1.5,2-2.1,3.4c-0.3,0.7-0.5,1.4-0.6,2c-0.1,0.7-0.1,1.3,0,1.9
	s0.3,1.1,0.7,1.6c0.3,0.5,0.8,0.8,1.4,1.1c0.7,0.3,1.3,0.4,1.9,0.4c0.6-0.1,1.2-0.3,1.8-0.6c0.6-0.3,1.2-0.8,1.8-1.3
	s1.2-1.1,1.9-1.8c0.9-0.9,1.9-1.7,2.7-2.5c0.9-0.7,1.8-1.3,2.7-1.7c0.9-0.4,1.9-0.6,2.9-0.6s2.1,0.3,3.4,0.8c2.3,1,3.6,2.6,4.1,4.8
	c0.5,2.2,0,4.8-1.3,7.8c-0.5,1-0.9,1.9-1.5,2.7c-0.5,0.8-1,1.5-1.5,2.1s-0.9,1.1-1.4,1.5c-0.4,0.4-0.8,0.7-1,0.9l-2.5-2.4
	c0.6-0.4,1.3-1.1,2.2-2.1C531.9,397.7,532.7,396.3,533.5,394.7L533.5,394.7z M529,376.9c-2.3-0.8-4.2-1.8-5.8-3
	c-1.5-1.3-2.7-2.7-3.5-4.2c-0.8-1.6-1.2-3.2-1.3-5s0.2-3.5,0.7-5.3c0.6-1.7,1.4-3.3,2.5-4.6c1.1-1.3,2.4-2.4,4-3.2
	c1.6-0.8,3.3-1.2,5.3-1.3c2-0.1,4.1,0.2,6.4,1c2.3,0.8,4.2,1.8,5.8,3c1.5,1.3,2.7,2.7,3.5,4.2s1.2,3.2,1.3,4.9
	c0.1,1.7-0.1,3.5-0.7,5.2c-0.6,1.8-1.4,3.3-2.5,4.7c-1.1,1.4-2.4,2.5-4,3.2c-1.6,0.8-3.3,1.2-5.3,1.3
	C533.4,378,531.3,377.7,529,376.9L529,376.9z M530.3,373c1.6,0.5,3.2,0.8,4.7,0.8s2.8-0.2,4-0.7s2.2-1.2,3.1-2.1
	c0.9-0.9,1.5-2.1,2-3.5c0.4-1.4,0.6-2.7,0.5-3.9c-0.2-1.3-0.6-2.4-1.2-3.5c-0.7-1.1-1.6-2-2.8-2.9s-2.6-1.5-4.2-2.1
	c-1.6-0.5-3.2-0.8-4.6-0.8c-1.5,0-2.8,0.2-4,0.7s-2.2,1.2-3.1,2.1c-0.9,0.9-1.5,2.1-2,3.4c-0.4,1.4-0.6,2.7-0.5,4s0.6,2.4,1.2,3.5
	c0.7,1.1,1.6,2,2.8,2.9C527.2,371.7,528.6,372.4,530.3,373z M551.1,341.5c0.9-4-0.1-6.4-2.8-7c-0.8-0.2-1.6-0.2-2.3,0.1
	c-0.7,0.2-1.3,0.6-1.9,1.1c-0.6,0.5-1.1,1.1-1.6,1.8s-1,1.5-1.5,2.3c-0.6,0.9-1.2,1.8-1.8,2.6c-0.6,0.8-1.3,1.5-2.1,2
	c-0.7,0.5-1.6,0.9-2.5,1.1s-1.9,0.2-3.1-0.1c-2.4-0.5-4.1-1.8-5.1-3.7c-1-1.9-1.2-4.4-0.5-7.3c0.4-1.7,0.9-3.2,1.5-4.5
	c0.7-1.3,1.3-2.2,1.8-2.8l2.9,1.9c-0.5,0.5-1,1.2-1.6,2.3c-0.6,1-1,2.3-1.3,3.7c-0.2,0.7-0.2,1.5-0.2,2.1c0,0.7,0.1,1.3,0.4,1.8
	c0.2,0.5,0.5,1,1,1.4c0.4,0.4,1,0.7,1.6,0.8c0.7,0.2,1.4,0.2,2,0s1.1-0.5,1.6-0.9s1-1,1.5-1.6s1-1.3,1.5-2.1c0.7-1.1,1.5-2.1,2.2-3
	s1.5-1.6,2.3-2.2s1.7-1,2.7-1.2s2.2-0.2,3.5,0.1c2.4,0.5,4.1,1.8,5,3.9s1,4.7,0.3,7.9c-0.2,1.1-0.5,2.1-0.9,3
	c-0.3,0.9-0.7,1.7-1.1,2.3c-0.4,0.7-0.7,1.2-1,1.7s-0.6,0.8-0.8,1.1l-2.9-1.9c0.5-0.5,1.1-1.4,1.8-2.5
	C550.2,344.8,550.7,343.3,551.1,341.5L551.1,341.5z"/>
<path class="st3" d="M163.8,408.5l-24.2,26.6c-38.3-34.8-61.8-81.4-68.4-130.5l35.6-4.8C112.3,340.7,131.9,379.5,163.8,408.5z"/>
<path class="st4" d="M495.1,321.8l-35.1-7.7c9.1-41.5,3.1-84.6-16.4-121.7l31.8-16.7C498.8,220.1,506.1,272,495.1,321.8z
	 M495.1,321.8c-5.2,23.9-14.6,47.3-28.5,69.2c-13.8,21.9-31,40.4-50.3,55.4l-22-28.5c16.1-12.5,30.4-27.9,41.9-46.1
	s19.4-37.7,23.8-57.6L495.1,321.8z M394.4,417.8l22,28.5c-40.3,31.2-90.3,46.8-140.5,44.8l1.5-35.9
	C319.2,456.8,360.8,443.8,394.4,417.8z"/>
<path class="st3" d="M277.3,455.2l-1.5,35.9c-36.6-1.4-73.2-12.3-106.4-33.2c-10.8-6.8-20.8-14.5-29.9-22.8l24.2-26.6
	c7.6,6.9,15.9,13.3,24.9,19C216.4,444.9,246.9,453.9,277.3,455.2z M106.8,299.7l-35.6,4.8c-6.5-48.4,3.3-99.3,31.5-143.9l30.4,19.2
	C109.6,217,101.4,259.4,106.8,299.7z"/>
<path class="st5" d="M219.3,70.5l10.9,34.2c-38.8,12.4-73.6,37.9-97.1,75.1l-30.4-19.2C130.9,116.1,172.8,85.4,219.3,70.5z
	 M366.5,76.4l-13.7,33.3c-39.9-16.5-83.3-17.5-122.7-5l-10.9-34.2C266.6,55.4,318.7,56.7,366.5,76.4z M475.5,175.6l-31.8,16.7
	c-14.1-27-35.4-50.7-63-68.2c-9-5.7-18.3-10.5-27.8-14.4l13.7-33.3c11.4,4.7,22.6,10.5,33.4,17.3C433,114.7,458.5,143.2,475.5,175.6
	L475.5,175.6z"/>
<path class="st6" d="M272.6,74.7l-0.4-1l-0.4-1l-3.7,0.3l-0.3,1.1c0,0-0.2,0.7-0.3,1l-1.7,0.1c0.3-1,0.5-1.8,0.8-2.7
	c0.2-0.8,0.5-1.6,0.7-2.3l0.7-2.1l0.7-2l1.5-0.1l1,1.8c0.3,0.6,0.7,1.3,1,2s0.7,1.4,1,2.2c0.4,0.8,0.7,1.6,1.1,2.5L272.6,74.7
	L272.6,74.7z M269.5,67.8c-0.2,0.5-0.3,1-0.5,1.7l-0.6,2.1l2.9-0.2c-0.3-0.7-0.6-1.4-0.9-2C270,68.7,269.7,68.2,269.5,67.8z
	 M274.8,66.2l1.5-0.3l0.1,2l2.4-0.1l0.1,1.3l-2.4,0.1l0.1,2.7c0,0.5,0.1,0.9,0.3,1.1c0.2,0.2,0.5,0.3,0.9,0.3c0.3,0,0.5-0.1,0.7-0.1
	c0.2-0.1,0.4-0.1,0.5-0.2l0.3,1.2c-0.2,0.1-0.4,0.2-0.7,0.3c-0.3,0.1-0.6,0.1-1,0.2c-0.5,0-0.9,0-1.2-0.1c-0.3-0.1-0.6-0.3-0.8-0.5
	c-0.2-0.2-0.3-0.5-0.4-0.9c-0.1-0.3-0.1-0.7-0.2-1.2L274.8,66.2L274.8,66.2z M284.2,69.1c-0.1,0-0.3-0.1-0.5-0.1s-0.5-0.1-0.8-0.1
	c-0.2,0-0.3,0-0.5,0.1c-0.2,0-0.3,0.1-0.4,0.1l0.1,5.3h-1.5l-0.1-6.3c0.3-0.1,0.7-0.2,1.1-0.3c0.4-0.1,0.9-0.2,1.5-0.2h0.8
	c0.1,0,0.3,0,0.4,0.1l0.3,0.1L284.2,69.1z M287.8,67.6c0.5,0,0.9,0.1,1.3,0.2c0.3,0.1,0.6,0.3,0.8,0.5c0.2,0.2,0.4,0.5,0.4,0.8
	c0.1,0.3,0.1,0.7,0.1,1.1v4c-0.2,0.1-0.6,0.1-1.1,0.2s-1,0.1-1.6,0.1c-0.4,0-0.8,0-1.1-0.1c-0.3-0.1-0.6-0.2-0.8-0.4
	c-0.2-0.2-0.4-0.4-0.5-0.7c-0.1-0.3-0.2-0.6-0.2-1s0.1-0.7,0.2-1c0.2-0.3,0.4-0.5,0.6-0.6c0.3-0.2,0.5-0.3,0.9-0.4
	c0.3-0.1,0.7-0.1,1.1-0.1h0.5l0.6,0.1V70c0-0.2,0-0.3-0.1-0.5c0-0.2-0.1-0.3-0.2-0.4s-0.2-0.2-0.4-0.3c-0.2-0.1-0.4-0.1-0.7-0.1
	c-0.4,0-0.7,0-1,0.1s-0.5,0.1-0.7,0.2l-0.2-1.2c0.2-0.1,0.5-0.1,0.9-0.2L287.8,67.6L287.8,67.6z M287.9,73.3c0.5,0,0.8,0,1.1-0.1
	v-1.7c-0.1,0-0.2-0.1-0.4-0.1h-1l-0.5,0.1c-0.1,0.1-0.3,0.2-0.3,0.3c-0.1,0.1-0.1,0.3-0.1,0.5c0,0.4,0.1,0.6,0.3,0.8
	C287.2,73.2,287.5,73.3,287.9,73.3z M292,71.1c0-0.5,0.1-0.9,0.3-1.4c0.2-0.4,0.4-0.8,0.7-1.1c0.3-0.3,0.7-0.5,1.1-0.7
	s0.9-0.2,1.4-0.2c0.6,0,1.2,0.2,1.8,0.4l-0.4,1.2c-0.2-0.1-0.4-0.2-0.6-0.2c-0.2-0.1-0.5-0.1-0.7-0.1c-0.6,0-1.1,0.1-1.4,0.5
	s-0.5,0.9-0.5,1.6s0.1,1.2,0.4,1.6s0.8,0.6,1.5,0.6h0.8c0.3,0,0.5-0.1,0.7-0.2l0.2,1.3c-0.2,0.1-0.4,0.1-0.8,0.2
	c-0.3,0.1-0.7,0.1-1.1,0.1c-0.6,0-1.1-0.1-1.5-0.3c-0.4-0.2-0.7-0.5-1-0.8s-0.5-0.7-0.6-1.1C292.1,72.1,292,71.6,292,71.1z
	 M298.1,71.4c0-0.5,0.2-0.9,0.3-1.4c0.2-0.4,0.4-0.8,0.7-1.1c0.3-0.3,0.7-0.5,1.1-0.7c0.4-0.1,0.9-0.2,1.4-0.2
	c0.6,0,1.2,0.2,1.8,0.5l-0.4,1.2c-0.2-0.1-0.4-0.2-0.6-0.2c-0.2-0.1-0.5-0.1-0.7-0.1c-0.6,0-1.1,0.1-1.4,0.5s-0.5,0.9-0.6,1.6
	s0.1,1.2,0.3,1.6c0.3,0.4,0.8,0.6,1.5,0.7h0.8c0.3,0,0.5-0.1,0.7-0.1V75c-0.2,0.1-0.4,0.1-0.8,0.2h-1.1c-0.6,0-1.1-0.2-1.5-0.4
	c-0.4-0.2-0.7-0.5-1-0.8s-0.4-0.7-0.5-1.1C298.1,72.4,298,71.9,298.1,71.4L298.1,71.4z M305.6,75.4l-1.5-0.2l0.7-6.6l1.5,0.2
	L305.6,75.4z M306.7,66.9c0,0.3-0.1,0.5-0.3,0.7c-0.2,0.2-0.4,0.2-0.7,0.2c-0.3,0-0.5-0.1-0.6-0.3c-0.2-0.2-0.2-0.4-0.2-0.7
	c0-0.3,0.1-0.5,0.3-0.7c0.2-0.1,0.4-0.2,0.7-0.2c0.2,0,0.5,0.1,0.6,0.3C306.6,66.4,306.7,66.6,306.7,66.9z M313.9,73.1
	c-0.1,0.5-0.2,1-0.4,1.4c-0.2,0.4-0.5,0.7-0.8,1s-0.7,0.5-1.1,0.6s-0.9,0.1-1.3,0.1c-0.5-0.1-0.9-0.2-1.3-0.4s-0.7-0.5-0.9-0.8
	c-0.2-0.3-0.4-0.7-0.5-1.2c-0.1-0.4-0.1-0.9-0.1-1.5c0.1-0.5,0.2-1,0.4-1.4c0.2-0.4,0.5-0.7,0.8-1s0.7-0.5,1.1-0.6s0.8-0.1,1.3-0.1
	c0.5,0.1,0.9,0.2,1.2,0.4c0.4,0.2,0.7,0.5,0.9,0.8c0.2,0.3,0.4,0.7,0.5,1.2C314,72.1,314,72.5,313.9,73.1L313.9,73.1z M312.4,72.9
	c0.1-0.7,0-1.2-0.2-1.6s-0.6-0.7-1.1-0.7c-0.5-0.1-0.9,0.1-1.3,0.4c-0.3,0.3-0.5,0.8-0.6,1.5s0,1.2,0.2,1.6s0.6,0.7,1.1,0.7
	c0.5,0.1,0.9-0.1,1.3-0.4C312.1,74,312.3,73.5,312.4,72.9z M313.2,66.9l-2.3,1.7l-0.7-0.8l2.1-2C312.3,65.8,313.2,66.9,313.2,66.9z
	 M316,70.3c0.3,0,0.7-0.1,1.2-0.1s1,0.1,1.6,0.1c0.5,0.1,1,0.2,1.3,0.4c0.3,0.2,0.6,0.5,0.8,0.8c0.2,0.3,0.3,0.6,0.3,1
	s0,0.8-0.1,1.2l-0.6,3.7l-1.5-0.2l0.6-3.4c0.1-0.4,0.1-0.7,0.1-0.9c0-0.3,0-0.5-0.1-0.6c-0.1-0.2-0.2-0.3-0.4-0.4
	c-0.2-0.1-0.4-0.2-0.6-0.2l-0.6-0.1h-0.5l-0.9,5.3l-1.5-0.2L316,70.3L316,70.3z M269.5,90.7c-0.3,0.1-0.7,0.2-1.1,0.4l-1.4,0.3
	c-0.5,0-1,0-1.4-0.1s-0.8-0.3-1.1-0.6c-0.3-0.3-0.6-0.6-0.8-1c-0.2-0.4-0.3-0.9-0.4-1.4s0-1,0.1-1.4s0.2-0.8,0.5-1.2
	c0.2-0.3,0.5-0.6,0.9-0.8c0.3-0.2,0.8-0.3,1.2-0.4h0.9c0.3,0.1,0.5,0.1,0.7,0.2l-0.3-3.2l1.5-0.4L269.5,90.7L269.5,90.7z M264.8,88
	c0.1,0.7,0.3,1.2,0.6,1.5c0.4,0.4,0.8,0.5,1.4,0.4c0.2,0,0.5-0.1,0.6-0.1c0.2,0,0.3-0.1,0.4-0.1l-0.4-3.8c-0.1-0.1-0.3-0.2-0.6-0.2
	c-0.2-0.1-0.5-0.1-0.7-0.1c-0.6,0.1-0.9,0.3-1.2,0.7C264.8,86.8,264.7,87.4,264.8,88L264.8,88z M270.8,87.5c0-0.6,0-1.1,0.2-1.6
	c0.2-0.4,0.4-0.8,0.6-1.1c0.3-0.3,0.6-0.5,1-0.7s0.7-0.3,1.1-0.3c0.9-0.1,1.6,0.2,2.2,0.7c0.5,0.5,0.8,1.4,0.9,2.5v0.6l-4.4,0.2
	c0.1,0.5,0.3,0.9,0.6,1.2c0.4,0.3,0.8,0.4,1.5,0.4c0.4,0,0.7-0.1,1-0.2s0.5-0.2,0.7-0.3l0.3,1.2c-0.1,0-0.2,0.1-0.3,0.2
	c-0.1,0.1-0.3,0.1-0.5,0.2s-0.4,0.1-0.6,0.1s-0.4,0.1-0.7,0.1c-0.6,0-1.1,0-1.5-0.2s-0.8-0.4-1.1-0.7s-0.5-0.6-0.7-1.1
	C270.9,88.5,270.8,88,270.8,87.5L270.8,87.5z M275.2,86.6l-0.1-0.6l-0.3-0.5l-0.4-0.3c-0.2-0.1-0.4-0.1-0.6-0.1s-0.4,0.1-0.6,0.2
	s-0.3,0.2-0.4,0.4l-0.3,0.5c-0.1,0.2-0.1,0.4-0.1,0.6L275.2,86.6z M281.2,82l1.5-0.3v2h2.4V85h-2.4l0.1,2.7c0,0.5,0.1,0.9,0.3,1.1
	c0.2,0.2,0.5,0.3,0.9,0.3c0.3,0,0.5,0,0.7-0.1s0.4-0.1,0.5-0.2l0.3,1.2c-0.2,0.1-0.4,0.2-0.7,0.3c-0.3,0.1-0.6,0.1-1,0.1
	c-0.5,0-0.9,0-1.2-0.2c-0.3-0.1-0.6-0.3-0.8-0.5c-0.2-0.2-0.3-0.5-0.4-0.9c-0.1-0.3-0.1-0.7-0.1-1.2L281.2,82L281.2,82z M289.1,83.6
	c0.5,0,0.9,0.1,1.3,0.2c0.3,0.1,0.6,0.3,0.8,0.6c0.2,0.2,0.3,0.5,0.4,0.8s0.1,0.7,0.1,1.1l-0.1,4c-0.2,0-0.6,0.1-1.1,0.2
	s-1,0.1-1.6,0.1c-0.4,0-0.8-0.1-1.1-0.1c-0.3-0.1-0.6-0.2-0.8-0.4c-0.2-0.2-0.4-0.4-0.5-0.7c-0.1-0.3-0.2-0.6-0.2-1s0.1-0.7,0.2-1
	c0.2-0.3,0.4-0.5,0.6-0.6c0.3-0.2,0.6-0.3,0.9-0.3c0.3-0.1,0.7-0.1,1.1-0.1h0.5l0.6,0.1v-0.3c0-0.2,0-0.3-0.1-0.5
	c0-0.2-0.1-0.3-0.2-0.4s-0.2-0.2-0.4-0.3c-0.2-0.1-0.4-0.1-0.7-0.1c-0.4,0-0.7,0-1,0.1c-0.3,0-0.5,0.1-0.7,0.2l-0.2-1.2
	c0.2-0.1,0.5-0.1,0.9-0.2C288.3,83.6,288.7,83.6,289.1,83.6L289.1,83.6z M289.1,89.3h1.1v-1.7c-0.1,0-0.2-0.1-0.4-0.1
	s-0.3,0-0.5-0.1h-0.5l-0.5,0.1c-0.1,0.1-0.3,0.2-0.3,0.3c-0.1,0.1-0.1,0.3-0.1,0.5c0,0.4,0.1,0.6,0.3,0.8
	C288.4,89.2,288.7,89.3,289.1,89.3z M295.7,90.8c-0.5,0-0.8-0.1-1.1-0.2c-0.3-0.1-0.5-0.3-0.7-0.4c-0.2-0.2-0.3-0.4-0.3-0.7
	c-0.1-0.3-0.1-0.6-0.1-0.9l0.4-7.6l1.6-0.2l-0.4,7.6v0.5l0.1,0.3c0.1,0.1,0.2,0.2,0.3,0.2c0.1,0.1,0.3,0.1,0.5,0.1
	C296,89.5,295.7,90.8,295.7,90.8z M297,87.4c0-0.6,0.2-1.1,0.4-1.5c0.2-0.4,0.5-0.8,0.8-1c0.3-0.3,0.7-0.5,1-0.6
	c0.4-0.1,0.8-0.2,1.2-0.1c0.9,0.1,1.6,0.4,2.1,1s0.7,1.5,0.6,2.6v0.6l-4.4-0.4c0,0.5,0.2,1,0.5,1.3s0.8,0.5,1.4,0.6h1
	c0.3,0,0.6-0.1,0.7-0.2l0.1,1.3c-0.1,0-0.2,0.1-0.4,0.1l-0.5,0.1h-1.3c-0.6,0-1.1-0.2-1.5-0.4c-0.4-0.2-0.7-0.5-1-0.8
	s-0.4-0.7-0.5-1.1C297,88.4,297,87.9,297,87.4L297,87.4z M301.5,87.1v-0.6c0-0.2-0.1-0.4-0.2-0.5s-0.2-0.3-0.4-0.4
	c-0.2-0.1-0.3-0.1-0.6-0.2c-0.2,0-0.4,0-0.6,0.1l-0.5,0.3c-0.1,0.1-0.2,0.3-0.3,0.5l-0.2,0.6L301.5,87.1L301.5,87.1z M305.1,84.9
	c0.3-0.1,0.7-0.1,1.2-0.1s1,0,1.6,0.1c0.5,0.1,1,0.2,1.3,0.4c0.3,0.2,0.6,0.4,0.8,0.7c0.2,0.3,0.3,0.6,0.3,1v1.2l-0.4,3.7l-1.5-0.2
	l0.4-3.5c0-0.4,0.1-0.7,0-0.9c0-0.3-0.1-0.5-0.2-0.6c-0.1-0.2-0.2-0.3-0.4-0.4c-0.2-0.1-0.4-0.2-0.6-0.2h-1.1l-0.6,5.3l-1.5-0.2
	L305.1,84.9L305.1,84.9z M312.8,83.9h1.6l-0.3,2l2.3,0.4l-0.2,1.3l-2.3-0.4l-0.4,2.7c-0.1,0.5-0.1,0.9,0.1,1.2
	c0.1,0.2,0.4,0.4,0.8,0.5c0.3,0,0.5,0.1,0.7,0c0.2,0,0.4-0.1,0.5-0.1l0.1,1.2c-0.2,0-0.4,0.1-0.7,0.1h-1c-0.5-0.1-0.9-0.2-1.1-0.4
	c-0.3-0.2-0.5-0.4-0.7-0.7l-0.3-0.9c0-0.3,0-0.7,0.1-1.2L312.8,83.9z M323.2,90.9c-0.1,0.5-0.3,1-0.5,1.4s-0.5,0.7-0.8,1
	c-0.3,0.2-0.7,0.4-1.1,0.5s-0.9,0.1-1.3,0c-0.5-0.1-0.9-0.3-1.2-0.5c-0.3-0.2-0.6-0.5-0.9-0.9c-0.2-0.4-0.4-0.8-0.4-1.2
	c-0.1-0.5-0.1-0.9,0-1.5c0.1-0.5,0.3-1,0.5-1.4s0.5-0.7,0.9-1c0.3-0.2,0.7-0.4,1.1-0.5s0.9-0.1,1.3,0c0.5,0.1,0.9,0.2,1.2,0.5
	c0.4,0.2,0.6,0.5,0.9,0.9c0.2,0.4,0.4,0.8,0.4,1.2C323.3,89.9,323.3,90.4,323.2,90.9z M321.6,90.6c0.1-0.6,0.1-1.2-0.1-1.6
	s-0.6-0.7-1.1-0.8c-0.5-0.1-0.9,0-1.3,0.3c-0.3,0.3-0.6,0.8-0.7,1.5s-0.1,1.2,0.1,1.6s0.6,0.7,1.1,0.8c0.5,0.1,0.9,0,1.3-0.4
	C321.3,91.7,321.5,91.3,321.6,90.6z M96.4,356.5c-0.5,0.2-0.9,0.3-1.4,0.3c-0.4,0-0.8-0.1-1.2-0.2c-0.4-0.2-0.7-0.4-1-0.7
	c-0.3-0.3-0.5-0.7-0.7-1.2s-0.3-0.9-0.4-1.3s-0.1-0.8-0.2-1.1l8.3-3.3l0.8,1.3l-3.1,1.2L98,352c0.2,0.2,0.3,0.4,0.4,0.7
	c0.2,0.4,0.2,0.8,0.2,1.2c0,0.4-0.1,0.7-0.3,1.1c-0.2,0.3-0.4,0.6-0.8,0.9C97.2,356.1,96.8,356.3,96.4,356.5z M95.8,355.1
	c0.6-0.2,1-0.5,1.2-0.9s0.3-0.8,0.1-1.3c-0.1-0.2-0.2-0.4-0.4-0.6c-0.1-0.2-0.3-0.3-0.4-0.4l-3.4,1.3c0,0.1,0,0.2,0.1,0.4
	c0,0.2,0.1,0.3,0.2,0.6c0.2,0.5,0.5,0.8,1,1C94.7,355.3,95.2,355.3,95.8,355.1L95.8,355.1z M94.7,360.6l-0.6-1.3l5.8-2.5l0.6,1.3
	L94.7,360.6z M102.3,357.5c-0.3,0.1-0.5,0.1-0.7,0s-0.4-0.3-0.5-0.5s-0.1-0.5,0-0.7s0.2-0.4,0.5-0.5s0.5-0.1,0.7,0s0.4,0.3,0.5,0.5
	s0.1,0.4,0,0.7C102.7,357.2,102.5,357.4,102.3,357.5z M98.2,360.8c0.5-0.2,1-0.4,1.4-0.4c0.5,0,0.9,0,1.2,0.2c0.4,0.1,0.7,0.3,1,0.6
	c0.3,0.3,0.5,0.6,0.6,0.9c0.4,0.8,0.4,1.5,0.1,2.2s-0.9,1.2-1.9,1.7c-0.1,0-0.2,0.1-0.2,0.1l-0.3,0.1l-1.7-3.8
	c-0.4,0.2-0.7,0.6-0.9,1c-0.1,0.4-0.1,0.9,0.2,1.4c0.1,0.3,0.3,0.6,0.5,0.8c0.2,0.2,0.3,0.4,0.5,0.5l-1,0.7l-0.3-0.2
	c-0.1-0.1-0.2-0.2-0.3-0.4l-0.3-0.5l-0.3-0.6c-0.2-0.5-0.4-1-0.4-1.4s0-0.8,0.2-1.2c0.2-0.4,0.4-0.7,0.7-1L98.2,360.8L98.2,360.8z
	 M100.6,364.4l0.5-0.3l0.3-0.4c0.1-0.2,0.1-0.3,0.1-0.5s0-0.4-0.1-0.6s-0.2-0.4-0.4-0.5c-0.1-0.1-0.3-0.2-0.5-0.3
	c-0.2,0-0.4-0.1-0.5-0.1c-0.2,0-0.4,0.1-0.5,0.1L100.6,364.4L100.6,364.4z M104,366.3c0.2,0.2,0.4,0.5,0.7,0.9
	c0.3,0.4,0.5,0.8,0.8,1.3c0.2,0.5,0.4,0.9,0.4,1.3s0,0.7-0.2,1c-0.1,0.3-0.3,0.6-0.6,0.8c-0.3,0.2-0.6,0.5-1,0.6l-3.2,1.6l-0.7-1.3
	l3-1.5l0.7-0.4c0.2-0.1,0.3-0.3,0.4-0.5s0.1-0.3,0.1-0.5s-0.1-0.4-0.2-0.6l-0.3-0.5c-0.1-0.2-0.2-0.3-0.3-0.4l-4.6,2.3l-0.7-1.3
	C98.3,369.1,104,366.3,104,366.3z M104.4,373.8c0.5-0.3,1-0.4,1.4-0.5s0.9,0,1.2,0.1c0.4,0.1,0.7,0.3,1,0.5s0.5,0.5,0.7,0.8
	c0.4,0.8,0.5,1.5,0.3,2.2s-0.8,1.3-1.8,1.8c-0.1,0-0.2,0.1-0.2,0.1c-0.1,0-0.2,0.1-0.2,0.1l-2-3.7c-0.4,0.3-0.7,0.6-0.8,1
	c-0.1,0.4,0,0.9,0.3,1.4c0.2,0.3,0.4,0.6,0.6,0.8l0.5,0.5l-1,0.7l-0.3-0.2c-0.1-0.1-0.2-0.2-0.3-0.4c-0.1-0.1-0.2-0.3-0.4-0.5
	c-0.1-0.2-0.2-0.4-0.3-0.5c-0.3-0.5-0.4-1-0.5-1.4s0-0.8,0.1-1.2c0.1-0.4,0.3-0.7,0.6-1C103.7,374.3,104,374,104.4,373.8
	L104.4,373.8z M107.1,377.2l0.5-0.3l0.3-0.4c0.1-0.2,0.1-0.3,0.1-0.5s-0.1-0.4-0.2-0.6s-0.2-0.3-0.4-0.5c-0.2-0.1-0.3-0.2-0.5-0.2
	h-0.5c-0.2,0-0.4,0.1-0.5,0.1L107.1,377.2z M107,382.7c0.2,0.3,0.4,0.6,0.5,0.7c0.2,0.1,0.4,0.1,0.5,0c0.2-0.1,0.3-0.3,0.3-0.5
	s0-0.6-0.1-1c-0.1-0.3-0.1-0.5-0.1-0.8v-0.7c0-0.2,0.1-0.4,0.3-0.6c0.1-0.2,0.3-0.4,0.6-0.5c0.5-0.3,1-0.3,1.5-0.1
	c0.5,0.2,0.9,0.6,1.3,1.2c0.2,0.3,0.3,0.6,0.5,1c0.1,0.3,0.2,0.6,0.2,0.8l-1.2,0.4l-0.1-0.6c-0.1-0.2-0.2-0.5-0.4-0.8
	c-0.2-0.3-0.3-0.4-0.5-0.6c-0.2-0.1-0.4-0.1-0.5,0s-0.2,0.1-0.2,0.2c-0.1,0.1-0.1,0.2-0.1,0.3v0.4c0,0.2,0,0.3,0.1,0.6
	c0.1,0.4,0.1,0.7,0.1,1s0,0.5-0.1,0.7l-0.3,0.6c-0.1,0.2-0.3,0.3-0.6,0.5c-0.5,0.3-1,0.3-1.5,0.1c-0.5-0.2-1-0.7-1.4-1.4
	c-0.3-0.5-0.5-0.9-0.6-1.2c-0.1-0.3-0.2-0.6-0.2-0.7l1.2-0.4c0,0.2,0.1,0.5,0.2,0.8C106.7,382,106.9,382.3,107,382.7z M115,382.5
	l1,1.1l-1.6,1l1.2,1.9l-1,0.6l-1.2-1.9l-2.2,1.4c-0.4,0.3-0.7,0.5-0.8,0.8c-0.1,0.2,0,0.5,0.2,0.9l0.4,0.6l0.4,0.3l-0.9,0.8
	l-0.5-0.4c-0.2-0.2-0.4-0.4-0.6-0.8s-0.4-0.7-0.4-1.1c-0.1-0.3,0-0.6,0.1-0.9s0.3-0.5,0.5-0.8c0.2-0.2,0.5-0.5,0.9-0.7L115,382.5z
	 M117.7,389.4c0.3,0.4,0.4,0.8,0.5,1.1c0.1,0.3,0.1,0.7,0,0.9c-0.1,0.3-0.2,0.5-0.4,0.8c-0.2,0.2-0.5,0.5-0.8,0.7l-3.2,2.1
	c-0.2-0.2-0.4-0.4-0.7-0.8c-0.3-0.3-0.6-0.8-0.9-1.2c-0.2-0.3-0.4-0.6-0.5-0.9s-0.2-0.6-0.2-0.9s0.1-0.5,0.2-0.8
	c0.1-0.2,0.4-0.5,0.7-0.7c0.3-0.2,0.6-0.3,0.9-0.3s0.6,0,0.8,0.1c0.3,0.1,0.5,0.3,0.8,0.5c0.2,0.2,0.4,0.5,0.6,0.8l0.3,0.4
	c0.1,0.2,0.2,0.3,0.2,0.5l0.2-0.1l0.4-0.3c0.1-0.1,0.2-0.3,0.2-0.4v-0.5c0-0.2-0.1-0.4-0.3-0.6c-0.2-0.3-0.4-0.5-0.6-0.7l-0.5-0.5
	l0.9-0.8c0.2,0.1,0.4,0.3,0.6,0.6C117.2,388.8,117.5,389.1,117.7,389.4L117.7,389.4z M113.2,392.5c0.2,0.4,0.5,0.6,0.6,0.8l1.3-0.9
	l-0.1-0.3c-0.1-0.1-0.1-0.3-0.3-0.4l-0.3-0.4c-0.1-0.1-0.2-0.2-0.4-0.3c-0.1-0.1-0.3-0.1-0.4-0.1s-0.3,0-0.4,0.1
	c-0.3,0.2-0.4,0.4-0.4,0.7C112.9,391.9,113,392.2,113.2,392.5L113.2,392.5z M121.1,396.8c0-0.1-0.1-0.3-0.2-0.5s-0.2-0.4-0.4-0.6
	l-0.3-0.4l-0.3-0.3l-4.1,3l-0.9-1.2l4.9-3.5c0.2,0.2,0.5,0.4,0.9,0.7c0.3,0.3,0.6,0.6,0.9,1.1l0.2,0.3l0.2,0.3l0.2,0.3l0.1,0.3
	L121.1,396.8L121.1,396.8z M109.2,353c0.2,0.5,0.5,0.8,0.7,1c0.3,0.2,0.6,0.2,0.9,0c0.2-0.1,0.3-0.2,0.4-0.3
	c0.1-0.1,0.2-0.3,0.2-0.5s0.1-0.4,0.1-0.7v-1.7c0-0.3,0.1-0.6,0.2-0.8c0.1-0.3,0.2-0.5,0.4-0.7c0.2-0.2,0.5-0.4,0.8-0.5
	c0.7-0.3,1.3-0.3,2,0c0.6,0.3,1.1,0.9,1.4,1.7c0.2,0.5,0.3,0.9,0.4,1.4c0.1,0.4,0.1,0.8,0,1h-1.3v-1c-0.1-0.3-0.1-0.7-0.3-1
	c-0.2-0.4-0.4-0.6-0.6-0.8c-0.2-0.1-0.5-0.2-0.8,0c-0.2,0.1-0.3,0.2-0.4,0.3c-0.1,0.1-0.2,0.3-0.2,0.4l-0.1,0.6v1.9
	c0,0.3-0.1,0.7-0.2,0.9c-0.1,0.3-0.3,0.5-0.5,0.7s-0.5,0.4-0.9,0.5c-0.7,0.3-1.3,0.3-1.9-0.1c-0.6-0.3-1.1-1-1.5-1.9l-0.3-0.9
	c-0.1-0.3-0.1-0.5-0.1-0.8v-1l1.3-0.1v1C108.8,352.1,109,352.5,109.2,353z M116.8,356.9c0.2,0.4,0.3,0.8,0.4,1.2
	c0,0.3,0,0.7-0.1,0.9c-0.1,0.3-0.3,0.5-0.5,0.7s-0.5,0.4-0.9,0.6l-3.5,1.6c-0.1-0.2-0.3-0.5-0.6-0.9s-0.5-0.8-0.7-1.4
	c-0.2-0.3-0.3-0.7-0.3-1c-0.1-0.3-0.1-0.6,0-0.9s0.2-0.5,0.3-0.7c0.2-0.2,0.4-0.4,0.8-0.6c0.3-0.2,0.6-0.2,0.9-0.2s0.6,0.1,0.8,0.3
	l0.7,0.6c0.2,0.3,0.4,0.5,0.5,0.9c0.1,0.1,0.1,0.3,0.2,0.5s0.1,0.4,0.1,0.6l0.2-0.1c0.2-0.1,0.3-0.2,0.4-0.3
	c0.1-0.1,0.2-0.2,0.3-0.4c0.1-0.1,0.1-0.3,0.1-0.5s-0.1-0.4-0.2-0.6c-0.1-0.3-0.3-0.6-0.5-0.8c-0.2-0.2-0.3-0.4-0.4-0.6l1-0.7
	c0.1,0.1,0.3,0.4,0.5,0.7C116.4,356.2,116.6,356.6,116.8,356.9L116.8,356.9z M111.9,359.4c0.2,0.4,0.4,0.7,0.5,0.9l1.5-0.7
	c0-0.1,0-0.2-0.1-0.3c0-0.1-0.1-0.3-0.2-0.5l-0.2-0.4l-0.3-0.4c-0.1-0.1-0.2-0.2-0.4-0.2c-0.1,0-0.3,0-0.5,0.1
	c-0.3,0.1-0.5,0.3-0.5,0.6C111.6,358.7,111.7,359,111.9,359.4z M113.7,365.8c-0.2-0.4-0.3-0.7-0.4-1V364c0.1-0.2,0.2-0.4,0.4-0.6
	c0.2-0.2,0.4-0.3,0.7-0.5l6.5-3.3l0.9,1.2l-6.5,3.3c-0.2,0.1-0.3,0.2-0.4,0.2c-0.1,0.1-0.2,0.2-0.2,0.3c0,0.1-0.1,0.2,0,0.4
	c0,0.1,0.1,0.3,0.1,0.5L113.7,365.8z M117.2,371.7c-0.2-0.2-0.4-0.5-0.7-0.9c-0.3-0.4-0.6-0.8-0.8-1.3c-0.2-0.4-0.4-0.9-0.4-1.2
	c0-0.4,0-0.7,0.1-1s0.3-0.6,0.6-0.8c0.3-0.2,0.6-0.5,1-0.7l3.1-1.7l0.7,1.3l-2.9,1.6c-0.6,0.3-1,0.6-1.1,1c-0.2,0.3-0.1,0.7,0.1,1.1
	l0.3,0.5c0.1,0.2,0.2,0.3,0.3,0.4l4.5-2.4l0.7,1.3L117.2,371.7L117.2,371.7z M121,378.2l-0.8-0.8c-0.3-0.3-0.6-0.7-0.8-1.1
	c-0.3-0.4-0.4-0.9-0.5-1.3s-0.1-0.8,0.1-1.2c0.1-0.4,0.3-0.7,0.6-1.1c0.3-0.3,0.6-0.6,1.1-0.9c0.4-0.3,0.9-0.4,1.3-0.5
	s0.8-0.1,1.2-0.1c0.4,0.1,0.7,0.2,1,0.4c0.3,0.2,0.6,0.5,0.8,0.9c0.2,0.3,0.3,0.5,0.3,0.8c0.1,0.2,0.1,0.5,0.1,0.6l2.6-1.6l1,1.1
	L121,378.2L121,378.2z M121.4,373.1c-0.6,0.3-0.9,0.7-1.1,1.2c-0.2,0.4-0.1,0.9,0.2,1.4c0.1,0.2,0.2,0.4,0.3,0.5l0.3,0.3l3.1-1.8
	c0-0.2,0-0.3-0.1-0.6c0-0.2-0.1-0.4-0.2-0.6c-0.3-0.5-0.6-0.7-1.1-0.7C122.5,372.6,122,372.7,121.4,373.1L121.4,373.1z M131.7,383.4
	c-2.4,0.8-4.6,1.4-6.7,1.7c-0.4,0.1-0.7,0.1-1.1,0.1c-0.3,0-0.6,0-0.9-0.1s-0.5-0.2-0.7-0.4c-0.2-0.2-0.4-0.4-0.6-0.7l-0.3-0.6
	c-0.1-0.2-0.1-0.4-0.2-0.5l1.1-0.4c0.1,0.3,0.2,0.6,0.3,0.8c0.2,0.3,0.5,0.5,0.7,0.6c0.3,0.1,0.6,0.1,1,0c0.5-0.9,1-1.8,1.7-2.7
	c0.6-0.9,1.4-1.9,2.1-2.8l0.9,1.3l-0.8,0.9c-0.3,0.3-0.5,0.6-0.8,1l-0.8,1c-0.2,0.4-0.5,0.7-0.7,1c0.7-0.2,1.5-0.4,2.3-0.7
	c0.8-0.3,1.6-0.5,2.3-0.8L131.7,383.4L131.7,383.4z M193.5,464.3c-0.3-0.1-0.7-0.2-1.1-0.3c-0.4-0.1-0.9-0.3-1.3-0.6
	c-0.5-0.2-0.8-0.5-1.1-0.8s-0.5-0.7-0.6-1.1s-0.2-0.8-0.1-1.3c0.1-0.4,0.2-0.9,0.4-1.4s0.5-0.8,0.8-1.2c0.3-0.3,0.6-0.6,1-0.7
	c0.4-0.2,0.7-0.2,1.1-0.2c0.4,0,0.8,0.1,1.2,0.3c0.3,0.1,0.5,0.3,0.7,0.5s0.3,0.3,0.4,0.5l1.4-2.8l1.5,0.5L193.5,464.3L193.5,464.3z
	 M191,459.6c-0.3,0.6-0.4,1.1-0.3,1.6c0.1,0.5,0.4,0.8,0.9,1.1l0.6,0.3c0.2,0.1,0.3,0.1,0.4,0.1l1.7-3.3c-0.1-0.1-0.2-0.3-0.4-0.5
	s-0.4-0.3-0.6-0.4c-0.5-0.2-0.9-0.3-1.3,0C191.7,458.6,191.3,459,191,459.6L191,459.6z M196.4,462.3c0.2-0.5,0.5-0.9,0.9-1.3
	c0.3-0.3,0.7-0.6,1.1-0.7c0.4-0.1,0.8-0.2,1.2-0.2s0.8,0.1,1.1,0.3c0.8,0.4,1.3,0.9,1.6,1.6c0.2,0.7,0.1,1.6-0.4,2.6l-0.1,0.3
	c0,0.1-0.1,0.2-0.1,0.2l-3.9-1.8c-0.2,0.5-0.2,0.9,0,1.3s0.6,0.7,1.1,1c0.3,0.2,0.7,0.3,1,0.3c0.3,0.1,0.6,0.1,0.7,0.1l-0.3,1.2
	h-0.4l-0.5-0.1c-0.2,0-0.4-0.1-0.6-0.2c-0.2-0.1-0.4-0.2-0.6-0.2c-0.5-0.2-0.9-0.5-1.3-0.9c-0.3-0.3-0.5-0.7-0.7-1.1
	c-0.1-0.4-0.2-0.8-0.1-1.2C196.1,463.2,196.2,462.8,196.4,462.3L196.4,462.3z M200.7,463.6l0.2-0.6v-0.5c0-0.2-0.1-0.3-0.2-0.5
	c-0.1-0.1-0.3-0.3-0.5-0.4s-0.4-0.1-0.6-0.1c-0.2,0-0.4,0-0.5,0.1l-0.5,0.3c-0.1,0.1-0.3,0.3-0.4,0.5L200.7,463.6z M206.5,470.3
	c-0.1-1-0.1-2-0.1-3.2s0.1-2.4,0.2-3.8l1.5,0.6c-0.1,0.4-0.1,0.8-0.1,1.2l-0.1,1.3c0,0.4,0,0.9-0.1,1.3v1.1l0.8-0.8
	c0.3-0.3,0.6-0.6,0.8-1c0.3-0.3,0.6-0.7,0.8-1c0.3-0.3,0.5-0.7,0.7-1l1.4,0.6c-0.8,1-1.6,2-2.5,2.9c-0.8,0.9-1.6,1.6-2.3,2.3
	L206.5,470.3L206.5,470.3z M215.6,466.7c0.5,0.2,0.8,0.4,1.1,0.6s0.5,0.5,0.6,0.8s0.2,0.6,0.1,0.9c0,0.3-0.1,0.7-0.2,1l-1.4,3.7
	c-0.2,0-0.6-0.1-1.1-0.2s-1-0.2-1.5-0.4c-0.4-0.1-0.7-0.3-1-0.5s-0.5-0.4-0.7-0.6s-0.3-0.5-0.3-0.8s0-0.6,0.2-1
	c0.1-0.4,0.3-0.6,0.5-0.8c0.2-0.2,0.5-0.3,0.8-0.4s0.6-0.1,0.9,0c0.3,0,0.7,0.1,1,0.3l0.5,0.2l0.5,0.3l0.1-0.2
	c0.1-0.2,0.1-0.3,0.1-0.5s0-0.3-0.1-0.5s-0.2-0.3-0.3-0.4s-0.3-0.2-0.6-0.3l-0.9-0.3c-0.3-0.1-0.5-0.1-0.7-0.1l0.2-1.2
	c0.2,0,0.5,0,0.9,0.1C214.9,466.4,215.2,466.5,215.6,466.7L215.6,466.7z M213.8,472c0.4,0.2,0.8,0.3,1,0.3l0.6-1.6l-0.3-0.2
	c-0.1-0.1-0.3-0.1-0.5-0.2s-0.3-0.1-0.5-0.1h-0.5c-0.1,0-0.3,0.1-0.4,0.2c-0.1,0.1-0.2,0.2-0.3,0.4c-0.1,0.3-0.1,0.6,0.1,0.8
	C213.2,471.7,213.4,471.9,213.8,472L213.8,472z M219.9,475.4c-0.4-0.1-0.8-0.3-1-0.5s-0.4-0.4-0.5-0.6s-0.2-0.5-0.1-0.7
	c0-0.3,0.1-0.5,0.2-0.9l2.4-7.1l1.5,0.2l-2.4,7.1c-0.1,0.2-0.1,0.3-0.1,0.5v0.4c0,0.1,0.1,0.2,0.2,0.3l0.4,0.3L219.9,475.4
	L219.9,475.4z M228.1,474.4c-0.1,0.5-0.4,0.9-0.6,1.3c-0.3,0.4-0.6,0.6-0.9,0.9c-0.4,0.2-0.7,0.3-1.2,0.4c-0.4,0-0.9,0-1.3-0.1
	s-0.8-0.3-1.1-0.6c-0.3-0.3-0.6-0.6-0.7-1c-0.2-0.4-0.3-0.8-0.3-1.2c0-0.4,0-0.9,0.2-1.4c0.1-0.5,0.4-0.9,0.6-1.3
	c0.3-0.4,0.6-0.6,0.9-0.8c0.4-0.2,0.7-0.3,1.2-0.4c0.4,0,0.8,0,1.3,0.1c0.4,0.1,0.8,0.3,1.1,0.6c0.3,0.3,0.6,0.6,0.7,1
	c0.2,0.4,0.3,0.8,0.3,1.2C228.3,473.4,228.2,473.9,228.1,474.4z M226.6,473.9c0.2-0.6,0.2-1.2,0.1-1.6c-0.2-0.4-0.5-0.7-0.9-0.9
	c-0.5-0.1-0.9-0.1-1.3,0.2c-0.4,0.3-0.7,0.7-0.8,1.4c-0.2,0.6-0.2,1.2-0.1,1.6c0.2,0.4,0.5,0.7,1,0.9c0.5,0.1,0.9,0.1,1.3-0.2
	C226.1,475,226.4,474.6,226.6,473.9z M233.8,474c-0.1-0.1-0.3-0.2-0.5-0.3c-0.2-0.1-0.4-0.2-0.7-0.3l-0.5-0.1h-0.4l-1.4,5l-1.5-0.4
	l1.6-6h1.1c0.4,0,0.9,0.1,1.4,0.2l0.3,0.1c0.1,0,0.2,0.1,0.4,0.2c0.1,0.1,0.2,0.1,0.4,0.2l0.3,0.2L233.8,474L233.8,474z
	 M189.3,444.6c0.1-0.3,0.1-0.7,0.2-1.1l0.2-1.1l-3.1-1.9c-0.3,0.2-0.6,0.5-0.8,0.7l-0.8,0.7l-1.4-0.8c0.8-0.6,1.4-1.2,2.1-1.7
	c0.7-0.5,1.3-1,1.9-1.5c0.6-0.5,1.2-0.9,1.7-1.3l1.7-1.2l1.3,0.8c-0.1,0.7-0.1,1.4-0.2,2l-0.3,2.1c-0.1,0.7-0.2,1.5-0.4,2.3
	c-0.1,0.8-0.3,1.7-0.5,2.7L189.3,444.6L189.3,444.6z M190.7,437.3c-0.4,0.3-0.8,0.6-1.4,1.1c-0.5,0.4-1.1,0.9-1.7,1.4l2.4,1.5
	c0.1-0.8,0.3-1.5,0.4-2.2C190.5,438.3,190.6,437.8,190.7,437.3z M198.7,446c-0.2,0.4-0.5,0.8-0.8,1.1c-0.3,0.3-0.6,0.5-1,0.7
	s-0.7,0.2-1.1,0.2c-0.4,0-0.8-0.1-1.2-0.4c-0.3-0.1-0.5-0.3-0.7-0.5s-0.3-0.4-0.4-0.5l-1.2,2.2l-1.3-0.7l4.1-7.6
	c0.3,0.1,0.7,0.2,1.1,0.3c0.4,0.1,0.9,0.3,1.3,0.6c0.5,0.2,0.8,0.5,1.1,0.9c0.3,0.3,0.5,0.7,0.6,1.1s0.1,0.8,0.1,1.3L198.7,446
	L198.7,446z M197.3,445.3c0.3-0.6,0.4-1.1,0.3-1.6c-0.1-0.5-0.4-0.9-1-1.2l-0.4-0.2c-0.1-0.1-0.3-0.1-0.4-0.1l-1.8,3.3
	c0.1,0.1,0.2,0.3,0.3,0.5c0.2,0.2,0.3,0.3,0.6,0.4c0.5,0.3,0.9,0.3,1.3,0.1C196.7,446.3,197,445.9,197.3,445.3L197.3,445.3z
	 M205.6,449.4c-0.2,0.5-0.5,0.9-0.8,1.2c-0.3,0.3-0.7,0.5-1,0.7c-0.4,0.2-0.8,0.2-1.2,0.2s-0.8-0.1-1.3-0.3c-0.4-0.2-0.8-0.5-1-0.8
	c-0.3-0.3-0.5-0.7-0.6-1.1s-0.2-0.8-0.1-1.3c0-0.5,0.2-0.9,0.4-1.4s0.5-0.9,0.8-1.2c0.3-0.3,0.7-0.5,1.1-0.7
	c0.4-0.2,0.8-0.2,1.2-0.2s0.8,0.1,1.2,0.3c0.4,0.2,0.8,0.5,1,0.8c0.3,0.3,0.5,0.7,0.6,1.1s0.2,0.8,0.1,1.2
	C205.9,448.4,205.8,448.9,205.6,449.4L205.6,449.4z M204.2,448.7c0.3-0.6,0.4-1.1,0.3-1.6c-0.1-0.5-0.4-0.8-0.8-1
	c-0.5-0.2-0.9-0.2-1.3,0s-0.8,0.6-1,1.2c-0.3,0.6-0.4,1.1-0.3,1.6c0.1,0.5,0.4,0.8,0.8,1c0.4,0.2,0.9,0.2,1.3,0
	C203.5,449.7,203.9,449.3,204.2,448.7z M211.3,449.8c-0.1-0.1-0.2-0.2-0.4-0.3c-0.2-0.1-0.4-0.3-0.7-0.4l-0.5-0.2
	c-0.2,0-0.3-0.1-0.4-0.1l-2.1,4.8l-1.4-0.6l2.5-5.7c0.3,0,0.7,0.1,1.1,0.2c0.4,0.1,0.9,0.2,1.4,0.5c0.1,0,0.2,0.1,0.3,0.2l0.3,0.2
	l0.3,0.2c0.1,0.1,0.2,0.1,0.2,0.2L211.3,449.8L211.3,449.8z M213.7,447.5l1.5,0.3l-0.7,1.8l2.1,0.9l-0.5,1.2l-2.2-0.9l-1,2.5
	c-0.2,0.5-0.3,0.9-0.2,1.1c0.1,0.3,0.3,0.5,0.7,0.6c0.3,0.1,0.5,0.2,0.7,0.2h0.5l-0.2,1.2h-0.7c-0.3,0-0.6-0.1-1-0.3
	c-0.4-0.2-0.8-0.4-1-0.6s-0.4-0.5-0.5-0.8s-0.1-0.6,0-0.9s0.2-0.7,0.3-1.1L213.7,447.5L213.7,447.5z M220.1,451.7
	c0.5,0.2,0.8,0.4,1.1,0.6s0.5,0.5,0.6,0.8s0.2,0.6,0.1,0.9c0,0.3-0.1,0.7-0.2,1l-1.4,3.7c-0.2,0-0.6-0.1-1.1-0.2s-1-0.2-1.5-0.5
	c-0.4-0.1-0.7-0.3-1-0.5s-0.5-0.4-0.7-0.6s-0.2-0.5-0.3-0.8c0-0.3,0-0.6,0.2-1c0.1-0.3,0.3-0.6,0.5-0.8c0.2-0.2,0.5-0.3,0.8-0.4
	s0.6-0.1,0.9,0c0.3,0,0.7,0.1,1,0.3l0.5,0.2l0.5,0.3l0.1-0.2c0.1-0.2,0.1-0.3,0.1-0.5s0-0.3-0.1-0.5l-0.3-0.4
	c-0.1-0.1-0.3-0.2-0.6-0.3l-0.9-0.3c-0.3-0.1-0.5-0.1-0.7-0.1l0.2-1.2c0.2,0,0.5,0,0.9,0.1C219.3,451.4,219.7,451.5,220.1,451.7
	L220.1,451.7z M218.3,457c0.4,0.2,0.8,0.3,1,0.3l0.6-1.6l-0.3-0.2c-0.1-0.1-0.3-0.1-0.5-0.2s-0.3-0.1-0.5-0.1h-0.5
	c-0.2,0-0.3,0.1-0.4,0.1c-0.1,0.1-0.2,0.2-0.3,0.4c-0.1,0.3-0.1,0.6,0.1,0.8C217.6,456.7,217.9,456.9,218.3,457L218.3,457z
	 M222.9,456.4c0.2-0.5,0.4-0.9,0.6-1.2c0.3-0.4,0.6-0.6,1-0.8c0.4-0.2,0.8-0.3,1.2-0.4c0.4,0,0.9,0,1.4,0.2c0.6,0.2,1.1,0.5,1.6,0.9
	l-0.7,1.1c-0.1-0.1-0.3-0.2-0.5-0.4l-0.6-0.3c-0.6-0.2-1-0.2-1.5,0.1c-0.4,0.3-0.7,0.7-0.9,1.3c-0.2,0.6-0.2,1.2-0.1,1.6
	c0.2,0.5,0.6,0.8,1.2,1l0.7,0.2h0.7l-0.2,1.2H226c-0.3,0-0.7-0.1-1-0.2c-0.5-0.2-1-0.4-1.3-0.7c-0.3-0.3-0.6-0.6-0.7-1
	c-0.2-0.4-0.2-0.8-0.2-1.2C222.7,457.3,222.8,456.8,222.9,456.4L222.9,456.4z M229.5,461.9l-1.4-0.4l1.9-6.2l1.4,0.4L229.5,461.9z
	 M232.1,453.9c-0.1,0.3-0.2,0.5-0.5,0.6c-0.2,0.1-0.5,0.1-0.7,0.1c-0.2-0.1-0.4-0.2-0.6-0.4c-0.1-0.2-0.1-0.5-0.1-0.7
	c0.1-0.3,0.2-0.5,0.5-0.6c0.2-0.1,0.5-0.1,0.7,0s0.4,0.2,0.5,0.4C232.2,453.4,232.2,453.6,232.1,453.9L232.1,453.9z M238.1,460.9
	c-0.1,0.5-0.3,0.9-0.6,1.3s-0.6,0.7-0.9,0.9c-0.3,0.2-0.7,0.4-1.1,0.4c-0.4,0.1-0.8,0-1.3-0.1c-0.4-0.1-0.8-0.3-1.2-0.6
	c-0.3-0.3-0.6-0.6-0.8-0.9c-0.2-0.4-0.3-0.8-0.3-1.2c0-0.5,0-0.9,0.1-1.4s0.3-0.9,0.6-1.3s0.6-0.7,0.9-0.9c0.4-0.2,0.7-0.3,1.1-0.4
	c0.4-0.1,0.8,0,1.3,0.1c0.4,0.1,0.8,0.3,1.2,0.6c0.3,0.3,0.6,0.6,0.8,0.9c0.2,0.4,0.3,0.8,0.3,1.2
	C238.3,460,238.3,460.4,238.1,460.9z M236.7,460.5c0.2-0.6,0.2-1.2,0-1.6s-0.5-0.7-1-0.9c-0.5-0.1-0.9,0-1.3,0.2
	c-0.4,0.3-0.6,0.8-0.8,1.4s-0.2,1.2,0,1.6s0.5,0.7,1,0.9c0.5,0.1,0.9,0,1.3-0.2C236.2,461.6,236.5,461.2,236.7,460.5z M238.2,454.8
	l-2.5,1.4l-0.5-0.8l2.3-1.6L238.2,454.8z M240.5,458.4h1.2c0.5,0,1,0.1,1.5,0.2s0.9,0.3,1.3,0.5c0.3,0.2,0.5,0.5,0.7,0.8
	c0.1,0.3,0.2,0.6,0.2,1s0,0.8-0.1,1.2l-0.8,3.6l-1.5-0.3l0.8-3.3c0.1-0.3,0.1-0.6,0.1-0.9s0-0.5-0.1-0.6c-0.1-0.2-0.2-0.3-0.3-0.4
	l-0.6-0.3l-0.6-0.1h-0.5l-1.2,5.1l-1.5-0.3L240.5,458.4L240.5,458.4z M327.4,474.5c-0.2,2.6-0.5,4.9-1,7.1c-0.1,0.4-0.2,0.7-0.3,1
	c-0.1,0.3-0.3,0.6-0.4,0.8c-0.2,0.2-0.4,0.4-0.6,0.5s-0.5,0.2-0.9,0.3l-0.7,0.1c-0.2,0-0.4,0-0.5-0.1V483c0.3,0.1,0.6,0.1,0.9,0
	c0.4-0.1,0.7-0.2,0.8-0.5c0.2-0.2,0.3-0.5,0.4-1c-0.6-0.8-1.3-1.7-1.9-2.7s-1.3-2-1.8-3.1l1.6-0.3l0.5,1c0.2,0.4,0.4,0.8,0.6,1.1
	c0.2,0.4,0.5,0.8,0.7,1.1c0.2,0.4,0.5,0.7,0.7,1c0.1-0.8,0.2-1.6,0.3-2.5c0.1-0.9,0.1-1.7,0.1-2.5L327.4,474.5L327.4,474.5z
	 M333.5,472.9c0.5-0.1,0.9-0.2,1.3-0.1c0.4,0,0.7,0.1,0.9,0.3c0.3,0.2,0.5,0.4,0.6,0.7c0.2,0.3,0.3,0.6,0.4,1l1,3.8
	c-0.2,0.1-0.5,0.2-1,0.4c-0.4,0.2-0.9,0.3-1.5,0.5l-1.1,0.2c-0.3,0-0.6,0-0.9-0.2c-0.3-0.1-0.5-0.3-0.7-0.5s-0.3-0.5-0.4-0.9
	s-0.1-0.7,0-1s0.2-0.5,0.4-0.8c0.2-0.2,0.5-0.4,0.8-0.5c0.3-0.2,0.6-0.3,1-0.4l0.5-0.1h0.6l-0.1-0.2c0-0.2-0.1-0.3-0.2-0.5l-0.3-0.4
	c-0.1-0.1-0.3-0.2-0.5-0.2s-0.4,0-0.6,0.1l-0.9,0.3c-0.3,0.1-0.5,0.2-0.6,0.3l-0.5-1.1l0.8-0.4C332.7,473.1,333.1,473,333.5,472.9
	L333.5,472.9z M335,478.3c0.4-0.1,0.8-0.2,1-0.3l-0.4-1.6h-0.4c-0.2,0-0.3,0-0.5,0.1c-0.2,0-0.3,0.1-0.5,0.2s-0.3,0.1-0.4,0.2
	s-0.2,0.2-0.3,0.4c0,0.1-0.1,0.3,0,0.5c0.1,0.3,0.3,0.6,0.5,0.6C334.3,478.4,334.6,478.4,335,478.3L335,478.3z M344.7,476.1
	c0.3,1,0.2,1.8-0.1,2.4c-0.4,0.6-1.1,1.1-2.1,1.4c-0.4,0.1-0.8,0.2-1.2,0.2c-0.4,0-0.7,0.1-1.1,0l-0.1-1.3h0.9
	c0.3,0,0.7-0.1,1.1-0.2c0.6-0.2,1-0.4,1.1-0.7c0.2-0.3,0.2-0.7,0.1-1.2l-0.1-0.2c-0.1,0.1-0.3,0.2-0.5,0.4c-0.2,0.1-0.5,0.3-0.8,0.3
	c-0.4,0.1-0.8,0.2-1.2,0.1c-0.4,0-0.7-0.1-1-0.3c-0.3-0.2-0.6-0.4-0.8-0.8c-0.2-0.3-0.4-0.7-0.6-1.2c-0.1-0.5-0.2-0.9-0.2-1.3
	s0.1-0.8,0.3-1.2c0.2-0.3,0.5-0.7,0.8-0.9c0.3-0.3,0.8-0.5,1.2-0.6l1.4-0.3c0.4,0,0.8-0.1,1.1-0.1L344.7,476.1L344.7,476.1z
	 M339.9,474.6c0.2,0.6,0.4,1,0.8,1.2c0.3,0.2,0.7,0.2,1.2,0.1l0.6-0.3c0.2-0.1,0.3-0.2,0.4-0.4L342,472h-0.4l-0.6,0.1
	c-0.5,0.2-0.9,0.4-1.1,0.9S339.7,474,339.9,474.6L339.9,474.6z M346,467.5c0.1,0.3,0.1,0.5-0.1,0.7c-0.1,0.2-0.3,0.4-0.5,0.4
	c-0.2,0.1-0.5,0.1-0.7,0s-0.4-0.3-0.5-0.6c-0.1-0.3-0.1-0.5,0.1-0.7c0.1-0.2,0.3-0.4,0.6-0.4c0.2-0.1,0.5-0.1,0.7,0
	C345.7,467,345.9,467.2,346,467.5z M348.4,475.6l-1.4,0.5l-2-6.2l1.4-0.5L348.4,475.6z M352.5,474.3c-0.4,0.1-0.8,0.2-1.1,0.2
	c-0.3,0-0.6,0-0.8-0.1c-0.2-0.1-0.4-0.3-0.6-0.5c-0.1-0.2-0.3-0.5-0.4-0.8l-2.4-7.1l1.3-0.7l2.4,7.1c0.1,0.2,0.1,0.3,0.2,0.4
	l0.3,0.3c0.1,0.1,0.2,0.1,0.4,0.1c0.1,0,0.3,0,0.5-0.1L352.5,474.3z M352.7,465.2c0.1,0.3,0.1,0.5,0,0.7s-0.3,0.4-0.5,0.5
	s-0.5,0.1-0.7,0s-0.4-0.3-0.5-0.5c-0.1-0.3-0.1-0.5,0-0.7s0.3-0.4,0.5-0.5s0.5-0.1,0.7,0C352.5,464.7,352.6,464.9,352.7,465.2z
	 M355.4,473.2l-1.4,0.5l-2.2-6.1l1.4-0.5L355.4,473.2z M362.5,470.3c-0.2,0.2-0.6,0.4-1,0.6s-0.8,0.4-1.3,0.6s-0.9,0.3-1.4,0.3
	c-0.4,0-0.8-0.1-1.2-0.3c-0.4-0.2-0.7-0.4-1-0.8c-0.3-0.3-0.5-0.8-0.7-1.2c-0.2-0.5-0.3-0.9-0.3-1.4c0-0.4,0-0.8,0.1-1.2
	c0.1-0.4,0.3-0.7,0.6-1c0.3-0.3,0.6-0.5,1.1-0.7c0.3-0.1,0.6-0.2,0.8-0.2h0.7l-1.1-2.9l1.3-0.8L362.5,470.3z M357.4,469
	c0.2,0.6,0.6,1.1,1,1.3c0.4,0.2,0.9,0.3,1.4,0.1l0.6-0.3c0.2-0.1,0.3-0.2,0.4-0.2l-1.4-3.5c-0.2,0-0.4-0.1-0.6,0l-0.7,0.1
	c-0.5,0.2-0.8,0.5-0.9,1C357.1,467.8,357.1,468.4,357.4,469z M364,462.6c0.5-0.2,0.9-0.3,1.2-0.3c0.4,0,0.7,0,1,0.2
	c0.3,0.1,0.5,0.3,0.7,0.6c0.2,0.3,0.4,0.6,0.5,0.9l1.6,3.6c-0.2,0.1-0.5,0.3-0.9,0.6s-0.9,0.5-1.4,0.7c-0.4,0.2-0.7,0.3-1,0.3
	c-0.3,0.1-0.6,0.1-0.9,0s-0.5-0.2-0.7-0.4c-0.2-0.2-0.4-0.5-0.6-0.8c-0.1-0.3-0.2-0.7-0.2-1s0.1-0.6,0.3-0.8
	c0.2-0.2,0.4-0.5,0.7-0.7c0.3-0.2,0.6-0.4,0.9-0.5l0.5-0.2c0.2-0.1,0.4-0.1,0.6-0.1l-0.1-0.2c-0.1-0.2-0.2-0.3-0.3-0.4
	c-0.1-0.1-0.2-0.2-0.4-0.3c-0.1-0.1-0.3-0.1-0.5-0.1s-0.4,0.1-0.6,0.2l-0.9,0.4c-0.2,0.2-0.4,0.3-0.6,0.4l-0.7-1
	c0.1-0.1,0.4-0.3,0.7-0.5C363.3,462.9,363.6,462.8,364,462.6L364,462.6z M366.3,467.7c0.4-0.2,0.7-0.3,0.9-0.5l-0.7-1.5
	c-0.1,0-0.2,0-0.4,0.1c-0.2,0-0.3,0.1-0.5,0.2s-0.3,0.1-0.4,0.2l-0.4,0.3c-0.1,0.1-0.2,0.2-0.2,0.4c0,0.1,0,0.3,0.1,0.5
	c0.1,0.3,0.3,0.5,0.6,0.5C365.7,467.9,366,467.9,366.3,467.7z M375.9,464.3c-0.2,0.2-0.5,0.4-0.9,0.7c-0.4,0.3-0.8,0.5-1.2,0.7
	c-0.5,0.2-0.9,0.3-1.4,0.4c-0.4,0-0.8,0-1.2-0.2c-0.4-0.1-0.7-0.4-1.1-0.7c-0.3-0.3-0.6-0.7-0.8-1.2c-0.2-0.5-0.4-0.9-0.4-1.4
	c-0.1-0.4,0-0.8,0.1-1.2c0.1-0.4,0.3-0.7,0.5-1c0.3-0.3,0.6-0.5,1-0.8c0.3-0.1,0.6-0.2,0.8-0.3c0.2,0,0.5-0.1,0.7,0l-1.3-2.8
	l1.3-0.9L375.9,464.3L375.9,464.3z M370.7,463.3c0.3,0.6,0.7,1,1.1,1.2s0.9,0.2,1.4,0c0.2-0.1,0.4-0.2,0.5-0.3
	c0.1-0.1,0.3-0.2,0.3-0.2l-1.6-3.4h-0.6c-0.2,0-0.5,0.1-0.7,0.2c-0.5,0.2-0.8,0.6-0.8,1C370.3,462.3,370.4,462.8,370.7,463.3
	L370.7,463.3z M317.3,467.2l-1.6-8.5l5.5-1l0.2,1.3l-3.9,0.7l0.4,2.1l3.5-0.6l0.2,1.3l-3.5,0.6l0.5,2.5l4.2-0.8l0.2,1.3L317.3,467.2
	L317.3,467.2z M325.2,455.8c0.3-0.1,0.6-0.1,0.8-0.1h0.5v1.2h-0.4c-0.2,0-0.3,0-0.5,0.1c-0.5,0.1-0.8,0.3-0.9,0.6
	c-0.1,0.3-0.1,0.7,0,1.1l0.1,0.4l2.3-0.5l0.3,1.2l-2.3,0.5l1.2,5.1l-1.5,0.3l-1.6-6.8c-0.2-0.8-0.1-1.5,0.2-2.1
	C323.7,456.4,324.3,456,325.2,455.8L325.2,455.8z M329.4,456.1c0.1,0.3,0,0.5-0.1,0.7s-0.3,0.3-0.6,0.4c-0.2,0.1-0.5,0-0.7-0.1
	s-0.4-0.3-0.4-0.6c-0.1-0.3,0-0.5,0.1-0.7s0.3-0.3,0.6-0.4c0.2-0.1,0.5,0,0.7,0.1S329.3,455.8,329.4,456.1z M331.1,464.4l-1.5,0.3
	l-1.5-6.4l1.5-0.3L331.1,464.4z M332.1,460.7c-0.1-0.5-0.2-0.9-0.1-1.4c0-0.4,0.1-0.8,0.3-1.2c0.2-0.4,0.4-0.7,0.8-1
	c0.3-0.3,0.7-0.5,1.2-0.6c0.6-0.2,1.2-0.2,1.8-0.1v1.3h-0.6c-0.2,0-0.5,0-0.7,0.1c-0.6,0.2-1,0.5-1.2,0.9s-0.2,1,0,1.6
	s0.4,1.1,0.8,1.4s0.9,0.3,1.6,0.2l0.7-0.3l0.6-0.3l0.5,1.1c-0.1,0.1-0.4,0.3-0.7,0.4c-0.3,0.2-0.6,0.3-1,0.4c-0.5,0.1-1,0.2-1.5,0.1
	c-0.4-0.1-0.8-0.2-1.2-0.4c-0.3-0.2-0.6-0.5-0.9-0.9C332.4,461.6,332.2,461.2,332.1,460.7L332.1,460.7z M338.4,453.6
	c0.1,0.3,0.1,0.5-0.1,0.7c-0.1,0.2-0.3,0.4-0.6,0.4c-0.2,0.1-0.5,0.1-0.7,0s-0.4-0.3-0.5-0.6c-0.1-0.3-0.1-0.5,0.1-0.7
	c0.1-0.2,0.3-0.4,0.6-0.4c0.2-0.1,0.5-0.1,0.7,0.1C338.1,453.1,338.3,453.3,338.4,453.6z M340.6,461.7l-1.4,0.4l-1.9-6.3l1.4-0.4
	L340.6,461.7z M341.3,458.1c-0.2-0.5-0.3-1-0.2-1.5c0-0.5,0.1-0.9,0.3-1.2c0.2-0.4,0.4-0.7,0.7-0.9c0.3-0.3,0.6-0.4,1-0.6
	c0.9-0.3,1.6-0.2,2.3,0.1c0.7,0.4,1.2,1.1,1.5,2.1l0.1,0.3l0.1,0.3l-4.1,1.4c0.2,0.5,0.5,0.8,0.9,1s0.9,0.2,1.5,0
	c0.3-0.1,0.7-0.3,0.9-0.4c0.3-0.2,0.5-0.3,0.6-0.4l0.6,1.1l-0.3,0.2l-0.4,0.3l-0.5,0.3c-0.2,0.1-0.4,0.2-0.6,0.2
	c-0.5,0.2-1,0.3-1.5,0.2c-0.5,0-0.9-0.1-1.2-0.3c-0.4-0.2-0.7-0.5-0.9-0.8C341.7,459,341.5,458.6,341.3,458.1L341.3,458.1z
	 M345.3,456.1c-0.1-0.2-0.2-0.4-0.3-0.5c-0.1-0.2-0.2-0.3-0.4-0.4c-0.1-0.1-0.3-0.2-0.5-0.2s-0.4,0-0.6,0.1s-0.4,0.2-0.5,0.3
	c-0.1,0.1-0.2,0.3-0.3,0.5c-0.1,0.2-0.1,0.4-0.1,0.6v0.6L345.3,456.1L345.3,456.1z M347.5,452.8c0.2-0.2,0.6-0.4,1-0.6
	s0.9-0.5,1.4-0.7s0.9-0.3,1.3-0.3s0.7,0.1,1,0.3c0.3,0.2,0.5,0.4,0.8,0.7c0.2,0.3,0.4,0.7,0.6,1.1l1.3,3.4l-1.4,0.5l-1.2-3.2
	c-0.1-0.3-0.2-0.6-0.4-0.8c-0.1-0.2-0.3-0.4-0.4-0.5c-0.2-0.1-0.3-0.2-0.5-0.2s-0.4,0-0.7,0.1c-0.2,0.1-0.4,0.1-0.5,0.2
	c-0.2,0.1-0.3,0.2-0.4,0.2l1.9,4.9l-1.4,0.5L347.5,452.8L347.5,452.8z M355.2,453.1c-0.2-0.4-0.3-0.9-0.3-1.3s0-0.9,0.2-1.3
	c0.1-0.4,0.4-0.7,0.7-1.1c0.3-0.3,0.7-0.6,1.1-0.8c0.6-0.2,1.2-0.4,1.7-0.4l0.2,1.3c-0.2,0-0.4,0-0.6,0.1c-0.2,0-0.5,0.1-0.7,0.2
	c-0.5,0.2-0.9,0.6-1,1c-0.1,0.5-0.1,1,0.2,1.6c0.3,0.6,0.6,1,1,1.3c0.4,0.2,0.9,0.2,1.6,0c0.2-0.1,0.5-0.2,0.7-0.4
	c0.2-0.1,0.4-0.3,0.5-0.4l0.7,1.1c-0.1,0.1-0.3,0.3-0.6,0.5s-0.6,0.4-0.9,0.5c-0.5,0.2-1,0.3-1.4,0.3s-0.9-0.1-1.2-0.3
	c-0.4-0.2-0.7-0.4-1-0.8C355.7,454,355.4,453.6,355.2,453.1L355.2,453.1z M360.5,445.2c0.1,0.3,0.1,0.5,0,0.7s-0.3,0.4-0.5,0.5
	s-0.5,0.1-0.7,0s-0.4-0.2-0.5-0.5s-0.1-0.5,0-0.7s0.3-0.4,0.5-0.5s0.5-0.1,0.7,0S360.4,444.9,360.5,445.2z M363.8,453l-1.4,0.6
	l-2.7-6l1.4-0.6L363.8,453z M364.8,445.1c0.4-0.2,0.9-0.3,1.2-0.4c0.4,0,0.7,0,1,0.1s0.5,0.3,0.8,0.5c0.2,0.3,0.4,0.5,0.6,0.9
	l1.7,3.6c-0.2,0.1-0.5,0.4-0.9,0.6c-0.4,0.3-0.9,0.5-1.4,0.8c-0.3,0.2-0.7,0.3-1,0.4s-0.6,0.1-0.9,0s-0.5-0.2-0.8-0.4
	c-0.2-0.2-0.4-0.5-0.6-0.8s-0.2-0.7-0.2-1s0.1-0.6,0.3-0.8c0.2-0.3,0.4-0.5,0.6-0.7c0.3-0.2,0.6-0.4,0.9-0.5
	c0.1-0.1,0.3-0.1,0.5-0.2l0.6-0.2l-0.1-0.2c-0.1-0.2-0.2-0.3-0.3-0.4c-0.1-0.1-0.2-0.2-0.4-0.3c-0.1-0.1-0.3-0.1-0.5-0.1
	s-0.4,0.1-0.6,0.2c-0.3,0.2-0.6,0.3-0.8,0.5l-0.6,0.5l-0.7-1c0.1-0.1,0.4-0.3,0.7-0.5C364.1,445.5,364.5,445.3,364.8,445.1
	L364.8,445.1z M367.4,450.1c0.4-0.2,0.7-0.4,0.9-0.5l-0.7-1.5c-0.1,0-0.2,0-0.4,0.1c-0.2,0-0.3,0.1-0.5,0.2l-0.4,0.3l-0.4,0.3
	c-0.1,0.1-0.2,0.3-0.2,0.4s0,0.3,0.1,0.5c0.2,0.3,0.4,0.5,0.6,0.5C366.7,450.4,367,450.3,367.4,450.1z M481.4,233.1
	c-0.1-0.6-0.2-1.2-0.1-1.8s0.3-1.1,0.6-1.5c0.3-0.4,0.7-0.8,1.2-1.1s1.1-0.5,1.8-0.7c0.7-0.2,1.4-0.2,2-0.1c0.6,0.1,1.1,0.3,1.6,0.6
	s0.9,0.7,1.2,1.1c0.3,0.5,0.5,1,0.7,1.6c0.1,0.4,0.1,0.7,0.1,1v0.8l-0.1,0.6c0,0.2-0.1,0.3-0.1,0.3l-1.4-0.2
	c0.1-0.2,0.1-0.5,0.2-0.9c0-0.4,0-0.8-0.1-1.2s-0.2-0.7-0.4-1c-0.2-0.3-0.5-0.5-0.8-0.7s-0.7-0.3-1.1-0.3s-0.9,0-1.4,0.1
	s-0.9,0.2-1.2,0.4c-0.4,0.2-0.7,0.4-0.9,0.7c-0.2,0.3-0.4,0.6-0.5,1s-0.1,0.8,0,1.2c0.1,0.6,0.3,1,0.5,1.3s0.4,0.6,0.5,0.7l-1.2,0.7
	c-0.1-0.1-0.2-0.2-0.3-0.4c-0.1-0.2-0.2-0.3-0.3-0.6c-0.1-0.2-0.2-0.5-0.3-0.8C481.5,233.8,481.5,233.5,481.4,233.1L481.4,233.1z
	 M489.5,238c0.1,0.5,0.1,0.9,0,1.3s-0.2,0.7-0.4,0.9c-0.2,0.2-0.4,0.4-0.7,0.6c-0.3,0.2-0.6,0.3-1,0.3l-4,0.7
	c-0.1-0.2-0.2-0.6-0.4-1c-0.2-0.5-0.3-1-0.4-1.6c-0.1-0.4-0.1-0.8-0.1-1.1s0.1-0.6,0.2-0.9c0.1-0.3,0.3-0.5,0.6-0.7
	c0.2-0.2,0.6-0.3,1-0.4c0.4-0.1,0.7-0.1,1,0s0.5,0.3,0.7,0.5s0.4,0.5,0.5,0.8l0.3,1l0.1,0.5v0.6h0.2c0.2,0,0.3-0.1,0.5-0.2l0.4-0.3
	c0.1-0.1,0.2-0.3,0.2-0.5v-0.7c-0.1-0.4-0.1-0.7-0.2-0.9c-0.1-0.3-0.2-0.5-0.3-0.7l1.2-0.4l0.4,0.8
	C489.3,237.2,489.4,237.6,489.5,238L489.5,238z M483.9,239.2c0.1,0.5,0.2,0.8,0.3,1l1.7-0.3v-0.4c0-0.2,0-0.3-0.1-0.5l-0.1-0.5
	c-0.1-0.2-0.1-0.3-0.2-0.4l-0.3-0.3c-0.1-0.1-0.3-0.1-0.5,0c-0.4,0.1-0.6,0.2-0.7,0.5S483.8,238.8,483.9,239.2L483.9,239.2z
	 M487.7,249.1c-0.5,0.1-1,0.1-1.4,0s-0.8-0.2-1.2-0.4c-0.3-0.2-0.6-0.5-0.8-0.8c-0.2-0.3-0.4-0.7-0.4-1.2c0-0.3-0.1-0.6,0-0.9
	c0-0.3,0.1-0.5,0.2-0.7l-2.6,0.4l-0.2-1.5l8.7-1.3c0.1,0.3,0.3,0.7,0.4,1.1c0.1,0.4,0.2,0.9,0.3,1.4c0.1,0.5,0.1,1,0,1.4
	s-0.3,0.8-0.5,1.2c-0.3,0.3-0.6,0.6-1,0.8C488.7,248.9,488.3,249,487.7,249.1z M487.5,247.6c0.7-0.1,1.2-0.3,1.5-0.7
	s0.4-0.9,0.3-1.6l-0.1-0.4c0-0.2-0.1-0.3-0.2-0.4l-3.8,0.6c-0.1,0.1-0.1,0.3-0.2,0.6c0,0.2-0.1,0.5,0,0.7c0.1,0.6,0.3,0.9,0.7,1.1
	C486.3,247.6,486.8,247.7,487.5,247.6L487.5,247.6z M484.8,252.7l-0.2-1.5l6.6-0.7l0.2,1.5L484.8,252.7z M493.3,251.9
	c-0.3,0-0.5,0-0.7-0.2s-0.3-0.4-0.3-0.6c0-0.3,0-0.5,0.2-0.7c0.1-0.2,0.4-0.3,0.7-0.4c0.3,0,0.5,0,0.7,0.2s0.3,0.4,0.3,0.6
	c0,0.3,0,0.5-0.2,0.7C493.9,251.8,493.6,251.9,493.3,251.9z M493.4,253.7l0.4,1.5l-2,0.2l0.2,2.4l-1.3,0.1l-0.2-2.4l-2.7,0.3
	c-0.5,0-0.9,0.2-1.1,0.4s-0.3,0.5-0.3,0.9c0,0.3,0.1,0.5,0.2,0.7s0.2,0.4,0.2,0.5l-1.2,0.4c-0.1-0.2-0.2-0.4-0.3-0.7
	c-0.1-0.3-0.2-0.6-0.2-1c0-0.5,0-0.9,0.1-1.2s0.3-0.6,0.5-0.8s0.5-0.4,0.8-0.5s0.7-0.2,1.2-0.2L493.4,253.7L493.4,253.7z
	 M492.5,261.5c0,0.5,0,0.9-0.1,1.3s-0.3,0.6-0.5,0.9c-0.2,0.2-0.5,0.4-0.8,0.5s-0.7,0.2-1.1,0.2l-4,0.3c-0.1-0.2-0.2-0.6-0.3-1.1
	c-0.1-0.5-0.2-1-0.2-1.6v-1.1c0-0.3,0.2-0.6,0.3-0.9l0.6-0.6c0.3-0.1,0.6-0.2,1-0.3c0.4,0,0.7,0,1,0.2c0.3,0.1,0.5,0.3,0.7,0.6
	c0.2,0.2,0.3,0.5,0.4,0.9c0.1,0.3,0.2,0.7,0.2,1v0.5c0,0.2,0,0.4-0.1,0.6h0.3c0.2,0,0.3,0,0.5-0.1s0.3-0.1,0.4-0.2l0.3-0.4
	c0.1-0.2,0.1-0.4,0.1-0.7c0-0.4-0.1-0.7-0.1-1c-0.1-0.3-0.1-0.5-0.2-0.7l1.2-0.3c0.1,0.2,0.2,0.5,0.3,0.8
	C492.4,260.7,492.4,261.1,492.5,261.5L492.5,261.5z M486.7,262.1c0,0.5,0.1,0.8,0.1,1.1l1.7-0.1v-0.9c0-0.2,0-0.3-0.1-0.5
	c0-0.2-0.1-0.3-0.2-0.5l-0.3-0.3c-0.1-0.1-0.3-0.1-0.5-0.1c-0.4,0-0.6,0.2-0.7,0.4C486.8,261.4,486.7,261.7,486.7,262.1z
	 M485.9,268.8c0-0.5,0-0.8,0.1-1.1c0.1-0.3,0.2-0.5,0.4-0.7c0.2-0.2,0.4-0.3,0.6-0.4c0.3-0.1,0.5-0.1,0.9-0.1l7.6-0.3l0.3,1.5
	l-7.6,0.3c-0.2,0-0.3,0-0.5,0.1c-0.1,0-0.2,0.1-0.3,0.2l-0.2,0.3c0,0.1-0.1,0.3-0.1,0.5L485.9,268.8L485.9,268.8z M464.6,230.7
	l9.4-2.2l0.6,1.4l-3.2,0.7l0.3,0.5c0.1,0.2,0.2,0.4,0.2,0.6c0.1,0.5,0.1,1,0.1,1.3c-0.1,0.4-0.2,0.7-0.4,1c-0.2,0.3-0.5,0.5-0.8,0.7
	s-0.7,0.3-1.2,0.4l-3.6,0.8l-0.4-1.5l3.4-0.8l0.9-0.3c0.2-0.1,0.4-0.2,0.5-0.4c0.1-0.1,0.2-0.3,0.2-0.5v-0.7c0-0.2-0.1-0.4-0.2-0.6
	c-0.1-0.2-0.2-0.3-0.2-0.4l-5.1,1.2L464.6,230.7L464.6,230.7z M467.5,243.2c-0.1-0.3-0.3-0.6-0.4-1.1c-0.2-0.5-0.3-1-0.4-1.5
	s-0.1-1,0-1.4s0.2-0.7,0.5-1c0.2-0.3,0.5-0.5,0.9-0.6c0.4-0.2,0.7-0.3,1.2-0.4l3.7-0.7l0.3,1.5l-3.4,0.7c-0.7,0.1-1.2,0.3-1.4,0.6
	c-0.3,0.3-0.3,0.6-0.2,1.2l0.1,0.6c0.1,0.2,0.1,0.3,0.1,0.4l5.3-1l0.3,1.5L467.5,243.2z M471.6,248.3c0.7-0.1,1.2-0.3,1.5-0.5
	s0.4-0.6,0.3-1l-0.1-0.5c-0.1-0.2-0.1-0.3-0.1-0.4l-5.3,0.8l-0.2-1.5l6.4-1c0.1,0.3,0.3,0.7,0.4,1.1c0.1,0.5,0.3,1,0.3,1.5
	c0.1,0.5,0.1,0.8,0,1.1s-0.2,0.6-0.4,0.8l0.3,0.3l0.3,0.4c0.1,0.2,0.2,0.3,0.2,0.5l0.2,0.6c0.1,0.5,0.1,0.9,0,1.3s-0.3,0.6-0.5,0.9
	c-0.2,0.2-0.5,0.4-0.9,0.5l-1.2,0.3l-3.7,0.6l-0.2-1.5l3.5-0.5c0.7-0.1,1.2-0.3,1.4-0.5c0.3-0.2,0.4-0.6,0.3-1
	c0-0.2-0.1-0.5-0.2-0.7s-0.2-0.4-0.3-0.5c-0.2,0.1-0.4,0.2-0.6,0.2l-0.7,0.2l-3.6,0.6l-0.2-1.5L471.6,248.3L471.6,248.3z
	 M476.1,257.4c0,0.5,0,0.9-0.1,1.3s-0.2,0.7-0.5,0.9c-0.2,0.2-0.5,0.4-0.8,0.5s-0.7,0.2-1.1,0.2l-4,0.4c-0.1-0.2-0.2-0.6-0.3-1.1
	c-0.1-0.5-0.2-1-0.3-1.6v-1.1c0-0.3,0.1-0.6,0.3-0.9c0.1-0.2,0.4-0.4,0.6-0.6c0.3-0.2,0.6-0.3,1-0.3s0.7,0,1,0.1s0.5,0.3,0.7,0.5
	s0.3,0.5,0.4,0.8c0.1,0.3,0.2,0.7,0.2,1v1.1h0.2l0.5-0.1c0.2-0.1,0.3-0.1,0.4-0.3c0.1-0.1,0.2-0.3,0.2-0.4c0.1-0.2,0.1-0.4,0-0.7
	c0-0.4-0.1-0.7-0.2-1c-0.1-0.3-0.2-0.5-0.2-0.7l1.2-0.3c0.1,0.2,0.2,0.5,0.3,0.8C476,256.6,476,257,476.1,257.4L476.1,257.4z
	 M470.4,258.1c0,0.5,0.1,0.8,0.2,1.1l1.7-0.2v-0.9c0-0.2,0-0.3-0.1-0.5c0-0.2-0.1-0.3-0.2-0.5l-0.3-0.3c-0.1-0.1-0.3-0.1-0.5-0.1
	c-0.4,0-0.6,0.2-0.7,0.4C470.4,257.4,470.3,257.7,470.4,258.1z M476.1,262.2c0.1,0.3,0.2,0.7,0.3,1.1c0.1,0.5,0.2,1,0.2,1.6
	c0,0.5,0,1-0.1,1.4s-0.3,0.7-0.6,0.9c-0.3,0.2-0.6,0.4-0.9,0.5c-0.4,0.1-0.8,0.2-1.2,0.2l-3.7,0.2l-0.1-1.5l3.5-0.2
	c0.4,0,0.7-0.1,0.9-0.1l0.6-0.3c0.2-0.1,0.3-0.3,0.3-0.5c0.1-0.2,0.1-0.4,0.1-0.7c0-0.2,0-0.4-0.1-0.6c0-0.2-0.1-0.4-0.1-0.5
	l-5.4,0.3l-0.1-1.5L476.1,262.2L476.1,262.2z M473.5,275.9c-0.5,0-1-0.1-1.4-0.2s-0.8-0.4-1.1-0.6c-0.3-0.3-0.6-0.6-0.7-1
	c-0.2-0.4-0.3-0.8-0.3-1.3s0.1-0.9,0.2-1.3c0.2-0.4,0.4-0.7,0.7-1c0.3-0.3,0.7-0.5,1.1-0.7s0.9-0.3,1.4-0.3s1,0.1,1.4,0.2
	s0.8,0.4,1.1,0.6c0.3,0.3,0.6,0.6,0.7,1c0.2,0.4,0.3,0.8,0.3,1.3s-0.1,0.9-0.2,1.3c-0.2,0.4-0.4,0.7-0.7,1c-0.3,0.3-0.7,0.5-1.1,0.7
	S474,275.8,473.5,275.9z M473.5,274.3c0.7,0,1.2-0.2,1.6-0.5s0.6-0.7,0.6-1.2s-0.2-0.9-0.6-1.2c-0.4-0.3-0.9-0.4-1.6-0.4
	s-1.2,0.2-1.6,0.5s-0.6,0.7-0.6,1.2s0.2,0.9,0.6,1.2C472.3,274.2,472.8,274.3,473.5,274.3z M90.9,256.6l1.4,0.1l-0.5,5.5l-8.8-0.7
	l0.1-1.6l7.4,0.6L90.9,256.6z M84.1,252.9c0.3,0,0.5,0.1,0.7,0.4c0.1,0.2,0.2,0.4,0.2,0.7s-0.1,0.5-0.3,0.6
	c-0.2,0.2-0.4,0.2-0.7,0.2c-0.3,0-0.5-0.2-0.7-0.4c-0.1-0.2-0.2-0.4-0.2-0.7c0-0.2,0.1-0.5,0.3-0.6C83.5,253,83.8,252.9,84.1,252.9z
	 M92.6,254l-0.2,1.5l-6.6-0.7l0.2-1.5L92.6,254z M93.4,246.6c0.1,0.3,0.1,0.7,0.1,1.2s0,1-0.1,1.5s-0.2,1-0.4,1.4
	c-0.2,0.4-0.5,0.7-0.8,1c-0.3,0.2-0.7,0.4-1.2,0.5c-0.4,0.1-0.9,0.1-1.5,0c-0.5-0.1-1-0.2-1.4-0.4s-0.7-0.4-1-0.7s-0.5-0.6-0.6-1
	s-0.1-0.8-0.1-1.3c0-0.3,0.1-0.6,0.2-0.8l0.3-0.6l-3.2-0.4v-1.6L93.4,246.6L93.4,246.6z M89.7,250.5c0.7,0.1,1.2,0,1.6-0.3
	s0.7-0.7,0.8-1.2c0-0.2,0.1-0.5,0.1-0.6V248l-3.8-0.5c-0.1,0.1-0.2,0.3-0.3,0.5c-0.1,0.2-0.2,0.4-0.2,0.7c-0.1,0.6,0.1,1,0.4,1.3
	C88.5,250.2,89,250.4,89.7,250.5z M90.6,244.6c-0.6-0.1-1.1-0.3-1.5-0.5s-0.7-0.5-1-0.9c-0.2-0.3-0.4-0.7-0.5-1.1
	c-0.1-0.4-0.1-0.8,0-1.2c0.2-0.9,0.5-1.6,1.2-2c0.6-0.4,1.5-0.5,2.6-0.4c0.1,0,0.2,0,0.3,0.1c0.1,0,0.2,0,0.3,0.1l-0.7,4.3
	c0.5,0,1-0.1,1.3-0.4c0.3-0.3,0.6-0.7,0.7-1.4c0.1-0.4,0.1-0.7,0.1-1s0-0.6-0.1-0.8h1.3c0,0.1,0.1,0.2,0.1,0.4v1.1
	c0,0.2,0,0.4-0.1,0.7c-0.1,0.6-0.3,1.1-0.5,1.5s-0.5,0.7-0.9,0.9s-0.7,0.4-1.2,0.4C91.6,244.6,91.1,244.6,90.6,244.6L90.6,244.6z
	 M90.6,240H90c-0.2,0-0.4,0.1-0.5,0.2c-0.2,0.1-0.3,0.2-0.4,0.4c-0.1,0.1-0.2,0.3-0.2,0.6v0.6c0.1,0.2,0.2,0.4,0.3,0.5l0.4,0.4
	c0.2,0.1,0.4,0.2,0.5,0.2C90.1,242.9,90.6,240,90.6,240z M90.8,232.9c-0.1,0.1-0.1,0.3-0.2,0.5s-0.2,0.5-0.2,0.8l-0.1,0.5v0.4
	l5.2,1.1l-0.3,1.5l-6.2-1.3c0-0.3-0.1-0.7-0.1-1.2s0-0.9,0.2-1.5l0.1-0.3l0.1-0.4c0-0.1,0.1-0.3,0.2-0.4c0.1-0.1,0.1-0.2,0.1-0.3
	L90.8,232.9L90.8,232.9z M90.1,229c0.1-0.5,0.3-0.9,0.5-1.2s0.4-0.5,0.7-0.7c0.3-0.1,0.6-0.2,0.9-0.2s0.7,0,1.1,0.1l3.9,0.9
	c0,0.2,0,0.6-0.1,1.1c0,0.5-0.1,1-0.3,1.6c-0.1,0.4-0.2,0.7-0.4,1c-0.2,0.3-0.3,0.5-0.6,0.7c-0.2,0.2-0.5,0.3-0.8,0.4
	c-0.3,0.1-0.6,0.1-1,0s-0.7-0.2-0.9-0.4c-0.2-0.2-0.4-0.5-0.5-0.7c-0.1-0.3-0.1-0.6-0.1-0.9l0.1-1c0-0.2,0.1-0.3,0.2-0.5
	s0.2-0.4,0.2-0.6l-0.2-0.1l-0.5-0.1c-0.2,0-0.3,0-0.5,0.1l-0.4,0.3l-0.3,0.6l-0.2,1v0.7l-1.3-0.1v-0.9C90,229.8,90,229.4,90.1,229
	L90.1,229z M95.7,230.2c0.1-0.5,0.2-0.8,0.2-1.1l-1.7-0.4c0,0.1-0.1,0.2-0.2,0.3s-0.1,0.3-0.2,0.5l-0.1,0.5v0.5
	c0,0.2,0.1,0.3,0.2,0.4c0.1,0.1,0.2,0.2,0.4,0.2c0.4,0.1,0.6,0,0.8-0.2C95.5,230.8,95.6,230.6,95.7,230.2z M93.7,220.2
	c0.1,0.2,0.3,0.5,0.5,0.8c0.2,0.4,0.5,0.7,0.8,1.1l0.9,1.2c0.3,0.4,0.6,0.8,1,1.2l0.9-3.3l1.2,0.3l-1.4,5.1l-0.9-0.3
	c-0.3-0.3-0.6-0.6-0.9-1l-0.9-1.2l-0.9-1.2c-0.3-0.4-0.5-0.7-0.7-1l-0.8,3l-1.2-0.3l1.3-4.9L93.7,220.2L93.7,220.2z M100.4,215.1
	c1,0.3,1.7,0.8,2,1.5s0.3,1.5,0,2.6c-0.1,0.4-0.3,0.8-0.5,1.1s-0.4,0.7-0.6,0.9l-1.2-0.7c0.2-0.2,0.4-0.5,0.5-0.8
	c0.2-0.3,0.3-0.6,0.4-1c0.2-0.6,0.2-1.1,0-1.4c-0.2-0.3-0.5-0.6-1-0.7l-0.2-0.1v0.6c0,0.3-0.1,0.5-0.1,0.9c-0.1,0.4-0.3,0.8-0.5,1.1
	s-0.5,0.5-0.8,0.7s-0.7,0.2-1.1,0.3c-0.4,0-0.9-0.1-1.4-0.2c-0.5-0.1-0.9-0.3-1.2-0.6c-0.3-0.3-0.6-0.6-0.8-0.9
	c-0.2-0.4-0.3-0.8-0.3-1.2s0-0.9,0.2-1.4c0.1-0.5,0.3-0.9,0.5-1.3s0.4-0.7,0.6-1L100.4,215.1L100.4,215.1z M96.4,218.4
	c0.6,0.2,1.1,0.2,1.5,0s0.6-0.5,0.8-0.9c0.1-0.2,0.1-0.5,0.1-0.7s0-0.4-0.1-0.6l-3.3-1c-0.1,0.1-0.1,0.2-0.2,0.4
	c-0.1,0.1-0.1,0.3-0.2,0.6c-0.2,0.5-0.1,1,0.2,1.4C95.4,217.9,95.9,218.2,96.4,218.4z M100.5,206.8c0.5,0.2,0.9,0.4,1.3,0.7
	s0.6,0.6,0.8,1c0.2,0.4,0.3,0.8,0.3,1.2s0,0.9-0.2,1.3s-0.4,0.8-0.7,1.1c-0.3,0.3-0.6,0.6-1,0.7c-0.4,0.2-0.8,0.2-1.3,0.2
	s-0.9-0.1-1.4-0.3s-0.9-0.4-1.3-0.7c-0.3-0.3-0.6-0.6-0.8-1c-0.2-0.4-0.3-0.8-0.3-1.2s0-0.9,0.2-1.3s0.4-0.8,0.7-1.1
	c0.3-0.3,0.6-0.6,1-0.7c0.4-0.2,0.8-0.2,1.3-0.2C99.5,206.5,100,206.6,100.5,206.8z M100,208.2c-0.6-0.2-1.2-0.3-1.6-0.1
	c-0.5,0.1-0.8,0.5-0.9,0.9c-0.2,0.5-0.1,0.9,0.1,1.3c0.3,0.4,0.7,0.7,1.3,0.9c0.6,0.2,1.2,0.3,1.6,0.1c0.5-0.1,0.8-0.4,0.9-0.9
	c0.2-0.5,0.1-0.9-0.2-1.3C101.1,208.8,100.6,208.5,100,208.2z M159.2,128.7c-0.3-0.2-0.6-0.4-1-0.5c-0.3-0.2-0.6-0.4-1-0.5l-2.8,2.4
	l0.4,1l0.4,1l-1.2,1.1c-0.4-0.9-0.7-1.8-1-2.6s-0.6-1.6-0.8-2.3c-0.3-0.7-0.5-1.4-0.7-2.1l-0.6-2l1.2-1l1.9,0.9c0.6,0.3,1.3,0.6,2,1
	c0.7,0.3,1.4,0.7,2.1,1.1c0.8,0.4,1.6,0.8,2.4,1.3L159.2,128.7L159.2,128.7z M152.6,125c0.2,0.5,0.3,1,0.6,1.7
	c0.2,0.6,0.5,1.3,0.8,2.1l2.2-1.9c-0.7-0.4-1.4-0.7-2-1.1L152.6,125z M164.4,118.8c0.5,0.6,0.8,1.2,1,1.8c0.2,0.6,0.2,1.2,0.1,1.7
	c-0.1,0.6-0.3,1.1-0.7,1.6s-0.8,1-1.4,1.5c-0.3,0.2-0.6,0.5-1,0.7c-0.4,0.3-0.7,0.5-1.1,0.7l-5.3-6.7l0.9-0.9
	c0.3-0.3,0.7-0.6,0.9-0.8c0.6-0.5,1.2-0.8,1.7-1.1c0.6-0.2,1.2-0.4,1.7-0.3c0.6,0,1.1,0.2,1.7,0.5
	C163.4,117.7,163.9,118.2,164.4,118.8L164.4,118.8z M161.8,124.9l0.3-0.2c0.1-0.1,0.3-0.2,0.5-0.4c0.8-0.7,1.3-1.4,1.4-2.1
	c0.1-0.8-0.2-1.5-0.8-2.3s-1.3-1.2-2-1.3c-0.7-0.1-1.5,0.2-2.4,0.9c-0.4,0.3-0.6,0.5-0.8,0.7C158,120.2,161.8,124.9,161.8,124.9z
	 M173.3,117.8c-0.5-0.2-1.1-0.5-1.7-0.7c-0.6-0.2-1.2-0.5-1.9-0.7l-1.9-0.7c-0.6-0.2-1.2-0.4-1.7-0.5l3.6,5.2l-1.3,0.9l-5.1-7.2
	l1.1-0.8c0.5,0.1,1,0.2,1.6,0.4l1.8,0.6l1.8,0.6c0.6,0.2,1.2,0.4,1.7,0.6l-3.4-4.8l1.3-0.9l5.1,7.2L173.3,117.8L173.3,117.8z
	 M404.9,103.2c0,0.4-0.1,0.8-0.2,1.3s-0.2,1-0.3,1.6l-0.3,1.7c-0.1,0.6-0.2,1.1-0.3,1.6c0.4-0.2,0.9-0.5,1.4-0.8l1.5-0.9
	c0.5-0.3,1-0.5,1.4-0.8c0.5-0.2,0.9-0.4,1.2-0.6l1.2,0.8l-1,1.8c-0.4,0.6-0.8,1.3-1.1,1.9l-1.2,1.9c-0.4,0.7-0.8,1.3-1.2,1.9
	l-1.3-0.9c0.6-0.9,1.2-1.7,1.7-2.6l1.7-2.7c-0.2,0.1-0.4,0.2-0.7,0.4c-0.3,0.1-0.5,0.3-0.8,0.5s-0.6,0.4-0.9,0.5
	c-0.3,0.2-0.6,0.4-0.9,0.5c-0.3,0.2-0.6,0.3-0.8,0.5c-0.3,0.2-0.5,0.3-0.7,0.4l-1-0.7c0-0.2,0.1-0.5,0.2-0.8s0.1-0.6,0.2-1
	c0.1-0.3,0.1-0.7,0.2-1.1s0.1-0.7,0.2-1l0.2-1c0.1-0.3,0.1-0.6,0.1-0.8l-2,2.4c-0.7,0.9-1.3,1.7-1.9,2.5l-1.3-0.9l1.4-1.8l1.5-1.8
	c0.5-0.6,1-1.2,1.5-1.7s0.9-1,1.3-1.5L404.9,103.2L404.9,103.2z M413.9,116.9c-0.3,0.4-0.7,0.7-1.1,1c-0.4,0.2-0.8,0.4-1.2,0.5
	c-0.4,0.1-0.8,0-1.2-0.1c-0.4-0.1-0.8-0.3-1.2-0.6c-0.4-0.3-0.7-0.6-0.9-1c-0.2-0.4-0.3-0.8-0.3-1.2c0-0.4,0-0.8,0.2-1.3
	c0.1-0.4,0.4-0.9,0.7-1.3c0.3-0.4,0.7-0.7,1.1-1c0.4-0.2,0.8-0.4,1.2-0.5c0.4-0.1,0.8,0,1.2,0.1c0.4,0.1,0.8,0.3,1.2,0.6
	c0.4,0.3,0.7,0.6,0.9,1c0.2,0.4,0.3,0.8,0.4,1.2c0,0.4,0,0.8-0.2,1.3L413.9,116.9L413.9,116.9z M412.6,115.9c0.4-0.5,0.6-1,0.6-1.5
	s-0.2-0.9-0.6-1.2c-0.4-0.3-0.8-0.4-1.3-0.3s-0.9,0.5-1.3,1s-0.6,1-0.7,1.5c0,0.5,0.2,0.9,0.6,1.2c0.4,0.3,0.8,0.4,1.3,0.3
	C411.8,116.8,412.2,116.4,412.6,115.9z M417.4,123.9c-0.3-0.1-0.6-0.3-1-0.5s-0.8-0.5-1.2-0.8c-0.4-0.3-0.7-0.7-0.9-1.1
	c-0.2-0.4-0.3-0.8-0.4-1.2c0-0.4,0-0.8,0.2-1.3c0.2-0.4,0.4-0.9,0.7-1.3c0.3-0.4,0.7-0.7,1.1-1c0.4-0.2,0.8-0.4,1.1-0.5
	c0.4-0.1,0.8-0.1,1.2,0c0.4,0.1,0.8,0.3,1.1,0.6l0.6,0.6c0.1,0.2,0.3,0.4,0.3,0.6l2-2.5l1.3,0.8L417.4,123.9L417.4,123.9z
	 M416,118.7c-0.4,0.5-0.6,1-0.6,1.5s0.2,0.9,0.7,1.3c0.2,0.2,0.4,0.3,0.5,0.4s0.3,0.2,0.4,0.2l2.4-2.9c0-0.2-0.1-0.3-0.2-0.5
	s-0.3-0.4-0.5-0.5c-0.4-0.4-0.9-0.5-1.3-0.3C416.9,117.9,416.5,118.2,416,118.7z M420.6,122.7c0.4-0.4,0.8-0.8,1.2-1
	c0.4-0.2,0.8-0.3,1.3-0.3c0.4,0,0.8,0,1.2,0.2c0.4,0.1,0.7,0.3,1,0.6c0.7,0.6,1,1.3,1,2.1s-0.4,1.6-1.1,2.4l-0.2,0.2l-0.2,0.2
	l-3.2-3c-0.3,0.4-0.5,0.9-0.4,1.3c0,0.4,0.3,0.9,0.8,1.3c0.3,0.2,0.6,0.5,0.8,0.6c0.3,0.2,0.5,0.3,0.7,0.3l-0.7,1.1l-0.3-0.1
	c-0.1-0.1-0.3-0.2-0.5-0.3l-0.5-0.3c-0.2-0.1-0.4-0.3-0.5-0.4c-0.4-0.4-0.7-0.8-0.9-1.2c-0.2-0.4-0.3-0.8-0.3-1.3
	c0-0.4,0.1-0.8,0.3-1.2C420,123.4,420.3,123,420.6,122.7L420.6,122.7z M424.4,125.2c0.1-0.2,0.3-0.3,0.3-0.5
	c0.1-0.2,0.1-0.4,0.1-0.5c0-0.2,0-0.4-0.1-0.5c-0.1-0.2-0.2-0.3-0.4-0.5s-0.4-0.3-0.6-0.3c-0.2-0.1-0.4-0.1-0.6,0
	c-0.2,0-0.4,0.1-0.5,0.2l-0.5,0.3L424.4,125.2L424.4,125.2z M425.5,131.9c-0.3-0.3-0.6-0.6-0.7-0.9c-0.2-0.3-0.2-0.5-0.2-0.8
	c0-0.2,0.1-0.5,0.2-0.7s0.3-0.5,0.5-0.7l5.3-5.5l1.3,0.9l-5.3,5.5l-0.3,0.4c-0.1,0.1-0.1,0.2-0.1,0.3s0,0.2,0.1,0.4l0.3,0.4
	L425.5,131.9L425.5,131.9z M433.2,134.8c-0.4,0.4-0.8,0.6-1.2,0.8c-0.4,0.2-0.8,0.3-1.2,0.3c-0.4,0-0.8-0.1-1.2-0.2
	c-0.4-0.2-0.8-0.4-1.1-0.8c-0.3-0.3-0.6-0.7-0.7-1.1c-0.2-0.4-0.2-0.8-0.2-1.2s0.1-0.8,0.3-1.2c0.2-0.4,0.5-0.8,0.9-1.2
	s0.8-0.6,1.2-0.8c0.4-0.2,0.8-0.3,1.2-0.3c0.4,0,0.8,0.1,1.2,0.2c0.4,0.2,0.8,0.4,1.1,0.7c0.3,0.3,0.6,0.7,0.7,1.1
	c0.2,0.4,0.2,0.8,0.2,1.2s-0.1,0.8-0.3,1.2C433.9,134,433.6,134.4,433.2,134.8z M432.1,133.6c0.5-0.5,0.7-0.9,0.8-1.4
	c0.1-0.5-0.1-0.9-0.4-1.3c-0.4-0.4-0.8-0.5-1.2-0.4c-0.5,0.1-0.9,0.3-1.4,0.8s-0.8,0.9-0.8,1.4c-0.1,0.5,0.1,0.9,0.4,1.3
	c0.4,0.4,0.8,0.5,1.2,0.4C431.2,134.4,431.6,134.1,432.1,133.6z M437.7,144.4c-0.3-0.2-0.6-0.4-1-0.7s-0.7-0.6-1-1
	c-0.4-0.4-0.6-0.8-0.8-1.2c-0.2-0.4-0.2-0.8-0.2-1.3c0-0.4,0.2-0.8,0.4-1.2c0.2-0.4,0.5-0.8,0.9-1.1s0.8-0.6,1.2-0.8
	c0.4-0.2,0.8-0.3,1.2-0.3c0.4,0,0.8,0.1,1.1,0.2c0.4,0.2,0.7,0.4,1,0.8c0.2,0.2,0.4,0.5,0.5,0.7s0.2,0.4,0.2,0.6l2.4-2.1l1.2,1
	L437.7,144.4L437.7,144.4z M437.2,139c-0.5,0.4-0.8,0.9-0.9,1.4s0.1,1,0.5,1.4c0.2,0.2,0.3,0.3,0.4,0.5l0.3,0.3l2.9-2.5
	c0-0.2-0.1-0.4-0.2-0.6c-0.1-0.2-0.2-0.4-0.4-0.6c-0.4-0.4-0.8-0.6-1.2-0.5C438.1,138.4,437.6,138.6,437.2,139L437.2,139z
	 M441.1,143.6c0.5-0.4,0.9-0.6,1.4-0.8c0.5-0.1,0.9-0.2,1.3-0.2s0.8,0.2,1.1,0.3c0.4,0.2,0.7,0.4,0.9,0.7c0.6,0.7,0.8,1.4,0.7,2.2
	c-0.1,0.8-0.6,1.5-1.5,2.2l-0.2,0.2c-0.1,0.1-0.2,0.1-0.2,0.2l-2.8-3.4c-0.4,0.4-0.6,0.8-0.6,1.2s0.2,0.9,0.6,1.4
	c0.2,0.3,0.5,0.5,0.7,0.7s0.5,0.3,0.6,0.4l-0.8,1c-0.1,0-0.2-0.1-0.3-0.2l-0.4-0.3l-0.5-0.4l-0.5-0.5c-0.4-0.5-0.6-0.9-0.8-1.3
	c-0.1-0.4-0.2-0.9-0.1-1.3s0.2-0.8,0.4-1.2L441.1,143.6L441.1,143.6z M444.5,146.6c0.2-0.1,0.3-0.3,0.4-0.5s0.2-0.3,0.2-0.5v-0.5
	c0-0.2-0.1-0.4-0.3-0.5c-0.2-0.2-0.3-0.3-0.5-0.4c-0.2-0.1-0.4-0.1-0.6-0.1s-0.4,0-0.6,0.1s-0.4,0.2-0.5,0.3L444.5,146.6
	L444.5,146.6z M380.3,107.1l1.5,0.5l-1,1.7l2,1.2l-0.6,1.1l-2-1.2l-1.4,2.3c-0.3,0.5-0.4,0.8-0.4,1.1c0,0.3,0.2,0.5,0.6,0.7l0.7,0.3
	c0.2,0.1,0.4,0.1,0.5,0.1l-0.4,1.2c-0.2,0-0.4-0.1-0.7-0.1c-0.3-0.1-0.6-0.2-0.9-0.4c-0.4-0.2-0.7-0.5-0.9-0.8
	c-0.2-0.3-0.3-0.6-0.4-0.9c0-0.3,0-0.6,0.1-1c0.1-0.3,0.3-0.7,0.5-1.1L380.3,107.1L380.3,107.1z M386.7,114.6l-0.4-0.4l-0.6-0.5
	c-0.1-0.1-0.3-0.2-0.5-0.2c-0.2-0.1-0.3-0.1-0.4-0.1l-2.8,4.5l-1.3-0.8l3.3-5.4c0.3,0.1,0.7,0.2,1.1,0.3c0.4,0.2,0.9,0.4,1.3,0.7
	l0.3,0.2l0.3,0.3l0.3,0.3l0.2,0.2L386.7,114.6z M390.6,115.3c0.4,0.3,0.7,0.6,1,0.9c0.2,0.3,0.4,0.6,0.4,0.9s0,0.6-0.1,0.9
	s-0.3,0.6-0.5,1l-2.2,3.4c-0.2-0.1-0.6-0.2-1-0.4s-0.9-0.5-1.4-0.8c-0.3-0.2-0.6-0.5-0.8-0.7c-0.2-0.2-0.4-0.5-0.5-0.8
	s-0.1-0.6-0.1-0.9s0.2-0.6,0.4-0.9c0.2-0.3,0.5-0.5,0.7-0.7c0.3-0.1,0.6-0.2,0.9-0.2s0.6,0.1,0.9,0.2s0.6,0.3,0.9,0.5l0.4,0.3
	l0.4,0.4l0.1-0.2c0.1-0.1,0.2-0.3,0.2-0.5c0.1-0.2,0.1-0.3,0.1-0.5s-0.1-0.3-0.2-0.5s-0.3-0.3-0.5-0.4c-0.3-0.2-0.6-0.4-0.9-0.5
	s-0.5-0.2-0.7-0.3l0.5-1.1c0.2,0.1,0.5,0.2,0.8,0.3C389.9,114.9,390.3,115.1,390.6,115.3L390.6,115.3z M387.6,120.2
	c0.4,0.3,0.7,0.4,0.9,0.5l0.9-1.4c-0.1-0.1-0.1-0.2-0.3-0.3l-0.4-0.3c-0.1-0.1-0.3-0.2-0.5-0.3c-0.2-0.1-0.3-0.1-0.5-0.1
	s-0.3,0-0.4,0.1l-0.4,0.3c-0.2,0.3-0.2,0.6-0.1,0.8C387,119.7,387.2,119.9,387.6,120.2z M394.2,118.2c0.3,0.1,0.7,0.3,1.1,0.5
	s0.9,0.5,1.4,0.8c0.4,0.3,0.8,0.6,1,1c0.2,0.3,0.3,0.7,0.4,1c0,0.3,0,0.7-0.2,1.1c-0.1,0.4-0.3,0.7-0.6,1.1l-2.1,3.1l-1.3-0.9l2-2.9
	c0.2-0.3,0.4-0.6,0.5-0.8c0.1-0.2,0.2-0.4,0.2-0.6s-0.1-0.4-0.2-0.5c-0.1-0.2-0.3-0.3-0.5-0.5l-0.5-0.3c-0.2-0.1-0.3-0.2-0.4-0.2
	l-3.1,4.4l-1.3-0.9C390.6,123.6,394.2,118.2,394.2,118.2z M398.5,128c0.3,0.2,0.6,0.4,0.8,0.4c0.2,0,0.4,0,0.5-0.2s0.2-0.4,0.1-0.6
	s-0.2-0.6-0.5-1c-0.2-0.2-0.3-0.5-0.4-0.7s-0.2-0.5-0.2-0.7v-0.7c0.1-0.2,0.2-0.5,0.4-0.7c0.4-0.5,0.8-0.7,1.4-0.7s1.2,0.2,1.8,0.7
	c0.3,0.2,0.6,0.5,0.8,0.8c0.2,0.3,0.4,0.5,0.5,0.7l-1,0.8c-0.1-0.2-0.2-0.4-0.4-0.6c-0.2-0.2-0.4-0.4-0.7-0.6
	c-0.2-0.2-0.5-0.3-0.7-0.3s-0.4,0-0.5,0.2c-0.1,0.1-0.1,0.2-0.1,0.3v0.3c0,0.1,0.1,0.2,0.2,0.4c0.1,0.1,0.2,0.3,0.3,0.5
	c0.2,0.3,0.4,0.6,0.5,0.9s0.2,0.5,0.2,0.7c0,0.2,0,0.5-0.1,0.7s-0.2,0.4-0.4,0.7c-0.4,0.5-0.9,0.7-1.4,0.7c-0.6,0-1.2-0.3-1.9-0.8
	c-0.5-0.4-0.8-0.7-1-1s-0.4-0.5-0.4-0.6l1-0.9c0.1,0.2,0.3,0.5,0.5,0.7C398,127.5,398.2,127.7,398.5,128L398.5,128z M409.4,125.5
	c0.3,0.2,0.5,0.4,0.7,0.7c0.2,0.2,0.3,0.4,0.4,0.5l-1,0.8l-0.3-0.4c-0.1-0.2-0.3-0.3-0.4-0.4c-0.2-0.2-0.4-0.3-0.6-0.3
	c-0.2-0.1-0.3-0.1-0.5,0c-0.2,0-0.3,0.1-0.5,0.2s-0.3,0.3-0.4,0.4l-0.3,0.3l1.9,1.5l-0.8,1l-1.9-1.5l-3.4,4.2l-1.2-1l4.5-5.5
	c0.5-0.7,1.1-1,1.8-1.1C408,124.6,408.7,124.9,409.4,125.5L409.4,125.5z M411.6,135.9c-0.3,0.4-0.7,0.7-1.1,0.9s-0.8,0.4-1.2,0.4
	c-0.4,0-0.8,0-1.2-0.1c-0.4-0.1-0.8-0.4-1.1-0.7c-0.4-0.3-0.6-0.7-0.8-1c-0.2-0.4-0.3-0.8-0.3-1.2s0.1-0.8,0.2-1.3
	c0.2-0.4,0.4-0.8,0.8-1.2c0.3-0.4,0.7-0.7,1.1-0.9s0.8-0.3,1.2-0.4c0.4,0,0.8,0,1.2,0.1c0.4,0.1,0.8,0.4,1.1,0.7
	c0.4,0.3,0.6,0.7,0.8,1c0.2,0.4,0.3,0.8,0.3,1.2s-0.1,0.8-0.2,1.3C412.2,135.1,411.9,135.5,411.6,135.9z M410.4,134.9
	c0.4-0.5,0.7-1,0.7-1.5s-0.1-0.9-0.5-1.2s-0.8-0.5-1.3-0.3c-0.5,0.1-0.9,0.4-1.3,0.9s-0.7,1-0.7,1.5s0.1,0.9,0.5,1.2
	s0.8,0.5,1.3,0.3C409.5,135.7,410,135.4,410.4,134.9z M416.8,138.2c-0.1-0.1-0.2-0.3-0.3-0.5c-0.1-0.2-0.3-0.4-0.5-0.6l-0.4-0.3
	c-0.2-0.1-0.3-0.2-0.4-0.2l-3.6,3.9l-1.1-1.1l4.3-4.6c0.3,0.1,0.6,0.3,1,0.5s0.8,0.5,1.2,0.9c0.1,0.1,0.2,0.2,0.2,0.3l0.3,0.3
	c0.1,0.1,0.2,0.2,0.2,0.3l0.2,0.3L416.8,138.2L416.8,138.2z M419.3,143.2c0.5-0.5,0.8-0.9,0.9-1.2s0-0.7-0.3-1
	c-0.1-0.1-0.3-0.2-0.4-0.4c-0.2-0.1-0.3-0.2-0.4-0.3l-3.8,3.8l-1.1-1.1l4.6-4.5c0.3,0.2,0.6,0.4,1,0.7s0.8,0.6,1.1,1
	c0.3,0.3,0.5,0.6,0.7,0.9c0.1,0.3,0.2,0.6,0.2,0.9c0.1,0,0.2,0.1,0.4,0.1s0.3,0.1,0.5,0.2l0.5,0.3c0.2,0.1,0.3,0.2,0.5,0.4
	c0.4,0.4,0.6,0.7,0.7,1.1c0.1,0.3,0.2,0.7,0.1,1s-0.2,0.6-0.4,1c-0.2,0.3-0.5,0.6-0.8,0.9l-2.7,2.6l-1.1-1.1l2.5-2.4
	c0.5-0.5,0.8-0.9,0.9-1.2s0-0.7-0.4-1c-0.2-0.2-0.4-0.3-0.6-0.4c-0.2-0.1-0.4-0.2-0.5-0.2c-0.1,0.2-0.2,0.4-0.4,0.6l-0.5,0.6
	l-2.6,2.6l-1.1-1.1L419.3,143.2L419.3,143.2z M428.3,147.9c0.3,0.4,0.6,0.7,0.7,1.1c0.1,0.3,0.2,0.7,0.2,1s-0.1,0.6-0.3,0.9
	c-0.2,0.3-0.4,0.6-0.7,0.8l-3,2.7c-0.2-0.1-0.5-0.4-0.9-0.7s-0.8-0.7-1.2-1.1c-0.3-0.3-0.5-0.6-0.6-0.9c-0.2-0.3-0.3-0.6-0.3-0.9
	c0-0.3,0-0.6,0.1-0.8c0.1-0.3,0.3-0.6,0.6-0.8c0.3-0.3,0.6-0.4,0.9-0.5s0.6-0.1,0.9,0s0.6,0.2,0.9,0.4s0.5,0.4,0.8,0.7l0.3,0.4
	l0.3,0.5l0.2-0.2c0.1-0.1,0.2-0.2,0.3-0.4c0.1-0.1,0.1-0.3,0.2-0.5c0-0.2,0-0.3-0.1-0.5s-0.2-0.4-0.4-0.6c-0.2-0.3-0.5-0.5-0.7-0.7
	s-0.4-0.3-0.6-0.4l0.8-1c0.2,0.1,0.4,0.3,0.7,0.5L428.3,147.9L428.3,147.9z M424.1,151.8c0.3,0.4,0.6,0.6,0.8,0.8l1.3-1.1
	c0-0.1-0.1-0.2-0.2-0.3l-0.3-0.4l-0.4-0.4l-0.4-0.3c-0.1-0.1-0.3-0.1-0.4-0.1c-0.2,0-0.3,0.1-0.4,0.2c-0.3,0.2-0.4,0.5-0.3,0.8
	C423.7,151.2,423.8,151.5,424.1,151.8z M428.5,153.4c0.4-0.3,0.8-0.5,1.2-0.7c0.4-0.2,0.8-0.2,1.3-0.2c0.4,0,0.8,0.1,1.2,0.3
	c0.4,0.2,0.8,0.5,1.1,0.9c0.4,0.5,0.7,1,0.9,1.6l-1.2,0.5l-0.2-0.6c-0.1-0.2-0.2-0.4-0.4-0.6c-0.4-0.5-0.8-0.7-1.3-0.7
	s-1,0.2-1.5,0.7c-0.5,0.4-0.8,0.9-0.9,1.3c-0.1,0.5,0.1,1,0.5,1.5c0.2,0.2,0.4,0.4,0.6,0.5c0.2,0.2,0.4,0.3,0.6,0.4l-0.8,1
	c-0.2-0.1-0.4-0.2-0.7-0.4c-0.3-0.2-0.5-0.5-0.8-0.8c-0.4-0.4-0.6-0.9-0.7-1.3c-0.1-0.4-0.2-0.9-0.1-1.3s0.2-0.8,0.5-1.2
	C427.8,154,428.1,153.7,428.5,153.4L428.5,153.4z M430.9,161.6l-1-1.2l5.2-4.1l1,1.2L430.9,161.6z M437.8,156.4
	c-0.2,0.2-0.5,0.2-0.7,0.2s-0.5-0.2-0.6-0.4c-0.2-0.2-0.2-0.4-0.2-0.7c0-0.2,0.1-0.5,0.4-0.6c0.2-0.2,0.5-0.3,0.7-0.2
	c0.3,0,0.5,0.2,0.6,0.4c0.2,0.2,0.2,0.4,0.2,0.7C438.1,156,438,156.2,437.8,156.4z M438.3,165.9c-0.4,0.3-0.9,0.5-1.3,0.7
	c-0.4,0.1-0.9,0.2-1.3,0.1c-0.4,0-0.8-0.2-1.2-0.4c-0.4-0.2-0.7-0.5-1-0.9s-0.5-0.8-0.6-1.2s-0.1-0.8,0-1.2s0.2-0.8,0.5-1.2
	s0.6-0.7,1-1s0.9-0.5,1.3-0.7c0.4-0.1,0.9-0.2,1.3-0.1c0.4,0,0.8,0.2,1.2,0.4c0.4,0.2,0.7,0.5,1,0.9s0.5,0.8,0.6,1.2s0.1,0.8,0,1.2
	s-0.2,0.8-0.5,1.2C439.1,165.3,438.8,165.6,438.3,165.9z M437.4,164.7c0.5-0.4,0.9-0.8,1-1.3s0.1-0.9-0.2-1.3
	c-0.3-0.4-0.7-0.6-1.2-0.6s-1,0.2-1.5,0.6c-0.5,0.4-0.9,0.8-1,1.3s-0.1,0.9,0.2,1.3c0.3,0.4,0.7,0.6,1.2,0.6
	S436.9,165.1,437.4,164.7z M442.3,161.1l-2.8-0.5l0.1-1l2.9,0.2L442.3,161.1z M441.8,165.5c0.2,0.2,0.5,0.5,0.9,0.8l1,1.2
	c0.3,0.4,0.5,0.9,0.6,1.2c0.1,0.4,0.1,0.7,0,1.1c-0.1,0.3-0.3,0.6-0.5,0.9c-0.3,0.3-0.6,0.6-0.9,0.8l-3.1,2.1l-0.9-1.3l2.9-2
	c0.3-0.2,0.5-0.4,0.7-0.6c0.2-0.2,0.3-0.4,0.4-0.5c0.1-0.2,0.1-0.4,0-0.6c0-0.2-0.1-0.4-0.3-0.6c-0.1-0.2-0.2-0.3-0.4-0.5
	c-0.1-0.2-0.2-0.3-0.3-0.4l-4.4,3l-0.9-1.3L441.8,165.5L441.8,165.5z M435,409.6c0.3-0.3,0.5-0.6,0.6-0.8c0.1-0.3,0.3-0.5,0.3-0.8
	l-1.3-1.1l-0.8,0.9c-0.1,0.1-0.2,0.1-0.2,0.1c-0.1,0-0.2,0-0.2-0.1l-0.7-0.7l2.1-2.3l2.8,2.5c0,0.3-0.1,0.6-0.2,0.9
	c-0.1,0.3-0.2,0.6-0.3,0.8c-0.1,0.3-0.3,0.5-0.5,0.8s-0.4,0.6-0.7,0.8c-0.5,0.5-1,0.9-1.5,1.2s-1.1,0.4-1.7,0.5
	c-0.6,0-1.2-0.1-1.8-0.3c-0.6-0.2-1.2-0.6-1.7-1c-0.5-0.5-0.9-1-1.2-1.5s-0.5-1.1-0.5-1.7c0-0.6,0.1-1.2,0.3-1.8
	c0.2-0.6,0.6-1.2,1.1-1.8c0.5-0.6,1-1,1.6-1.3c0.5-0.3,1.1-0.4,1.6-0.5l0.3,0.9c0.1,0.2,0,0.3-0.1,0.5c-0.1,0.1-0.2,0.1-0.3,0.2
	c-0.2,0-0.3,0.1-0.5,0.2s-0.3,0.1-0.5,0.2s-0.3,0.2-0.5,0.3c-0.2,0.1-0.4,0.3-0.5,0.5c-0.3,0.3-0.5,0.7-0.7,1.1
	c-0.1,0.4-0.2,0.8-0.1,1.2c0,0.4,0.2,0.8,0.4,1.2s0.5,0.7,0.9,1.1c0.4,0.4,0.8,0.6,1.2,0.8c0.4,0.2,0.8,0.2,1.2,0.2
	c0.4,0,0.8-0.1,1.1-0.3C434.4,410.2,434.7,409.9,435,409.6z M435.9,400c0.3-0.4,0.7-0.7,1-0.9c0.4-0.2,0.8-0.3,1.2-0.4
	s0.8,0,1.3,0.2s0.8,0.4,1.3,0.7c0.4,0.3,0.7,0.7,1,1.1s0.4,0.8,0.4,1.2c0.1,0.4,0,0.8-0.1,1.2c-0.1,0.4-0.4,0.8-0.7,1.2
	c-0.3,0.4-0.7,0.7-1,0.9c-0.4,0.2-0.8,0.3-1.2,0.4s-0.8,0-1.3-0.2c-0.4-0.1-0.8-0.4-1.3-0.7c-0.4-0.3-0.7-0.7-1-1.1
	c-0.2-0.4-0.4-0.8-0.4-1.2c0-0.4,0-0.8,0.1-1.2C435.4,400.8,435.6,400.4,435.9,400z M440.3,403.6c0.3-0.4,0.5-0.9,0.3-1.3
	c-0.1-0.4-0.5-0.9-1-1.3c-0.6-0.5-1.1-0.7-1.5-0.7c-0.5,0-0.9,0.2-1.2,0.6c-0.4,0.4-0.5,0.9-0.3,1.3s0.5,0.9,1,1.3
	c0.6,0.5,1.1,0.7,1.5,0.7C439.5,404.2,439.9,404,440.3,403.6z M444.2,400.5l-7.7-5.8l1-1.3l3,2.3c-0.1-0.4-0.1-0.8,0-1.1
	s0.2-0.7,0.5-1.1c0.2-0.3,0.5-0.5,0.8-0.7c0.3-0.2,0.6-0.2,1-0.2c0.4,0,0.7,0.1,1.2,0.2s0.8,0.4,1.3,0.7c0.4,0.3,0.7,0.6,1,1
	s0.4,0.7,0.5,1.1c0.1,0.4,0.1,0.8,0,1.2c-0.1,0.4-0.2,0.8-0.5,1.1c-0.1,0.2-0.3,0.3-0.4,0.4c-0.1,0.1-0.3,0.2-0.4,0.3
	c-0.1,0.1-0.3,0.1-0.4,0.1c-0.2,0-0.3,0.1-0.5,0.1l0.3,0.3c0.1,0.1,0.1,0.2,0.1,0.3c0,0.1,0,0.2-0.1,0.2L444.2,400.5z M441.6,394.7
	c-0.2,0.3-0.3,0.5-0.3,0.8s0,0.6,0.1,0.9l2.4,1.8c0.3,0,0.5-0.1,0.7-0.2c0.2-0.1,0.4-0.3,0.5-0.5c0.1-0.2,0.2-0.4,0.3-0.6
	c0-0.2,0-0.4,0-0.6c-0.1-0.2-0.2-0.4-0.4-0.7c-0.2-0.2-0.4-0.5-0.7-0.7c-0.3-0.2-0.6-0.4-0.8-0.5c-0.3-0.1-0.5-0.2-0.7-0.2
	c-0.2,0-0.4,0-0.6,0.1C441.9,394.4,441.7,394.6,441.6,394.7z M444.7,388.3c0.2-0.3,0.5-0.6,0.8-0.8c0.3-0.2,0.6-0.4,1-0.4
	c0.4-0.1,0.7,0,1.1,0.1c0.4,0.1,0.8,0.3,1.2,0.6c0.1,0.1,0.2,0.1,0.2,0.2c0.1,0.1,0.1,0.1,0.1,0.2c0,0,0,0.1,0,0.1
	c0,0.1,0,0.1-0.1,0.2l-2.4,3.4c0.6,0.4,1.1,0.5,1.6,0.4c0.4-0.1,0.8-0.3,1.1-0.8c0.1-0.2,0.3-0.4,0.3-0.6c0.1-0.2,0.1-0.4,0.1-0.5
	c0-0.2,0-0.3,0-0.4s0-0.2,0.1-0.3c0-0.1,0.1-0.1,0.1-0.1s0.1,0,0.2,0l0.7,0c0.1,0.3,0.1,0.5,0.1,0.8s0,0.5-0.1,0.8
	c-0.1,0.2-0.2,0.5-0.3,0.7c-0.1,0.2-0.2,0.4-0.4,0.6c-0.3,0.4-0.6,0.7-0.9,0.9c-0.4,0.2-0.7,0.4-1.2,0.5c-0.4,0.1-0.9,0-1.3-0.1
	s-0.9-0.3-1.4-0.7c-0.4-0.3-0.7-0.6-0.9-0.9s-0.4-0.7-0.5-1.1s-0.1-0.8,0-1.2C444.2,389.2,444.4,388.7,444.7,388.3z M445.7,389
	c-0.3,0.4-0.4,0.8-0.3,1.1c0.1,0.4,0.3,0.7,0.6,1.1l1.7-2.5c-0.2-0.1-0.3-0.2-0.5-0.3c-0.2-0.1-0.4-0.1-0.5-0.1s-0.4,0.1-0.5,0.2
	C446,388.6,445.8,388.8,445.7,389z M452.7,388.6l-5.6-3.6l0.5-0.8c0.1-0.1,0.2-0.2,0.3-0.2c0.1,0,0.2,0,0.3,0.1l0.7,0.4
	c-0.2-0.4-0.3-0.8-0.4-1.2c0-0.4,0.1-0.8,0.3-1.1c0.2-0.3,0.4-0.5,0.6-0.6l0.9,0.8c0.1,0.1,0.1,0.1,0.1,0.2c0,0.1,0,0.1-0.1,0.2
	c0,0.1-0.1,0.1-0.2,0.2c-0.1,0.1-0.2,0.2-0.3,0.4c-0.2,0.3-0.3,0.6-0.2,0.9c0,0.3,0.1,0.6,0.3,0.9l3.5,2.3L452.7,388.6z M455.7,384
	l-5.7-3.5l0.5-0.8c0.1-0.2,0.3-0.2,0.5-0.2l0.5,0.2c0-0.2-0.1-0.4-0.1-0.6c0-0.2,0-0.4,0-0.6s0.1-0.4,0.1-0.6s0.2-0.4,0.3-0.6
	c0.2-0.3,0.4-0.6,0.7-0.7c0.3-0.2,0.5-0.3,0.8-0.3c0.3,0,0.6,0,0.9,0c0.3,0.1,0.6,0.2,1,0.4l3.6,2.2l-0.8,1.4l-3.6-2.2
	c-0.3-0.2-0.7-0.3-1-0.2c-0.3,0-0.5,0.2-0.7,0.6c-0.1,0.2-0.2,0.5-0.2,0.8c0,0.3,0,0.6,0.1,0.9l4.1,2.5L455.7,384z M462.1,372.9
	l-0.4,0.6c-0.1,0.1-0.2,0.2-0.2,0.3c-0.1,0.1-0.2,0.1-0.3,0l-0.5-0.1c0.1,0.2,0.1,0.4,0.1,0.6c0,0.2,0,0.4,0,0.6
	c0,0.2-0.1,0.4-0.1,0.6s-0.1,0.4-0.3,0.6c-0.1,0.2-0.3,0.5-0.5,0.6c-0.2,0.2-0.4,0.3-0.6,0.4c-0.2,0.1-0.4,0.1-0.7,0.1
	s-0.5-0.1-0.8-0.3c-0.2-0.1-0.4-0.3-0.6-0.5c-0.2-0.2-0.2-0.5-0.3-0.9s0-0.8,0.2-1.3c0.1-0.5,0.4-1.1,0.8-1.8l-0.3-0.2
	c-0.4-0.2-0.7-0.3-1-0.2s-0.5,0.2-0.7,0.6c-0.1,0.2-0.2,0.4-0.2,0.6c0,0.2,0,0.3,0,0.5s0,0.3,0,0.4s0,0.2-0.1,0.4
	c-0.1,0.1-0.1,0.2-0.2,0.2s-0.2,0.1-0.3,0.1l-0.6,0c-0.2-1-0.1-2,0.4-2.9c0.2-0.3,0.4-0.6,0.7-0.8c0.3-0.2,0.5-0.3,0.8-0.4
	c0.3-0.1,0.6-0.1,0.9,0c0.3,0.1,0.7,0.2,1,0.4L462.1,372.9z M459.8,375.1c0.1-0.1,0.1-0.3,0.2-0.4c0-0.1,0.1-0.3,0.1-0.4
	s0-0.3,0-0.4s-0.1-0.3-0.1-0.5l-1-0.5c-0.2,0.4-0.4,0.8-0.5,1.1c-0.1,0.3-0.2,0.6-0.2,0.8s0,0.4,0.1,0.5c0.1,0.1,0.2,0.2,0.3,0.3
	c0.2,0.1,0.5,0.2,0.7,0.1C459.5,375.5,459.6,375.4,459.8,375.1z M463,371.3l-5.9-3l0.4-0.9c0.1-0.2,0.2-0.3,0.4-0.2l0.5,0.1
	c-0.1-0.2-0.1-0.4-0.1-0.5c0-0.2,0-0.4,0-0.6c0-0.2,0-0.4,0.1-0.6s0.1-0.4,0.2-0.6c0.2-0.3,0.4-0.6,0.6-0.8c0.2-0.2,0.5-0.3,0.8-0.4
	c0.3-0.1,0.6-0.1,0.9,0s0.6,0.2,1,0.3l3.8,1.9l-0.7,1.4l-3.8-1.9c-0.4-0.2-0.7-0.2-1-0.2c-0.3,0.1-0.5,0.3-0.7,0.6
	c-0.1,0.2-0.2,0.5-0.2,0.8c0,0.3,0,0.6,0.1,0.8l4.3,2.2L463,371.3z M463,357.6c0.1,0,0.2,0.1,0.3,0.2c0.1,0.1,0.1,0.2,0.2,0.2
	l2.4,4.6l1.4-3l1.1,0.5l-2.2,4.7l-0.6-0.3c-0.1,0-0.1-0.1-0.2-0.2c-0.1-0.1-0.1-0.2-0.2-0.3l-2.5-4.7l-1.4,2.9l-1.1-0.5l2.1-4.6
	L463,357.6z M471.1,354l-0.3,0.7c-0.1,0.1-0.1,0.2-0.2,0.3c-0.1,0.1-0.2,0.1-0.3,0.1l-0.5-0.1c0.1,0.2,0.1,0.4,0.2,0.6
	s0.1,0.4,0.1,0.6c0,0.2,0,0.4-0.1,0.6c0,0.2-0.1,0.4-0.2,0.6c-0.1,0.3-0.2,0.5-0.4,0.7c-0.2,0.2-0.3,0.3-0.6,0.4
	c-0.2,0.1-0.4,0.1-0.7,0.1c-0.2,0-0.5-0.1-0.8-0.2c-0.2-0.1-0.4-0.3-0.6-0.5s-0.3-0.5-0.4-0.9c-0.1-0.4-0.1-0.8,0-1.3
	c0.1-0.5,0.3-1.1,0.6-1.8l-0.4-0.2c-0.4-0.2-0.8-0.2-1-0.1c-0.3,0.1-0.5,0.3-0.6,0.6c-0.1,0.2-0.2,0.5-0.2,0.6c0,0.2,0,0.3,0,0.5
	s0,0.3,0,0.4c0,0.1,0,0.2-0.1,0.4c0,0.1-0.1,0.2-0.2,0.2c-0.1,0-0.2,0.1-0.3,0.1l-0.6,0.1c-0.3-1-0.3-2,0.1-3
	c0.2-0.4,0.3-0.7,0.6-0.9c0.2-0.2,0.5-0.4,0.8-0.5c0.3-0.1,0.6-0.1,0.9-0.1c0.3,0,0.7,0.1,1,0.3L471.1,354z M468.9,356.5
	c0.1-0.2,0.1-0.3,0.1-0.4c0-0.1,0-0.3,0-0.4c0-0.1,0-0.3-0.1-0.4c0-0.1-0.1-0.3-0.1-0.4l-1-0.4c-0.2,0.4-0.3,0.8-0.4,1.1
	c-0.1,0.3-0.1,0.6-0.1,0.8c0,0.2,0.1,0.4,0.1,0.5c0.1,0.1,0.2,0.2,0.3,0.3c0.3,0.1,0.5,0.1,0.7,0S468.8,356.7,468.9,356.5z"/>
</svg>
