<svg xmlns="http://www.w3.org/2000/svg" viewBox="0 0 68 178.6" enable-background="new 0 0 68 178.6"><style type="text/css">.st0{fill:#FFF0B3;stroke:#FFFFFF;stroke-miterlimit:10;} .st1{fill:#F5AE94;stroke:#FFFFFF;stroke-miterlimit:10;} .st2{fill:#8DBD81;stroke:#FFFFFF;stroke-miterlimit:10;} .st3{fill:#6F6F6E;}</style><path class="st0" d="M25.2 67.4h34.9v15.6h-34.9zM25.2 83h34.9v15.5h-34.9z"/><path class="st1" d="M25.2 98.5h34.9v15.5h-34.9zM25.2 114.1h34.9v15.5h-34.9zM25.2 129.6h34.9v15.5h-34.9zM25.2 145.1h34.9v15.5h-34.9z"/><path class="st0" d="M25.2 51.9h34.9v15.5h-34.9z"/><path class="st2" d="M25.2 36.4h34.9v15.5h-34.9zM25.2 20.9h34.9v15.5h-34.9zM25.2 5.3h34.9v15.5h-34.9z"/><path class="st3" d="M8.8 3.3c.4-.1.8-.3 1.1-.5.4-.2.7-.5 1-.9h.7v6.9h-.9v-5.6c-.1.1-.2.2-.3.2-.1.1-.2.2-.4.2-.2.1-.3.2-.5.2-.1.1-.3.2-.4.2l-.3-.7zM14 5.3c0-1.2.2-2 .6-2.7.4-.6 1-.9 1.7-.9s1.3.3 1.7 1c.4.6.6 1.5.6 2.7 0 1.1-.2 2-.6 2.7-.4.6-1 .9-1.7.9s-1.3-.3-1.7-.9c-.4-.7-.6-1.6-.6-2.8zm3.6 0c0-.4 0-.7-.1-1.1 0-.3-.1-.6-.2-.9-.1-.2-.2-.5-.4-.6-.2-.1-.4-.2-.6-.2s-.5.1-.6.2c-.2.1-.3.3-.4.6-.1.2-.2.5-.2.9-.1.4-.1.7-.1 1.1 0 .4 0 .7.1 1.1 0 .3.1.6.2.9.1.2.2.5.4.6.1.1.3.2.6.2s.5-.1.6-.2c.2-.1.3-.3.4-.6.1-.2.2-.5.2-.9.1-.3.1-.7.1-1.1zM19.6 5.3c0-1.2.2-2 .6-2.7.4-.6 1-.9 1.7-.9s1.3.3 1.7.9c.4.6.6 1.5.6 2.7 0 1.1-.2 2-.6 2.7-.4.6-1 .9-1.7.9s-1.3-.3-1.7-.9c-.4-.6-.6-1.5-.6-2.7zm3.6 0c0-.4 0-.7-.1-1.1 0-.3-.1-.6-.2-.9-.1-.2-.2-.5-.4-.6-.2-.1-.4-.2-.6-.2-.3 0-.5.1-.6.2-.2.1-.3.3-.4.6-.1.2-.2.5-.2.9 0 .3-.1.7-.1 1.1 0 .4 0 .7.1 1.1 0 .3.1.6.2.9.1.2.2.5.4.6.2.2.4.2.6.2.2 0 .5-.1.6-.2.2-.1.3-.3.4-.6.1-.3.2-.6.2-.9.1-.3.1-.7.1-1.1zM15.9 20.2c0 1.4-.3 2.4-1 3.1-.7.7-1.7 1-3 1.1v-.8c.4 0 .8 0 1.1-.1.3-.1.6-.2.9-.4.3-.2.5-.4.6-.7.2-.3.3-.6.4-1l-.6.2c-.2 0-.4.1-.7.1-.4 0-.7-.1-1-.2-.3-.1-.5-.3-.7-.5-.2-.2-.3-.4-.4-.7-.1-.3-.1-.5-.1-.8 0-.2 0-.5.1-.8.1-.3.2-.5.4-.7.2-.2.4-.4.7-.5.3-.1.6-.2 1-.2s.7.1 1 .2c.3.1.5.3.7.6.2.2.3.6.4.9.1.3.2.7.2 1.2zm-2.3.7c.2 0 .4 0 .7-.1.2 0 .4-.1.6-.2v-.4c0-.3 0-.6-.1-.8 0-.3-.1-.5-.2-.7-.1-.2-.2-.4-.4-.5-.2-.1-.4-.2-.6-.2-.2 0-.4 0-.6.1-.2.1-.3.2-.4.4-.1.1-.2.3-.2.5l-.1.5c0 .4.1.8.3 1 .3.3.6.4 1 .4zM17 20.9c0-1.2.2-2 .6-2.7.4-.6 1-.9 1.7-.9s1.3.3 1.7.9c.4.6.6 1.5.6 2.7 0 1.1-.2 2-.6 2.7-.4.6-1 .9-1.7.9s-1.3-.3-1.7-.9c-.4-.7-.6-1.6-.6-2.7zm3.6 0c0-.4 0-.7-.1-1.1 0-.3-.1-.6-.2-.9-.1-.2-.2-.5-.4-.6-.2-.1-.4-.2-.6-.2s-.5.1-.6.2c-.2.1-.3.3-.4.6-.1.2-.2.5-.2.9 0 .3-.1.7-.1 1.1 0 .4 0 .7.1 1.1 0 .3.1.6.2.9.1.2.2.5.4.6.2.1.4.2.6.2s.5-.1.6-.2c.2-.1.3-.3.4-.6.1-.2.2-.5.2-.9.1-.4.1-.7.1-1.1zM15.9 38c0 .3 0 .5-.1.8-.1.2-.2.4-.4.6-.2.2-.4.3-.7.4-.3.1-.6.1-1 .1s-.8-.1-1.1-.2c-.3-.1-.5-.3-.7-.5-.2-.2-.3-.4-.4-.6s-.1-.4-.1-.6c0-.2 0-.4.1-.6l.2-.5c.1-.2.2-.3.4-.4l.4-.3c-.6-.4-1-.9-1-1.6 0-.2 0-.5.2-.7.1-.2.2-.4.4-.6.2-.2.4-.3.7-.4.3-.1.5-.2.9-.2s.7.1.9.2c.3.1.5.3.7.4.2.2.3.4.4.6.1.2.1.4.1.6 0 .2 0 .4-.1.5l-.2.5-.3.4c-.1.1-.2.2-.4.3.7.5 1.1 1 1.1 1.8zm-3.5.1c0 .1 0 .2.1.4 0 .1.1.2.2.4.1.1.2.2.4.3.2.1.4.1.6.1.2 0 .4 0 .6-.1.2-.1.3-.1.4-.3.1-.1.2-.2.2-.4.1-.1.1-.3.1-.4 0-.2 0-.4-.1-.6-.1-.2-.2-.3-.3-.4l-.5-.3c-.2-.1-.4-.2-.7-.2-.3.2-.5.4-.7.6-.3.3-.3.6-.3.9zm2.4-3.5c0-.1 0-.2-.1-.3 0-.1-.1-.2-.2-.3-.1-.1-.2-.2-.4-.3-.1-.1-.3-.1-.5-.1s-.4 0-.5.1c-.2.1-.3.2-.4.3-.1.1-.2.2-.2.3 0 .1-.1.2-.1.4 0 .1 0 .3.1.4l.2.4.4.3c.2.1.4.2.7.2.3-.2.5-.4.7-.6.3-.2.3-.5.3-.8zM17 36.4c0-1.2.2-2 .6-2.7.4-.6 1-.9 1.7-.9s1.3.3 1.7.9c.4.6.6 1.5.6 2.7 0 1.1-.2 2-.6 2.7-.4.6-1 .9-1.7.9s-1.3-.3-1.7-1c-.4-.6-.6-1.5-.6-2.6zm3.6 0c0-.4 0-.7-.1-1.1 0-.3-.1-.6-.2-.9-.1-.3-.2-.5-.4-.6-.2-.1-.4-.2-.6-.2-.3 0-.5.1-.6.2-.2.1-.3.4-.4.6-.2.3-.3.6-.3.9 0 .3-.1.7-.1 1.1 0 .4 0 .7.1 1.1 0 .3.1.6.2.9.1.3.2.5.4.6.2.1.4.2.6.2.3 0 .5-.1.6-.2.2-.1.3-.3.4-.6.1-.3.2-.5.2-.9.2-.4.2-.7.2-1.1zM11.4 99.6c.1-.3.3-.6.5-1l.7-1.2.9-1.2c.3-.4.6-.8.9-1.1h.9v4.4h.8v.8h-.8v1.8h-.9v-1.8h-3.1v-.7zm3-3.4c-.2.2-.4.4-.6.7l-.6.8c-.2.3-.4.6-.5.9l-.5.9h2.2v-3.3zM17 98.5c0-1.2.2-2 .6-2.7.4-.6 1-.9 1.7-.9s1.3.3 1.7.9c.4.6.6 1.5.6 2.7 0 1.2-.2 2-.6 2.7-.4.6-1 .9-1.7.9s-1.3-.3-1.7-.9c-.4-.6-.6-1.5-.6-2.7zm3.7 0c0-.4 0-.7-.1-1.1 0-.3-.1-.6-.2-.9-.1-.3-.2-.5-.4-.6-.2-.1-.4-.2-.6-.2s-.5.1-.6.2c-.2.1-.3.3-.4.6-.1.3-.2.5-.2.9 0 .3-.1.7-.1 1.1 0 .4 0 .7.1 1.1 0 .3.1.6.2.9.1.3.2.5.4.6.2.1.4.2.6.2s.5-.1.6-.2c.2-.1.3-.3.4-.6.1-.3.2-.5.2-.9 0-.3.1-.7.1-1.1zM13.1 116.8c.6 0 1-.1 1.3-.3.3-.2.4-.5.4-.9 0-.2-.1-.5-.2-.6-.1-.2-.2-.3-.4-.4-.2-.1-.4-.2-.6-.2l-.7-.1h-.2v-.8h.3c.2 0 .3 0 .5-.1.2 0 .3-.1.5-.2.1-.1.3-.2.4-.4.1-.1.1-.3.1-.6 0-.2 0-.3-.1-.5l-.3-.3c-.1-.1-.2-.1-.4-.2-.1 0-.3-.1-.5-.1-.3 0-.6 0-.8.1l-.6.3-.4-.7.3-.2.4-.2c.2-.1.3-.1.5-.1s.4-.1.6-.1c.4 0 .7 0 .9.1.3.1.5.2.7.4.2.2.3.4.4.6.1.2.1.5.1.7 0 .4-.1.7-.3.9-.2.3-.5.4-.7.6l.5.2c.2.1.3.2.4.4l.3.5c.1.2.1.4.1.7 0 .3-.1.6-.2.8-.1.3-.3.5-.5.7-.2.2-.5.3-.8.4-.3.1-.7.2-1.2.2h-.5c-.2 0-.4-.1-.5-.1-.2 0-.3-.1-.4-.1l-.3-.1.2-.8c.1 0 .3.1.6.2.4.3.7.3 1.1.3zM17 114.1c0-1.1.2-2 .6-2.7.4-.6 1-.9 1.7-.9s1.3.3 1.7.9c.4.6.6 1.5.6 2.7 0 1.2-.2 2-.6 2.7-.4.6-1 .9-1.7.9s-1.3-.3-1.7-.9c-.4-.7-.6-1.6-.6-2.7zm3.6 0c0-.4 0-.7-.1-1.1 0-.3-.1-.6-.2-.9-.1-.2-.2-.5-.4-.6-.2-.1-.4-.2-.6-.2-.3 0-.5.1-.6.2-.2.1-.3.3-.4.6-.1.3-.2.5-.2.9 0 .3-.1.7-.1 1.1 0 .4 0 .7.1 1.1 0 .3.1.6.2.9.1.2.2.5.4.6.2.2.4.2.6.2.3 0 .5-.1.6-.2.2-.1.3-.3.4-.6s.2-.5.2-.9c.1-.4.1-.8.1-1.1zM15.5 127.9c0 .2 0 .5-.1.7-.1.2-.2.4-.4.7l-.5.6-.6.6-.4.4-.4.5-.3.5c-.1.2-.1.3-.1.4h3.2v.8h-4.2v-.2c0-.3.1-.6.2-.9.1-.3.2-.5.4-.8l.6-.7.6-.6.5-.5c.2-.2.3-.3.4-.5l.3-.5c.1-.2.1-.3.1-.5s0-.4-.1-.5c-.1-.1-.1-.3-.3-.3-.1-.1-.2-.2-.4-.2l-.4-.1c-.2 0-.4 0-.5.1-.2.1-.3.1-.4.2l-.3.2c-.1.1-.2.1-.2.2l-.5-.7c.1-.1.1-.1.3-.2l.4-.3c.2-.1.4-.2.6-.2.2-.1.4-.1.7-.1.7 0 1.3.2 1.6.5 0 .3.2.8.2 1.4zM17 129.6c0-1.1.2-2 .6-2.7.4-.6 1-.9 1.7-.9s1.3.3 1.7.9c.4.6.6 1.5.6 2.7 0 1.2-.2 2-.6 2.7-.4.6-1 .9-1.7.9s-1.3-.3-1.7-.9c-.4-.7-.6-1.5-.6-2.7zm3.6 0c0-.4 0-.7-.1-1.1 0-.3-.1-.6-.2-.9-.1-.3-.2-.5-.4-.6-.2-.2-.4-.2-.6-.2-.3 0-.5.1-.6.2-.2.1-.3.3-.4.6-.1.2-.2.5-.2.9 0 .3-.1.7-.1 1.1 0 .4 0 .7.1 1.1 0 .3.1.6.2.9.1.2.2.5.4.6.2.2.4.2.6.2.3 0 .5-.1.6-.2.2-.1.3-.3.4-.6.1-.2.2-.5.2-.9.1-.4.1-.7.1-1.1zM11.6 143.1c.4-.1.7-.3 1.1-.6.4-.2.7-.5 1-.9h.7v6.9h-.9v-5.5l-.3.2c-.1.1-.2.2-.4.2l-.4.2c-.2.1-.3.1-.4.2l-.4-.7zM16.8 145.1c0-1.2.2-2 .6-2.7.4-.6 1-.9 1.7-.9s1.3.3 1.7.9c.4.6.6 1.5.6 2.7 0 1.1-.2 2-.6 2.7-.4.6-1 .9-1.7.9s-1.3-.3-1.7-.9c-.4-.7-.6-1.5-.6-2.7zm3.6 0c0-.4 0-.7-.1-1.1 0-.3-.1-.6-.2-.9-.1-.2-.2-.4-.4-.6-.2-.2-.4-.2-.6-.2-.2 0-.5.1-.6.2-.2.1-.3.3-.4.6-.1.3-.2.5-.2.9 0 .3-.1.7-.1 1.1 0 .4 0 .7.1 1.1 0 .3.1.6.2.9.1.3.2.5.4.6.2.1.4.2.6.2.3 0 .5-.1.6-.2.2-.2.3-.3.4-.6.1-.2.2-.5.2-.9.1-.4.1-.7.1-1.1zM14.2 160.5c0-1.2.2-2 .6-2.7.4-.6 1-.9 1.7-.9s1.3.3 1.7.9c.4.6.6 1.5.6 2.7 0 1.1-.2 2-.6 2.7-.4.6-1 .9-1.7.9s-1.3-.3-1.7-.9c-.4-.6-.6-1.5-.6-2.7zm3.6 0c0-.4 0-.7-.1-1.1 0-.3-.1-.6-.2-.9-.1-.2-.2-.4-.4-.6-.2-.1-.4-.2-.6-.2-.3 0-.5.1-.6.2-.2.1-.3.3-.4.6-.1.3-.2.5-.2.9 0 .3-.1.7-.1 1.1 0 .4 0 .7.1 1.1 0 .3.1.6.2.9.1.3.2.5.4.6.2.2.4.2.6.2.2 0 .5-.1.6-.2.2-.1.3-.3.4-.6s.2-.5.2-.9c.1-.3.1-.7.1-1.1zM12.8 82.2c1 0 1.7.3 2.2.7.5.4.7.9.7 1.6 0 .3 0 .6-.2.8-.1.3-.3.5-.5.7-.2.2-.5.3-.8.4-.3.1-.7.2-1.1.2h-.5l-.5-.1c-.2 0-.3-.1-.4-.1l-.3-.1.2-.8c.1.1.3.1.5.2.3.1.6.1.9.1.3 0 .5 0 .7-.1.2-.1.4-.2.5-.3.1-.1.2-.2.3-.4.1-.2.1-.3.1-.5s0-.5-.1-.7c-.1-.2-.2-.4-.5-.5-.2-.1-.5-.2-.9-.3h-1.2l.1-.9c0-.3 0-.6.1-.8v-1.6h3.3v.8h-2.4v1.4c-.2.1-.2.2-.2.3zM16.9 83c0-1.2.2-2 .6-2.7.4-.6 1-.9 1.7-.9s1.3.3 1.7.9c.4.6.6 1.5.6 2.7s-.2 2-.6 2.7c-.4.6-1 .9-1.7.9s-1.3-.3-1.7-.9c-.4-.7-.6-1.6-.6-2.7zm3.6 0c0-.4 0-.7-.1-1.1 0-.3-.1-.6-.2-.9-.1-.2-.2-.5-.4-.6-.2-.1-.4-.2-.6-.2-.2 0-.5.1-.6.2-.2.1-.3.3-.4.6-.1.2-.2.5-.2.9 0 .3-.1.7-.1 1.1 0 .4 0 .7.1 1.1 0 .3.1.6.2.9.1.2.2.5.4.6.2.1.4.2.6.2.3 0 .5-.1.6-.2.2-.1.3-.3.4-.6.1-.2.2-.5.2-.9.1-.4.1-.7.1-1.1zM11.5 68.4c0-.7.1-1.3.3-1.8.2-.5.4-.9.8-1.3.3-.3.8-.6 1.2-.8.5-.2 1-.3 1.6-.3l.1.8c-.4 0-.7 0-1.1.1-.3.1-.6.2-.9.4-.3.2-.5.4-.6.7-.2.3-.3.6-.4 1l.6-.2c.2-.1.4-.1.7-.1.4 0 .7.1 1 .2.3.1.5.3.7.5.2.2.3.4.4.7.1.3.1.5.1.8 0 .3 0 .5-.1.8-.1.3-.2.5-.4.7-.2.2-.4.4-.7.5-.3.1-.6.2-1 .2-.8 0-1.3-.3-1.7-.8-.4-.5-.6-1.2-.6-2.1zm2.2-.7c-.2 0-.4 0-.6.1-.2 0-.4.1-.6.2v.4c0 .3 0 .6.1.8 0 .3.1.5.2.7.1.2.2.3.4.5.2.1.4.2.7.2.2 0 .4 0 .6-.1.2-.1.3-.2.4-.4.1-.1.2-.3.2-.5l.1-.5c0-.5-.1-.8-.3-1s-.8-.4-1.2-.4zM16.9 67.7c0-1.2.2-2 .6-2.7.4-.6 1-.9 1.7-.9s1.3.3 1.7.9c.4.6.6 1.5.6 2.7 0 1.1-.2 2-.6 2.7-.4.6-1 .9-1.7.9s-1.3-.3-1.7-.9c-.4-.6-.6-1.5-.6-2.7zm3.7 0c0-.4 0-.7-.1-1.1 0-.3-.1-.6-.2-.9-.1-.2-.2-.4-.4-.6-.2-.1-.4-.2-.6-.2s-.5.1-.6.2c-.2.2-.3.4-.4.6-.2.3-.3.6-.3 1 0 .3-.1.7-.1 1.1 0 .4 0 .7.1 1.1 0 .3.1.6.2.9.1.3.2.5.4.6.2.2.4.2.6.2s.5-.1.6-.2c.2-.1.3-.3.4-.6.1-.2.2-.5.2-.9.1-.4.2-.8.2-1.2zM12.5 55.4c0-.5.1-1.1.3-1.7.1-.6.3-1.2.6-1.7.2-.6.5-1.1.7-1.5.3-.5.5-.9.8-1.2h-3.3v-.8h4.4v.8c-.2.2-.5.6-.7 1-.3.4-.5.9-.8 1.5-.2.5-.4 1.1-.6 1.7-.2.6-.3 1.2-.3 1.8h-1.1zM16.9 51.9c0-1.1.2-2 .6-2.7.4-.6 1-.9 1.7-.9s1.3.3 1.7.9c.4.6.6 1.5.6 2.7 0 1.2-.2 2-.6 2.7-.4.6-1 .9-1.7.9s-1.3-.3-1.7-.9c-.4-.6-.6-1.5-.6-2.7zm3.7 0c0-.4 0-.7-.1-1.1 0-.3-.1-.6-.2-.9-.1-.2-.2-.5-.4-.6-.2-.1-.4-.2-.6-.2-.3 0-.5.1-.6.2-.2.1-.3.3-.4.6-.1.3-.2.5-.2.9 0 .3-.1.7-.1 1.1 0 .4 0 .7.1 1.1 0 .3.1.6.2.9.1.3.2.5.4.6.2.1.4.2.6.2.2 0 .5-.1.6-.2.2-.1.3-.3.4-.6.1-.2.2-.5.2-.9.1-.3.1-.7.1-1.1zM2.5 171.4c.4-.1 1-.1 1.7-.1.9 0 1.5.2 1.9.6.4.3.6.8.6 1.4 0 .6-.2 1.1-.5 1.4-.5.5-1.2.7-2.1.7-.3 0-.5 0-.7-.1v2.7h-.9v-6.6zm.9 3.2c.2.1.4.1.7.1 1.1 0 1.7-.5 1.7-1.4 0-.9-.6-1.3-1.6-1.3-.4 0-.7 0-.8.1v2.5zM8.7 171.3v4c0 1.5.7 2.2 1.6 2.2 1 0 1.6-.7 1.6-2.2v-4h.9v3.9c0 2.1-1.1 2.9-2.6 2.9-1.4 0-2.4-.8-2.4-2.9v-4h.9zM14.3 178.1v-6.7h.9l2.2 3.4c.5.8.9 1.5 1.2 2.2-.1-.9-.1-1.7-.1-2.8v-2.8h.8v6.7h-.9l-2.1-3.4c-.5-.7-.9-1.5-1.3-2.2 0 .8.1 1.7.1 2.8v2.9h-.8zM22.2 172h-2v-.7h5v.7h-2.1v6h-.9v-6zM26.8 171.3v4c0 1.5.7 2.2 1.6 2.2 1 0 1.6-.7 1.6-2.2v-4h.9v3.9c0 2.1-1.1 2.9-2.6 2.9-1.4 0-2.4-.8-2.4-2.9v-4h.9zM33.1 175.9l-.7 2.1h-.9l2.3-6.7h1.1l2.3 6.7h-.9l-.7-2.1h-2.5zm2.2-.7l-.7-1.9c-.2-.4-.2-.8-.3-1.2l-.3 1.2-.7 2h2zM42.7 177.8c-.3.2-1 .3-1.8.3-1.9 0-3.3-1.2-3.3-3.4 0-2.1 1.4-3.5 3.5-3.5.8 0 1.4.2 1.6.3l-.2.7c-.3-.2-.8-.3-1.4-.3-1.6 0-2.6 1-2.6 2.8 0 1.7.9 2.7 2.6 2.7.5 0 1.1-.1 1.4-.3l.2.7zM44.7 171.3v6.7h-.9v-6.7h.9zM51.9 174.6c0 2.3-1.4 3.6-3.1 3.6-1.8 0-3-1.4-3-3.4 0-2.1 1.3-3.5 3.1-3.5 1.9-.1 3 1.3 3 3.3zm-5.2.1c0 1.4.8 2.7 2.2 2.7 1.4 0 2.2-1.3 2.2-2.8 0-1.3-.7-2.7-2.2-2.7-1.5 0-2.2 1.3-2.2 2.8zM53.1 178.1v-6.7h1l2.2 3.4c.5.8.9 1.5 1.2 2.2-.1-.9-.1-1.7-.1-2.8v-2.8h.8v6.7h-.9l-2.1-3.4c-.5-.7-.9-1.5-1.3-2.2.1.8.1 1.7.1 2.8v2.9h-.9zM63.2 174.9h-2.6v2.4h2.9v.7h-3.8v-6.7h3.6v.7h-2.8v2.1h2.6v.8zM64.5 177c.4.2 1 .4 1.6.4.9 0 1.4-.5 1.4-1.2 0-.6-.4-1-1.3-1.3-1.1-.4-1.8-1-1.8-1.9 0-1 .9-1.8 2.2-1.8.7 0 1.2.2 1.5.3l-.2.7c-.2-.1-.7-.3-1.3-.3-.9 0-1.3.6-1.3 1 0 .6.4.9 1.3 1.3 1.1.4 1.7 1 1.7 2s-.8 2-2.4 2c-.7 0-1.4-.2-1.7-.4l.3-.8z"/></svg>