<svg xmlns="http://www.w3.org/2000/svg" width="320.7" height="213.076" viewBox="0 0 320.7 213.076"><path fill="#1E1E1C" d="M83.538 152.797c-8.227 0-13.795-.23-16.715-.697-2.918-.463-6.121-1.381-9.617-2.751-5.967-2.254-11.207-5.595-15.717-10.016-4.42-4.288-7.826-9.263-10.213-14.923-2.389-5.658-3.582-11.583-3.582-17.772 0-8.666 2.166-16.669 6.5-24.008s10.17-12.9 17.508-16.68c7.34-3.782 17.311-5.671 29.912-5.671h31.236v92.518h-29.312zm-14.393-79.984c-2.873.488-5.912 1.483-9.117 2.985-3.209 1.503-6.047 3.426-8.525 5.77-6.719 6.279-10.08 14.392-10.08 24.339 0 10.125 3.275 18.503 9.816 25.136 2.033 2.035 4.275 3.749 6.73 5.14 2.455 1.393 5.516 2.543 9.188 3.448 3.67.907 8.82 1.36 15.451 1.36h16.977v-68.906h-16.579c-6.367 0-10.986.243-13.861.728"/><path fill="#5692CE" d="M143.622 79.299c0 2.575-.557 4.928-1.67 7.053-1.111 2.127-2.447 3.971-4.008 5.532-1.561 1.599-3.277 3.033-5.15 4.3-1.873 1.27-3.375 2.195-4.506 2.78l-1.99-3.453c1.598-.936 3.133-1.9 4.594-2.896 1.463-.996 2.584-1.942 3.367-2.839 1.053-1.169 1.893-2.39 2.516-3.656.623-1.27 1.014-2.937 1.17-5.006h-2.811c-2.455 0-4.369-.623-5.736-1.872-1.365-1.249-2.047-2.985-2.047-5.21 0-1.599.623-3.11 1.875-4.534 1.246-1.426 2.943-2.138 5.09-2.138 3.316 0 5.697 1.104 7.141 3.309 1.442 2.202 2.165 5.08 2.165 8.63"/><path fill="#1E1E1C" d="M126.125 132.084h1.701v-10.479h-1.701v-.214h2.848l.432-.008.428-.022.43-.007.428-.01c.309 0 .58.006.818.017.24.012.465.028.676.053.209.027.406.063.596.107.189.047.391.104.607.177.621.206 1.16.479 1.615.819.455.343.826.738 1.119 1.187.291.451.504.94.643 1.474.139.53.207 1.084.207 1.671 0 .672-.082 1.277-.244 1.813-.166.534-.389 1.012-.676 1.424-.285.415-.621.773-1.004 1.073-.383.301-.791.544-1.232.728-.244.112-.477.198-.697.261-.219.062-.441.106-.676.138-.227.03-.48.051-.756.062-.275.008-.594.015-.951.015l-.488-.009-.521-.022-.512-.022-.484-.009h-2.604v-.217zm3.231 0c.176.021.377.037.607.046.229.012.482.017.758.017.346 0 .693-.019 1.035-.054.34-.037.666-.113.979-.23s.604-.286.873-.506c.271-.219.514-.507.729-.864.324-.552.553-1.115.682-1.693.129-.576.189-1.208.189-1.891 0-.807-.074-1.541-.229-2.2-.154-.658-.404-1.222-.758-1.685-.354-.465-.82-.825-1.402-1.08s-1.303-.383-2.158-.383c-.256 0-.488.004-.697.015l-.607.03v10.478zM139.514 125.268c.297-.216.539-.421.727-.621.189-.199.338-.386.443-.565.109-.179.18-.34.215-.479.037-.146.053-.268.053-.37 0-.327-.09-.593-.275-.799-.172.258-.393.383-.656.383-.195 0-.385-.069-.568-.214-.182-.14-.275-.346-.275-.613 0-.229.09-.438.27-.611.178-.173.4-.261.666-.261.195 0 .369.047.527.138.156.091.293.21.406.352.113.145.195.313.252.507.059.193.086.389.086.582 0 .296-.063.59-.184.881-.123.292-.27.559-.445.802-.174.247-.361.461-.566.646-.205.183-.383.327-.535.428l-.141-.186zM142.393 132.084h1.35l4.135-10.968h.367l4.168 10.968h1.361v.214h-4.717v-.214h1.701l-1.609-4.259h-3.553l-1.611 4.259h1.701v.214h-3.293v-.214zm4.979-8.931l-1.686 4.458h3.371l-1.685-4.458zM154.219 132.084h1.699v-10.479h-1.699v-.214h4.934v.214h-1.699v10.479h2.727c.896 0 1.602-.279 2.111-.843.512-.563.883-1.327 1.119-2.299h.17v3.355h-9.361v-.213zM164.653 132.084h1.701v-10.479h-1.701v-.213h3.445l2.836 8.24h.027l2.836-8.24h3.385v.213h-1.699v10.479h1.699v.214h-4.932v-.214h1.7v-10.386h-.03l-3.662 10.616-3.644-10.508h-.031v10.278h1.701v.214h-3.631zM177.567 132.084h1.348l4.135-10.968h.369l4.166 10.968h1.363v.214h-4.719v-.214h1.701l-1.609-4.259h-3.553l-1.609 4.259h1.699v.214h-3.291v-.214zm4.978-8.931l-1.688 4.458h3.371l-1.683-4.458zM126.125 150.468h1.701v-10.479h-1.701v-.214h2.68l.469-.009.482-.022.475-.008.445-.011c.744 0 1.357.093 1.836.271.482.178.859.399 1.137.658.275.26.463.541.564.842.102.303.154.574.154.821 0 .335-.078.649-.221.934-.148.286-.35.537-.6.749-.248.217-.539.389-.865.522-.326.132-.67.219-1.025.26v.03c.367.031.74.111 1.123.238.383.126.73.308 1.041.535.313.23.566.513.76.853.195.337.289.724.289 1.162 0 .461-.084.883-.258 1.266s-.432.712-.783.985c-.346.275-.785.494-1.316.652-.529.158-1.148.236-1.852.236l-.424-.006-.436-.022-.473-.025-.523-.006h-2.68v-.212zm3.231-5.744h1.41c.285 0 .547-.037.781-.109.234-.07.438-.195.605-.375.168-.179.301-.424.391-.728.09-.305.139-.693.139-1.165 0-.528-.068-.956-.209-1.277-.135-.323-.314-.566-.535-.729-.217-.162-.465-.27-.734-.323-.271-.049-.539-.074-.807-.074l-.557.007c-.188.006-.352.019-.484.039v4.734zm0 5.744l.408.037s.357.024.633.024c.482 0 .895-.047 1.234-.14.342-.091.623-.253.842-.481.221-.23.381-.533.484-.912.102-.376.152-.852.152-1.426 0-.816-.174-1.458-.52-1.93-.348-.469-.863-.705-1.547-.705h-1.688v5.533zM136.204 139.775h4.934v.214h-1.699v7.4c0 .613.053 1.13.16 1.554s.268.765.482 1.026c.215.259.48.446.795.56.318.113.682.167 1.09.167.572 0 1.078-.085 1.516-.251.438-.169.816-.47 1.133-.897.104-.132.193-.266.268-.399.078-.134.145-.288.201-.467.055-.179.098-.393.129-.642.033-.251.047-.56.047-.928v-7.123h-1.701v-.214h3.629v.214h-1.699v7.43c0 .43-.045.818-.137 1.17-.092.354-.281.719-.566 1.095-.275.368-.658.665-1.148.889-.49.225-1.141.34-1.945.34-1.227 0-2.164-.303-2.811-.905-.65-.601-.977-1.526-.977-2.771v-7.246h-1.699v-.216zM148.659 147.39h.17c.111.55.258 1.015.436 1.391.178.381.375.689.588.938.215.244.439.433.676.564.234.134.473.23.711.29.24.064.471.099.689.109l.619.015c.541 0 .988-.08 1.334-.245.35-.162.623-.37.83-.619.203-.253.348-.521.43-.813.078-.293.119-.56.119-.805 0-.358-.066-.663-.197-.92-.135-.255-.303-.471-.506-.65-.207-.179-.428-.322-.668-.436-.238-.113-.467-.2-.68-.262l-1.764-.537c-.828-.255-1.451-.59-1.875-1.008-.424-.42-.635-.981-.635-1.688 0-.458.082-.887.242-1.279.164-.394.395-.732.691-1.019.297-.283.65-.508 1.063-.673.414-.162.867-.245 1.357-.245.357 0 .654.029.896.091.238.062.447.13.619.206l.467.21c.139.06.279.09.422.09.133 0 .225-.019.268-.053.047-.037.109-.126.191-.27h.217v2.775h-.186c-.061-.371-.166-.725-.313-1.066-.15-.344-.34-.644-.574-.903-.236-.261-.52-.471-.852-.629s-.717-.237-1.156-.237c-.246 0-.516.033-.813.1-.295.065-.57.181-.826.346-.254.162-.469.378-.637.642-.17.27-.252.603-.252 1.012 0 .327.066.605.197.838.135.227.305.422.516.58.209.158.443.29.703.397.262.106.523.201.789.283l1.854.583.736.244c.295.102.584.258.863.459.281.204.523.476.721.813.201.338.299.768.299 1.286 0 .481-.09.938-.27 1.37-.178.437-.434.819-.771 1.15-.336.331-.746.599-1.225.796-.48.202-1.021.301-1.627.301l-.563-.009c-.164-.004-.316-.018-.461-.039l-.43-.067-.477-.115-.658-.214s-.438-.123-.613-.123c-.152 0-.256.032-.313.092l-.146.245h-.229v-3.292zM158.233 150.468h1.699v-10.479h-1.699v-.214h4.932v.214h-1.7v10.479h1.7v.214h-4.932zM163.991 150.468h1.701v-10.479h-1.701v-.214h3.281l5.176 8.349h.031v-8.135h-1.699v-.214h3.631v.214h-1.703v10.907h-.305l-6.449-10.28h-.03v9.852h1.7v.214h-3.633zM175.188 150.468h1.703v-10.479h-1.703v-.214h8.766v2.649h-.17c-.133-.398-.275-.748-.428-1.051-.156-.301-.338-.556-.551-.766-.217-.208-.471-.364-.768-.467-.297-.102-.652-.152-1.072-.152h-2.543v4.734h.996c.338 0 .621-.031.855-.093.236-.062.439-.177.607-.346s.311-.397.428-.689.232-.664.346-1.123h.168v4.763h-.168c-.072-.296-.146-.584-.223-.858-.076-.277-.184-.521-.322-.736-.137-.214-.32-.385-.551-.512-.229-.128-.527-.193-.895-.193h-1.242v5.532h2.895c.563 0 1.031-.121 1.402-.358.373-.242.676-.526.912-.859.234-.332.408-.678.52-1.035.113-.358.186-.652.213-.889h.17v3.355h-9.346v-.213zM186.665 147.39h.168c.111.55.258 1.015.438 1.391.176.381.373.689.588.938.215.244.438.433.676.564.234.134.473.23.711.29.238.064.471.099.689.109l.619.015c.543 0 .988-.08 1.334-.245.35-.162.621-.37.826-.619.205-.253.35-.521.432-.813.078-.293.121-.56.121-.805 0-.358-.066-.663-.199-.92-.133-.255-.303-.471-.506-.65-.203-.179-.426-.322-.666-.436-.238-.113-.467-.2-.68-.262l-1.766-.537c-.826-.255-1.451-.59-1.873-1.008-.424-.42-.637-.981-.637-1.688 0-.458.08-.887.244-1.279.164-.394.395-.732.689-1.019.297-.283.65-.508 1.064-.673.414-.162.867-.245 1.355-.245.359 0 .656.029.898.091.238.062.443.13.619.206l.467.21c.137.06.277.09.422.09.131 0 .219-.019.268-.053.047-.037.109-.126.191-.27h.213v2.775h-.184c-.059-.371-.166-.725-.313-1.066-.148-.344-.338-.644-.574-.903-.236-.261-.518-.471-.85-.629s-.717-.237-1.158-.237c-.244 0-.514.033-.813.1-.293.065-.57.181-.824.346-.256.162-.469.378-.639.642-.168.27-.25.603-.25 1.012 0 .327.064.605.197.838.133.227.305.422.514.58.211.158.445.29.703.397.262.106.523.201.791.283l1.854.583.734.244s.584.258.865.459c.281.204.521.476.719.813.203.338.301.768.301 1.286 0 .481-.09.938-.268 1.37-.182.437-.438.819-.773 1.15-.338.331-.746.599-1.227.796-.479.202-1.02.301-1.625.301l-.566-.009c-.162-.004-.314-.018-.459-.039l-.43-.067c-.141-.026-.301-.065-.475-.115l-.658-.214s-.439-.123-.611-.123c-.154 0-.26.032-.314.092-.057.06-.105.143-.146.245h-.229v-3.292zM196.881 147.39h.17c.111.55.256 1.015.436 1.391.178.381.375.689.588.938.215.244.439.433.676.564.234.134.473.23.711.29.238.064.473.099.689.109l.619.015c.543 0 .988-.08 1.334-.245.348-.162.623-.37.826-.619.207-.253.348-.521.432-.813.08-.293.121-.56.121-.805 0-.358-.066-.663-.197-.92-.135-.255-.303-.471-.508-.65-.205-.179-.426-.322-.666-.436-.238-.113-.467-.2-.682-.262l-1.762-.537c-.826-.255-1.453-.59-1.875-1.008-.424-.42-.637-.981-.637-1.688 0-.458.082-.887.244-1.279.164-.394.395-.732.691-1.019.295-.283.65-.508 1.064-.673.412-.162.865-.245 1.355-.245.357 0 .656.029.896.091.238.062.445.13.619.206l.467.21c.139.06.279.09.422.09.131 0 .223-.019.268-.053.047-.037.109-.126.191-.27h.213v2.775h-.18c-.063-.371-.17-.725-.314-1.066-.148-.344-.34-.644-.574-.903-.24-.261-.521-.471-.852-.629-.334-.158-.717-.237-1.156-.237-.246 0-.518.033-.814.1-.293.065-.568.181-.824.346-.256.162-.469.378-.639.642-.168.27-.25.603-.25 1.012 0 .327.066.605.197.838.131.227.305.422.514.58.211.158.445.29.705.397.26.106.521.201.789.283l1.854.583.734.244c.297.102.586.258.865.459.283.204.521.476.721.813.201.338.299.768.299 1.286 0 .481-.09.938-.268 1.37-.18.437-.436.819-.773 1.15-.336.331-.746.599-1.227.796-.48.202-1.02.301-1.625.301l-.564-.009c-.164-.004-.316-.018-.459-.039l-.43-.067-.475-.115-.66-.214c-.234-.082-.438-.123-.613-.123-.152 0-.254.032-.313.092-.055.06-.105.143-.146.245h-.229v-3.292zM210.667 150.468h1.701v-10.48h-1.701v-.212h2.881l.43-.009.43-.022.42-.008.42-.009c.584 0 1.123.068 1.617.208.496.138.924.333 1.285.591.363.253.648.56.854.917.203.358.307.758.307 1.195 0 .459-.121.866-.355 1.227-.234.356-.545.658-.934.901-.387.247-.84.436-1.355.567-.518.134-1.057.198-1.615.198-.145 0-.328-.011-.551-.035l-.598-.087v5.058h1.699v.214h-4.934v-.214zm3.234-5.272c.201.041.416.072.643.093.225.021.424.031.596.031.756 0 1.346-.223 1.77-.665.424-.446.637-1.117.637-2.017 0-.521-.053-.954-.152-1.302-.104-.348-.264-.622-.484-.834-.217-.209-.504-.357-.857-.436-.352-.085-.773-.124-1.262-.124l-.531.015-.357.029v5.21zM218.725 150.468h1.348l4.137-10.969h.367l4.166 10.969h1.365v.214h-4.719v-.214h1.701l-1.609-4.261h-3.551l-1.611 4.261h1.701v.214h-3.295v-.214zm4.981-8.932l-1.686 4.459h3.369l-1.683-4.459zM230.551 150.468h1.703v-10.48h-1.703v-.212h2.912l.365-.009.369-.024.369-.006.365-.009c.604 0 1.135.035 1.598.101.455.066.885.258 1.283.574.357.274.609.587.76.935.145.348.219.675.219.981 0 .154-.025.35-.082.588-.057.241-.182.488-.369.737-.188.248-.461.479-.82.687-.355.212-.83.35-1.424.422v.031c.166.021.385.06.668.115.279.058.566.153.857.283.289.132.559.309.805.529.244.22.42.502.52.848.061.206.105.438.131.697l.061.807.045.794c.018.258.047.472.088.646.057.266.156.504.289.72.135.214.346.323.643.323.133 0 .271-.026.416-.078.141-.052.27-.134.385-.245l.135.167-.176.13-.252.131c-.104.041-.23.076-.377.099-.148.025-.328.042-.545.042-.406 0-.746-.054-1.016-.154-.271-.104-.488-.253-.652-.453-.164-.199-.285-.446-.361-.734-.074-.292-.129-.632-.16-1.021l-.105-1.393c-.043-.511-.145-.91-.307-1.195-.164-.286-.355-.496-.574-.628-.223-.134-.449-.212-.684-.236-.234-.027-.438-.039-.611-.039h-1.533v5.53h1.699v.214h-4.932v-.215zm3.233-5.744h1.41c.285 0 .547-.035.779-.109.236-.072.439-.195.605-.375.17-.177.301-.421.391-.728.092-.307.141-.689.141-1.165 0-.53-.07-.956-.209-1.277-.137-.323-.316-.566-.535-.729s-.467-.271-.736-.321c-.27-.051-.539-.076-.805-.076l-.559.007c-.188.004-.35.019-.482.037v4.736zM243.467 150.468h1.699v-10.479h-.891c-.205 0-.434.017-.688.054-.258.034-.512.136-.775.298-.26.162-.512.422-.75.773-.24.354-.445.84-.621 1.463h-.168v-2.802h9.314v2.802h-.168c-.174-.623-.383-1.108-.621-1.463-.24-.352-.49-.611-.75-.773-.262-.162-.52-.264-.775-.298-.256-.037-.482-.054-.688-.054h-.889v10.479h1.701v.214h-4.932v-.214zM251.491 150.468h1.699v-10.479h-1.699v-.214h3.279l5.176 8.349h.031v-8.135h-1.701v-.214h3.631v.214h-1.699v10.907h-.307l-6.447-10.28h-.034v9.852h1.702v.214h-3.631zM262.688 150.468h1.701v-10.479h-1.701v-.214h8.764v2.649h-.168c-.135-.398-.275-.748-.43-1.051-.152-.301-.336-.556-.553-.766-.213-.208-.467-.364-.766-.467-.293-.102-.65-.152-1.07-.152h-2.543v4.734h.994c.338 0 .623-.031.857-.093.236-.062.438-.177.607-.346.168-.169.309-.397.428-.689.117-.292.232-.664.344-1.123h.168v4.763h-.168c-.07-.296-.145-.584-.221-.858-.076-.277-.184-.521-.324-.736-.135-.214-.32-.385-.549-.512-.232-.128-.529-.193-.896-.193h-1.24v5.532h2.893c.563 0 1.029-.121 1.402-.358.375-.242.68-.526.914-.859.234-.332.406-.678.52-1.035.113-.358.184-.652.213-.889h.168v3.355h-9.344v-.213zM273.473 150.468h1.701v-10.48h-1.701v-.212h2.91l.369-.009.367-.024.367-.006.367-.009c.604 0 1.135.035 1.594.101.461.066.889.258 1.287.574.357.274.609.587.758.935s.223.675.223.981c0 .154-.027.35-.086.588-.055.241-.178.488-.367.737-.189.248-.461.479-.816.687-.361.212-.834.35-1.426.422v.031c.162.021.385.06.666.115.279.058.568.153.855.283.293.132.561.309.805.529.246.22.42.502.521.848.063.206.105.438.131.697l.063.807.045.794c.016.258.043.472.084.646.063.266.158.504.291.72.133.214.35.323.643.323.135 0 .27-.026.414-.078s.271-.134.383-.245l.137.167-.174.13-.252.131c-.104.041-.229.076-.375.099-.15.025-.33.042-.547.042-.406 0-.748-.054-1.018-.154-.271-.104-.488-.253-.652-.453-.16-.199-.281-.446-.359-.734-.076-.292-.131-.632-.158-1.021l-.109-1.393c-.039-.511-.145-.91-.307-1.195-.162-.286-.354-.496-.574-.628-.221-.134-.447-.212-.682-.236-.234-.027-.439-.039-.613-.039h-1.529v5.53h1.699v.214h-4.934v-.215zm3.235-5.744h1.406c.287 0 .547-.035.781-.109.234-.072.438-.195.605-.375.168-.177.301-.421.391-.728.092-.307.139-.689.139-1.165 0-.53-.068-.956-.207-1.277-.137-.323-.318-.566-.535-.729-.219-.162-.467-.271-.738-.321-.27-.051-.537-.076-.803-.076l-.559.007-.48.037v4.736zM285.221 147.39h.168c.113.55.26 1.015.439 1.391.178.381.375.689.59.938.213.244.438.433.674.564.232.134.471.23.713.29.238.064.469.099.688.109l.621.015c.543 0 .984-.08 1.332-.245.348-.162.621-.37.828-.619.205-.253.346-.521.428-.813.082-.293.123-.56.123-.805 0-.358-.066-.663-.199-.92-.133-.255-.301-.471-.504-.65-.207-.179-.428-.322-.668-.436s-.467-.2-.682-.262l-1.762-.537c-.826-.255-1.453-.59-1.877-1.008-.424-.42-.633-.981-.633-1.688 0-.458.078-.887.242-1.279.164-.394.393-.732.691-1.019.295-.283.65-.508 1.063-.673.412-.162.865-.245 1.357-.245.355 0 .656.029.895.091.24.062.447.13.621.206l.467.21c.139.06.279.09.42.09.135 0 .223-.019.27-.053.049-.037.109-.126.191-.27h.215v2.775h-.186c-.057-.371-.164-.725-.313-1.066-.148-.344-.34-.644-.574-.903-.236-.261-.518-.471-.85-.629-.334-.158-.719-.237-1.156-.237-.246 0-.516.033-.813.1-.299.065-.57.181-.828.346-.256.162-.467.378-.635.642-.17.27-.252.603-.252 1.012 0 .327.066.605.197.838.133.227.305.422.514.58s.445.29.705.397c.262.106.523.201.789.283l1.854.583.736.244c.295.102.584.258.863.459.283.204.523.476.721.813.199.338.301.768.301 1.286 0 .481-.094.938-.27 1.37-.18.437-.438.819-.773 1.15-.338.331-.748.599-1.225.796-.482.202-1.023.301-1.625.301l-.568-.009c-.16-.004-.314-.018-.457-.039l-.432-.067c-.141-.026-.301-.065-.473-.115l-.66-.214c-.234-.082-.439-.123-.611-.123-.152 0-.258.032-.316.092-.055.06-.104.143-.143.245h-.232v-3.292z"/></svg>