<svg xmlns="http://www.w3.org/2000/svg" width="114" height="109" viewBox="0 0 114 109"><path fill="#9BD2C5" stroke="#fff" stroke-miterlimit="10" d="M45.726 25.524l3.757 11.714c-3.973 1.266-7.679 3.571-10.688 6.887-.979 1.08-1.85 2.225-2.588 3.412l-10.416-6.561c1.135-1.786 2.429-3.493 3.896-5.109 4.52-4.983 10.08-8.43 16.039-10.343zM49.482 37.238l3.756 11.705c-1.985.639-3.838 1.791-5.344 3.447-.484.536-.918 1.107-1.294 1.707l-10.394-6.561c.738-1.188 1.608-2.332 2.588-3.412 3.01-3.315 6.716-5.621 10.688-6.886z"/><path fill="#5491CD" stroke="#fff" stroke-miterlimit="10" d="M15.396 34.425l10.395 6.551c-4.733 7.482-6.484 16.236-5.326 24.652l-12.162 1.664h-.01c-1.547-11.21.789-22.887 7.103-32.867zM25.791 40.976l10.416 6.561c-3.164 4.994-4.338 10.828-3.563 16.438l-12.18 1.654c-1.157-8.417.594-17.171 5.327-24.653zM36.207 47.537l10.394 6.561c-1.581 2.486-2.167 5.408-1.775 8.213l-12.181 1.664c-.776-5.61.398-11.444 3.562-16.438zM40.49 78.847l-8.257 9.099c-6.69-6.071-10.64-14.026-11.769-22.317l12.18-1.654c.751 5.523 3.39 10.827 7.846 14.872zM48.749 69.746l-8.259 9.102c-4.456-4.045-7.096-9.35-7.846-14.873l12.181-1.664c.38 2.757 1.689 5.409 3.924 7.435zM56.518 72.931l-.475 12.284c-5.569-.212-11.096-2.325-15.553-6.368l8.259-9.102c2.222 2.029 4.989 3.077 7.769 3.186z"/><path fill="#455AA5" stroke="#fff" stroke-miterlimit="10" d="M72.059 80.078l7.537 9.721c-6.988 5.438-15.53 8.026-24.02 7.691l.467-12.274c5.659.217 11.352-1.506 16.016-5.138zM64.532 70.369l7.526 9.709c-4.664 3.633-10.356 5.355-16.016 5.138l.475-12.284c2.833.109 5.683-.749 8.015-2.563zM69.008 63.253l12.015 2.604c-.865 4.085-2.8 7.998-5.817 11.313-.98 1.08-2.036 2.047-3.146 2.906l-7.526-9.709c.56-.432 1.087-.92 1.573-1.455 1.502-1.657 2.47-3.621 2.901-5.659zM100.5 37.743c5.429 10.275 6.979 22.128 4.56 33.333l-12.012-2.604c1.815-8.404.646-17.292-3.419-25.006l10.841-5.713.03-.01zM89.629 43.466c4.064 7.714 5.234 16.602 3.419 25.006l-12.025-2.614c1.224-5.6.444-11.526-2.265-16.668l10.871-5.724zM78.758 49.19c2.709 5.142 3.488 11.068 2.265 16.668l-12.015-2.604c.613-2.806.224-5.759-1.131-8.33l10.881-5.734z"/><path fill="#9BD2C5" stroke="#fff" stroke-miterlimit="10" d="M78.758 49.19l-10.881 5.733c-.651-1.238-1.523-2.377-2.625-3.375-1.092-.99-2.317-1.748-3.604-2.286l4.643-11.373c2.581 1.054 5.026 2.569 7.219 4.559s3.937 4.276 5.248 6.742zM75.588 15.128l-.009.03-4.635 11.354c-8.072-3.309-17.031-3.611-25.219-.989l-3.755-11.694v-.01c10.919-3.491 22.856-3.086 33.618 1.309zM70.944 26.513l-4.653 11.376c-5.381-2.199-11.354-2.401-16.809-.651l-3.757-11.714c8.188-2.622 17.147-2.319 25.219.989zM66.291 37.889l-4.643 11.373c-2.691-1.099-5.678-1.2-8.41-.319l-3.756-11.705c5.456-1.75 11.428-1.548 16.809.651z"/><path fill="#575756" stroke="#575756" stroke-miterlimit="10" d="M66.928 60.846c-.11 5.485-4.646 9.84-10.13 9.729-5.483-.111-9.839-4.646-9.728-10.131.11-5.482 4.646-9.837 10.128-9.729 5.487.114 9.84 4.649 9.73 10.131z"/><g fill="#fff"><path d="M52.029 58.296l.244.456.291.589.3.648.281.625.253-.635.273-.661.269-.601.224-.466.806-.017c.044.26.083.551.122.874.039.322.074.657.106 1.007l.089 1.049.073.989-.86.019-.071-1.246c-.027-.449-.065-.9-.111-1.357l-.219.531-.233.583-.226.558-.185.454-.616.013-.203-.447-.247-.547-.258-.573-.239-.522c-.03.458-.048.912-.059 1.362l-.019 1.247-.861.018.035-.992.046-1.053c.017-.35.038-.688.063-1.009.024-.325.056-.618.086-.879l.846-.017zM56.988 62.207l-.322-.012-.33-.046-.291-.069-.205-.07.149-.705.381.126c.153.044.342.063.571.059.259-.006.448-.058.567-.159.12-.101.178-.233.175-.399-.002-.103-.025-.188-.071-.257-.046-.069-.105-.125-.183-.168-.076-.041-.166-.068-.271-.084l-.331-.018-.329.006-.014-.68.374-.008.24-.028.206-.079.142-.152c.034-.062.052-.141.048-.234l-.048-.186-.118-.129-.168-.074-.189-.021c-.163.004-.313.031-.449.084s-.262.115-.373.188l-.313-.61.21-.123.268-.12.313-.09c.11-.025.229-.038.354-.04.229-.006.43.017.599.067.17.053.31.127.422.226.11.097.194.212.25.345.057.133.086.28.087.436.003.154-.036.307-.12.453s-.197.26-.344.339c.206.079.366.199.48.36.115.164.174.36.179.59.005.182-.024.35-.08.504-.058.156-.149.29-.276.403-.124.114-.285.206-.484.271-.2.063-.434.098-.706.104zM63.063 60.033c.007.275-.022.524-.086.747-.063.222-.155.417-.274.586-.117.169-.262.31-.43.423s-.354.195-.557.25c.021.074.063.135.129.182.064.045.147.082.246.109l.344.063.423.031-.167.648c-.297-.005-.549-.029-.759-.072s-.391-.104-.538-.185c-.146-.081-.263-.18-.352-.3-.086-.119-.155-.257-.203-.414-.233-.025-.453-.086-.656-.182-.202-.097-.376-.228-.528-.396-.15-.166-.271-.368-.358-.604s-.135-.506-.141-.808c-.008-.335.04-.634.142-.89.101-.257.237-.475.414-.652.175-.177.38-.311.614-.403.234-.091.484-.141.742-.146.268-.005.521.033.762.115s.451.207.631.377c.182.172.327.383.434.636.107.254.164.549.168.885zm-2.996.06c.007.191.03.365.081.52.052.154.123.286.214.396.09.107.2.191.329.25.132.058.278.086.444.082.163-.004.312-.037.438-.1.128-.064.234-.152.322-.264.088-.115.152-.248.196-.404s.064-.33.061-.522c-.003-.192-.031-.368-.082-.522-.051-.156-.12-.289-.211-.398s-.204-.193-.335-.251-.279-.085-.441-.081c-.166.002-.313.037-.439.102-.128.065-.234.154-.32.266-.087.115-.152.25-.195.408-.045.156-.066.33-.062.518z"/></g></svg>