<?xml version="1.0" encoding="utf-8"?>
<!-- Generator: Adobe Illustrator 23.0.1, SVG Export Plug-In . SVG Version: 6.00 Build 0)  -->
<svg version="1.1" id="Layer_1" xmlns="http://www.w3.org/2000/svg" xmlns:xlink="http://www.w3.org/1999/xlink" x="0px" y="0px"
	 width="320.7" height="213.076" viewBox="0 0 320.7 213.1" style="enable-background:new 0 0 320.7 213.1;" xml:space="preserve">
<style type="text/css">
	.st0{fill:#4F61AB;}
	.st1{fill:#231F20;}
</style>
<g>
	<path class="st0" d="M160.4,57.4c-13.1,0-25.5,5.1-34.8,14.4c-9.3,9.3-14.4,21.6-14.4,34.8s5.1,25.5,14.4,34.8
		c9.3,9.3,21.6,14.4,34.8,14.4s25.5-5.1,34.8-14.4c9.3-9.3,14.4-21.6,14.4-34.8s-5.1-25.5-14.4-34.8
		C185.9,62.5,173.5,57.4,160.4,57.4L160.4,57.4z M160.4,160c-14.3,0-27.7-5.6-37.8-15.7c-10.1-10.1-15.7-23.6-15.7-37.8
		c0-14.3,5.6-27.7,15.7-37.8c10.1-10.1,23.6-15.7,37.8-15.7c14.3,0,27.7,5.6,37.8,15.7c10.1,10.1,15.7,23.6,15.7,37.8
		c0,14.3-5.6,27.7-15.7,37.8C188.1,154.5,174.7,160,160.4,160L160.4,160z"/>
</g>
<g>
	<path class="st1" d="M156.2,91.4c4.4,0,8.8,0,13.1,0c0,0.2-0.1,0.4-0.1,0.6c0,9.7,0,19.3,0,29c0,0.2,0,0.4,0,0.6
		c-0.2,0-0.3,0-0.5,0c-3.5,0-7,0-10.4,0c-1.2,0-2.4,0-3.5-0.1c-6.6-0.8-11.7-5.4-13.1-11.5c-0.1-0.6-0.3-1.2-0.4-1.7
		c0-1.2,0-2.4,0-3.6c0.1-0.1,0.1-0.2,0.1-0.3c0.4-3,1.6-5.6,3.6-8c2.4-2.8,5.6-4.2,9.2-4.8C154.9,91.6,155.6,91.6,156.2,91.4z
		 M164.9,95.4c-3,0-5.9-0.1-8.9,0c-3.3,0.2-6,1.6-8.1,4.2c-2.3,3-2.6,6.3-1.7,9.8c1,4.4,4.5,7.8,10.2,8.2c2.8,0.2,5.5,0.1,8.3,0.1
		c0.1,0,0.1,0,0.2-0.1C164.9,110.2,164.9,102.8,164.9,95.4z"/>
	<path class="st0" d="M177.5,98.3c-0.5-0.1-1-0.1-1.5-0.1c-1.3-0.2-2-1-2-2.4c0.1-1.2,1-2,2.1-2.1c1.7-0.1,2.8,1,3.1,2.9
		c0.2,1.7-0.2,3.3-1.4,4.6c-1,1.2-2.2,2-3.6,2.8c-0.2-0.4-0.4-0.8-0.6-1.2C175.5,101.8,177.3,100.8,177.5,98.3z"/>
</g>
</svg>
